<?xml version="1.0" encoding="UTF-8"?>
<svg xmlns="http://www.w3.org/2000/svg"
  xmlns:xlink="http://www.w3.org/1999/xlink" width="22px" height="22px" viewBox="0 0 22 22" version="1.1">
  <g id="surface1">
    <path style=" stroke:none;fill-rule:nonzero;fill:rgb(100%,100%,100%);fill-opacity:1;" d="M 4.8125 17.53125 C 4.433594 17.53125 4.089844 17.460938 3.746094 17.359375 C 2.335938 16.878906 1.375 15.570312 1.375 14.09375 C 1.375 13.097656 1.789062 12.167969 2.542969 11.515625 C 2.75 11.34375 2.957031 11.207031 3.195312 11.070312 L 3.4375 10.277344 C 4.023438 8.285156 5.84375 6.910156 7.90625 6.910156 C 8.113281 6.910156 8.320312 6.910156 8.558594 6.976562 C 8.765625 7.011719 8.9375 7.046875 9.109375 7.082031 L 9.210938 6.910156 C 10.039062 5.398438 11.617188 4.46875 13.335938 4.46875 C 15.949219 4.46875 18.046875 6.601562 18.046875 9.179688 C 18.046875 9.316406 18.046875 9.417969 18.011719 9.554688 L 18.011719 9.660156 C 18.21875 9.726562 18.425781 9.832031 18.597656 9.933594 C 19.867188 10.65625 20.625 11.996094 20.625 13.476562 C 20.625 15.367188 19.320312 17.015625 17.460938 17.429688 C 17.152344 17.496094 16.84375 17.53125 16.570312 17.53125 Z M 4.8125 17.53125 "/>
    <path style=" stroke:none;fill-rule:nonzero;fill:rgb(45.882353%,83.921569%,100%);fill-opacity:1;" d="M 13.304688 5.15625 C 15.539062 5.15625 17.324219 6.976562 17.324219 9.179688 L 17.324219 9.488281 C 16.398438 9.554688 15.539062 9.933594 14.882812 10.519531 C 15.367188 10.242188 15.949219 10.070312 16.570312 10.070312 C 16.808594 10.070312 17.015625 10.105469 17.222656 10.140625 C 17.601562 10.210938 17.945312 10.347656 18.253906 10.519531 C 19.25 11.101562 19.9375 12.203125 19.9375 13.441406 C 19.9375 15.054688 18.804688 16.398438 17.324219 16.742188 C 17.085938 16.808594 16.84375 16.84375 16.570312 16.84375 L 4.8125 16.84375 C 4.503906 16.84375 4.226562 16.808594 3.953125 16.707031 C 2.851562 16.328125 2.0625 15.296875 2.0625 14.09375 C 2.0625 13.269531 2.441406 12.511719 2.992188 12.03125 C 3.265625 11.789062 3.539062 11.617188 3.882812 11.515625 C 4.160156 11.414062 4.46875 11.34375 4.777344 11.34375 C 5.671875 11.34375 6.460938 11.757812 6.945312 12.410156 L 6.976562 12.410156 C 6.394531 11.34375 5.292969 10.585938 4.023438 10.449219 C 4.503906 8.800781 6.015625 7.5625 7.835938 7.5625 C 8.042969 7.5625 8.214844 7.597656 8.386719 7.597656 C 8.765625 7.664062 9.109375 7.734375 9.417969 7.90625 C 10.621094 8.457031 11.515625 9.589844 11.722656 10.964844 L 11.722656 10.929688 C 11.722656 9.382812 10.929688 8.007812 9.726562 7.21875 C 10.484375 5.980469 11.789062 5.15625 13.304688 5.15625 M 13.304688 3.78125 C 11.445312 3.78125 9.726562 4.742188 8.730469 6.289062 C 8.695312 6.289062 8.664062 6.289062 8.628906 6.257812 C 8.351562 6.222656 8.113281 6.1875 7.871094 6.1875 C 5.5 6.1875 3.402344 7.769531 2.75 10.070312 L 2.578125 10.621094 C 2.40625 10.726562 2.234375 10.863281 2.097656 11 C 1.203125 11.757812 0.6875 12.890625 0.6875 14.09375 C 0.6875 15.882812 1.820312 17.460938 3.507812 18.011719 C 3.917969 18.148438 4.367188 18.21875 4.8125 18.21875 L 16.570312 18.21875 C 16.914062 18.21875 17.289062 18.183594 17.632812 18.082031 C 19.800781 17.566406 21.3125 15.675781 21.3125 13.441406 C 21.3125 11.757812 20.382812 10.175781 18.941406 9.316406 L 18.734375 9.210938 L 18.734375 9.179688 C 18.699219 6.222656 16.292969 3.78125 13.304688 3.78125 Z M 13.304688 3.78125 "/>
  </g>
</svg>
