<?xml version="1.0" encoding="UTF-8"?>
<svg xmlns="http://www.w3.org/2000/svg"
  xmlns:xlink="http://www.w3.org/1999/xlink" width="18px" height="18px" viewBox="0 0 18 18" version="1.1">
  <g id="surface1">
    <path style=" stroke:none;fill-rule:nonzero;fill:rgb(0.392157%,60.784314%,77.647059%);fill-opacity:1;" d="M 17.550781 7.328125 C 16.945312 6.976562 16.144531 6.933594 15.46875 7.128906 C 15.382812 6.398438 14.90625 5.765625 14.34375 5.316406 L 14.117188 5.132812 L 13.921875 5.359375 C 13.542969 5.792969 13.429688 6.523438 13.484375 7.085938 C 13.527344 7.496094 13.65625 7.917969 13.90625 8.253906 C 13.710938 8.367188 13.5 8.523438 13.304688 8.59375 C 12.910156 8.734375 12.472656 8.875 12.050781 8.875 L 11.109375 8.875 L 11.109375 6.890625 L 9.28125 6.890625 L 9.28125 3.375 L 7.171875 3.375 L 7.171875 5.0625 L 3.65625 5.0625 L 3.65625 6.890625 L 1.828125 6.890625 L 1.828125 8.859375 L 0.253906 8.859375 L 0.226562 9.070312 C 0.15625 9.96875 0.265625 10.84375 0.648438 11.671875 L 0.800781 11.980469 L 0.816406 12.007812 C 1.925781 13.894531 3.867188 14.679688 5.992188 14.679688 C 10.097656 14.679688 13.484375 12.839844 15.03125 8.972656 C 16.074219 9.027344 17.140625 8.71875 17.648438 7.71875 L 17.773438 7.46875 Z M 3.9375 5.484375 L 5.34375 5.484375 L 5.34375 7.03125 L 3.9375 7.03125 Z M 5.78125 11.699219 C 5.78125 11.9375 5.582031 12.136719 5.34375 12.136719 C 5.105469 12.136719 4.90625 11.9375 4.90625 11.699219 C 4.90625 11.460938 5.105469 11.265625 5.34375 11.265625 C 5.582031 11.277344 5.78125 11.460938 5.78125 11.699219 Z M 3.9375 7.3125 L 5.34375 7.3125 L 5.34375 8.859375 L 3.9375 8.859375 Z M 2.109375 7.3125 L 3.65625 7.3125 L 3.65625 8.859375 L 2.109375 8.859375 Z M 6.003906 14.371094 C 3.78125 14.359375 2.585938 13.613281 1.601562 12.628906 C 1.898438 12.640625 2.179688 12.65625 2.433594 12.65625 C 2.65625 12.65625 2.882812 12.65625 3.09375 12.640625 C 3.640625 12.613281 4.121094 12.542969 4.515625 12.429688 C 4.835938 13.175781 5.429688 13.867188 6.484375 14.371094 Z M 7.171875 8.859375 L 5.625 8.859375 L 5.625 7.3125 L 7.171875 7.3125 Z M 7.171875 7.03125 L 5.625 7.03125 L 5.625 5.484375 L 7.171875 5.484375 Z M 9 8.859375 L 7.453125 8.859375 L 7.453125 7.3125 L 9 7.3125 Z M 9 7.03125 L 7.453125 7.03125 L 7.453125 5.484375 L 9 5.484375 Z M 9 5.203125 L 7.453125 5.203125 L 7.453125 3.65625 L 9 3.65625 Z M 10.828125 8.859375 L 9.28125 8.859375 L 9.28125 7.3125 L 10.828125 7.3125 Z M 5.457031 11.417969 C 5.429688 11.40625 5.386719 11.390625 5.34375 11.390625 C 5.175781 11.390625 5.035156 11.53125 5.035156 11.699219 C 5.035156 11.867188 5.175781 12.007812 5.34375 12.007812 C 5.511719 12.007812 5.652344 11.867188 5.652344 11.699219 C 5.652344 11.65625 5.640625 11.617188 5.625 11.585938 C 5.597656 11.628906 5.570312 11.65625 5.511719 11.65625 C 5.441406 11.65625 5.386719 11.601562 5.386719 11.53125 C 5.398438 11.476562 5.429688 11.433594 5.457031 11.417969 Z M 5.457031 11.417969 "/>
  </g>
</svg>
