<?xml version="1.0" encoding="UTF-8"?>
<svg xmlns="http://www.w3.org/2000/svg" xmlns:xlink="http://www.w3.org/1999/xlink" width="20px" height="20px" viewBox="0 0 20 20" version="1.1">
<g id="surface1">
<path style=" stroke:none;fill-rule:nonzero;fill:rgb(15.294118%,47.843137%,62.352941%);fill-opacity:1;" d="M 9.882812 1.296875 C 9.96875 1.238281 10.078125 1.234375 10.164062 1.285156 C 10.289062 1.371094 10.382812 1.492188 10.433594 1.632812 C 10.546875 1.898438 10.617188 2.183594 10.636719 2.476562 C 10.683594 2.9375 10.648438 3.402344 10.53125 3.851562 C 11.546875 3.945312 12.523438 4.289062 13.378906 4.851562 C 13.515625 4.464844 13.714844 4.105469 13.96875 3.789062 C 14.1875 3.492188 14.457031 3.242188 14.769531 3.050781 C 14.90625 2.957031 15.074219 2.925781 15.234375 2.964844 C 15.363281 3.035156 15.433594 3.175781 15.414062 3.324219 C 15.398438 3.605469 15.320312 3.882812 15.1875 4.136719 C 14.941406 4.644531 14.585938 5.089844 14.144531 5.449219 C 14.589844 5.851562 14.972656 6.316406 15.285156 6.828125 L 14.429688 7.347656 C 13.492188 5.796875 11.820312 4.84375 10.007812 4.816406 C 8.195312 4.792969 6.496094 5.699219 5.511719 7.222656 L 4.671875 6.679688 C 4.992188 6.1875 5.375 5.746094 5.816406 5.359375 C 5.449219 5.035156 5.148438 4.644531 4.921875 4.207031 C 4.773438 3.941406 4.683594 3.648438 4.65625 3.34375 C 4.636719 3.207031 4.691406 3.066406 4.800781 2.976562 C 4.933594 2.921875 5.082031 2.929688 5.207031 3 C 5.476562 3.136719 5.714844 3.324219 5.910156 3.554688 C 6.226562 3.902344 6.480469 4.304688 6.660156 4.742188 C 7.527344 4.210938 8.511719 3.894531 9.527344 3.828125 C 9.417969 3.386719 9.382812 2.929688 9.425781 2.480469 C 9.449219 2.195312 9.515625 1.914062 9.625 1.648438 C 9.675781 1.507812 9.765625 1.386719 9.882812 1.296875 Z M 9.882812 1.296875 "/>
<path style=" stroke:none;fill-rule:nonzero;fill:rgb(15.294118%,47.843137%,62.352941%);fill-opacity:1;" d="M 1.59375 7.875 L 2.796875 7.875 C 2.796875 8.441406 2.796875 9.003906 2.796875 9.570312 L 4.15625 9.570312 C 4.15625 9.007812 4.15625 8.441406 4.15625 7.875 L 5.363281 7.875 C 5.363281 9.394531 5.363281 10.914062 5.363281 12.429688 L 4.15625 12.429688 C 4.15625 11.828125 4.15625 11.226562 4.15625 10.625 L 2.796875 10.625 C 2.796875 11.226562 2.796875 11.828125 2.796875 12.429688 L 1.59375 12.429688 Z M 1.59375 7.875 "/>
<path style=" stroke:none;fill-rule:nonzero;fill:rgb(15.294118%,47.843137%,62.352941%);fill-opacity:1;" d="M 6.34375 7.875 L 9.289062 7.875 L 9.289062 8.882812 L 7.550781 8.882812 L 7.550781 9.597656 L 9.035156 9.597656 C 9.035156 9.933594 9.035156 10.269531 9.035156 10.609375 L 7.550781 10.609375 L 7.550781 11.421875 L 9.359375 11.421875 C 9.359375 11.757812 9.359375 12.09375 9.359375 12.429688 L 6.34375 12.429688 Z M 6.34375 7.875 "/>
<path style=" stroke:none;fill-rule:nonzero;fill:rgb(15.294118%,47.843137%,62.352941%);fill-opacity:1;" d="M 10.261719 7.875 L 11.464844 7.875 L 11.464844 11.421875 L 13.1875 11.421875 C 13.1875 11.757812 13.1875 12.09375 13.1875 12.429688 L 10.261719 12.429688 Z M 10.261719 7.875 "/>
<path style=" stroke:none;fill-rule:nonzero;fill:rgb(15.294118%,47.843137%,62.352941%);fill-opacity:1;" d="M 13.980469 7.875 L 15.269531 7.875 C 15.46875 8.417969 15.667969 8.964844 15.871094 9.507812 C 16.003906 9.847656 16.089844 10.203125 16.199219 10.550781 C 16.222656 10.519531 16.238281 10.488281 16.246094 10.449219 C 16.316406 10.207031 16.390625 9.960938 16.46875 9.71875 C 16.683594 9.105469 16.898438 8.488281 17.117188 7.875 L 18.40625 7.875 L 18.40625 12.429688 L 17.3125 12.429688 C 17.292969 11.730469 17.308594 11.03125 17.363281 10.332031 C 17.390625 10.035156 17.4375 9.742188 17.464844 9.445312 C 17.429688 9.484375 17.40625 9.535156 17.394531 9.585938 C 17.117188 10.417969 16.808594 11.242188 16.496094 12.0625 C 16.28125 12.058594 16.070312 12.0625 15.855469 12.0625 C 15.671875 11.566406 15.488281 11.070312 15.304688 10.578125 C 15.195312 10.265625 15.09375 9.945312 14.988281 9.628906 C 14.972656 9.566406 14.945312 9.503906 14.90625 9.449219 C 14.988281 10.019531 15.039062 10.597656 15.058594 11.171875 C 15.058594 11.59375 15.058594 12.011719 15.058594 12.433594 L 13.980469 12.433594 Z M 13.980469 7.875 "/>
<path style=" stroke:none;fill-rule:nonzero;fill:rgb(15.294118%,47.843137%,62.352941%);fill-opacity:1;" d="M 4.792969 13.625 C 5.066406 13.433594 5.339844 13.242188 5.613281 13.054688 C 6.597656 14.46875 8.214844 15.3125 9.9375 15.308594 C 11.660156 15.308594 13.277344 14.460938 14.257812 13.046875 L 15.082031 13.617188 C 14.828125 13.976562 14.539062 14.3125 14.21875 14.617188 C 14.601562 14.945312 14.917969 15.347656 15.148438 15.796875 C 15.296875 16.0625 15.386719 16.355469 15.414062 16.660156 C 15.4375 16.804688 15.375 16.949219 15.253906 17.035156 C 15.09375 17.082031 14.925781 17.054688 14.789062 16.964844 C 14.484375 16.785156 14.21875 16.546875 14.003906 16.265625 C 13.757812 15.960938 13.558594 15.621094 13.414062 15.253906 C 12.5625 15.824219 11.582031 16.175781 10.5625 16.277344 C 10.632812 16.582031 10.660156 16.898438 10.652344 17.214844 C 10.652344 17.585938 10.589844 17.957031 10.460938 18.304688 C 10.40625 18.460938 10.308594 18.597656 10.179688 18.703125 C 10.085938 18.769531 9.957031 18.765625 9.863281 18.691406 C 9.726562 18.570312 9.625 18.410156 9.574219 18.230469 C 9.429688 17.785156 9.378906 17.316406 9.414062 16.847656 C 9.425781 16.660156 9.453125 16.476562 9.492188 16.292969 C 8.472656 16.21875 7.484375 15.898438 6.613281 15.359375 C 6.414062 15.816406 6.125 16.230469 5.773438 16.585938 C 5.585938 16.78125 5.363281 16.933594 5.109375 17.03125 C 4.980469 17.09375 4.824219 17.0625 4.726562 16.957031 C 4.644531 16.789062 4.628906 16.59375 4.683594 16.414062 C 4.808594 15.964844 5.019531 15.542969 5.3125 15.175781 C 5.441406 15.007812 5.585938 14.847656 5.742188 14.703125 C 5.386719 14.378906 5.066406 14.019531 4.792969 13.625 Z M 4.792969 13.625 "/>
</g>
</svg>
