<?xml version="1.0" encoding="UTF-8"?>
<svg xmlns="http://www.w3.org/2000/svg" xmlns:xlink="http://www.w3.org/1999/xlink" width="19px" height="20px" viewBox="0 0 19 19" version="1.1">
<g id="surface1">
<path style=" stroke:none;fill-rule:nonzero;fill:rgb(0%,73.72549%,94.901961%);fill-opacity:1;" d="M 9.609375 0 L 0 11.023438 L 9.609375 19.003906 L 18.929688 10.988281 Z M 9.429688 4.957031 C 10.214844 4.957031 10.855469 5.570312 10.855469 6.324219 C 10.855469 6.660156 10.722656 6.96875 10.511719 7.203125 L 12.625 9.554688 C 12.863281 9.386719 13.15625 9.296875 13.476562 9.296875 C 14.261719 9.296875 14.902344 9.910156 14.902344 10.660156 C 14.902344 11.410156 14.261719 12.007812 13.476562 12.007812 C 13.011719 12.007812 12.613281 11.800781 12.355469 11.472656 L 10.691406 12.871094 C 10.792969 13.058594 10.855469 13.253906 10.855469 13.476562 C 10.855469 14.226562 10.214844 14.839844 9.429688 14.839844 C 8.644531 14.839844 8 14.226562 8 13.476562 C 8 13.171875 8.113281 12.890625 8.289062 12.664062 L 7.042969 11.574219 C 6.785156 11.84375 6.410156 12.007812 5.996094 12.007812 C 5.210938 12.007812 4.570312 11.410156 4.570312 10.660156 C 4.570312 9.910156 5.210938 9.296875 5.996094 9.296875 C 6.171875 9.296875 6.347656 9.324219 6.503906 9.382812 L 8.34375 7.203125 C 8.132812 6.96875 8 6.660156 8 6.324219 C 8 5.570312 8.644531 4.957031 9.429688 4.957031 Z M 8.742188 7.515625 L 6.953125 9.65625 C 7.238281 9.90625 7.425781 10.261719 7.425781 10.660156 C 7.425781 10.847656 7.386719 11.015625 7.316406 11.179688 L 8.632812 12.351562 C 8.859375 12.207031 9.132812 12.113281 9.429688 12.113281 C 9.832031 12.113281 10.199219 12.269531 10.457031 12.527344 L 12.136719 11.09375 C 12.085938 10.953125 12.066406 10.816406 12.066406 10.660156 C 12.066406 10.390625 12.140625 10.128906 12.28125 9.917969 L 10.097656 7.515625 C 9.898438 7.617188 9.671875 7.6875 9.429688 7.6875 C 9.179688 7.6875 8.945312 7.621094 8.742188 7.515625 Z M 8.742188 7.515625 "/>
</g>
</svg>
