<?xml version="1.0" encoding="UTF-8"?>
<svg xmlns="http://www.w3.org/2000/svg" xmlns:xlink="http://www.w3.org/1999/xlink" width="25px" height="25px" viewBox="0 0 25 25" version="1.1">
<g id="surface1">
<path style=" stroke:none;fill-rule:nonzero;fill:rgb(40.784314%,88.235294%,99.215686%);fill-opacity:1;" d="M 18.082031 7.523438 L 18.082031 18.628906 C 18.082031 18.796875 17.980469 18.933594 17.855469 18.933594 L 8.179688 18.933594 C 8.050781 18.933594 7.949219 18.796875 7.949219 18.628906 L 7.949219 7.523438 C 7.949219 7.441406 7.972656 7.363281 8.015625 7.304688 C 8.058594 7.25 8.117188 7.214844 8.179688 7.214844 L 17.855469 7.214844 C 17.914062 7.214844 17.972656 7.25 18.015625 7.304688 C 18.058594 7.363281 18.082031 7.441406 18.082031 7.523438 Z M 18.082031 7.523438 "/>
<path style=" stroke:none;fill-rule:nonzero;fill:rgb(3.529412%,24.705882%,40.784314%);fill-opacity:1;" d="M 17.855469 19.015625 L 8.179688 19.015625 C 8.019531 19.015625 7.886719 18.84375 7.886719 18.628906 L 7.886719 7.523438 C 7.886719 7.308594 8.015625 7.132812 8.179688 7.132812 L 17.855469 7.132812 C 18.015625 7.132812 18.144531 7.308594 18.144531 7.523438 L 18.144531 18.628906 C 18.144531 18.84375 18.015625 19.015625 17.855469 19.015625 Z M 8.179688 7.300781 C 8.085938 7.300781 8.011719 7.398438 8.011719 7.523438 L 8.011719 18.628906 C 8.011719 18.75 8.085938 18.847656 8.179688 18.847656 L 17.855469 18.847656 C 17.945312 18.847656 18.019531 18.75 18.019531 18.628906 L 18.019531 7.523438 C 18.019531 7.398438 17.945312 7.300781 17.855469 7.300781 Z M 8.179688 7.300781 "/>
<path style=" stroke:none;fill-rule:nonzero;fill:rgb(100%,100%,100%);fill-opacity:1;" d="M 17.050781 6.371094 L 17.050781 17.480469 C 17.050781 17.648438 16.949219 17.785156 16.820312 17.785156 L 7.144531 17.785156 C 7.019531 17.785156 6.917969 17.648438 6.917969 17.480469 L 6.917969 6.371094 C 6.917969 6.292969 6.941406 6.214844 6.984375 6.15625 C 7.027344 6.101562 7.085938 6.066406 7.144531 6.066406 L 16.820312 6.066406 C 16.882812 6.066406 16.941406 6.101562 16.984375 6.15625 C 17.027344 6.214844 17.050781 6.292969 17.050781 6.371094 Z M 17.050781 6.371094 "/>
<path style=" stroke:none;fill-rule:nonzero;fill:rgb(3.529412%,24.705882%,40.784314%);fill-opacity:1;" d="M 16.820312 17.867188 L 7.144531 17.867188 C 6.984375 17.867188 6.855469 17.691406 6.855469 17.480469 L 6.855469 6.371094 C 6.855469 6.160156 6.984375 5.984375 7.144531 5.984375 L 16.820312 5.984375 C 16.984375 5.984375 17.113281 6.160156 17.113281 6.371094 L 17.113281 17.480469 C 17.113281 17.691406 16.980469 17.867188 16.820312 17.867188 Z M 7.144531 6.152344 C 7.054688 6.152344 6.980469 6.25 6.980469 6.371094 L 6.980469 17.480469 C 6.980469 17.601562 7.054688 17.699219 7.144531 17.699219 L 16.820312 17.699219 C 16.914062 17.699219 16.988281 17.601562 16.988281 17.480469 L 16.988281 6.371094 C 16.988281 6.25 16.914062 6.152344 16.820312 6.152344 Z M 7.144531 6.152344 "/>
<path style=" stroke:none;fill-rule:nonzero;fill:rgb(3.529412%,24.705882%,40.784314%);fill-opacity:1;" d="M 17.050781 6.371094 L 17.050781 17.480469 C 17.050781 17.648438 16.949219 17.785156 16.820312 17.785156 L 10.382812 17.785156 L 10.382812 6.066406 L 16.820312 6.066406 C 16.882812 6.066406 16.941406 6.101562 16.984375 6.15625 C 17.027344 6.214844 17.050781 6.292969 17.050781 6.371094 Z M 17.050781 6.371094 "/>
<path style=" stroke:none;fill-rule:nonzero;fill:rgb(3.529412%,24.705882%,40.784314%);fill-opacity:1;" d="M 16.820312 17.867188 L 10.382812 17.867188 C 10.351562 17.867188 10.320312 17.828125 10.320312 17.785156 L 10.320312 6.066406 C 10.320312 6.019531 10.351562 5.984375 10.382812 5.984375 L 16.820312 5.984375 C 16.984375 5.984375 17.113281 6.160156 17.113281 6.371094 L 17.113281 17.480469 C 17.113281 17.691406 16.980469 17.867188 16.820312 17.867188 Z M 10.445312 17.699219 L 16.820312 17.699219 C 16.914062 17.699219 16.988281 17.601562 16.988281 17.480469 L 16.988281 6.371094 C 16.988281 6.25 16.914062 6.152344 16.820312 6.152344 L 10.445312 6.152344 Z M 10.445312 17.699219 "/>
<path style=" stroke:none;fill-rule:nonzero;fill:rgb(100%,100%,100%);fill-opacity:1;" d="M 17.050781 6.371094 L 17.050781 7.621094 L 6.917969 7.621094 L 6.917969 6.371094 C 6.917969 6.292969 6.941406 6.214844 6.984375 6.15625 C 7.027344 6.101562 7.085938 6.066406 7.144531 6.066406 L 16.820312 6.066406 C 16.882812 6.066406 16.941406 6.101562 16.984375 6.15625 C 17.027344 6.214844 17.050781 6.292969 17.050781 6.371094 Z M 17.050781 6.371094 "/>
<path style=" stroke:none;fill-rule:nonzero;fill:rgb(3.529412%,24.705882%,40.784314%);fill-opacity:1;" d="M 17.050781 7.707031 L 6.917969 7.707031 C 6.882812 7.707031 6.855469 7.667969 6.855469 7.625 L 6.855469 6.375 C 6.855469 6.160156 6.984375 5.984375 7.144531 5.984375 L 16.820312 5.984375 C 16.984375 5.984375 17.113281 6.160156 17.113281 6.375 L 17.113281 7.625 C 17.113281 7.667969 17.085938 7.707031 17.050781 7.707031 Z M 6.980469 7.539062 L 16.988281 7.539062 L 16.988281 6.375 C 16.988281 6.25 16.914062 6.152344 16.820312 6.152344 L 7.144531 6.152344 C 7.054688 6.152344 6.980469 6.25 6.980469 6.375 Z M 6.980469 7.539062 "/>
<path style=" stroke:none;fill-rule:nonzero;fill:rgb(96.078431%,38.039216%,19.607843%);fill-opacity:1;" d="M 7.910156 6.800781 C 7.910156 6.957031 7.816406 7.085938 7.699219 7.085938 C 7.582031 7.085938 7.488281 6.957031 7.488281 6.800781 C 7.488281 6.648438 7.582031 6.519531 7.699219 6.519531 C 7.816406 6.519531 7.910156 6.648438 7.910156 6.800781 Z M 7.910156 6.800781 "/>
<path style=" stroke:none;fill-rule:nonzero;fill:rgb(3.529412%,24.705882%,40.784314%);fill-opacity:1;" d="M 7.699219 7.167969 C 7.546875 7.167969 7.425781 7.003906 7.425781 6.800781 C 7.425781 6.601562 7.546875 6.4375 7.699219 6.4375 C 7.851562 6.4375 7.972656 6.601562 7.972656 6.800781 C 7.972656 7.003906 7.851562 7.167969 7.699219 7.167969 Z M 7.699219 6.601562 C 7.617188 6.601562 7.550781 6.691406 7.550781 6.800781 C 7.550781 6.910156 7.617188 7 7.699219 7 C 7.78125 7 7.847656 6.910156 7.847656 6.800781 C 7.847656 6.691406 7.78125 6.605469 7.699219 6.605469 Z M 7.699219 6.601562 "/>
<path style=" stroke:none;fill-rule:nonzero;fill:rgb(100%,73.72549%,5.490196%);fill-opacity:1;" d="M 8.765625 6.800781 C 8.765625 6.957031 8.667969 7.085938 8.550781 7.085938 C 8.4375 7.085938 8.339844 6.957031 8.339844 6.800781 C 8.339844 6.648438 8.4375 6.519531 8.550781 6.519531 C 8.667969 6.519531 8.765625 6.648438 8.765625 6.800781 Z M 8.765625 6.800781 "/>
<path style=" stroke:none;fill-rule:nonzero;fill:rgb(3.529412%,24.705882%,40.784314%);fill-opacity:1;" d="M 8.550781 7.167969 C 8.402344 7.167969 8.277344 7.003906 8.277344 6.800781 C 8.277344 6.601562 8.402344 6.4375 8.550781 6.4375 C 8.703125 6.4375 8.824219 6.601562 8.824219 6.800781 C 8.824219 7.003906 8.703125 7.164062 8.550781 7.167969 Z M 8.550781 6.601562 C 8.492188 6.601562 8.4375 6.652344 8.414062 6.726562 C 8.390625 6.800781 8.402344 6.882812 8.445312 6.941406 C 8.488281 7 8.554688 7.015625 8.609375 6.984375 C 8.664062 6.953125 8.699219 6.882812 8.699219 6.800781 C 8.699219 6.691406 8.632812 6.605469 8.550781 6.605469 Z M 8.550781 6.601562 "/>
<path style=" stroke:none;fill-rule:nonzero;fill:rgb(43.921569%,80%,25.098039%);fill-opacity:1;" d="M 9.617188 6.800781 C 9.617188 6.957031 9.523438 7.085938 9.40625 7.085938 C 9.289062 7.085938 9.195312 6.957031 9.195312 6.800781 C 9.195312 6.648438 9.289062 6.519531 9.40625 6.519531 C 9.523438 6.519531 9.617188 6.648438 9.617188 6.800781 Z M 9.617188 6.800781 "/>
<path style=" stroke:none;fill-rule:nonzero;fill:rgb(3.529412%,24.705882%,40.784314%);fill-opacity:1;" d="M 9.40625 7.167969 C 9.253906 7.167969 9.132812 7.003906 9.132812 6.800781 C 9.132812 6.601562 9.253906 6.4375 9.40625 6.4375 C 9.554688 6.4375 9.679688 6.601562 9.679688 6.800781 C 9.679688 7.003906 9.554688 7.167969 9.40625 7.167969 Z M 9.40625 6.601562 C 9.324219 6.601562 9.257812 6.691406 9.257812 6.800781 C 9.257812 6.910156 9.324219 7 9.40625 7 C 9.488281 7 9.554688 6.910156 9.554688 6.800781 C 9.554688 6.691406 9.488281 6.605469 9.40625 6.605469 Z M 9.40625 6.601562 "/>
<path style=" stroke:none;fill-rule:nonzero;fill:rgb(87.45098%,91.764706%,93.72549%);fill-opacity:1;" d="M 9.269531 8.683594 L 7.546875 8.683594 C 7.511719 8.683594 7.484375 8.644531 7.484375 8.597656 C 7.484375 8.554688 7.511719 8.515625 7.546875 8.515625 L 9.269531 8.515625 C 9.304688 8.515625 9.332031 8.554688 9.332031 8.597656 C 9.332031 8.644531 9.304688 8.683594 9.269531 8.683594 Z M 9.269531 8.683594 "/>
<path style=" stroke:none;fill-rule:nonzero;fill:rgb(87.45098%,91.764706%,93.72549%);fill-opacity:1;" d="M 9.5625 9.714844 L 8.113281 9.714844 C 8.078125 9.714844 8.050781 9.679688 8.050781 9.632812 C 8.050781 9.585938 8.078125 9.550781 8.113281 9.550781 L 9.5625 9.550781 C 9.597656 9.550781 9.625 9.585938 9.625 9.632812 C 9.625 9.679688 9.597656 9.714844 9.5625 9.714844 Z M 9.5625 9.714844 "/>
<path style=" stroke:none;fill-rule:nonzero;fill:rgb(87.45098%,91.764706%,93.72549%);fill-opacity:1;" d="M 9.761719 10.75 L 8.554688 10.75 C 8.519531 10.75 8.492188 10.710938 8.492188 10.667969 C 8.492188 10.621094 8.519531 10.582031 8.554688 10.582031 L 9.761719 10.582031 C 9.796875 10.582031 9.824219 10.621094 9.824219 10.667969 C 9.824219 10.710938 9.796875 10.75 9.761719 10.75 Z M 9.761719 10.75 "/>
<path style=" stroke:none;fill-rule:nonzero;fill:rgb(87.45098%,91.764706%,93.72549%);fill-opacity:1;" d="M 9.367188 11.785156 L 7.839844 11.785156 C 7.808594 11.785156 7.777344 11.746094 7.777344 11.699219 C 7.777344 11.65625 7.808594 11.617188 7.839844 11.617188 L 9.367188 11.617188 C 9.402344 11.617188 9.429688 11.65625 9.429688 11.699219 C 9.429688 11.746094 9.402344 11.785156 9.367188 11.785156 Z M 9.367188 11.785156 "/>
<path style=" stroke:none;fill-rule:nonzero;fill:rgb(87.45098%,91.764706%,93.72549%);fill-opacity:1;" d="M 8.957031 12.816406 L 7.546875 12.816406 C 7.511719 12.816406 7.484375 12.78125 7.484375 12.734375 C 7.484375 12.6875 7.511719 12.652344 7.546875 12.652344 L 8.957031 12.652344 C 8.992188 12.652344 9.019531 12.6875 9.019531 12.734375 C 9.019531 12.78125 8.992188 12.816406 8.957031 12.816406 Z M 8.957031 12.816406 "/>
<path style=" stroke:none;fill-rule:nonzero;fill:rgb(87.45098%,91.764706%,93.72549%);fill-opacity:1;" d="M 9.269531 13.851562 L 8.019531 13.851562 C 7.984375 13.851562 7.957031 13.8125 7.957031 13.769531 C 7.957031 13.722656 7.984375 13.683594 8.019531 13.683594 L 9.269531 13.683594 C 9.304688 13.683594 9.332031 13.722656 9.332031 13.769531 C 9.332031 13.8125 9.304688 13.851562 9.269531 13.851562 Z M 9.269531 13.851562 "/>
<path style=" stroke:none;fill-rule:nonzero;fill:rgb(87.45098%,91.764706%,93.72549%);fill-opacity:1;" d="M 8.839844 14.886719 L 7.546875 14.886719 C 7.511719 14.886719 7.484375 14.847656 7.484375 14.800781 C 7.484375 14.753906 7.511719 14.71875 7.546875 14.71875 L 8.839844 14.71875 C 8.871094 14.71875 8.902344 14.753906 8.902344 14.800781 C 8.902344 14.847656 8.871094 14.886719 8.839844 14.886719 Z M 8.839844 14.886719 "/>
<path style=" stroke:none;fill-rule:nonzero;fill:rgb(87.45098%,91.764706%,93.72549%);fill-opacity:1;" d="M 9.269531 15.917969 L 8.019531 15.917969 C 7.984375 15.917969 7.957031 15.878906 7.957031 15.832031 C 7.957031 15.789062 7.984375 15.75 8.019531 15.75 L 9.269531 15.75 C 9.304688 15.75 9.332031 15.789062 9.332031 15.832031 C 9.332031 15.878906 9.304688 15.917969 9.269531 15.917969 Z M 9.269531 15.917969 "/>
<path style=" stroke:none;fill-rule:nonzero;fill:rgb(100%,100%,100%);fill-opacity:1;" d="M 12.101562 8.683594 L 11.050781 8.683594 C 11.015625 8.683594 10.988281 8.644531 10.988281 8.597656 C 10.988281 8.554688 11.015625 8.515625 11.050781 8.515625 L 12.101562 8.515625 C 12.136719 8.515625 12.164062 8.554688 12.164062 8.597656 C 12.164062 8.644531 12.136719 8.683594 12.101562 8.683594 Z M 12.101562 8.683594 "/>
<path style=" stroke:none;fill-rule:nonzero;fill:rgb(100%,73.72549%,5.490196%);fill-opacity:1;" d="M 13.550781 9.714844 L 11.394531 9.714844 C 11.363281 9.714844 11.332031 9.679688 11.332031 9.632812 C 11.332031 9.585938 11.363281 9.550781 11.394531 9.550781 L 13.550781 9.550781 C 13.585938 9.550781 13.613281 9.585938 13.613281 9.632812 C 13.613281 9.679688 13.585938 9.714844 13.550781 9.714844 Z M 13.550781 9.714844 "/>
<path style=" stroke:none;fill-rule:nonzero;fill:rgb(100%,73.72549%,5.490196%);fill-opacity:1;" d="M 13.015625 10.75 L 11.394531 10.75 C 11.363281 10.75 11.332031 10.710938 11.332031 10.667969 C 11.332031 10.621094 11.363281 10.582031 11.394531 10.582031 L 13.015625 10.582031 C 13.050781 10.582031 13.078125 10.621094 13.078125 10.667969 C 13.078125 10.710938 13.050781 10.75 13.015625 10.75 Z M 13.015625 10.75 "/>
<path style=" stroke:none;fill-rule:nonzero;fill:rgb(100%,100%,100%);fill-opacity:1;" d="M 12.160156 11.785156 L 11.230469 11.785156 C 11.195312 11.785156 11.167969 11.746094 11.167969 11.699219 C 11.167969 11.65625 11.195312 11.617188 11.230469 11.617188 L 12.160156 11.617188 C 12.195312 11.617188 12.222656 11.65625 12.222656 11.699219 C 12.222656 11.746094 12.195312 11.785156 12.160156 11.785156 Z M 12.160156 11.785156 "/>
<path style=" stroke:none;fill-rule:nonzero;fill:rgb(96.078431%,38.039216%,19.607843%);fill-opacity:1;" d="M 12.53125 12.816406 L 11.480469 12.816406 C 11.445312 12.816406 11.417969 12.78125 11.417969 12.734375 C 11.417969 12.6875 11.445312 12.652344 11.480469 12.652344 L 12.53125 12.652344 C 12.566406 12.652344 12.59375 12.6875 12.59375 12.734375 C 12.59375 12.78125 12.566406 12.816406 12.53125 12.816406 Z M 12.53125 12.816406 "/>
<path style=" stroke:none;fill-rule:nonzero;fill:rgb(100%,100%,100%);fill-opacity:1;" d="M 13.066406 13.851562 L 11.445312 13.851562 C 11.410156 13.851562 11.382812 13.8125 11.382812 13.769531 C 11.382812 13.722656 11.410156 13.683594 11.445312 13.683594 L 13.066406 13.683594 C 13.101562 13.683594 13.128906 13.722656 13.128906 13.769531 C 13.128906 13.8125 13.101562 13.851562 13.066406 13.851562 Z M 13.066406 13.851562 "/>
<path style=" stroke:none;fill-rule:nonzero;fill:rgb(100%,100%,100%);fill-opacity:1;" d="M 11.839844 14.886719 L 11.050781 14.886719 C 11.015625 14.886719 10.988281 14.847656 10.988281 14.800781 C 10.988281 14.753906 11.015625 14.71875 11.050781 14.71875 L 11.839844 14.71875 C 11.875 14.71875 11.902344 14.753906 11.902344 14.800781 C 11.902344 14.847656 11.875 14.886719 11.839844 14.886719 Z M 11.839844 14.886719 "/>
<path style=" stroke:none;fill-rule:nonzero;fill:rgb(43.921569%,80%,25.098039%);fill-opacity:1;" d="M 13.066406 15.917969 L 11.339844 15.917969 C 11.308594 15.917969 11.277344 15.878906 11.277344 15.832031 C 11.277344 15.789062 11.308594 15.75 11.339844 15.75 L 13.066406 15.75 C 13.101562 15.75 13.128906 15.789062 13.128906 15.832031 C 13.128906 15.878906 13.101562 15.917969 13.066406 15.917969 Z M 13.066406 15.917969 "/>
<path style=" stroke:none;fill-rule:nonzero;fill:rgb(100%,73.72549%,5.490196%);fill-opacity:1;" d="M 14.71875 15.917969 L 13.585938 15.917969 C 13.550781 15.917969 13.523438 15.878906 13.523438 15.832031 C 13.523438 15.789062 13.550781 15.75 13.585938 15.75 L 14.71875 15.75 C 14.753906 15.75 14.78125 15.789062 14.78125 15.832031 C 14.78125 15.878906 14.753906 15.917969 14.71875 15.917969 Z M 14.71875 15.917969 "/>
<path style=" stroke:none;fill-rule:nonzero;fill:rgb(100%,100%,100%);fill-opacity:1;" d="M 14.351562 10.75 L 13.550781 10.75 C 13.515625 10.75 13.488281 10.710938 13.488281 10.667969 C 13.488281 10.621094 13.515625 10.582031 13.550781 10.582031 L 14.351562 10.582031 C 14.386719 10.582031 14.414062 10.621094 14.414062 10.667969 C 14.414062 10.710938 14.386719 10.75 14.351562 10.75 Z M 14.351562 10.75 "/>
<path style=" stroke:none;fill-rule:nonzero;fill:rgb(40.784314%,88.235294%,99.215686%);fill-opacity:1;" d="M 15.492188 9.714844 L 13.953125 9.714844 C 13.917969 9.714844 13.890625 9.679688 13.890625 9.632812 C 13.890625 9.585938 13.917969 9.550781 13.953125 9.550781 L 15.492188 9.550781 C 15.527344 9.550781 15.554688 9.585938 15.554688 9.632812 C 15.554688 9.679688 15.527344 9.714844 15.492188 9.714844 Z M 15.492188 9.714844 "/>
<path style=" stroke:none;fill-rule:nonzero;fill:rgb(96.078431%,38.039216%,19.607843%);fill-opacity:1;" d="M 15.238281 10.75 L 14.785156 10.75 C 14.75 10.75 14.722656 10.710938 14.722656 10.667969 C 14.722656 10.621094 14.75 10.582031 14.785156 10.582031 L 15.238281 10.582031 C 15.269531 10.582031 15.300781 10.621094 15.300781 10.667969 C 15.300781 10.710938 15.269531 10.75 15.238281 10.75 Z M 15.238281 10.75 "/>
<path style=" stroke:none;fill-rule:nonzero;fill:rgb(96.078431%,38.039216%,19.607843%);fill-opacity:1;" d="M 13.292969 12.816406 L 12.839844 12.816406 C 12.808594 12.816406 12.777344 12.78125 12.777344 12.734375 C 12.777344 12.6875 12.808594 12.652344 12.839844 12.652344 L 13.292969 12.652344 C 13.324219 12.652344 13.355469 12.6875 13.355469 12.734375 C 13.355469 12.78125 13.324219 12.816406 13.292969 12.816406 Z M 13.292969 12.816406 "/>
<path style=" stroke:none;fill-rule:nonzero;fill:rgb(100%,73.72549%,5.490196%);fill-opacity:1;" d="M 15.492188 12.816406 L 13.660156 12.816406 C 13.625 12.816406 13.597656 12.78125 13.597656 12.734375 C 13.597656 12.6875 13.625 12.652344 13.660156 12.652344 L 15.492188 12.652344 C 15.527344 12.652344 15.554688 12.6875 15.554688 12.734375 C 15.554688 12.78125 15.527344 12.816406 15.492188 12.816406 Z M 15.492188 12.816406 "/>
<path style=" stroke:none;fill-rule:nonzero;fill:rgb(40.784314%,88.235294%,99.215686%);fill-opacity:1;" d="M 13.953125 13.851562 L 13.550781 13.851562 C 13.515625 13.851562 13.488281 13.8125 13.488281 13.769531 C 13.488281 13.722656 13.515625 13.683594 13.550781 13.683594 L 13.953125 13.683594 C 13.984375 13.683594 14.015625 13.722656 14.015625 13.769531 C 14.015625 13.8125 13.984375 13.851562 13.953125 13.851562 Z M 13.953125 13.851562 "/>
<path style=" stroke:none;fill-rule:nonzero;fill:rgb(100%,100%,100%);fill-opacity:1;" d="M 15.492188 15.917969 L 15.238281 15.917969 C 15.203125 15.917969 15.175781 15.878906 15.175781 15.832031 C 15.175781 15.789062 15.203125 15.75 15.238281 15.75 L 15.492188 15.75 C 15.527344 15.75 15.554688 15.789062 15.554688 15.832031 C 15.554688 15.878906 15.527344 15.917969 15.492188 15.917969 Z M 15.492188 15.917969 "/>
</g>
</svg>
