<?xml version="1.0" encoding="UTF-8"?>
<svg xmlns="http://www.w3.org/2000/svg" xmlns:xlink="http://www.w3.org/1999/xlink" width="18px" height="18px" viewBox="0 0 18 18" version="1.1">
<g id="surface1">
<path style=" stroke:none;fill-rule:nonzero;fill:rgb(87.843137%,21.960784%,45.882353%);fill-opacity:1;" d="M 9.007812 17.25 C 7.664062 17.25 6.339844 16.925781 5.152344 16.296875 C 3.964844 15.671875 2.949219 14.765625 2.191406 13.65625 C 1.433594 12.550781 0.957031 11.273438 0.804688 9.941406 C 0.652344 8.605469 0.824219 7.253906 1.3125 6.003906 C 1.800781 4.753906 2.585938 3.640625 3.601562 2.761719 C 4.617188 1.882812 5.832031 1.265625 7.140625 0.960938 C 8.449219 0.660156 9.808594 0.679688 11.109375 1.023438 C 12.40625 1.367188 13.601562 2.019531 14.589844 2.929688 L 12.628906 4.980469 C 11.851562 4.277344 10.886719 3.8125 9.851562 3.648438 C 8.816406 3.484375 7.753906 3.621094 6.792969 4.046875 C 5.835938 4.472656 5.023438 5.167969 4.449219 6.046875 C 3.878906 6.925781 3.574219 7.953125 3.574219 9.003906 C 3.574219 10.050781 3.878906 11.078125 4.449219 11.957031 C 5.023438 12.835938 5.835938 13.53125 6.792969 13.957031 C 7.753906 14.382812 8.816406 14.523438 9.851562 14.355469 C 10.886719 14.191406 11.851562 13.730469 12.628906 13.027344 L 14.589844 15.074219 C 13.066406 16.476562 11.074219 17.25 9.007812 17.25 Z M 9.007812 17.25 "/>
<path style=" stroke:none;fill-rule:nonzero;fill:rgb(87.843137%,21.960784%,45.882353%);fill-opacity:1;" d="M 15.644531 13.125 C 15.511719 13.125 15.378906 13.082031 15.269531 13.007812 C 15.160156 12.933594 15.070312 12.828125 15.019531 12.707031 C 14.96875 12.582031 14.957031 12.445312 14.980469 12.316406 C 15.007812 12.183594 15.074219 12.0625 15.167969 11.96875 C 15.261719 11.875 15.382812 11.808594 15.511719 11.785156 C 15.644531 11.757812 15.78125 11.769531 15.902344 11.824219 C 16.027344 11.875 16.132812 11.960938 16.207031 12.070312 C 16.28125 12.183594 16.320312 12.3125 16.320312 12.449219 C 16.320312 12.625 16.25 12.796875 16.125 12.925781 C 15.996094 13.050781 15.824219 13.125 15.644531 13.125 Z M 15.644531 13.125 "/>
<path style=" stroke:none;fill-rule:nonzero;fill:rgb(87.843137%,21.960784%,45.882353%);fill-opacity:1;" d="M 8.953125 10.789062 C 8.601562 10.789062 8.253906 10.6875 7.957031 10.488281 C 7.664062 10.292969 7.433594 10.015625 7.296875 9.6875 C 7.160156 9.363281 7.125 9.003906 7.191406 8.65625 C 7.261719 8.308594 7.429688 7.988281 7.679688 7.738281 C 7.929688 7.488281 8.25 7.316406 8.597656 7.246094 C 8.941406 7.175781 9.304688 7.210938 9.628906 7.347656 C 9.957031 7.484375 10.238281 7.710938 10.433594 8.007812 C 10.628906 8.300781 10.734375 8.648438 10.734375 9 C 10.734375 9.472656 10.546875 9.925781 10.210938 10.261719 C 9.878906 10.597656 9.425781 10.785156 8.953125 10.789062 Z M 8.953125 10.789062 "/>
<path style=" stroke:none;fill-rule:nonzero;fill:rgb(87.843137%,21.960784%,45.882353%);fill-opacity:1;" d="M 16.421875 10.820312 C 16.289062 10.820312 16.15625 10.78125 16.046875 10.707031 C 15.933594 10.632812 15.847656 10.527344 15.796875 10.402344 C 15.746094 10.277344 15.730469 10.140625 15.757812 10.011719 C 15.785156 9.878906 15.847656 9.757812 15.941406 9.664062 C 16.039062 9.570312 16.15625 9.507812 16.289062 9.480469 C 16.421875 9.453125 16.554688 9.46875 16.679688 9.519531 C 16.804688 9.570312 16.910156 9.65625 16.984375 9.765625 C 17.058594 9.878906 17.097656 10.007812 17.097656 10.144531 C 17.097656 10.324219 17.023438 10.492188 16.898438 10.621094 C 16.773438 10.746094 16.601562 10.820312 16.421875 10.820312 Z M 16.421875 10.820312 "/>
<path style=" stroke:none;fill-rule:nonzero;fill:rgb(87.843137%,21.960784%,45.882353%);fill-opacity:1;" d="M 14.410156 10.734375 C 14.277344 10.734375 14.144531 10.695312 14.035156 10.621094 C 13.921875 10.546875 13.835938 10.441406 13.785156 10.316406 C 13.734375 10.191406 13.722656 10.054688 13.746094 9.925781 C 13.773438 9.792969 13.839844 9.671875 13.933594 9.578125 C 14.03125 9.484375 14.152344 9.417969 14.28125 9.394531 C 14.414062 9.371094 14.550781 9.382812 14.675781 9.4375 C 14.796875 9.488281 14.902344 9.578125 14.976562 9.6875 C 15.050781 9.800781 15.089844 9.933594 15.085938 10.066406 C 15.085938 10.246094 15.011719 10.414062 14.886719 10.539062 C 14.757812 10.664062 14.589844 10.734375 14.410156 10.734375 Z M 14.410156 10.734375 "/>
<path style=" stroke:none;fill-rule:nonzero;fill:rgb(87.843137%,21.960784%,45.882353%);fill-opacity:1;" d="M 16.421875 8.539062 C 16.289062 8.539062 16.15625 8.5 16.046875 8.425781 C 15.933594 8.351562 15.847656 8.246094 15.796875 8.125 C 15.746094 8 15.730469 7.863281 15.757812 7.734375 C 15.785156 7.601562 15.847656 7.480469 15.941406 7.386719 C 16.039062 7.292969 16.15625 7.226562 16.289062 7.203125 C 16.421875 7.175781 16.554688 7.1875 16.679688 7.238281 C 16.804688 7.289062 16.910156 7.378906 16.984375 7.488281 C 17.058594 7.601562 17.097656 7.730469 17.097656 7.863281 C 17.097656 8.042969 17.023438 8.214844 16.898438 8.34375 C 16.773438 8.46875 16.601562 8.539062 16.421875 8.539062 Z M 16.421875 8.539062 "/>
<path style=" stroke:none;fill-rule:nonzero;fill:rgb(87.843137%,21.960784%,45.882353%);fill-opacity:1;" d="M 14.410156 8.617188 C 14.277344 8.617188 14.144531 8.578125 14.035156 8.503906 C 13.921875 8.429688 13.835938 8.324219 13.785156 8.199219 C 13.734375 8.078125 13.722656 7.941406 13.746094 7.808594 C 13.773438 7.679688 13.835938 7.558594 13.933594 7.464844 C 14.027344 7.367188 14.148438 7.304688 14.277344 7.277344 C 14.410156 7.25 14.546875 7.265625 14.667969 7.316406 C 14.792969 7.367188 14.898438 7.453125 14.972656 7.566406 C 15.046875 7.675781 15.085938 7.808594 15.085938 7.941406 C 15.085938 8.121094 15.015625 8.292969 14.886719 8.417969 C 14.761719 8.546875 14.589844 8.617188 14.410156 8.617188 Z M 14.410156 8.617188 "/>
<path style=" stroke:none;fill-rule:nonzero;fill:rgb(87.843137%,21.960784%,45.882353%);fill-opacity:1;" d="M 15.683594 6.265625 C 15.550781 6.265625 15.417969 6.226562 15.308594 6.152344 C 15.195312 6.078125 15.109375 5.972656 15.058594 5.851562 C 15.007812 5.726562 14.992188 5.589844 15.019531 5.460938 C 15.046875 5.328125 15.109375 5.207031 15.203125 5.113281 C 15.296875 5.019531 15.417969 4.953125 15.550781 4.925781 C 15.683594 4.902344 15.816406 4.914062 15.941406 4.964844 C 16.066406 5.015625 16.171875 5.101562 16.246094 5.214844 C 16.320312 5.324219 16.359375 5.457031 16.359375 5.589844 C 16.359375 5.769531 16.289062 5.941406 16.160156 6.066406 C 16.035156 6.195312 15.863281 6.265625 15.683594 6.265625 Z M 15.683594 6.265625 "/>
</g>
</svg>
