<?xml version="1.0" encoding="UTF-8"?>
<svg xmlns="http://www.w3.org/2000/svg" xmlns:xlink="http://www.w3.org/1999/xlink" width="21px" height="21px" viewBox="0 0 21 21" version="1.1">
<g id="surface1">
<path style=" stroke:none;fill-rule:evenodd;fill:rgb(65.882353%,0%,18.823529%);fill-opacity:1;" d="M 2.324219 4.519531 C 2.351562 4.667969 2.660156 4.316406 2.417969 4.863281 C 1.953125 5.1875 2.363281 5.003906 2.324219 4.519531 Z M 2.328125 4.550781 C 2.324219 4.53125 2.324219 4.515625 2.320312 4.496094 C 2.320312 4.515625 2.324219 4.535156 2.328125 4.550781 Z M 1.9375 6.089844 C 1.636719 6.476562 1.796875 6.558594 1.765625 6.820312 C 1.875 6.484375 1.894531 6.285156 1.9375 6.089844 Z M 11.410156 0 C 11.085938 0.0273438 10.761719 0.0429688 10.441406 0.0859375 L 10.582031 0.105469 C 10.816406 0.0195312 11.160156 0.0585938 11.410156 0 Z M 10.875 0.410156 L 10.882812 0.375 L 10.753906 0.433594 Z M 10.511719 0.269531 C 10.699219 0.304688 10.914062 0.328125 10.882812 0.375 C 11.085938 0.328125 11.132812 0.289062 10.511719 0.269531 Z M 8.574219 11.550781 C 8.453125 11.417969 8.382812 11.257812 8.300781 11.097656 C 8.378906 11.378906 8.535156 11.621094 8.683594 11.867188 Z M 12.351562 11.34375 C 12.476562 11.246094 12.59375 11.148438 12.691406 11.050781 C 12.410156 11.121094 12.121094 11.121094 11.832031 11.09375 C 11.484375 11.101562 11.898438 11.273438 12.351562 11.34375 Z M 13.699219 10.628906 C 13.90625 10.34375 14.058594 10.03125 14.113281 9.707031 C 14.066406 9.9375 13.941406 10.136719 13.820312 10.347656 C 13.171875 10.757812 13.761719 10.105469 13.820312 9.855469 C 13.121094 10.734375 13.726562 10.382812 13.699219 10.628906 Z M 14.390625 8.835938 C 14.429688 8.207031 14.265625 8.40625 14.210938 8.644531 C 14.273438 8.679688 14.328125 9.085938 14.390625 8.835938 Z M 10.402344 13.339844 C 9.898438 13.105469 9.441406 12.75 9.066406 12.316406 C 9.265625 12.609375 9.480469 12.894531 9.757812 13.117188 C 9.289062 12.957031 8.65625 11.972656 8.472656 11.933594 C 9.285156 13.390625 11.773438 14.488281 13.078125 13.945312 C 12.472656 13.96875 11.707031 13.957031 11.03125 13.707031 C 10.773438 13.574219 10.433594 13.3125 10.421875 13.222656 C 10.410156 13.257812 10.386719 13.289062 10.402344 13.339844 Z M 10.4375 13.203125 C 10.425781 13.214844 10.417969 13.226562 10.421875 13.246094 C 10.425781 13.230469 10.433594 13.21875 10.4375 13.203125 Z M 7.984375 11.816406 C 8.214844 12.128906 8.394531 12.464844 8.6875 12.707031 C 8.476562 12.296875 8.320312 12.128906 8.035156 11.574219 Z M 17.902344 7.503906 C 17.90625 7.183594 17.992188 7.335938 18.023438 7.257812 C 17.960938 7.222656 17.796875 6.976562 17.695312 6.507812 C 17.769531 6.398438 17.890625 6.792969 17.988281 6.808594 C 17.925781 6.4375 17.816406 6.152344 17.8125 5.863281 C 17.523438 5.261719 17.710938 5.945312 17.476562 5.605469 C 17.167969 4.648438 17.730469 5.382812 17.769531 4.949219 C 18.234375 5.621094 18.5 6.667969 18.621094 7.101562 C 18.527344 6.574219 18.378906 6.0625 18.195312 5.566406 C 18.335938 5.625 17.964844 4.480469 18.378906 5.238281 C 17.9375 3.621094 16.496094 2.109375 15.171875 1.402344 C 15.332031 1.550781 15.539062 1.738281 15.464844 1.765625 C 14.804688 1.375 14.921875 1.34375 14.824219 1.175781 C 14.289062 0.957031 14.253906 1.195312 13.898438 1.175781 C 12.882812 0.640625 12.691406 0.695312 11.757812 0.359375 L 11.800781 0.558594 C 11.128906 0.335938 11.019531 0.644531 10.292969 0.558594 C 10.25 0.523438 10.527344 0.433594 10.753906 0.402344 C 10.105469 0.488281 10.132812 0.273438 9.5 0.425781 C 9.65625 0.316406 9.820312 0.242188 9.988281 0.148438 C 9.460938 0.183594 8.726562 0.457031 8.953125 0.207031 C 8.089844 0.589844 6.558594 1.132812 5.695312 1.9375 L 5.671875 1.757812 C 5.277344 2.230469 3.953125 3.171875 3.847656 3.785156 L 3.742188 3.808594 C 3.535156 4.15625 3.402344 4.546875 3.242188 4.90625 C 2.972656 5.363281 2.847656 5.082031 2.886719 5.152344 C 2.359375 6.222656 2.097656 7.121094 1.871094 7.859375 C 2.03125 8.097656 1.875 9.308594 1.933594 10.277344 C 1.667969 15.0625 5.292969 19.707031 9.25 20.777344 C 9.832031 20.988281 10.695312 20.980469 11.429688 21 C 10.5625 20.753906 10.449219 20.867188 9.605469 20.574219 C 9 20.289062 8.863281 19.960938 8.433594 19.585938 L 8.605469 19.886719 C 7.757812 19.589844 8.113281 19.519531 7.425781 19.300781 L 7.605469 19.0625 C 7.332031 19.042969 6.882812 18.601562 6.757812 18.355469 L 6.457031 18.367188 C 6.097656 17.921875 5.90625 17.601562 5.921875 17.355469 L 5.824219 17.527344 C 5.714844 17.339844 4.5 15.859375 5.128906 16.203125 C 5.011719 16.097656 4.855469 16.03125 4.6875 15.722656 L 4.816406 15.578125 C 4.511719 15.1875 4.257812 14.6875 4.277344 14.519531 C 4.4375 14.738281 4.550781 14.78125 4.660156 14.816406 C 3.894531 12.914062 3.851562 14.710938 3.273438 12.882812 L 3.394531 12.871094 C 3.300781 12.730469 3.242188 12.574219 3.167969 12.425781 L 3.222656 11.890625 C 2.667969 11.253906 3.066406 9.179688 3.148438 8.042969 C 3.203125 7.578125 3.605469 7.085938 3.914062 6.316406 L 3.726562 6.28125 C 4.085938 5.65625 5.777344 3.769531 6.558594 3.867188 C 6.941406 3.390625 6.484375 3.863281 6.410156 3.742188 C 7.246094 2.882812 7.507812 3.132812 8.070312 2.980469 C 8.675781 2.617188 7.546875 3.121094 7.835938 2.839844 C 8.882812 2.574219 8.578125 2.234375 9.945312 2.097656 C 10.089844 2.179688 9.613281 2.222656 9.492188 2.332031 C 10.363281 1.902344 12.253906 2 13.484375 2.566406 C 14.910156 3.234375 16.507812 5.203125 16.574219 7.054688 L 16.644531 7.074219 C 16.609375 7.808594 16.757812 8.660156 16.5 9.445312 L 16.675781 9.074219 C 16.695312 9.636719 16.511719 9.910156 16.34375 10.390625 L 16.042969 10.542969 C 15.796875 11.019531 16.066406 10.847656 15.890625 11.226562 C 15.503906 11.566406 14.722656 12.296875 14.472656 12.363281 C 14.289062 12.355469 14.597656 12.144531 14.636719 12.0625 C 14.125 12.417969 14.226562 12.59375 13.4375 12.808594 L 13.414062 12.757812 C 11.476562 13.667969 8.78125 11.859375 8.816406 9.394531 C 8.796875 9.550781 8.757812 9.511719 8.714844 9.574219 C 8.613281 8.304688 9.300781 7.027344 10.457031 6.507812 C 11.589844 5.949219 12.917969 6.175781 13.730469 6.933594 C 13.285156 6.351562 12.398438 5.730469 11.347656 5.789062 C 10.316406 5.804688 9.351562 6.460938 9.03125 7.171875 C 8.503906 7.503906 8.441406 8.449219 8.214844 8.625 C 7.902344 10.894531 8.796875 11.878906 10.300781 13.035156 C 10.421875 13.113281 10.4375 13.160156 10.429688 13.203125 C 10.429688 13.203125 10.429688 13.199219 10.429688 13.199219 C 12.207031 13.863281 14.042969 13.703125 15.582031 12.46875 C 15.972656 12.164062 16.402344 11.648438 16.523438 11.640625 C 16.339844 11.917969 16.554688 11.773438 16.414062 12.023438 C 16.804688 11.390625 16.246094 11.765625 16.816406 10.933594 L 17.027344 11.226562 C 16.949219 10.703125 17.675781 10.070312 17.601562 9.246094 C 17.769531 8.992188 17.789062 9.515625 17.613281 10.097656 C 17.855469 9.453125 17.675781 9.347656 17.738281 8.816406 C 17.808594 8.996094 17.898438 9.1875 17.941406 9.375 C 17.785156 8.753906 18.105469 8.328125 18.1875 7.964844 C 18.109375 7.929688 17.941406 8.238281 17.902344 7.503906 Z M 17.902344 7.503906 "/>
</g>
</svg>
