<?xml version="1.0" encoding="UTF-8"?>
<svg xmlns="http://www.w3.org/2000/svg" xmlns:xlink="http://www.w3.org/1999/xlink" width="20px" height="20px" viewBox="0 0 20 20" version="1.1">
<g id="surface1">
<path style=" stroke:none;fill-rule:nonzero;fill:rgb(1.176471%,40%,83.921569%);fill-opacity:1;" d="M 20 10 C 20 15.523438 15.523438 20 10 20 C 4.476562 20 0 15.523438 0 10 C 0 4.476562 4.476562 0 10 0 C 15.523438 0 20 4.476562 20 10 Z M 20 10 "/>
<path style=" stroke:none;fill-rule:nonzero;fill:rgb(100%,100%,100%);fill-opacity:1;" d="M 10 5.121094 C 7.234375 5.121094 4.996094 7.359375 4.996094 10.125 C 4.996094 12.335938 6.429688 14.210938 8.414062 14.867188 C 8.664062 14.914062 8.757812 14.761719 8.757812 14.628906 C 8.757812 14.507812 8.753906 14.195312 8.75 13.78125 C 7.359375 14.082031 7.066406 13.109375 7.066406 13.109375 C 6.835938 12.53125 6.507812 12.375 6.507812 12.375 C 6.054688 12.0625 6.542969 12.070312 6.542969 12.070312 C 7.046875 12.105469 7.308594 12.585938 7.308594 12.585938 C 7.753906 13.351562 8.484375 13.132812 8.765625 13 C 8.8125 12.675781 8.941406 12.457031 9.085938 12.332031 C 7.972656 12.207031 6.804688 11.777344 6.804688 9.859375 C 6.804688 9.3125 6.996094 8.867188 7.320312 8.515625 C 7.265625 8.390625 7.09375 7.882812 7.363281 7.191406 C 7.363281 7.191406 7.78125 7.058594 8.738281 7.707031 C 9.140625 7.59375 9.5625 7.539062 9.988281 7.539062 C 10.414062 7.539062 10.835938 7.59375 11.238281 7.707031 C 12.1875 7.058594 12.609375 7.191406 12.609375 7.191406 C 12.875 7.882812 12.707031 8.390625 12.65625 8.515625 C 12.976562 8.867188 13.171875 9.3125 13.171875 9.859375 C 13.171875 11.78125 12 12.203125 10.890625 12.328125 C 11.0625 12.476562 11.226562 12.785156 11.226562 13.253906 C 11.226562 13.921875 11.21875 14.460938 11.21875 14.621094 C 11.21875 14.753906 11.308594 14.910156 11.5625 14.859375 C 13.570312 14.207031 15 12.332031 15 10.125 C 15 7.359375 12.757812 5.121094 10 5.121094 "/>
</g>
</svg>
