<?xml version="1.0" encoding="UTF-8"?>
<svg xmlns="http://www.w3.org/2000/svg" xmlns:xlink="http://www.w3.org/1999/xlink" width="19px" height="20px" viewBox="0 0 19 19" version="1.1">
<g id="surface1">
<path style=" stroke:none;fill-rule:nonzero;fill:rgb(0%,73.72549%,94.901961%);fill-opacity:1;" d="M 0.460938 18.96875 C 0.324219 18.917969 0.160156 18.753906 0.0703125 18.589844 C 0 18.457031 -0.00390625 18.359375 0.0078125 16.074219 L 0.0195312 13.691406 L 0.125 13.535156 C 0.199219 13.425781 0.296875 13.347656 0.433594 13.285156 L 0.632812 13.195312 L 9.539062 13.195312 C 16.09375 13.195312 18.480469 13.207031 18.574219 13.238281 C 18.769531 13.300781 18.945312 13.445312 19.03125 13.609375 C 19.109375 13.75 19.109375 13.8125 19.097656 16.152344 L 19.089844 18.550781 L 18.996094 18.679688 C 18.945312 18.753906 18.84375 18.851562 18.769531 18.902344 L 18.632812 18.992188 L 9.59375 19 C 3.65625 19.003906 0.523438 18.992188 0.460938 18.96875 Z M 1.917969 18.179688 C 2.214844 18.035156 2.355469 17.730469 2.265625 17.433594 C 2.171875 17.132812 1.828125 16.925781 1.519531 16.980469 C 0.882812 17.097656 0.769531 17.933594 1.359375 18.195312 C 1.566406 18.285156 1.710938 18.28125 1.917969 18.179688 Z M 17.820312 17.945312 C 17.90625 17.863281 17.894531 17.71875 17.796875 17.652344 C 17.71875 17.601562 17.464844 17.59375 15.769531 17.59375 C 13.660156 17.59375 13.660156 17.59375 13.660156 17.800781 C 13.660156 18.003906 13.65625 18.003906 15.792969 18.003906 C 17.53125 18.003906 17.765625 17.996094 17.820312 17.945312 Z M 17.835938 17.214844 C 17.859375 17.1875 17.878906 17.125 17.878906 17.070312 C 17.878906 17.019531 17.859375 16.957031 17.835938 16.929688 C 17.773438 16.871094 13.847656 16.867188 13.734375 16.925781 C 13.648438 16.96875 13.632812 17.144531 13.707031 17.214844 C 13.738281 17.246094 14.25 17.257812 15.769531 17.257812 C 17.289062 17.257812 17.800781 17.246094 17.835938 17.214844 Z M 17.804688 16.511719 C 17.890625 16.46875 17.90625 16.292969 17.835938 16.222656 C 17.800781 16.1875 17.289062 16.175781 15.769531 16.175781 C 14.25 16.175781 13.738281 16.1875 13.707031 16.222656 C 13.640625 16.285156 13.648438 16.421875 13.71875 16.492188 C 13.773438 16.542969 14.011719 16.550781 15.757812 16.550781 C 17.042969 16.550781 17.757812 16.535156 17.804688 16.511719 Z M 0.441406 12.351562 C 0.261719 12.257812 0.148438 12.148438 0.0703125 11.984375 C 0.00390625 11.84375 0 11.691406 0 9.503906 C 0 7.320312 0.00390625 7.167969 0.0703125 7.027344 C 0.15625 6.847656 0.277344 6.734375 0.46875 6.65625 C 0.59375 6.605469 1.570312 6.597656 9.554688 6.597656 C 17.539062 6.597656 18.511719 6.605469 18.640625 6.65625 C 18.820312 6.730469 18.941406 6.839844 19.035156 7.015625 C 19.105469 7.152344 19.109375 7.25 19.097656 9.558594 C 19.089844 11.917969 19.085938 11.960938 19.011719 12.0625 C 18.964844 12.121094 18.867188 12.21875 18.785156 12.28125 L 18.640625 12.394531 L 9.597656 12.402344 C 1.410156 12.410156 0.542969 12.40625 0.441406 12.351562 Z M 1.976562 11.558594 C 2.335938 11.359375 2.394531 10.855469 2.09375 10.5625 C 1.675781 10.15625 0.980469 10.441406 0.980469 11.015625 C 0.980469 11.519531 1.515625 11.808594 1.976562 11.558594 Z M 17.835938 11.324219 C 17.898438 11.261719 17.890625 11.125 17.820312 11.054688 C 17.765625 11.003906 17.53125 10.996094 15.792969 10.996094 C 14.078125 10.996094 13.820312 11.003906 13.746094 11.054688 C 13.652344 11.117188 13.632812 11.253906 13.707031 11.324219 C 13.738281 11.359375 14.25 11.367188 15.769531 11.367188 C 17.289062 11.367188 17.800781 11.359375 17.835938 11.324219 Z M 17.835938 10.617188 C 17.859375 10.589844 17.878906 10.527344 17.878906 10.472656 C 17.878906 10.421875 17.859375 10.359375 17.835938 10.332031 C 17.800781 10.300781 17.289062 10.289062 15.769531 10.289062 C 14.25 10.289062 13.738281 10.300781 13.707031 10.332031 C 13.679688 10.355469 13.660156 10.421875 13.660156 10.472656 C 13.660156 10.527344 13.679688 10.589844 13.707031 10.617188 C 13.738281 10.648438 14.25 10.660156 15.769531 10.660156 C 17.289062 10.660156 17.800781 10.648438 17.835938 10.617188 Z M 17.84375 9.878906 C 17.90625 9.78125 17.882812 9.660156 17.796875 9.601562 C 17.71875 9.550781 17.464844 9.542969 15.769531 9.542969 C 14.078125 9.542969 13.820312 9.550781 13.746094 9.601562 C 13.632812 9.675781 13.636719 9.820312 13.746094 9.894531 C 13.824219 9.949219 14.058594 9.953125 15.820312 9.945312 C 17.535156 9.933594 17.8125 9.925781 17.84375 9.878906 Z M 0.441406 5.746094 C 0.253906 5.660156 0.136719 5.542969 0.0585938 5.359375 C 0.0078125 5.238281 0 4.910156 0 2.898438 C 0 0.722656 0.00390625 0.570312 0.0703125 0.429688 C 0.15625 0.25 0.277344 0.132812 0.46875 0.0585938 C 0.59375 0.0078125 1.570312 0 9.554688 0 C 17.539062 0 18.511719 0.0078125 18.640625 0.0585938 C 18.820312 0.132812 18.941406 0.242188 19.035156 0.417969 C 19.105469 0.554688 19.109375 0.652344 19.097656 2.960938 L 19.089844 5.359375 L 18.972656 5.503906 C 18.90625 5.582031 18.777344 5.683594 18.683594 5.730469 L 18.515625 5.816406 L 9.554688 5.8125 C 0.925781 5.8125 0.589844 5.8125 0.441406 5.746094 Z M 2.019531 4.925781 C 2.183594 4.8125 2.300781 4.589844 2.300781 4.40625 C 2.300781 4.253906 2.175781 4.015625 2.035156 3.90625 C 1.734375 3.65625 1.238281 3.761719 1.046875 4.113281 C 0.945312 4.296875 0.960938 4.585938 1.082031 4.761719 C 1.207031 4.949219 1.382812 5.03125 1.652344 5.03125 C 1.828125 5.03125 1.894531 5.011719 2.019531 4.925781 Z M 17.835938 4.726562 C 17.90625 4.65625 17.890625 4.480469 17.804688 4.4375 C 17.757812 4.410156 17.042969 4.398438 15.757812 4.398438 C 14.011719 4.398438 13.773438 4.40625 13.71875 4.457031 C 13.648438 4.527344 13.640625 4.664062 13.707031 4.726562 C 13.773438 4.792969 17.769531 4.792969 17.835938 4.726562 Z M 17.804688 4.023438 C 17.890625 3.980469 17.90625 3.804688 17.835938 3.734375 C 17.769531 3.671875 13.773438 3.671875 13.707031 3.734375 C 13.640625 3.796875 13.648438 3.933594 13.71875 4.003906 C 13.773438 4.054688 14.011719 4.0625 15.757812 4.0625 C 17.042969 4.0625 17.757812 4.050781 17.804688 4.023438 Z M 17.835938 3.273438 C 17.898438 3.210938 17.890625 3.074219 17.820312 3.003906 C 17.765625 2.953125 17.53125 2.945312 15.792969 2.945312 C 14.078125 2.945312 13.820312 2.953125 13.746094 3.003906 C 13.652344 3.066406 13.632812 3.203125 13.707031 3.273438 C 13.773438 3.335938 17.769531 3.335938 17.835938 3.273438 Z M 17.835938 3.273438 "/>
</g>
</svg>
