<?xml version="1.0" encoding="UTF-8"?>
<svg xmlns="http://www.w3.org/2000/svg" xmlns:xlink="http://www.w3.org/1999/xlink" width="20px" height="20px" viewBox="0 0 20 20" version="1.1">
<g id="surface1">
<path style=" stroke:none;fill-rule:evenodd;fill:rgb(28.627451%,62.352941%,14.901961%);fill-opacity:1;" d="M 18.4375 9.882812 C 18.4375 14.609375 14.605469 18.4375 9.882812 18.4375 C 5.160156 18.4375 1.332031 14.605469 1.332031 9.886719 C 1.332031 5.164062 5.164062 1.335938 9.882812 1.335938 C 14.609375 1.335938 18.4375 5.164062 18.4375 9.886719 "/>
<path style=" stroke:none;fill-rule:evenodd;fill:rgb(0%,0%,0%);fill-opacity:0.235294;" d="M 9.953125 4.273438 C 8.453125 4.273438 6.933594 5.273438 6.933594 6.792969 L 6.933594 9.554688 L 5.824219 9.554688 L 5.824219 15.726562 L 5.859375 15.726562 L 5.859375 15.765625 L 5.898438 15.765625 L 5.898438 15.804688 L 5.9375 15.804688 L 5.9375 15.84375 L 5.976562 15.84375 L 5.976562 15.882812 L 6.015625 15.882812 L 6.015625 15.921875 L 6.054688 15.921875 L 6.054688 15.960938 L 6.09375 15.960938 L 6.09375 16 L 6.132812 16 L 6.132812 16.039062 L 6.171875 16.039062 L 6.171875 16.078125 L 6.210938 16.078125 L 6.210938 16.117188 L 6.25 16.117188 L 6.25 16.15625 L 6.289062 16.15625 L 6.289062 16.195312 L 6.328125 16.195312 L 6.328125 16.234375 L 6.367188 16.234375 L 6.367188 16.273438 L 6.40625 16.273438 L 6.40625 16.3125 L 6.445312 16.3125 L 6.445312 16.351562 L 6.484375 16.351562 L 6.484375 16.390625 L 6.523438 16.390625 L 6.523438 16.425781 L 6.5625 16.425781 L 6.5625 16.464844 L 6.597656 16.464844 L 6.597656 16.503906 L 6.636719 16.503906 L 6.636719 16.542969 L 6.675781 16.542969 L 6.675781 16.582031 L 6.714844 16.582031 L 6.714844 16.621094 L 6.753906 16.621094 L 6.753906 16.660156 L 6.792969 16.660156 L 6.792969 16.699219 L 6.832031 16.699219 L 6.832031 16.738281 L 6.871094 16.738281 L 6.871094 16.777344 L 6.910156 16.777344 L 6.910156 16.816406 L 6.949219 16.816406 L 6.949219 16.855469 L 6.988281 16.855469 L 6.988281 16.894531 L 7.027344 16.894531 L 7.027344 16.933594 L 7.066406 16.933594 L 7.066406 16.972656 L 7.105469 16.972656 L 7.105469 17.011719 L 7.144531 17.011719 L 7.144531 17.050781 L 7.183594 17.050781 L 7.183594 17.089844 L 7.222656 17.089844 L 7.222656 17.128906 L 7.261719 17.128906 L 7.261719 17.164062 L 7.300781 17.164062 L 7.300781 17.203125 L 7.335938 17.203125 L 7.335938 17.242188 L 7.375 17.242188 L 7.375 17.28125 L 7.414062 17.28125 L 7.414062 17.320312 L 7.453125 17.320312 L 7.453125 17.359375 L 7.492188 17.359375 L 7.492188 17.398438 L 7.53125 17.398438 L 7.53125 17.4375 L 7.570312 17.4375 L 7.570312 17.476562 L 7.609375 17.476562 L 7.609375 17.515625 L 7.648438 17.515625 L 7.648438 17.554688 L 7.6875 17.554688 L 7.6875 17.59375 L 7.726562 17.59375 L 7.726562 17.632812 L 7.765625 17.632812 L 7.765625 17.671875 L 7.804688 17.671875 L 7.804688 17.710938 L 7.84375 17.710938 L 7.84375 17.75 L 7.882812 17.75 L 7.882812 17.789062 L 7.921875 17.789062 L 7.921875 17.828125 L 7.960938 17.828125 L 7.960938 17.867188 L 8 17.867188 L 8 17.90625 L 8.039062 17.90625 L 8.039062 17.945312 L 8.078125 17.945312 L 8.078125 17.984375 L 8.117188 17.984375 L 8.117188 18.023438 L 8.15625 18.023438 L 8.15625 18.0625 L 8.195312 18.0625 L 8.195312 18.101562 L 8.234375 18.101562 L 8.234375 18.136719 L 8.273438 18.136719 L 8.273438 18.175781 L 8.308594 18.175781 L 8.308594 18.214844 L 8.347656 18.214844 L 8.347656 18.253906 L 8.386719 18.253906 L 8.386719 18.292969 L 8.425781 18.292969 L 8.425781 18.3125 C 8.902344 18.394531 9.386719 18.4375 9.882812 18.4375 C 14.164062 18.4375 17.707031 15.292969 18.335938 11.191406 C 18.332031 11.1875 18.328125 11.183594 18.328125 11.179688 C 18.316406 11.171875 18.308594 11.164062 18.300781 11.15625 C 18.296875 11.152344 18.292969 11.144531 18.289062 11.140625 C 18.277344 11.132812 18.269531 11.125 18.261719 11.117188 C 18.257812 11.113281 18.253906 11.105469 18.25 11.101562 C 18.246094 11.097656 18.242188 11.09375 18.238281 11.089844 C 18.234375 11.089844 18.230469 11.085938 18.226562 11.082031 C 18.226562 11.078125 18.226562 11.078125 18.222656 11.078125 C 18.210938 11.066406 18.199219 11.050781 18.183594 11.039062 C 18.179688 11.035156 18.175781 11.027344 18.171875 11.023438 C 18.164062 11.015625 18.15625 11.007812 18.144531 11 C 18.132812 10.988281 18.121094 10.976562 18.105469 10.960938 C 18.101562 10.957031 18.097656 10.953125 18.09375 10.949219 C 18.085938 10.9375 18.078125 10.929688 18.066406 10.921875 C 18.0625 10.917969 18.058594 10.914062 18.054688 10.910156 C 18.046875 10.898438 18.039062 10.890625 18.027344 10.882812 C 18.023438 10.878906 18.019531 10.875 18.015625 10.871094 C 18.011719 10.867188 18.011719 10.867188 18.007812 10.863281 C 18.003906 10.859375 18 10.855469 18 10.851562 C 17.996094 10.851562 17.992188 10.847656 17.992188 10.84375 C 17.976562 10.832031 17.964844 10.820312 17.953125 10.804688 C 17.933594 10.789062 17.917969 10.769531 17.898438 10.753906 C 17.898438 10.75 17.894531 10.746094 17.890625 10.746094 C 17.871094 10.726562 17.855469 10.707031 17.835938 10.691406 C 17.832031 10.683594 17.824219 10.679688 17.820312 10.675781 C 17.8125 10.667969 17.804688 10.660156 17.796875 10.652344 C 17.792969 10.644531 17.785156 10.640625 17.78125 10.636719 C 17.78125 10.632812 17.777344 10.632812 17.777344 10.628906 C 17.773438 10.625 17.769531 10.621094 17.765625 10.621094 C 17.761719 10.617188 17.761719 10.613281 17.757812 10.613281 C 17.746094 10.597656 17.730469 10.585938 17.71875 10.574219 C 17.703125 10.554688 17.683594 10.535156 17.667969 10.519531 C 17.664062 10.515625 17.660156 10.515625 17.65625 10.511719 C 17.640625 10.492188 17.621094 10.476562 17.601562 10.457031 C 17.597656 10.453125 17.59375 10.445312 17.589844 10.441406 C 17.578125 10.433594 17.570312 10.425781 17.5625 10.417969 C 17.558594 10.414062 17.554688 10.40625 17.550781 10.402344 C 17.539062 10.394531 17.53125 10.386719 17.523438 10.378906 C 17.519531 10.375 17.515625 10.367188 17.511719 10.363281 C 17.507812 10.359375 17.503906 10.355469 17.5 10.351562 C 17.496094 10.347656 17.492188 10.34375 17.488281 10.34375 C 17.488281 10.339844 17.484375 10.339844 17.484375 10.339844 C 17.472656 10.328125 17.460938 10.3125 17.445312 10.300781 C 17.441406 10.296875 17.4375 10.289062 17.433594 10.285156 C 17.425781 10.277344 17.414062 10.269531 17.40625 10.261719 C 17.394531 10.25 17.382812 10.234375 17.367188 10.222656 C 17.363281 10.21875 17.359375 10.214844 17.355469 10.207031 C 17.347656 10.199219 17.335938 10.191406 17.328125 10.183594 C 17.324219 10.179688 17.320312 10.175781 17.316406 10.167969 C 17.308594 10.160156 17.296875 10.152344 17.289062 10.144531 C 17.285156 10.140625 17.28125 10.136719 17.277344 10.128906 C 17.273438 10.128906 17.269531 10.125 17.265625 10.121094 C 17.261719 10.117188 17.257812 10.113281 17.253906 10.109375 C 17.253906 10.109375 17.253906 10.105469 17.253906 10.105469 C 17.238281 10.09375 17.226562 10.082031 17.214844 10.066406 C 17.207031 10.0625 17.203125 10.058594 17.199219 10.050781 C 17.191406 10.042969 17.183594 10.035156 17.175781 10.027344 C 17.167969 10.023438 17.164062 10.019531 17.160156 10.011719 C 17.15625 10.011719 17.15625 10.007812 17.152344 10.007812 C 17.132812 9.988281 17.113281 9.96875 17.097656 9.953125 C 17.089844 9.945312 17.085938 9.941406 17.082031 9.9375 C 17.074219 9.929688 17.066406 9.921875 17.058594 9.914062 C 17.050781 9.90625 17.046875 9.902344 17.042969 9.898438 C 17.042969 9.894531 17.039062 9.894531 17.039062 9.890625 C 17.035156 9.886719 17.03125 9.882812 17.027344 9.878906 C 17.023438 9.878906 17.023438 9.875 17.019531 9.875 C 17.007812 9.859375 16.992188 9.847656 16.980469 9.835938 C 16.964844 9.816406 16.945312 9.796875 16.925781 9.78125 C 16.925781 9.777344 16.921875 9.777344 16.917969 9.773438 C 16.902344 9.753906 16.882812 9.734375 16.863281 9.71875 C 16.859375 9.714844 16.855469 9.707031 16.847656 9.703125 C 16.839844 9.695312 16.832031 9.6875 16.824219 9.679688 C 16.820312 9.675781 16.816406 9.667969 16.808594 9.664062 C 16.800781 9.65625 16.792969 9.648438 16.785156 9.640625 C 16.78125 9.636719 16.777344 9.628906 16.769531 9.625 C 16.765625 9.621094 16.765625 9.617188 16.761719 9.613281 C 16.757812 9.609375 16.753906 9.605469 16.75 9.601562 C 16.75 9.601562 16.746094 9.601562 16.746094 9.601562 C 16.734375 9.585938 16.71875 9.574219 16.707031 9.5625 C 16.703125 9.558594 16.699219 9.550781 16.695312 9.546875 C 16.6875 9.539062 16.675781 9.53125 16.667969 9.523438 C 16.65625 9.511719 16.644531 9.496094 16.628906 9.484375 C 16.625 9.480469 16.621094 9.476562 16.617188 9.46875 C 16.609375 9.460938 16.597656 9.453125 16.589844 9.445312 C 16.585938 9.441406 16.582031 9.4375 16.578125 9.429688 C 16.570312 9.421875 16.558594 9.414062 16.550781 9.40625 C 16.546875 9.402344 16.542969 9.398438 16.539062 9.390625 C 16.535156 9.390625 16.53125 9.386719 16.527344 9.382812 C 16.523438 9.378906 16.519531 9.375 16.515625 9.371094 C 16.515625 9.371094 16.515625 9.367188 16.515625 9.367188 C 16.5 9.355469 16.488281 9.34375 16.476562 9.328125 C 16.46875 9.324219 16.464844 9.320312 16.460938 9.3125 C 16.453125 9.304688 16.445312 9.296875 16.4375 9.289062 C 16.421875 9.277344 16.410156 9.265625 16.398438 9.25 C 16.390625 9.246094 16.386719 9.242188 16.382812 9.238281 C 16.375 9.230469 16.367188 9.222656 16.359375 9.210938 C 16.351562 9.207031 16.347656 9.203125 16.34375 9.199219 C 16.335938 9.191406 16.328125 9.183594 16.320312 9.171875 C 16.3125 9.167969 16.308594 9.164062 16.304688 9.160156 C 16.304688 9.15625 16.300781 9.15625 16.300781 9.152344 C 16.296875 9.148438 16.292969 9.144531 16.289062 9.140625 C 16.285156 9.140625 16.28125 9.136719 16.28125 9.132812 C 16.269531 9.121094 16.253906 9.109375 16.242188 9.09375 C 16.222656 9.078125 16.207031 9.058594 16.1875 9.042969 C 16.1875 9.039062 16.183594 9.039062 16.179688 9.035156 C 16.160156 9.015625 16.144531 8.996094 16.125 8.980469 C 16.121094 8.976562 16.117188 8.96875 16.109375 8.964844 C 16.101562 8.957031 16.09375 8.949219 16.085938 8.941406 C 16.082031 8.9375 16.078125 8.929688 16.070312 8.925781 C 16.070312 8.925781 16.066406 8.921875 16.066406 8.917969 C 16.0625 8.917969 16.058594 8.914062 16.054688 8.910156 C 16.050781 8.90625 16.050781 8.902344 16.046875 8.902344 C 16.035156 8.886719 16.019531 8.875 16.007812 8.863281 C 15.992188 8.84375 15.972656 8.828125 15.957031 8.808594 C 15.953125 8.804688 15.949219 8.804688 15.945312 8.800781 C 15.929688 8.78125 15.910156 8.765625 15.890625 8.746094 C 15.886719 8.742188 15.882812 8.738281 15.878906 8.730469 C 15.871094 8.722656 15.859375 8.714844 15.851562 8.707031 C 15.847656 8.703125 15.84375 8.699219 15.839844 8.691406 C 15.832031 8.683594 15.820312 8.675781 15.8125 8.667969 C 15.808594 8.664062 15.804688 8.660156 15.800781 8.652344 C 15.796875 8.648438 15.792969 8.644531 15.789062 8.644531 C 15.785156 8.640625 15.78125 8.636719 15.777344 8.632812 C 15.777344 8.632812 15.777344 8.628906 15.773438 8.628906 C 15.761719 8.617188 15.75 8.601562 15.734375 8.589844 C 15.730469 8.585938 15.726562 8.582031 15.722656 8.574219 C 15.714844 8.566406 15.707031 8.558594 15.695312 8.550781 C 15.683594 8.539062 15.671875 8.527344 15.65625 8.511719 C 15.652344 8.507812 15.648438 8.503906 15.644531 8.5 C 15.636719 8.492188 15.628906 8.480469 15.617188 8.472656 C 15.613281 8.46875 15.609375 8.464844 15.605469 8.460938 C 15.597656 8.453125 15.589844 8.441406 15.578125 8.433594 C 15.574219 8.429688 15.570312 8.425781 15.566406 8.421875 C 15.5625 8.417969 15.558594 8.414062 15.554688 8.410156 C 15.550781 8.40625 15.546875 8.402344 15.542969 8.398438 C 15.542969 8.398438 15.542969 8.398438 15.542969 8.394531 C 15.53125 8.382812 15.515625 8.371094 15.503906 8.355469 C 15.5 8.351562 15.492188 8.347656 15.488281 8.34375 C 15.480469 8.335938 15.472656 8.324219 15.464844 8.316406 C 15.449219 8.304688 15.4375 8.292969 15.425781 8.28125 C 15.421875 8.277344 15.414062 8.269531 15.410156 8.265625 C 15.402344 8.257812 15.394531 8.25 15.386719 8.242188 C 15.382812 8.238281 15.375 8.230469 15.371094 8.226562 C 15.363281 8.21875 15.355469 8.210938 15.347656 8.203125 C 15.34375 8.199219 15.335938 8.191406 15.332031 8.1875 C 15.332031 8.183594 15.328125 8.183594 15.328125 8.179688 C 15.324219 8.175781 15.320312 8.175781 15.316406 8.171875 C 15.3125 8.167969 15.3125 8.164062 15.308594 8.164062 C 15.296875 8.148438 15.28125 8.136719 15.269531 8.125 C 15.253906 8.105469 15.234375 8.089844 15.21875 8.070312 C 15.214844 8.066406 15.210938 8.066406 15.207031 8.0625 C 15.191406 8.042969 15.171875 8.027344 15.152344 8.007812 C 15.148438 8.003906 15.144531 8 15.140625 7.992188 C 15.128906 7.984375 15.121094 7.976562 15.113281 7.96875 C 15.109375 7.964844 15.105469 7.960938 15.101562 7.953125 C 15.089844 7.945312 15.082031 7.9375 15.074219 7.929688 C 15.070312 7.925781 15.066406 7.921875 15.0625 7.914062 C 15.058594 7.910156 15.054688 7.90625 15.050781 7.902344 C 15.046875 7.902344 15.042969 7.898438 15.039062 7.894531 C 15.039062 7.890625 15.039062 7.890625 15.035156 7.890625 C 15.019531 7.871094 15 7.855469 14.984375 7.835938 C 14.980469 7.835938 14.976562 7.832031 14.976562 7.828125 C 14.957031 7.8125 14.9375 7.792969 14.917969 7.773438 C 14.914062 7.769531 14.910156 7.765625 14.90625 7.761719 C 14.898438 7.753906 14.886719 7.742188 14.878906 7.734375 C 14.875 7.730469 14.871094 7.726562 14.867188 7.722656 C 14.859375 7.714844 14.851562 7.703125 14.839844 7.695312 C 14.835938 7.691406 14.832031 7.6875 14.828125 7.683594 C 14.824219 7.679688 14.820312 7.675781 14.816406 7.671875 C 14.8125 7.667969 14.808594 7.664062 14.804688 7.660156 C 14.804688 7.660156 14.804688 7.660156 14.804688 7.65625 C 14.789062 7.644531 14.777344 7.632812 14.765625 7.617188 C 14.757812 7.613281 14.753906 7.609375 14.75 7.605469 C 14.742188 7.597656 14.734375 7.585938 14.726562 7.578125 C 14.710938 7.566406 14.699219 7.554688 14.6875 7.542969 C 14.679688 7.535156 14.675781 7.53125 14.671875 7.527344 C 14.664062 7.519531 14.65625 7.511719 14.648438 7.503906 C 14.640625 7.496094 14.636719 7.492188 14.632812 7.488281 C 14.625 7.480469 14.617188 7.472656 14.609375 7.464844 C 14.601562 7.457031 14.597656 7.453125 14.59375 7.449219 C 14.589844 7.445312 14.585938 7.441406 14.582031 7.4375 C 14.578125 7.433594 14.578125 7.429688 14.574219 7.425781 C 14.570312 7.425781 14.570312 7.425781 14.570312 7.425781 C 14.558594 7.410156 14.542969 7.398438 14.53125 7.386719 C 14.527344 7.378906 14.523438 7.375 14.519531 7.371094 C 14.507812 7.363281 14.5 7.355469 14.492188 7.347656 C 14.488281 7.339844 14.484375 7.335938 14.480469 7.332031 C 14.476562 7.328125 14.472656 7.328125 14.46875 7.324219 C 14.453125 7.304688 14.433594 7.289062 14.414062 7.269531 C 14.410156 7.265625 14.40625 7.257812 14.398438 7.253906 C 14.390625 7.246094 14.382812 7.238281 14.375 7.230469 C 14.371094 7.226562 14.367188 7.21875 14.359375 7.214844 C 14.359375 7.214844 14.355469 7.210938 14.355469 7.210938 C 14.351562 7.207031 14.347656 7.203125 14.34375 7.199219 C 14.34375 7.195312 14.339844 7.195312 14.335938 7.191406 C 14.324219 7.179688 14.3125 7.164062 14.296875 7.152344 C 14.28125 7.132812 14.261719 7.117188 14.246094 7.097656 C 14.242188 7.097656 14.238281 7.09375 14.238281 7.089844 C 14.21875 7.074219 14.199219 7.054688 14.179688 7.035156 C 14.175781 7.03125 14.171875 7.027344 14.167969 7.023438 C 14.160156 7.011719 14.148438 7.003906 14.140625 6.996094 C 14.136719 6.992188 14.132812 6.988281 14.128906 6.984375 C 14.121094 6.972656 14.109375 6.964844 14.101562 6.957031 C 14.097656 6.953125 14.09375 6.949219 14.089844 6.945312 C 14.085938 6.941406 14.082031 6.9375 14.078125 6.933594 C 14.074219 6.929688 14.070312 6.925781 14.066406 6.921875 C 14.066406 6.921875 14.066406 6.921875 14.066406 6.917969 C 14.050781 6.90625 14.039062 6.894531 14.027344 6.878906 C 14.019531 6.875 14.015625 6.871094 14.011719 6.867188 C 14.003906 6.855469 13.996094 6.847656 13.988281 6.839844 C 13.972656 6.828125 13.960938 6.816406 13.949219 6.804688 C 13.941406 6.796875 13.9375 6.792969 13.933594 6.789062 C 13.925781 6.78125 13.917969 6.773438 13.910156 6.765625 C 13.902344 6.757812 13.898438 6.753906 13.894531 6.75 C 13.886719 6.742188 13.878906 6.734375 13.871094 6.726562 C 13.863281 6.71875 13.859375 6.714844 13.855469 6.710938 C 13.851562 6.707031 13.847656 6.703125 13.84375 6.699219 C 13.839844 6.695312 13.835938 6.691406 13.832031 6.6875 C 13.820312 6.671875 13.804688 6.660156 13.792969 6.648438 C 13.789062 6.640625 13.785156 6.636719 13.777344 6.632812 C 13.769531 6.625 13.761719 6.617188 13.753906 6.609375 C 13.742188 6.59375 13.726562 6.582031 13.714844 6.570312 C 13.710938 6.566406 13.707031 6.558594 13.699219 6.554688 C 13.691406 6.546875 13.683594 6.539062 13.675781 6.53125 C 13.671875 6.527344 13.667969 6.519531 13.660156 6.515625 C 13.652344 6.507812 13.644531 6.5 13.636719 6.492188 C 13.632812 6.488281 13.628906 6.480469 13.621094 6.476562 C 13.621094 6.476562 13.617188 6.472656 13.617188 6.472656 C 13.613281 6.46875 13.609375 6.464844 13.605469 6.460938 C 13.601562 6.457031 13.601562 6.457031 13.597656 6.453125 C 13.585938 6.441406 13.570312 6.425781 13.558594 6.414062 C 13.542969 6.394531 13.523438 6.378906 13.507812 6.359375 C 13.503906 6.355469 13.5 6.355469 13.5 6.351562 C 13.480469 6.335938 13.460938 6.316406 13.441406 6.296875 C 13.4375 6.292969 13.433594 6.289062 13.429688 6.28125 C 13.421875 6.273438 13.410156 6.265625 13.402344 6.257812 C 13.398438 6.253906 13.394531 6.25 13.390625 6.242188 C 13.382812 6.234375 13.371094 6.226562 13.363281 6.21875 C 13.359375 6.214844 13.355469 6.210938 13.351562 6.203125 C 13.347656 6.203125 13.34375 6.199219 13.339844 6.195312 C 13.335938 6.191406 13.332031 6.1875 13.328125 6.183594 C 13.328125 6.183594 13.328125 6.179688 13.324219 6.179688 C 13.308594 6.164062 13.292969 6.144531 13.273438 6.125 C 13.269531 6.125 13.269531 6.121094 13.265625 6.121094 C 13.246094 6.101562 13.226562 6.082031 13.207031 6.066406 C 13.203125 6.058594 13.199219 6.054688 13.195312 6.050781 C 13.1875 6.042969 13.179688 6.035156 13.167969 6.027344 C 13.164062 6.019531 13.160156 6.015625 13.15625 6.011719 C 13.148438 6.003906 13.140625 5.996094 13.128906 5.988281 C 13.125 5.980469 13.121094 5.976562 13.117188 5.972656 C 13.113281 5.96875 13.109375 5.964844 13.105469 5.960938 C 13.101562 5.957031 13.097656 5.953125 13.09375 5.949219 C 13.082031 5.933594 13.066406 5.921875 13.054688 5.910156 C 13.050781 5.902344 13.042969 5.898438 13.039062 5.894531 C 13.03125 5.886719 13.023438 5.878906 13.015625 5.871094 C 13 5.855469 12.988281 5.84375 12.976562 5.832031 C 12.972656 5.828125 12.964844 5.820312 12.960938 5.816406 C 12.953125 5.808594 12.945312 5.800781 12.9375 5.792969 C 12.933594 5.789062 12.925781 5.78125 12.921875 5.777344 C 12.914062 5.769531 12.90625 5.761719 12.898438 5.753906 C 12.894531 5.75 12.886719 5.742188 12.882812 5.738281 C 12.878906 5.734375 12.875 5.730469 12.875 5.726562 C 12.871094 5.722656 12.867188 5.71875 12.863281 5.714844 C 12.859375 5.714844 12.859375 5.714844 12.859375 5.714844 C 12.847656 5.699219 12.832031 5.6875 12.820312 5.675781 C 12.816406 5.671875 12.8125 5.664062 12.808594 5.660156 C 12.796875 5.652344 12.789062 5.644531 12.78125 5.636719 C 12.777344 5.632812 12.773438 5.625 12.769531 5.621094 C 12.765625 5.617188 12.761719 5.617188 12.757812 5.613281 C 12.742188 5.59375 12.722656 5.578125 12.703125 5.558594 C 12.699219 5.554688 12.695312 5.550781 12.691406 5.542969 C 12.679688 5.535156 12.671875 5.527344 12.664062 5.519531 C 12.660156 5.515625 12.65625 5.511719 12.652344 5.503906 C 12.648438 5.503906 12.648438 5.5 12.644531 5.5 C 12.640625 5.496094 12.636719 5.492188 12.632812 5.488281 C 12.632812 5.484375 12.628906 5.484375 12.625 5.480469 C 12.613281 5.46875 12.601562 5.453125 12.585938 5.441406 C 12.570312 5.425781 12.550781 5.40625 12.535156 5.386719 C 12.53125 5.386719 12.527344 5.382812 12.527344 5.382812 C 12.507812 5.363281 12.488281 5.34375 12.46875 5.324219 C 12.464844 5.320312 12.460938 5.316406 12.457031 5.3125 C 12.449219 5.304688 12.441406 5.296875 12.429688 5.285156 C 12.425781 5.28125 12.421875 5.277344 12.417969 5.273438 C 12.410156 5.265625 12.402344 5.257812 12.390625 5.246094 C 12.386719 5.242188 12.382812 5.238281 12.378906 5.234375 C 12.375 5.230469 12.375 5.226562 12.371094 5.226562 C 12.367188 5.21875 12.359375 5.214844 12.355469 5.207031 C 12.347656 5.203125 12.34375 5.199219 12.339844 5.195312 C 11.804688 4.660156 10.984375 4.273438 9.949219 4.273438 "/>
<path style=" stroke:none;fill-rule:evenodd;fill:rgb(0%,0%,0%);fill-opacity:0.0666667;" d="M 10 0.0390625 C 4.5 0.0390625 0.0390625 4.5 0.0390625 10 C 0.0390625 15.5 4.5 19.960938 10 19.960938 C 15.5 19.960938 19.960938 15.5 19.960938 10 C 19.960938 4.5 15.5 0.0390625 10 0.0390625 M 10.34375 1.792969 C 15.066406 1.792969 18.894531 5.621094 18.894531 10.34375 C 18.894531 15.066406 15.066406 18.894531 10.34375 18.894531 C 5.621094 18.894531 1.792969 15.066406 1.792969 10.34375 C 1.792969 5.621094 5.621094 1.792969 10.34375 1.792969 "/>
<path style=" stroke:none;fill-rule:evenodd;fill:rgb(0%,0%,0%);fill-opacity:0.129412;" d="M 10 0.171875 C 4.574219 0.171875 0.171875 4.574219 0.171875 10 C 0.171875 15.425781 4.574219 19.828125 10 19.828125 C 15.425781 19.828125 19.828125 15.425781 19.828125 10 C 19.828125 4.574219 15.425781 0.171875 10 0.171875 M 10.230469 1.679688 C 14.953125 1.679688 18.78125 5.507812 18.78125 10.230469 C 18.78125 14.953125 14.953125 18.78125 10.230469 18.78125 C 5.507812 18.78125 1.679688 14.953125 1.679688 10.230469 C 1.679688 5.507812 5.507812 1.679688 10.230469 1.679688 "/>
<path style=" stroke:none;fill-rule:evenodd;fill:rgb(0%,0%,0%);fill-opacity:0.129412;" d="M 10 0.328125 C 4.65625 0.328125 0.328125 4.65625 0.328125 10 C 0.328125 15.34375 4.65625 19.671875 10 19.671875 C 15.34375 19.671875 19.671875 15.34375 19.671875 10 C 19.671875 4.65625 15.34375 0.328125 10 0.328125 M 10.113281 1.5625 C 14.835938 1.5625 18.664062 5.390625 18.664062 10.113281 C 18.664062 14.835938 14.835938 18.664062 10.113281 18.664062 C 5.390625 18.664062 1.5625 14.835938 1.5625 10.113281 C 1.5625 5.390625 5.390625 1.5625 10.113281 1.5625 "/>
<path style="fill-rule:evenodd;fill:rgb(100%,100%,100%);fill-opacity:1;stroke-width:4.904;stroke-linecap:butt;stroke-linejoin:miter;stroke:rgb(0%,0%,0%);stroke-opacity:0.309804;stroke-miterlimit:4;" d="M 253 7.9 C 117.6 7.9 7.8 117.6 7.8 253 C 7.8 388.5 117.6 498.2 253 498.2 C 388.5 498.2 498.2 388.5 498.2 253 C 498.2 117.6 388.5 7.9 253 7.9 Z M 253 34.2 C 373.9 34.2 471.9 132.2 471.9 253.1 C 471.9 374 373.9 472 253 472 C 132.1 472 34.1 374 34.1 253.1 C 34.1 132.2 132.1 34.2 253 34.2 Z M 253 34.2 " transform="matrix(0.0390625,0,0,0.0390625,0,0)"/>
<path style=" stroke:none;fill-rule:evenodd;fill:rgb(100%,100%,100%);fill-opacity:1;" d="M 9.953125 4.273438 C 8.453125 4.273438 6.933594 5.273438 6.933594 6.792969 L 6.933594 9.554688 L 5.824219 9.554688 L 5.824219 15.726562 L 14.175781 15.726562 L 14.175781 9.554688 C 12.199219 9.554688 10.117188 9.554688 8.304688 9.554688 L 8.308594 9.554688 L 8.308594 7.085938 C 8.308594 6.152344 9.234375 5.660156 9.929688 5.65625 C 10.738281 5.652344 11.617188 6.214844 11.617188 7.074219 L 11.617188 7.472656 L 12.925781 7.472656 C 12.960938 7.472656 12.996094 7.476562 13.03125 7.480469 L 13.03125 6.714844 C 13.03125 5.574219 11.851562 4.273438 9.953125 4.273438 M 9.96875 10.910156 C 10.429688 10.910156 10.804688 11.285156 10.804688 11.746094 C 10.804688 12.019531 10.667969 12.265625 10.464844 12.417969 L 10.796875 14.277344 L 9.152344 14.277344 L 9.484375 12.425781 C 9.269531 12.273438 9.132812 12.027344 9.132812 11.746094 C 9.132812 11.285156 9.503906 10.910156 9.96875 10.910156 "/>
</g>
</svg>
