<?xml version="1.0" encoding="UTF-8"?>
<svg xmlns="http://www.w3.org/2000/svg" xmlns:xlink="http://www.w3.org/1999/xlink" width="18px" height="18px" viewBox="0 0 18 17" version="1.1">
<g id="surface1">
<path style=" stroke:none;fill-rule:nonzero;fill:rgb(25.098039%,70.980392%,89.803922%);fill-opacity:1;" d="M 17.707031 10.636719 C 16.730469 14.355469 13.160156 17 8.953125 17 C 4.726562 17 1.1875 14.199219 0.25 10.464844 C 1.375 10.464844 2.429688 10.46875 2.917969 10.46875 C 3.148438 10.46875 3.191406 10.472656 3.207031 10.472656 C 3.574219 10.457031 4.035156 10.339844 4.339844 9.632812 L 5.507812 6.734375 L 8.105469 12.675781 C 8.335938 13.148438 8.726562 13.128906 8.960938 13.128906 L 8.980469 13.128906 C 9.433594 13.128906 9.632812 12.964844 9.804688 12.652344 L 12.734375 6.789062 L 13.734375 9.421875 L 13.796875 9.546875 C 14.007812 9.988281 14.160156 10.421875 14.683594 10.480469 C 14.792969 10.488281 16.042969 10.46875 17.734375 10.46875 C 17.734375 10.46875 17.734375 10.480469 17.707031 10.636719 Z M 17.707031 10.636719 "/>
<path style=" stroke:none;fill-rule:nonzero;fill:rgb(84.705882%,16.862745%,18.039216%);fill-opacity:1;" d="M 17.992188 8.449219 C 17.992188 8.492188 17.992188 8.605469 17.992188 8.605469 L 15.296875 8.605469 L 13.722656 4.441406 C 13.582031 4.128906 13.371094 3.664062 12.757812 3.664062 C 12.382812 3.664062 12.046875 3.957031 11.851562 4.441406 L 9.003906 10.703125 L 6.257812 4.480469 C 5.988281 3.929688 5.804688 3.667969 5.265625 3.667969 C 4.902344 3.667969 4.632812 3.796875 4.34375 4.449219 L 2.714844 8.664062 L 0.0078125 8.660156 C 0.0078125 8.597656 0.0078125 8.535156 0.0078125 8.46875 C 0.0078125 3.785156 4.011719 0 8.953125 0 C 13.894531 0 17.992188 3.765625 17.992188 8.449219 Z M 17.992188 8.449219 "/>
</g>
</svg>
