<?xml version="1.0" encoding="UTF-8"?>
<svg xmlns="http://www.w3.org/2000/svg" xmlns:xlink="http://www.w3.org/1999/xlink" width="19px" height="20px" viewBox="0 0 19 19" version="1.1">
<g id="surface1">
<path style=" stroke:none;fill-rule:nonzero;fill:rgb(0%,73.72549%,94.901961%);fill-opacity:1;" d="M 8.320312 18.964844 C 7.40625 18.792969 6.617188 18.195312 6.234375 17.382812 C 6.066406 17.027344 5.996094 16.691406 5.996094 16.261719 C 6 15.03125 6.808594 14 8.066406 13.628906 C 8.300781 13.558594 8.453125 13.542969 8.808594 13.539062 C 9.054688 13.539062 9.328125 13.554688 9.414062 13.570312 L 9.566406 13.597656 L 9.761719 13.242188 C 10.152344 12.511719 10.761719 11.941406 11.550781 11.5625 C 12.203125 11.25 12.613281 11.160156 13.367188 11.160156 C 13.898438 11.160156 14.019531 11.171875 14.363281 11.257812 C 15.835938 11.632812 16.984375 12.742188 17.347656 14.136719 C 17.4375 14.484375 17.484375 15.269531 17.429688 15.578125 L 17.394531 15.789062 L 17.601562 15.832031 C 18.121094 15.941406 18.566406 16.289062 18.792969 16.757812 C 19.019531 17.21875 18.980469 17.816406 18.691406 18.253906 C 18.542969 18.476562 18.253906 18.722656 18.015625 18.832031 C 17.890625 18.890625 17.761719 18.953125 17.722656 18.96875 C 17.640625 19.011719 8.542969 19.007812 8.320312 18.964844 Z M 17.777344 18.449219 C 18.035156 18.328125 18.289062 18.058594 18.394531 17.789062 C 18.613281 17.238281 18.320312 16.59375 17.738281 16.347656 C 17.59375 16.285156 17.484375 16.269531 17.175781 16.273438 C 16.96875 16.273438 16.796875 16.261719 16.796875 16.242188 C 16.796875 16.226562 16.835938 16.066406 16.882812 15.882812 C 17.003906 15.421875 17.003906 14.679688 16.878906 14.230469 C 16.609375 13.234375 15.90625 12.40625 14.945312 11.945312 C 14.523438 11.742188 14.121094 11.648438 13.574219 11.628906 C 12.761719 11.597656 12.195312 11.71875 11.570312 12.0625 C 10.839844 12.460938 10.210938 13.183594 9.96875 13.902344 C 9.921875 14.042969 9.867188 14.15625 9.84375 14.15625 C 9.820312 14.15625 9.6875 14.117188 9.546875 14.074219 C 9.160156 13.953125 8.5 13.960938 8.113281 14.089844 C 7.722656 14.222656 7.445312 14.390625 7.152344 14.667969 C 6.714844 15.085938 6.472656 15.65625 6.472656 16.261719 C 6.472656 17.164062 6.988281 17.953125 7.832031 18.339844 C 8.320312 18.558594 8.152344 18.550781 13.074219 18.542969 L 17.597656 18.539062 Z M 4.734375 16.707031 C 3.101562 16.496094 1.839844 16.101562 0.910156 15.511719 C 0.527344 15.269531 0.261719 14.996094 0.113281 14.695312 L 0 14.46875 L 0.0117188 8.332031 L 0.0195312 2.199219 L 0.113281 2.035156 C 0.347656 1.609375 0.808594 1.25 1.539062 0.914062 C 2.460938 0.488281 3.523438 0.222656 5.007812 0.046875 C 5.621094 -0.0234375 7.695312 -0.0117188 8.320312 0.0664062 C 10.628906 0.363281 12.421875 1.085938 12.992188 1.949219 C 13.21875 2.292969 13.210938 2.167969 13.210938 6.625 L 13.210938 10.71875 L 13.085938 10.738281 C 13.015625 10.75 12.859375 10.769531 12.734375 10.78125 C 11.464844 10.910156 10.144531 11.75 9.46875 12.863281 L 9.332031 13.09375 L 8.785156 13.117188 C 8.144531 13.144531 7.816406 13.222656 7.328125 13.46875 C 6.492188 13.886719 5.890625 14.609375 5.648438 15.5 C 5.578125 15.742188 5.558594 15.921875 5.558594 16.289062 L 5.554688 16.765625 L 5.339844 16.761719 C 5.222656 16.757812 4.949219 16.734375 4.734375 16.707031 Z M 8.0625 11.054688 C 7.753906 10.804688 7.488281 10.589844 7.472656 10.574219 C 7.453125 10.558594 7.515625 10.503906 7.613281 10.449219 C 7.824219 10.332031 8.097656 10.046875 8.210938 9.824219 C 8.496094 9.28125 8.488281 8.605469 8.195312 8.066406 C 7.875 7.476562 7.199219 7.164062 6.4375 7.257812 C 6.019531 7.308594 5.757812 7.417969 5.480469 7.667969 C 5.046875 8.054688 4.894531 8.4375 4.917969 9.097656 C 4.929688 9.46875 4.945312 9.535156 5.054688 9.761719 C 5.296875 10.25 5.796875 10.617188 6.308594 10.675781 C 6.503906 10.695312 6.519531 10.707031 6.902344 11.101562 L 7.296875 11.507812 L 8.617188 11.507812 L 8.058594 11.054688 Z M 6.390625 9.78125 C 6.125 9.652344 6.023438 9.429688 6.023438 8.972656 C 6.023438 8.675781 6.035156 8.585938 6.113281 8.4375 C 6.234375 8.199219 6.480469 8.058594 6.71875 8.082031 C 6.953125 8.109375 7.074219 8.199219 7.199219 8.441406 C 7.292969 8.625 7.308594 8.695312 7.308594 8.988281 C 7.308594 9.351562 7.238281 9.535156 7.046875 9.703125 C 6.851562 9.882812 6.644531 9.90625 6.390625 9.78125 Z M 3.695312 10.648438 C 4.398438 10.492188 4.78125 9.925781 4.578125 9.34375 C 4.476562 9.046875 4.261719 8.863281 3.734375 8.621094 C 3.492188 8.511719 3.273438 8.394531 3.25 8.367188 C 3.160156 8.257812 3.160156 8.1875 3.25 8.089844 C 3.386719 7.933594 3.699219 7.929688 4.121094 8.066406 L 4.445312 8.175781 L 4.421875 7.347656 L 4.207031 7.300781 C 3.882812 7.226562 3.183594 7.230469 2.910156 7.308594 C 2.355469 7.460938 2.066406 7.808594 2.066406 8.308594 C 2.070312 8.820312 2.308594 9.066406 3.164062 9.410156 C 3.523438 9.558594 3.566406 9.832031 3.242188 9.9375 C 3.09375 9.988281 3.050781 9.988281 2.816406 9.929688 C 2.671875 9.894531 2.453125 9.816406 2.328125 9.753906 L 2.105469 9.640625 L 2.105469 10.535156 L 2.328125 10.59375 C 2.453125 10.628906 2.570312 10.660156 2.589844 10.667969 C 2.679688 10.695312 3.539062 10.683594 3.695312 10.648438 Z M 11.222656 10.257812 L 11.222656 9.867188 L 9.976562 9.867188 L 9.976562 7.292969 L 8.964844 7.292969 L 8.964844 10.648438 L 11.222656 10.648438 Z M 8.222656 3.542969 C 9.238281 3.429688 10.074219 3.226562 10.601562 2.960938 C 10.945312 2.785156 11.03125 2.722656 11.164062 2.535156 C 11.574219 1.957031 10.652344 1.371094 8.867188 1.082031 C 7.1875 0.808594 4.976562 0.871094 3.5625 1.230469 C 0.640625 1.96875 1.792969 3.332031 5.566406 3.597656 C 6.1875 3.644531 7.582031 3.613281 8.222656 3.542969 Z M 8.222656 3.542969 "/>
</g>
</svg>
