<?xml version="1.0" encoding="UTF-8"?>
<svg xmlns="http://www.w3.org/2000/svg" xmlns:xlink="http://www.w3.org/1999/xlink" width="20px" height="20px" viewBox="0 0 20 20" version="1.1">
<g id="surface1">
<path style=" stroke:none;fill-rule:nonzero;fill:rgb(0%,0%,0%);fill-opacity:1;" d="M 10 18.976562 C 9.960938 18.976562 9.921875 18.964844 9.886719 18.945312 L 2.386719 14.570312 C 2.316406 14.527344 2.273438 14.453125 2.273438 14.375 L 2.273438 5.625 L 2.726562 5.625 L 2.726562 14.246094 L 10 18.488281 L 17.273438 14.246094 L 17.273438 8.75 L 17.726562 8.75 L 17.726562 14.375 C 17.726562 14.453125 17.683594 14.527344 17.613281 14.570312 L 10.113281 18.945312 C 10.078125 18.964844 10.039062 18.976562 10 18.976562 Z M 10 12.726562 C 8.496094 12.726562 7.273438 11.503906 7.273438 10 C 7.273438 8.496094 8.496094 7.273438 10 7.273438 C 10.945312 7.273438 11.78125 7.757812 12.269531 8.492188 L 17.058594 5.628906 L 10 1.511719 L 7.726562 2.832031 L 7.726562 6.25 L 7.273438 6.25 L 7.273438 2.703125 C 7.273438 2.625 7.316406 2.546875 7.386719 2.507812 L 9.886719 1.054688 C 9.957031 1.015625 10.042969 1.015625 10.113281 1.054688 L 17.613281 5.429688 C 17.679688 5.46875 17.722656 5.542969 17.726562 5.625 C 17.726562 5.703125 17.683594 5.777344 17.613281 5.816406 L 12.488281 8.886719 C 12.640625 9.226562 12.726562 9.605469 12.726562 10 C 12.726562 11.503906 11.503906 12.726562 10 12.726562 Z M 10 7.726562 C 8.746094 7.726562 7.726562 8.746094 7.726562 10 C 7.726562 11.253906 8.746094 12.273438 10 12.273438 C 11.253906 12.273438 12.273438 11.253906 12.273438 10 C 12.273438 8.746094 11.253906 7.726562 10 7.726562 Z M 5.226562 10 L 4.773438 10 L 4.773438 3.75 L 5.226562 3.75 Z M 5.226562 10 "/>
</g>
</svg>
