<?xml version="1.0" encoding="UTF-8"?>
<svg xmlns="http://www.w3.org/2000/svg"
  xmlns:xlink="http://www.w3.org/1999/xlink" width="30px" height="30px" viewBox="0 0 30 30" version="1.1">
  <g id="surface1">
    <path style=" stroke:none;fill-rule:nonzero;fill:rgb(0%,0%,0%);fill-opacity:1;" d="M 18.898438 6.425781 C 18.847656 6.257812 18.726562 6.121094 18.5625 6.054688 C 18.402344 5.984375 18.21875 5.988281 18.0625 6.066406 C 17.710938 6.234375 17.671875 6.601562 17.839844 6.964844 L 20.570312 13.785156 C 20.734375 14.140625 21.046875 14.347656 21.394531 14.179688 C 21.554688 14.09375 21.667969 13.945312 21.714844 13.769531 C 21.757812 13.59375 21.730469 13.40625 21.632812 13.253906 Z M 18.898438 6.425781 "/>
    <path style=" stroke:none;fill-rule:nonzero;fill:rgb(0%,0%,0%);fill-opacity:1;" d="M 15.074219 11.15625 C 16.617188 11.15625 17.851562 12.5625 17.851562 14.296875 C 17.851562 16.027344 16.617188 17.4375 15.074219 17.4375 C 13.53125 17.4375 12.300781 16.03125 12.300781 14.296875 C 12.300781 12.558594 13.53125 11.15625 15.074219 11.15625 Z M 15.074219 11.15625 "/>
    <path style=" stroke:none;fill-rule:nonzero;fill:rgb(0%,0%,0%);fill-opacity:1;" d="M 8.667969 18.128906 L 12.667969 18.578125 L 13.589844 24 L 12.449219 24 C 12.136719 23.996094 11.859375 23.785156 11.777344 23.480469 L 10.960938 20.539062 L 7.554688 20.15625 C 7.023438 20.082031 6.550781 19.773438 6.269531 19.320312 C 5.988281 18.863281 5.925781 18.304688 6.097656 17.796875 L 7.855469 12.671875 C 7.945312 12.40625 8.136719 12.1875 8.390625 12.0625 C 8.640625 11.9375 8.933594 11.921875 9.199219 12.015625 C 9.75 12.214844 10.035156 12.824219 9.84375 13.378906 L 8.371094 17.65625 C 8.335938 17.761719 8.347656 17.871094 8.40625 17.964844 C 8.464844 18.054688 8.558594 18.117188 8.667969 18.128906 Z M 8.667969 18.128906 "/>
    <path style=" stroke:none;fill-rule:nonzero;fill:rgb(0%,0%,0%);fill-opacity:1;" d="M 17.761719 24 L 16.5625 24 L 17.464844 18.640625 L 21.246094 19.359375 C 21.363281 19.378906 21.480469 19.339844 21.5625 19.253906 C 21.644531 19.167969 21.679688 19.046875 21.652344 18.929688 L 21.117188 16.53125 C 20.980469 15.957031 21.328125 15.382812 21.898438 15.238281 C 22.171875 15.175781 22.460938 15.222656 22.699219 15.371094 C 22.9375 15.519531 23.105469 15.753906 23.167969 16.027344 L 23.949219 19.5 C 24.09375 20.082031 23.9375 20.695312 23.53125 21.132812 C 23.125 21.574219 22.523438 21.777344 21.933594 21.675781 L 19.042969 21.128906 L 18.445312 23.480469 C 18.363281 23.789062 18.082031 24.003906 17.761719 24 Z M 17.761719 24 "/>
    <path style=" stroke:none;fill-rule:nonzero;fill:rgb(0%,0%,0%);fill-opacity:1;" d="M 13.992188 19.234375 C 13.863281 19.3125 13.703125 19.316406 13.570312 19.242188 C 13.4375 19.167969 13.359375 19.027344 13.363281 18.875 L 13.363281 18.214844 C 13.359375 18.0625 13.4375 17.921875 13.570312 17.847656 C 13.703125 17.773438 13.863281 17.773438 13.992188 17.855469 L 15.074219 18.546875 Z M 13.992188 19.234375 "/>
    <path style=" stroke:none;fill-rule:nonzero;fill:rgb(0%,0%,0%);fill-opacity:1;" d="M 15.074219 18.546875 L 16.15625 17.855469 C 16.285156 17.769531 16.449219 17.761719 16.585938 17.835938 C 16.722656 17.914062 16.804688 18.058594 16.800781 18.214844 L 16.800781 18.875 C 16.800781 19.027344 16.722656 19.167969 16.589844 19.242188 C 16.457031 19.316406 16.296875 19.3125 16.167969 19.234375 Z M 15.074219 18.546875 "/>
  </g>
</svg>
