<?xml version="1.0" encoding="UTF-8"?>
<svg xmlns="http://www.w3.org/2000/svg" xmlns:xlink="http://www.w3.org/1999/xlink" width="20px" height="20px" viewBox="0 0 20 20" version="1.1">
<g id="surface1">
<path style="fill-rule:nonzero;fill:rgb(100%,100%,100%);fill-opacity:1;stroke-width:2;stroke-linecap:butt;stroke-linejoin:miter;stroke:rgb(0%,0%,0%);stroke-opacity:1;stroke-miterlimit:4;" d="M 14.999219 0.998047 L 58.000781 0.998047 C 65.728516 0.998047 72.001953 7.271484 72.001953 14.999219 L 72.001953 58.000781 C 72.001953 65.728516 65.728516 72.001953 58.000781 72.001953 L 14.999219 72.001953 C 7.271484 72.001953 0.998047 65.728516 0.998047 58.000781 L 0.998047 14.999219 C 0.998047 7.271484 7.271484 0.998047 14.999219 0.998047 Z M 14.999219 0.998047 " transform="matrix(0.273973,0,0,0.273973,0,0)"/>
<path style=" stroke:none;fill-rule:nonzero;fill:rgb(50.196078%,32.54902%,20%);fill-opacity:1;" d="M 11.632812 6.78125 C 11.539062 6.726562 11.496094 6.617188 11.53125 6.511719 C 11.734375 5.9375 12.15625 4.21875 11.507812 3.84375 C 11.398438 3.78125 11.363281 3.640625 11.421875 3.535156 C 11.484375 3.425781 11.625 3.390625 11.730469 3.453125 C 12.820312 4.082031 12.050781 6.398438 11.957031 6.660156 C 11.917969 6.777344 11.789062 6.839844 11.671875 6.800781 C 11.65625 6.792969 11.644531 6.789062 11.632812 6.78125 "/>
<path style=" stroke:none;fill-rule:nonzero;fill:rgb(50.196078%,32.54902%,20%);fill-opacity:1;" d="M 12.023438 7.007812 C 12.011719 7 12 6.992188 11.988281 6.980469 C 11.894531 6.902344 11.882812 6.757812 11.964844 6.664062 C 12.148438 6.453125 13.773438 4.628906 14.859375 5.257812 C 14.964844 5.320312 15.003906 5.457031 14.941406 5.566406 C 14.878906 5.671875 14.742188 5.710938 14.632812 5.648438 C 13.984375 5.273438 12.703125 6.5 12.308594 6.960938 C 12.234375 7.042969 12.117188 7.058594 12.023438 7.007812 "/>
<path style=" stroke:none;fill-rule:nonzero;fill:rgb(50.196078%,32.54902%,20%);fill-opacity:1;" d="M 10.144531 8.007812 C 10.101562 7.980469 10.066406 7.941406 10.046875 7.890625 L 8.914062 4.890625 C 8.902344 4.867188 8.898438 4.839844 8.898438 4.808594 L 8.90625 2.992188 C 8.90625 2.867188 9.007812 2.765625 9.132812 2.765625 C 9.257812 2.765625 9.359375 2.867188 9.355469 2.992188 L 9.347656 4.769531 L 10.46875 7.730469 C 10.511719 7.847656 10.453125 7.976562 10.335938 8.023438 C 10.269531 8.046875 10.199219 8.039062 10.144531 8.007812 "/>
<path style=" stroke:none;fill-rule:nonzero;fill:rgb(50.196078%,32.54902%,20%);fill-opacity:1;" d="M 11.707031 8.910156 C 11.652344 8.875 11.609375 8.820312 11.597656 8.75 C 11.578125 8.625 11.660156 8.511719 11.785156 8.492188 L 14.90625 7.980469 L 16.441406 7.085938 C 16.550781 7.019531 16.6875 7.058594 16.75 7.164062 C 16.8125 7.273438 16.777344 7.410156 16.667969 7.472656 L 15.097656 8.390625 C 15.074219 8.40625 15.046875 8.414062 15.019531 8.417969 L 11.855469 8.9375 C 11.804688 8.945312 11.75 8.933594 11.707031 8.910156 "/>
<path style=" stroke:none;fill-rule:nonzero;fill:rgb(50.196078%,32.54902%,20%);fill-opacity:1;" d="M 3.429688 13.769531 C 3.40625 13.753906 3.386719 13.738281 3.371094 13.714844 C 3.289062 13.621094 3.304688 13.476562 3.402344 13.398438 L 4.316406 12.644531 C 4.691406 12.335938 5.128906 12.117188 5.613281 11.988281 L 5.679688 11.972656 C 6.261719 11.816406 6.765625 11.492188 7.140625 11.039062 C 7.394531 10.730469 7.839844 10.304688 8.511719 10.027344 C 8.625 9.980469 8.757812 10.035156 8.804688 10.152344 C 8.851562 10.265625 8.796875 10.398438 8.679688 10.445312 C 8.097656 10.6875 7.710938 11.058594 7.488281 11.328125 C 7.054688 11.851562 6.46875 12.226562 5.796875 12.40625 L 5.726562 12.425781 C 5.304688 12.535156 4.929688 12.726562 4.605469 12.992188 L 3.6875 13.746094 C 3.613281 13.808594 3.511719 13.8125 3.429688 13.769531 "/>
<path style=" stroke:none;fill-rule:nonzero;fill:rgb(50.196078%,32.54902%,20%);fill-opacity:1;" d="M 3.867188 9.851562 C 3.78125 9.804688 3.738281 9.703125 3.761719 9.601562 C 3.792969 9.480469 3.914062 9.410156 4.035156 9.4375 L 5.589844 9.828125 L 8.90625 9.429688 C 9.03125 9.414062 9.144531 9.5 9.15625 9.625 C 9.171875 9.75 9.085938 9.859375 8.960938 9.875 L 5.601562 10.28125 C 5.574219 10.285156 5.546875 10.28125 5.519531 10.273438 L 3.925781 9.875 C 3.90625 9.871094 3.886719 9.863281 3.867188 9.851562 "/>
<path style=" stroke:none;fill-rule:nonzero;fill:rgb(50.196078%,32.54902%,20%);fill-opacity:1;" d="M 10.074219 17.605469 C 9.996094 17.558594 9.949219 17.464844 9.964844 17.371094 L 10.160156 16.199219 C 10.226562 15.785156 10.203125 15.363281 10.089844 14.945312 L 10.070312 14.871094 C 9.890625 14.199219 9.921875 13.507812 10.160156 12.871094 C 10.28125 12.542969 10.410156 12.019531 10.324219 11.394531 C 10.308594 11.273438 10.394531 11.160156 10.519531 11.140625 C 10.644531 11.125 10.757812 11.210938 10.773438 11.335938 C 10.871094 12.054688 10.722656 12.652344 10.582031 13.027344 C 10.378906 13.578125 10.351562 14.175781 10.503906 14.757812 L 10.523438 14.824219 C 10.65625 15.308594 10.683594 15.796875 10.605469 16.273438 L 10.410156 17.445312 C 10.390625 17.570312 10.273438 17.652344 10.148438 17.632812 C 10.121094 17.625 10.097656 17.617188 10.074219 17.605469 "/>
<path style=" stroke:none;fill-rule:nonzero;fill:rgb(50.196078%,32.54902%,20%);fill-opacity:1;" d="M 13.246094 15.265625 C 13.226562 15.257812 13.210938 15.246094 13.195312 15.230469 L 12.054688 14.046875 C 12.035156 14.027344 12.019531 14.003906 12.007812 13.980469 L 10.679688 10.867188 C 10.632812 10.753906 10.683594 10.621094 10.800781 10.570312 C 10.914062 10.523438 11.046875 10.578125 11.09375 10.691406 L 12.40625 13.765625 L 13.519531 14.914062 C 13.609375 15.003906 13.605469 15.148438 13.515625 15.234375 C 13.441406 15.304688 13.332031 15.316406 13.246094 15.265625 "/>
<path style=" stroke:none;fill-rule:nonzero;fill:rgb(94.117647%,76.862745%,9.803922%);fill-opacity:1;" d="M 10.191406 11.988281 L 10.867188 10.8125 C 11.003906 10.578125 10.921875 10.28125 10.691406 10.144531 L 9.582031 9.503906 C 9.347656 9.371094 9.050781 9.449219 8.914062 9.683594 L 8.234375 10.859375 C 7.667969 11.847656 7.460938 13 7.65625 14.125 C 8.722656 13.730469 9.621094 12.976562 10.191406 11.988281 "/>
<path style=" stroke:none;fill-rule:nonzero;fill:rgb(94.117647%,76.862745%,9.803922%);fill-opacity:1;" d="M 12.078125 7.820312 L 10.902344 7.140625 L 10.257812 7.8125 L 9.804688 8.59375 C 9.558594 9.023438 9.703125 9.574219 10.136719 9.824219 C 10.566406 10.074219 11.121094 9.925781 11.371094 9.496094 L 11.820312 8.714844 Z M 12.078125 7.820312 "/>
<path style=" stroke:none;fill-rule:nonzero;fill:rgb(58.431373%,64.705882%,64.705882%);fill-opacity:1;" d="M 12.078125 7.820312 L 10.902344 7.140625 C 10.6875 7.015625 10.613281 6.742188 10.738281 6.527344 C 10.863281 6.308594 11.140625 6.234375 11.355469 6.359375 L 12.527344 7.039062 C 12.742188 7.160156 12.816406 7.4375 12.691406 7.652344 C 12.566406 7.871094 12.292969 7.941406 12.078125 7.820312 "/>
<path style=" stroke:none;fill-rule:nonzero;fill:rgb(85.882353%,79.607843%,58.431373%);fill-opacity:1;" d="M 7.273438 5.308594 C 7.273438 5.308594 6.457031 4.910156 5.671875 5.125 C 5.230469 5.246094 4.90625 5.660156 4.957031 6.113281 C 4.984375 6.382812 5.136719 6.675781 5.558594 6.921875 L 6.339844 7.375 C 6.339844 7.375 6.527344 7.554688 6.617188 7.792969 C 6.816406 8.339844 7.3125 8.738281 7.886719 8.808594 C 8.367188 8.867188 9.265625 8.726562 9.917969 8.398438 L 9.714844 8.167969 C 9.332031 7.734375 9.007812 7.25 8.722656 6.742188 C 8.488281 6.324219 8.054688 5.757812 7.273438 5.308594 "/>
<path style=" stroke:none;fill-rule:nonzero;fill:rgb(85.882353%,79.607843%,58.431373%);fill-opacity:1;" d="M 15.480469 10.042969 C 15.480469 10.042969 16.230469 10.554688 16.4375 11.34375 C 16.554688 11.785156 16.359375 12.269531 15.941406 12.457031 C 15.695312 12.566406 15.363281 12.582031 14.9375 12.335938 L 14.15625 11.886719 C 14.15625 11.886719 13.90625 11.8125 13.65625 11.859375 C 13.082031 11.957031 12.488281 11.730469 12.140625 11.265625 C 11.851562 10.878906 11.523438 10.03125 11.480469 9.300781 L 11.78125 9.359375 C 12.351562 9.476562 12.929688 9.515625 13.511719 9.507812 C 13.992188 9.5 14.699219 9.59375 15.480469 10.042969 "/>
<path style=" stroke:none;fill-rule:nonzero;fill:rgb(0%,0%,0%);fill-opacity:1;" d="M 8.484375 10.433594 L 10.4375 11.5625 L 10.664062 11.171875 L 8.707031 10.042969 Z M 8.484375 10.433594 "/>
<path style=" stroke:none;fill-rule:nonzero;fill:rgb(0%,0%,0%);fill-opacity:1;" d="M 7.957031 11.433594 L 9.832031 12.515625 C 9.925781 12.394531 10.011719 12.273438 10.089844 12.144531 L 8.152344 11.023438 C 8.082031 11.15625 8.015625 11.292969 7.957031 11.433594 "/>
<path style=" stroke:none;fill-rule:nonzero;fill:rgb(0%,0%,0%);fill-opacity:1;" d="M 7.734375 12.09375 C 7.699219 12.246094 7.667969 12.398438 7.644531 12.554688 L 9.019531 13.347656 C 9.140625 13.25 9.257812 13.148438 9.371094 13.039062 C 9.359375 13.03125 9.351562 13.019531 9.339844 13.011719 L 7.777344 12.109375 C 7.761719 12.101562 7.75 12.101562 7.734375 12.09375 "/>
</g>
</svg>
