<?xml version="1.0" encoding="UTF-8"?>
<svg xmlns="http://www.w3.org/2000/svg" xmlns:xlink="http://www.w3.org/1999/xlink" width="15px" height="25px" viewBox="0 0 15 24" version="1.1">
<g id="surface1">
<path style=" stroke:none;fill-rule:nonzero;fill:rgb(100%,100%,100%);fill-opacity:1;" d="M 12.75 5.695312 C 12.25 4.179688 11.113281 2.050781 10.953125 1.75 L 10.8125 1.488281 C 10.671875 1.21875 10.570312 1.023438 10.53125 0.953125 L 10.019531 0 L 9.285156 5.09375 L 9.257812 5.28125 C 8.710938 5.25 8.128906 5.230469 7.511719 5.230469 C 6.890625 5.230469 6.300781 5.25 5.75 5.28125 L 5.726562 5.09375 L 5.46875 3.308594 C 5.46875 3.304688 4.992188 0 4.992188 0 L 4.46875 0.953125 C 4.421875 1.039062 4.28125 1.304688 4.09375 1.667969 L 4.050781 1.75 C 3.886719 2.050781 2.738281 4.183594 2.238281 5.699219 C 0.785156 5.972656 0 6.265625 0 6.265625 L 0 18.648438 L 7.5 23.960938 L 15 18.648438 L 15 6.265625 C 15 6.265625 14.210938 5.96875 12.75 5.695312 Z M 12.75 5.695312 "/>
<path style=" stroke:none;fill-rule:nonzero;fill:rgb(23.137255%,23.137255%,38.823529%);fill-opacity:1;" d="M 10.726562 15.308594 L 7.496094 15.308594 L 7.496094 9.898438 L 4.214844 15.152344 L 3.703125 20.546875 L 7.445312 23.214844 L 7.496094 23.25 L 11.320312 20.527344 Z M 10.726562 15.308594 "/>
<path style=" stroke:none;fill-rule:nonzero;fill:rgb(85.882353%,85.882353%,85.882353%);fill-opacity:1;" d="M 7.4375 23.195312 L 0.480469 18.265625 L 0.480469 6.761719 C 0.480469 6.761719 3.050781 5.804688 7.449219 5.804688 C 11.84375 5.804688 14.398438 6.761719 14.398438 6.761719 L 14.398438 18.265625 Z M 7.4375 23.195312 "/>
<path style=" stroke:none;fill-rule:nonzero;fill:rgb(77.647059%,77.647059%,77.647059%);fill-opacity:1;" d="M 7.539062 5.804688 C 7.535156 5.804688 7.535156 5.804688 7.53125 5.804688 L 7.53125 23.195312 L 14.488281 18.265625 L 14.488281 6.761719 C 14.488281 6.761719 11.933594 5.804688 7.539062 5.804688 "/>
<path style=" stroke:none;fill-rule:nonzero;fill:rgb(23.137255%,23.137255%,38.823529%);fill-opacity:1;" d="M 11.300781 20.515625 L 10.710938 15.308594 L 7.476562 15.308594 L 7.476562 23.238281 Z M 11.300781 20.515625 "/>
<path style=" stroke:none;fill-rule:nonzero;fill:rgb(32.54902%,32.54902%,47.843137%);fill-opacity:1;" d="M 3.703125 20.546875 L 7.496094 23.25 L 7.496094 9.898438 L 4.214844 15.152344 Z M 3.703125 20.546875 "/>
<path style=" stroke:none;fill-rule:nonzero;fill:rgb(73.72549%,57.647059%,45.882353%);fill-opacity:1;" d="M 9.125 19.007812 C 9.125 19.898438 8.285156 20.34375 7.515625 20.34375 C 6.746094 20.34375 5.890625 19.898438 5.890625 19.007812 "/>
<path style=" stroke:none;fill-rule:nonzero;fill:rgb(2.745098%,19.607843%,31.764706%);fill-opacity:1;" d="M 8.652344 18.5 C 8.652344 19.546875 8.085938 19.828125 7.507812 19.828125 C 6.929688 19.828125 6.363281 19.546875 6.363281 18.5 "/>
<path style=" stroke:none;fill-rule:nonzero;fill:rgb(100%,100%,100%);fill-opacity:1;" d="M 7.507812 19.46875 C 6.890625 19.46875 6.589844 19.019531 6.589844 18.09375 L 6.886719 18.09375 C 6.886719 19.175781 7.304688 19.175781 7.507812 19.175781 C 7.710938 19.175781 8.132812 19.175781 8.132812 18.09375 L 8.425781 18.09375 C 8.425781 19.019531 8.125 19.46875 7.507812 19.46875 "/>
<path style=" stroke:none;fill-rule:nonzero;fill:rgb(76.862745%,60.392157%,49.411765%);fill-opacity:1;" d="M 12.410156 7.425781 C 12.410156 6.296875 10.492188 2.742188 10.492188 2.742188 L 9.84375 7.25 L 9.257812 8.199219 L 7.511719 8.269531 L 7.503906 8.285156 L 7.503906 8.269531 L 5.757812 8.199219 L 5.175781 7.25 L 4.527344 2.742188 C 4.527344 2.742188 2.605469 6.296875 2.605469 7.425781 L 3.417969 9.59375 C 3.417969 9.59375 3.007812 13.238281 3.195312 13.714844 C 3.378906 14.191406 4.675781 15.789062 4.675781 15.789062 C 4.675781 15.789062 4.671875 17.132812 5.023438 18.09375 C 5.277344 18.785156 5.835938 19.0625 6.367188 19.0625 C 7.183594 19.0625 7.503906 18.320312 7.503906 18.320312 C 7.503906 18.320312 7.832031 19.0625 8.648438 19.0625 C 9.183594 19.0625 9.738281 18.785156 9.992188 18.09375 C 10.347656 17.132812 10.34375 15.789062 10.34375 15.789062 C 10.34375 15.789062 11.636719 14.191406 11.824219 13.714844 C 12.011719 13.238281 11.601562 9.59375 11.601562 9.59375 Z M 12.410156 7.425781 "/>
<path style=" stroke:none;fill-rule:nonzero;fill:rgb(84.705882%,71.764706%,62.745098%);fill-opacity:1;" d="M 7.507812 8.277344 L 7.503906 8.285156 L 7.503906 8.269531 L 5.757812 8.199219 L 5.175781 7.25 L 4.523438 2.742188 C 4.523438 2.742188 2.605469 6.296875 2.605469 7.425781 L 3.417969 9.59375 C 3.417969 9.59375 3.007812 13.238281 3.195312 13.714844 C 3.378906 14.195312 4.675781 15.789062 4.675781 15.789062 C 4.675781 15.789062 4.671875 17.132812 5.023438 18.09375 C 5.277344 18.785156 5.835938 19.0625 6.367188 19.0625 C 7.183594 19.0625 7.503906 18.320312 7.503906 18.320312 C 7.503906 18.320312 7.507812 18.320312 7.507812 18.328125 Z M 7.507812 8.277344 "/>
<path style=" stroke:none;fill-rule:nonzero;fill:rgb(23.137255%,23.137255%,38.823529%);fill-opacity:1;" d="M 11.617188 9.808594 C 11.46875 9.5 11.679688 8.765625 11.679688 8.765625 C 10.46875 7.53125 10.164062 4.953125 10.164062 4.953125 C 9.9375 5.765625 9.445312 8.160156 9.445312 8.160156 C 9.445312 8.160156 8.542969 7.824219 7.511719 7.824219 L 7.503906 7.824219 C 7.449219 7.824219 7.394531 7.824219 7.335938 7.828125 L 7.335938 17.925781 L 7.414062 18.035156 L 7.414062 17.980469 L 7.460938 17.980469 L 7.460938 18.035156 L 7.460938 17.980469 L 7.554688 17.980469 L 7.554688 18.035156 L 7.554688 17.980469 L 7.605469 17.980469 L 7.605469 18.035156 L 8.441406 16.820312 L 8.625 13.402344 L 9.667969 14.585938 L 11.011719 14.976562 C 11.011719 14.976562 11.515625 14.621094 11.515625 14.621094 C 11.730469 14.324219 11.800781 14.070312 11.851562 13.941406 C 12.039062 13.464844 11.617188 9.808594 11.617188 9.808594 "/>
<path style=" stroke:none;fill-rule:nonzero;fill:rgb(32.54902%,32.54902%,47.843137%);fill-opacity:1;" d="M 7.519531 7.824219 C 7.515625 7.824219 7.515625 7.824219 7.515625 7.824219 C 6.484375 7.824219 5.578125 8.160156 5.578125 8.160156 C 5.578125 8.160156 5.085938 5.765625 4.859375 4.953125 C 4.859375 4.953125 4.558594 7.53125 3.34375 8.765625 C 3.34375 8.765625 3.558594 9.5 3.40625 9.808594 C 3.40625 9.808594 2.988281 13.464844 3.175781 13.941406 C 3.226562 14.070312 3.296875 14.324219 3.511719 14.621094 C 3.511719 14.621094 4.015625 14.976562 4.015625 14.976562 L 5.359375 14.585938 L 6.402344 13.402344 L 6.585938 16.820312 L 7.421875 18.035156 L 7.421875 17.980469 L 7.472656 17.980469 L 7.472656 18.035156 L 7.472656 17.980469 L 7.519531 17.980469 Z M 7.519531 7.824219 "/>
<path style=" stroke:none;fill-rule:nonzero;fill:rgb(20%,19.215686%,32.156863%);fill-opacity:1;" d="M 9.949219 12.09375 L 8.378906 12.09375 L 8.378906 12.109375 C 8.378906 12.65625 8.851562 13.097656 9.40625 13.097656 C 9.964844 13.097656 10.4375 12.65625 10.4375 12.109375 L 10.4375 12.09375 Z M 9.949219 12.09375 "/>
<path style=" stroke:none;fill-rule:nonzero;fill:rgb(100%,100%,100%);fill-opacity:1;" d="M 8.769531 12.09375 L 8.769531 12.109375 C 8.769531 12.433594 9.03125 12.695312 9.359375 12.695312 C 9.6875 12.695312 9.949219 12.433594 9.949219 12.109375 L 9.949219 12.09375 Z M 8.769531 12.09375 "/>
<path style=" stroke:none;fill-rule:nonzero;fill:rgb(20%,19.215686%,32.156863%);fill-opacity:1;" d="M 9.539062 12.09375 L 9.265625 12.09375 C 9.261719 12.09375 9.261719 12.09375 9.257812 12.097656 C 9.292969 12.101562 9.3125 12.179688 9.304688 12.230469 C 9.292969 12.308594 9.226562 12.363281 9.148438 12.367188 C 9.171875 12.46875 9.253906 12.550781 9.367188 12.566406 C 9.507812 12.585938 9.640625 12.488281 9.660156 12.347656 C 9.675781 12.242188 9.625 12.09375 9.539062 12.09375 "/>
<path style=" stroke:none;fill-rule:nonzero;fill:rgb(20%,19.215686%,32.156863%);fill-opacity:1;" d="M 6.15625 12.09375 L 4.585938 12.09375 L 4.585938 12.109375 C 4.585938 12.65625 5.0625 13.097656 5.617188 13.097656 C 6.171875 13.097656 6.648438 12.65625 6.648438 12.109375 L 6.648438 12.09375 Z M 6.15625 12.09375 "/>
<path style=" stroke:none;fill-rule:nonzero;fill:rgb(100%,100%,100%);fill-opacity:1;" d="M 4.980469 12.09375 L 4.980469 12.109375 C 4.980469 12.433594 5.242188 12.695312 5.566406 12.695312 C 5.894531 12.695312 6.15625 12.433594 6.15625 12.109375 L 6.15625 12.09375 Z M 4.980469 12.09375 "/>
<path style=" stroke:none;fill-rule:nonzero;fill:rgb(20%,19.215686%,32.156863%);fill-opacity:1;" d="M 5.75 12.09375 L 5.472656 12.09375 C 5.472656 12.09375 5.46875 12.09375 5.464844 12.097656 C 5.5 12.101562 5.519531 12.179688 5.511719 12.230469 C 5.5 12.308594 5.433594 12.363281 5.355469 12.367188 C 5.378906 12.46875 5.464844 12.550781 5.574219 12.566406 C 5.71875 12.585938 5.851562 12.488281 5.871094 12.347656 C 5.882812 12.242188 5.835938 12.09375 5.75 12.09375 "/>
<path style=" stroke:none;fill-rule:nonzero;fill:rgb(76.862745%,60.392157%,49.411765%);fill-opacity:1;" d="M 9.828125 11.628906 C 9.894531 11.558594 10.457031 10.925781 9.707031 10.925781 C 9.03125 10.925781 8.542969 11.46875 8.414062 11.628906 Z M 9.828125 11.628906 "/>
<path style=" stroke:none;fill-rule:nonzero;fill:rgb(84.705882%,71.764706%,62.745098%);fill-opacity:1;" d="M 6.601562 11.628906 C 6.472656 11.46875 5.984375 10.925781 5.308594 10.925781 C 4.558594 10.925781 5.117188 11.558594 5.183594 11.628906 Z M 6.601562 11.628906 "/>
<path style=" stroke:none;fill-rule:nonzero;fill:rgb(32.54902%,32.54902%,47.843137%);fill-opacity:1;" d="M 4.226562 12.089844 L 7.089844 12.089844 L 7.089844 11.820312 L 4.226562 11.820312 Z M 4.226562 12.089844 "/>
<path style=" stroke:none;fill-rule:nonzero;fill:rgb(20%,19.215686%,32.156863%);fill-opacity:1;" d="M 11.671875 8.296875 C 10.835938 7.136719 10.578125 5.246094 10.554688 5.074219 L 10.707031 4.019531 C 11.324219 5.269531 11.972656 6.753906 12.015625 7.371094 Z M 11.457031 13.585938 C 11.34375 13.875 10.558594 14.910156 10.035156 15.554688 L 9.949219 15.660156 L 9.949219 15.800781 C 9.949219 15.8125 9.949219 17.082031 9.625 17.972656 C 9.386719 18.613281 8.863281 18.683594 8.648438 18.683594 C 8.105469 18.683594 7.875 18.191406 7.863281 18.171875 L 7.835938 17.710938 L 7.175781 17.710938 L 7.144531 18.167969 C 7.136719 18.191406 6.90625 18.683594 6.367188 18.683594 C 6.152344 18.683594 5.628906 18.613281 5.394531 17.972656 C 5.070312 17.085938 5.066406 15.8125 5.066406 15.800781 L 5.066406 15.660156 L 4.980469 15.554688 C 4.457031 14.910156 3.671875 13.875 3.5625 13.589844 C 3.472656 13.285156 3.621094 11.304688 3.804688 9.648438 L 3.816406 9.554688 L 3.667969 9.164062 C 4.175781 8.636719 4.53125 7.914062 4.773438 7.226562 L 4.796875 7.390625 L 5.601562 8.699219 L 5.914062 8.566406 C 5.921875 8.5625 6.726562 8.222656 7.503906 8.222656 C 8.28125 8.222656 9.097656 8.5625 9.105469 8.566406 L 9.417969 8.699219 L 10.21875 7.390625 L 10.25 7.171875 C 10.492188 7.867188 10.847656 8.605469 11.355469 9.140625 L 11.199219 9.554688 L 11.210938 9.648438 C 11.398438 11.304688 11.542969 13.285156 11.457031 13.585938 Z M 7.019531 19.324219 C 7.125 19.28125 7.21875 19.226562 7.304688 19.164062 C 7.378906 19.1875 7.453125 19.1875 7.507812 19.1875 C 7.566406 19.1875 7.636719 19.1875 7.710938 19.164062 C 7.796875 19.226562 7.890625 19.28125 7.996094 19.324219 C 7.863281 19.421875 7.703125 19.480469 7.507812 19.480469 C 7.3125 19.480469 7.152344 19.425781 7.019531 19.324219 Z M 7.515625 20.15625 C 7.085938 20.15625 6.472656 19.964844 6.320312 19.460938 C 6.335938 19.460938 6.351562 19.460938 6.367188 19.460938 C 6.449219 19.460938 6.527344 19.453125 6.605469 19.445312 C 6.824219 19.746094 7.164062 19.839844 7.507812 19.839844 C 7.855469 19.839844 8.195312 19.746094 8.414062 19.445312 C 8.488281 19.453125 8.566406 19.460938 8.648438 19.460938 C 8.664062 19.460938 8.679688 19.460938 8.699219 19.460938 C 8.546875 19.964844 7.941406 20.15625 7.515625 20.15625 Z M 3 7.371094 C 3.042969 6.753906 3.691406 5.269531 4.3125 4.019531 L 4.476562 5.164062 C 4.414062 5.589844 4.125 7.265625 3.355469 8.320312 Z M 12.792969 7.433594 C 12.792969 6.242188 11.035156 2.941406 10.832031 2.566406 L 10.269531 1.523438 L 9.464844 7.125 L 9.089844 7.730469 C 8.730469 7.613281 8.121094 7.445312 7.503906 7.445312 C 6.890625 7.445312 6.28125 7.613281 5.925781 7.730469 L 5.550781 7.125 L 5.269531 5.160156 C 5.269531 5.15625 5.269531 5.152344 5.269531 5.148438 L 4.746094 1.523438 L 4.167969 2.566406 C 3.96875 2.941406 2.195312 6.242188 2.195312 7.433594 L 2.195312 7.503906 L 3.007812 9.652344 C 2.875 10.824219 2.628906 13.367188 2.824219 13.867188 C 2.945312 14.175781 3.410156 14.820312 3.808594 15.332031 L 3.273438 20.257812 L 4.007812 20.773438 L 4.394531 17.191406 C 4.449219 17.539062 4.53125 17.90625 4.65625 18.238281 C 4.824219 18.695312 5.121094 19.042969 5.5 19.25 C 5.523438 20.34375 6.550781 20.9375 7.515625 20.9375 C 8.476562 20.9375 9.496094 20.34375 9.515625 19.25 C 9.894531 19.042969 10.191406 18.695312 10.359375 18.238281 C 10.488281 17.894531 10.570312 17.507812 10.625 17.148438 L 11.015625 20.742188 L 11.75 20.210938 L 11.21875 15.320312 C 11.609375 14.808594 12.070312 14.175781 12.191406 13.867188 C 12.382812 13.371094 12.125 10.824219 11.996094 9.652344 L 12.792969 7.503906 Z M 12.792969 7.433594 "/>
<path style=" stroke:none;fill-rule:nonzero;fill:rgb(20%,19.215686%,32.156863%);fill-opacity:1;" d="M 8.433594 16.371094 L 6.589844 16.371094 C 6.589844 16.371094 6.34375 16.800781 6.34375 16.9375 C 6.34375 17.351562 7.476562 18.011719 7.476562 18.011719 C 7.476562 18.011719 8.675781 17.332031 8.675781 16.9375 C 8.675781 16.75 8.433594 16.371094 8.433594 16.371094 "/>
<path style=" stroke:none;fill-rule:nonzero;fill:rgb(76.862745%,60.392157%,49.411765%);fill-opacity:1;" d="M 8.078125 17.628906 C 7.976562 17.449219 7.84375 17.417969 7.78125 17.554688 C 7.722656 17.695312 7.753906 17.957031 7.859375 18.136719 C 7.960938 18.316406 8.09375 18.351562 8.15625 18.210938 C 8.214844 18.070312 8.179688 17.8125 8.078125 17.628906 "/>
<path style=" stroke:none;fill-rule:nonzero;fill:rgb(84.705882%,71.764706%,62.745098%);fill-opacity:1;" d="M 6.941406 17.628906 C 6.835938 17.8125 6.800781 18.070312 6.863281 18.210938 C 6.921875 18.351562 7.054688 18.316406 7.160156 18.136719 C 7.261719 17.957031 7.296875 17.695312 7.234375 17.554688 C 7.175781 17.417969 7.042969 17.449219 6.941406 17.628906 "/>
</g>
</svg>
