<?xml version="1.0" encoding="UTF-8"?>
<svg xmlns="http://www.w3.org/2000/svg" xmlns:xlink="http://www.w3.org/1999/xlink" width="20px" height="20px" viewBox="0 0 20 20" version="1.1">
<g id="surface1">
<path style=" stroke:none;fill-rule:nonzero;fill:rgb(33.333333%,73.72549%,68.627451%);fill-opacity:1;" d="M 17.1875 3.4375 L 11.375 3.4375 L 10.0625 6.0625 L 2.75 6.0625 L 2.75 16.5625 L 18.5 16.5625 L 18.5 3.4375 Z M 17.1875 6.0625 L 12.0625 6.0625 L 12.75 4.75 L 17.1875 4.75 Z M 17.1875 6.0625 "/>
<path style=" stroke:none;fill-rule:nonzero;fill:rgb(7.45098%,39.215686%,36.470588%);fill-opacity:1;" d="M 18.960938 10.226562 C 18.957031 11.714844 18.949219 13.203125 18.960938 14.691406 C 18.96875 15.207031 18.808594 15.710938 18.507812 16.125 C 18.046875 16.738281 17.484375 17.273438 16.847656 17.703125 C 16.191406 18.167969 15.496094 18.578125 14.773438 18.933594 C 14.726562 18.964844 14.664062 18.96875 14.613281 18.941406 C 13.484375 18.410156 12.445312 17.714844 11.523438 16.878906 C 11.078125 16.492188 10.734375 16.007812 10.515625 15.460938 C 10.445312 15.273438 10.414062 15.070312 10.414062 14.867188 C 10.414062 14.117188 10.414062 13.367188 10.414062 12.617188 C 10.414062 11.820312 10.414062 11.019531 10.414062 10.21875 C 10.402344 10.140625 10.457031 10.070312 10.535156 10.054688 C 11.886719 9.554688 13.234375 9.050781 14.582031 8.542969 C 14.648438 8.515625 14.71875 8.515625 14.785156 8.542969 C 16.132812 9.046875 17.484375 9.550781 18.832031 10.050781 C 18.917969 10.066406 18.972656 10.144531 18.960938 10.226562 Z M 18.960938 10.226562 "/>
<path style=" stroke:none;fill-rule:nonzero;fill:rgb(0%,30.196078%,25.098039%);fill-opacity:1;" d="M 19.277344 9.824219 C 17.773438 9.265625 16.273438 8.707031 14.773438 8.144531 C 14.71875 8.121094 14.65625 8.121094 14.601562 8.144531 C 13.105469 8.703125 11.605469 9.261719 10.109375 9.820312 C 10.035156 9.835938 9.988281 9.90625 10 9.980469 L 10 14.824219 C 10 15.097656 10.050781 15.367188 10.148438 15.621094 C 10.394531 16.214844 10.773438 16.746094 11.257812 17.171875 C 12.253906 18.074219 13.386719 18.8125 14.613281 19.359375 C 14.667969 19.386719 14.730469 19.378906 14.78125 19.347656 C 15.425781 19.046875 16.050781 18.703125 16.644531 18.3125 C 17.40625 17.84375 18.089844 17.257812 18.664062 16.574219 C 19.101562 16.082031 19.351562 15.453125 19.375 14.796875 C 19.375 13.1875 19.375 11.578125 19.375 9.96875 C 19.386719 9.902344 19.34375 9.835938 19.277344 9.824219 Z M 18.324219 16.011719 C 17.886719 16.59375 17.351562 17.101562 16.746094 17.511719 C 16.121094 17.953125 15.460938 18.347656 14.769531 18.683594 C 14.722656 18.714844 14.664062 18.714844 14.613281 18.691406 C 13.542969 18.1875 12.550781 17.523438 11.671875 16.730469 C 11.25 16.359375 10.921875 15.898438 10.714844 15.378906 C 10.648438 15.199219 10.617188 15.007812 10.617188 14.8125 C 10.617188 14.097656 10.617188 13.382812 10.617188 12.667969 C 10.617188 11.910156 10.617188 11.148438 10.617188 10.386719 C 10.609375 10.3125 10.65625 10.242188 10.734375 10.226562 C 12.019531 9.75 13.304688 9.269531 14.585938 8.789062 C 14.648438 8.765625 14.71875 8.765625 14.78125 8.789062 C 16.066406 9.269531 17.351562 9.75 18.636719 10.226562 C 18.714844 10.242188 18.769531 10.316406 18.757812 10.394531 C 18.753906 11.8125 18.746094 13.230469 18.757812 14.644531 C 18.765625 15.136719 18.613281 15.613281 18.324219 16.007812 Z M 18.324219 16.011719 "/>
<path style=" stroke:none;fill-rule:nonzero;fill:rgb(100%,100%,100%);fill-opacity:1;" d="M 15.402344 11.25 C 15.324219 11.4375 15.28125 11.632812 15.277344 11.835938 C 15.277344 11.859375 15.253906 11.882812 15.234375 11.902344 C 15.113281 12.027344 15.085938 12.214844 15.167969 12.367188 C 15.246094 12.519531 15.414062 12.605469 15.582031 12.578125 C 15.355469 12.183594 15.324219 11.703125 15.503906 11.285156 C 15.6875 10.863281 16.054688 10.554688 16.5 10.453125 C 16.890625 10.351562 17.304688 10.417969 17.644531 10.632812 C 17.988281 10.847656 18.226562 11.195312 18.304688 11.589844 C 18.441406 12.320312 17.988281 13.03125 17.269531 13.222656 L 17.222656 12.980469 C 17.578125 12.875 17.859375 12.613281 17.988281 12.265625 C 18.117188 11.921875 18.078125 11.539062 17.886719 11.226562 C 17.707031 10.949219 17.421875 10.757812 17.101562 10.691406 C 16.777344 10.625 16.441406 10.691406 16.167969 10.875 C 15.640625 11.21875 15.488281 11.925781 15.828125 12.457031 C 15.90625 12.382812 15.949219 12.273438 15.945312 12.164062 C 15.941406 12.054688 15.886719 11.953125 15.804688 11.886719 C 15.765625 11.859375 15.746094 11.816406 15.753906 11.769531 C 15.773438 11.675781 15.789062 11.582031 15.804688 11.488281 L 15.832031 11.480469 C 15.902344 11.554688 15.980469 11.625 16.042969 11.707031 C 16.4375 12.226562 16.414062 12.953125 15.988281 13.449219 C 15.558594 13.945312 14.84375 14.074219 14.269531 13.761719 C 14.238281 13.734375 14.1875 13.734375 14.152344 13.761719 C 14.089844 13.816406 13.996094 13.8125 13.9375 13.75 C 13.921875 13.738281 13.90625 13.730469 13.890625 13.71875 C 13.851562 13.691406 13.808594 13.683594 13.765625 13.699219 C 13.722656 13.714844 13.6875 13.746094 13.675781 13.789062 C 13.640625 13.875 13.613281 13.960938 13.578125 14.046875 C 13.570312 14.078125 13.546875 14.105469 13.519531 14.121094 C 13.488281 14.136719 13.453125 14.136719 13.421875 14.121094 C 13.316406 14.085938 13.207031 14.046875 13.101562 14.011719 C 13.003906 14 12.910156 14.054688 12.878906 14.148438 C 12.871094 14.207031 12.859375 14.261719 12.851562 14.320312 C 12.839844 14.40625 12.792969 14.4375 12.703125 14.4375 C 12.652344 14.433594 12.597656 14.4375 12.546875 14.449219 C 12.453125 14.472656 12.425781 14.554688 12.402344 14.628906 C 12.359375 14.75 12.292969 14.769531 12.179688 14.761719 C 12.132812 14.757812 12.082031 14.769531 12.039062 14.792969 C 11.960938 14.828125 11.890625 14.875 11.8125 14.917969 C 11.785156 14.929688 11.75 14.933594 11.71875 14.925781 C 11.53125 14.871094 11.347656 14.808594 11.164062 14.75 C 11.058594 14.714844 11.035156 14.683594 11.050781 14.578125 C 11.078125 14.433594 11.105469 14.292969 11.132812 14.148438 C 11.148438 14.066406 11.199219 13.996094 11.277344 13.957031 C 12.011719 13.542969 12.746094 13.128906 13.480469 12.714844 C 13.523438 12.699219 13.550781 12.652344 13.542969 12.605469 C 13.527344 12.15625 13.726562 11.730469 14.082031 11.457031 C 14.433594 11.179688 14.898438 11.09375 15.328125 11.21875 C 15.347656 11.226562 15.375 11.238281 15.402344 11.25 Z M 13.636719 13.0625 L 13.5625 13.101562 L 12.839844 13.511719 C 12.40625 13.757812 11.972656 14.003906 11.539062 14.25 C 11.464844 14.289062 11.453125 14.320312 11.488281 14.378906 C 11.527344 14.449219 11.558594 14.457031 11.632812 14.414062 L 13.125 13.570312 L 13.722656 13.234375 Z M 13.636719 13.0625 "/>
<path style=" stroke:none;fill-rule:nonzero;fill:rgb(100%,100%,100%);fill-opacity:1;" d="M 14.519531 14.046875 C 15.066406 14.195312 15.648438 14.046875 16.058594 13.660156 C 16.464844 13.289062 16.640625 12.730469 16.519531 12.195312 C 16.996094 12.515625 17.222656 13.097656 17.085938 13.65625 C 16.949219 14.210938 16.480469 14.625 15.910156 14.691406 C 15.886719 14.695312 15.859375 14.695312 15.832031 14.695312 C 15.746094 14.679688 15.660156 14.726562 15.628906 14.808594 C 15.617188 14.835938 15.566406 14.851562 15.527344 14.859375 C 15.492188 14.867188 15.457031 14.867188 15.421875 14.859375 C 15.371094 14.851562 15.324219 14.867188 15.292969 14.90625 C 15.261719 14.941406 15.25 14.992188 15.265625 15.039062 C 15.277344 15.121094 15.292969 15.203125 15.308594 15.289062 C 15.324219 15.378906 15.289062 15.425781 15.199219 15.441406 L 14.878906 15.5 C 14.792969 15.535156 14.742188 15.625 14.753906 15.71875 C 14.777344 15.777344 14.800781 15.835938 14.824219 15.894531 C 14.855469 15.972656 14.832031 16.019531 14.761719 16.058594 C 14.710938 16.085938 14.664062 16.121094 14.621094 16.160156 C 14.542969 16.238281 14.589844 16.335938 14.597656 16.421875 C 14.613281 16.484375 14.582031 16.542969 14.523438 16.566406 C 14.425781 16.601562 14.351562 16.679688 14.316406 16.777344 C 14.265625 16.910156 14.136719 17.003906 13.992188 17.003906 C 13.855469 17.027344 13.722656 17.054688 13.589844 17.085938 C 13.46875 17.113281 13.433594 17.09375 13.390625 16.980469 C 13.347656 16.855469 13.304688 16.722656 13.253906 16.597656 C 13.21875 16.511719 13.230469 16.417969 13.277344 16.34375 C 13.699219 15.628906 14.117188 14.917969 14.539062 14.207031 C 14.5625 14.152344 14.589844 14.105469 14.519531 14.046875 Z M 14.863281 14.414062 L 14.851562 14.421875 C 14.449219 15.109375 14.042969 15.796875 13.636719 16.484375 C 13.621094 16.503906 13.617188 16.53125 13.625 16.554688 C 13.628906 16.578125 13.648438 16.59375 13.667969 16.605469 C 13.738281 16.644531 13.773438 16.636719 13.820312 16.558594 C 14.207031 15.898438 14.597656 15.234375 14.984375 14.574219 C 14.996094 14.558594 15.003906 14.539062 15.015625 14.519531 Z M 14.863281 14.414062 "/>
</g>
</svg>
