<?xml version="1.0" encoding="UTF-8"?>
<svg xmlns="http://www.w3.org/2000/svg" xmlns:xlink="http://www.w3.org/1999/xlink" width="20px" height="20px" viewBox="0 0 20 20" version="1.1">
<defs>
<linearGradient id="linear0" gradientUnits="userSpaceOnUse" x1="66.73" y1="-662.84" x2="26.4" y2="-613.01" gradientTransform="matrix(0.156238,0,0,-0.156238,0,-91.400672)">
<stop offset="0.06" style="stop-color:rgb(4.705882%,69.019608%,94.901961%);stop-opacity:1;"/>
<stop offset="0.21" style="stop-color:rgb(6.27451%,67.843137%,94.901961%);stop-opacity:1;"/>
<stop offset="0.37" style="stop-color:rgb(11.764706%,64.705882%,95.294118%);stop-opacity:1;"/>
<stop offset="0.54" style="stop-color:rgb(20.392157%,59.215686%,96.078431%);stop-opacity:1;"/>
<stop offset="0.71" style="stop-color:rgb(32.156863%,51.372549%,96.862745%);stop-opacity:1;"/>
<stop offset="0.88" style="stop-color:rgb(47.45098%,41.568627%,97.647059%);stop-opacity:1;"/>
<stop offset="0.97" style="stop-color:rgb(56.470588%,36.078431%,98.431373%);stop-opacity:1;"/>
</linearGradient>
<linearGradient id="linear1" gradientUnits="userSpaceOnUse" x1="20.9" y1="-706.33" x2="41.11" y2="-659.59" gradientTransform="matrix(0.156238,0,0,-0.156238,0,-91.400672)">
<stop offset="0.06" style="stop-color:rgb(4.705882%,69.019608%,94.901961%);stop-opacity:1;"/>
<stop offset="0.2" style="stop-color:rgb(5.098039%,69.803922%,93.333333%);stop-opacity:1;"/>
<stop offset="0.35" style="stop-color:rgb(7.058824%,71.764706%,87.843137%);stop-opacity:1;"/>
<stop offset="0.51" style="stop-color:rgb(9.803922%,75.294118%,79.215686%);stop-opacity:1;"/>
<stop offset="0.68" style="stop-color:rgb(13.72549%,80%,67.45098%);stop-opacity:1;"/>
<stop offset="0.85" style="stop-color:rgb(18.823529%,86.27451%,52.156863%);stop-opacity:1;"/>
<stop offset="0.97" style="stop-color:rgb(23.137255%,91.764706%,38.431373%);stop-opacity:1;"/>
</linearGradient>
<linearGradient id="linear2" gradientUnits="userSpaceOnUse" x1="48.62" y1="-644.91" x2="88.12" y2="-594.24" gradientTransform="matrix(0.156238,0,0,-0.156238,0,-91.400672)">
<stop offset="0.06" style="stop-color:rgb(4.705882%,69.019608%,94.901961%);stop-opacity:1;"/>
<stop offset="0.2" style="stop-color:rgb(5.098039%,69.803922%,93.333333%);stop-opacity:1;"/>
<stop offset="0.35" style="stop-color:rgb(7.058824%,71.764706%,87.843137%);stop-opacity:1;"/>
<stop offset="0.51" style="stop-color:rgb(9.803922%,75.294118%,79.215686%);stop-opacity:1;"/>
<stop offset="0.68" style="stop-color:rgb(13.72549%,80%,67.45098%);stop-opacity:1;"/>
<stop offset="0.85" style="stop-color:rgb(18.823529%,86.27451%,52.156863%);stop-opacity:1;"/>
<stop offset="0.97" style="stop-color:rgb(23.137255%,91.764706%,38.431373%);stop-opacity:1;"/>
</linearGradient>
</defs>
<g id="surface1">
<path style=" stroke:none;fill-rule:nonzero;fill:url(#linear0);" d="M 7.175781 0.457031 C 6.898438 0.320312 6.609375 0.214844 6.308594 0.144531 C 2.296875 -0.808594 -0.6875 3.128906 0.953125 6.707031 C 0.96875 6.722656 3.875 13.097656 4.34375 14.113281 C 4.34375 14.113281 9.683594 11.660156 10.777344 9.144531 C 11.792969 6.800781 10.082031 2.523438 9.769531 1.878906 Z M 7.175781 0.457031 "/>
<path style=" stroke:none;fill-rule:nonzero;fill:rgb(4.705882%,69.019608%,94.901961%);fill-opacity:1;" d="M 19.246094 7.566406 C 18.90625 7.046875 18.445312 6.617188 17.902344 6.316406 C 17.886719 6.316406 14.136719 4.253906 14.136719 4.253906 C 14.136719 4.253906 1.265625 11.71875 1.25 11.738281 C -0.203125 13.394531 -0.53125 16.019531 1.140625 18.300781 C 1.644531 18.984375 2.355469 19.492188 3.171875 19.738281 C 4.6875 20.207031 6.03125 20.019531 7.15625 19.425781 C 7.1875 19.410156 17.734375 13.816406 17.765625 13.785156 C 19.824219 12.707031 20.78125 9.957031 19.246094 7.566406 Z M 19.246094 7.566406 "/>
<path style=" stroke:none;fill-rule:nonzero;fill:url(#linear1);" d="M 6.003906 5.925781 L 2.566406 10.144531 L 1.234375 11.738281 C -0.21875 13.394531 -0.546875 16.019531 1.125 18.300781 C 1.628906 18.984375 2.339844 19.492188 3.15625 19.738281 C 4.671875 20.207031 6.027344 20.019531 7.152344 19.425781 C 7.152344 19.425781 7.417969 19.285156 7.871094 19.035156 C 9.300781 18.261719 11.269531 13.074219 12.613281 9.0625 Z M 6.003906 5.925781 "/>
<path style=" stroke:none;fill-rule:nonzero;fill:url(#linear2);" d="M 11.40625 9.988281 L 14.136719 4.21875 C 14.136719 4.210938 14.144531 4.203125 14.152344 4.203125 C 14.167969 4.15625 14.386719 3.59375 14.402344 3.5625 C 14.730469 2.738281 14.625 1.808594 14.121094 1.078125 C 13.808594 0.578125 13.308594 0.226562 12.730469 0.09375 C 11.742188 -0.167969 10.691406 0.179688 10.058594 0.984375 C 10.042969 1 9.449219 1.6875 9.449219 1.6875 L 5.074219 7.078125 Z M 11.40625 9.988281 "/>
<path style=" stroke:none;fill-rule:nonzero;fill:rgb(0%,0%,0%);fill-opacity:1;" d="M 3.75 3.738281 L 16.246094 3.738281 L 16.246094 16.238281 L 3.75 16.238281 Z M 3.75 3.738281 "/>
<path style=" stroke:none;fill-rule:nonzero;fill:rgb(100%,100%,100%);fill-opacity:1;" d="M 6.683594 6.503906 L 5 6.503906 L 5 5.410156 L 9.574219 5.410156 L 9.574219 6.503906 L 7.902344 6.503906 L 7.902344 10.816406 L 6.683594 10.816406 Z M 9.574219 8.125 C 9.574219 6.5625 10.730469 5.296875 12.402344 5.296875 C 13.417969 5.296875 14.042969 5.640625 14.542969 6.140625 L 13.777344 7.015625 C 13.355469 6.640625 12.933594 6.40625 12.386719 6.40625 C 11.480469 6.40625 10.808594 7.171875 10.808594 8.09375 L 10.808594 8.109375 C 10.808594 9.046875 11.449219 9.8125 12.386719 9.8125 C 13.011719 9.8125 13.386719 9.5625 13.808594 9.171875 L 14.574219 9.9375 C 14.011719 10.53125 13.402344 10.90625 12.355469 10.90625 C 11.613281 10.921875 10.898438 10.632812 10.371094 10.109375 C 9.847656 9.585938 9.558594 8.867188 9.574219 8.125 M 5 13.738281 L 9.574219 13.738281 L 9.574219 14.566406 L 5 14.566406 Z M 5 13.738281 "/>
</g>
</svg>
