<?xml version="1.0" encoding="UTF-8"?>
<svg xmlns="http://www.w3.org/2000/svg" xmlns:xlink="http://www.w3.org/1999/xlink" width="20px" height="20px" viewBox="0 0 20 20" version="1.1">
<g id="surface1">
<path style=" stroke:none;fill-rule:evenodd;fill:rgb(44.705882%,27.843137%,81.176471%);fill-opacity:1;" d="M 0.621094 5.972656 C 2.988281 4.847656 5.070312 4.113281 7.046875 3.753906 C 7.574219 3.65625 8.09375 3.589844 8.609375 3.542969 L 8.609375 6.929688 C 8.953125 6.652344 9.390625 6.488281 9.867188 6.488281 C 10.34375 6.488281 10.777344 6.652344 11.125 6.929688 L 11.125 3.542969 C 11.640625 3.589844 12.160156 3.65625 12.6875 3.753906 C 14.683594 4.121094 16.757812 4.863281 19.109375 5.972656 C 19.207031 5.15625 19.253906 4.339844 19.253906 3.53125 C 16.84375 2.382812 14.726562 1.613281 12.6875 1.242188 C 12.164062 1.144531 11.644531 1.074219 11.125 1.03125 C 10.289062 0.960938 9.457031 0.960938 8.613281 1.03125 C 8.097656 1.074219 7.578125 1.144531 7.046875 1.238281 C 5.03125 1.609375 2.90625 2.363281 0.480469 3.527344 C 0.480469 4.34375 0.527344 5.160156 0.621094 5.972656 "/>
<path style=" stroke:none;fill-rule:evenodd;fill:rgb(44.705882%,27.843137%,81.176471%);fill-opacity:1;" d="M 3.050781 13.292969 L 3.046875 13.269531 C 3.046875 13.277344 3.050781 13.285156 3.050781 13.292969 Z M 14.292969 12.378906 C 13.820312 13.121094 13.285156 13.820312 12.6875 14.46875 C 12.207031 14.984375 11.683594 15.46875 11.121094 15.917969 C 10.722656 16.238281 10.304688 16.535156 9.863281 16.816406 C 9.425781 16.539062 9.007812 16.238281 8.609375 15.921875 C 8.046875 15.472656 7.527344 14.992188 7.046875 14.476562 C 6.4375 13.824219 5.898438 13.121094 5.425781 12.375 C 5.980469 12.203125 6.515625 12.058594 7.046875 11.945312 L 7.046875 9.417969 C 6.15625 9.597656 5.246094 9.855469 4.289062 10.199219 C 3.941406 10.320312 3.589844 10.457031 3.230469 10.605469 C 3.039062 10.683594 2.847656 10.761719 2.65625 10.84375 L 1.980469 11.140625 L 2.078125 11.394531 C 2.363281 12.042969 2.683594 12.675781 3.050781 13.292969 C 3.609375 14.238281 4.265625 15.140625 5.019531 15.980469 L 5.027344 15.996094 C 5.136719 16.113281 5.246094 16.234375 5.359375 16.351562 C 5.878906 16.894531 6.441406 17.40625 7.046875 17.890625 C 7.539062 18.28125 8.058594 18.652344 8.613281 18.996094 C 9.015625 19.25 9.433594 19.488281 9.871094 19.714844 C 10.304688 19.488281 10.722656 19.25 11.125 18.996094 C 11.679688 18.648438 12.199219 18.277344 12.691406 17.886719 C 13.289062 17.410156 13.839844 16.90625 14.351562 16.371094 C 14.460938 16.257812 14.570312 16.140625 14.675781 16.023438 C 15.445312 15.171875 16.113281 14.257812 16.679688 13.300781 C 17.042969 12.683594 17.367188 12.046875 17.652344 11.398438 L 17.75 11.144531 L 17.621094 11.089844 L 17.605469 11.082031 L 17.59375 11.074219 L 17.585938 11.070312 C 17.414062 10.996094 17.246094 10.921875 17.078125 10.851562 C 16.886719 10.769531 16.695312 10.6875 16.503906 10.613281 C 16.144531 10.46875 15.789062 10.332031 15.441406 10.207031 C 15.363281 10.179688 15.285156 10.152344 15.207031 10.125 L 15.207031 8.480469 C 15.464844 8.5625 15.71875 8.652344 15.980469 8.746094 C 16.730469 9.011719 17.503906 9.328125 18.304688 9.691406 C 18.546875 8.949219 18.738281 8.199219 18.886719 7.441406 C 18.066406 7.0625 17.285156 6.726562 16.523438 6.433594 C 16.078125 6.265625 15.640625 6.109375 15.207031 5.96875 C 14.347656 5.691406 13.515625 5.476562 12.695312 5.324219 L 12.695312 11.957031 C 13.222656 12.070312 13.753906 12.210938 14.300781 12.382812 Z M 16.675781 13.269531 L 16.675781 13.304688 Z M 16.675781 13.28125 L 16.675781 13.285156 Z M 15.960938 12.972656 C 16.0625 13.015625 16.164062 13.054688 16.269531 13.097656 Z M 3.457031 13.09375 C 3.5625 13.050781 3.667969 13.007812 3.773438 12.96875 Z M 3.457031 13.09375 "/>
<path style=" stroke:none;fill-rule:evenodd;fill:rgb(44.705882%,27.843137%,81.176471%);fill-opacity:1;" d="M 1.421875 9.671875 C 2.226562 9.308594 3.003906 8.992188 3.75 8.726562 C 4.898438 8.316406 5.988281 8.015625 7.046875 7.824219 L 7.046875 5.3125 C 5.824219 5.535156 4.5625 5.902344 3.214844 6.414062 C 2.453125 6.703125 1.667969 7.039062 0.84375 7.421875 C 0.992188 8.183594 1.183594 8.933594 1.421875 9.671875 "/>
<path style=" stroke:none;fill-rule:evenodd;fill:rgb(44.705882%,27.843137%,81.176471%);fill-opacity:1;" d="M 11.242188 8.484375 C 11.242188 7.722656 10.625 7.105469 9.863281 7.105469 C 9.105469 7.105469 8.488281 7.722656 8.488281 8.484375 C 8.488281 9.058594 8.835938 9.550781 9.339844 9.757812 L 8.902344 13.585938 L 10.832031 13.585938 L 10.394531 9.757812 C 10.894531 9.550781 11.246094 9.058594 11.246094 8.484375 "/>
<path style=" stroke:none;fill-rule:evenodd;fill:rgb(44.705882%,27.843137%,81.176471%);fill-opacity:1;" d="M 1.421875 9.671875 C 2.226562 9.308594 3.003906 8.992188 3.75 8.726562 C 4.898438 8.316406 5.988281 8.015625 7.046875 7.824219 L 7.046875 5.3125 C 5.824219 5.535156 4.5625 5.902344 3.214844 6.414062 C 2.453125 6.703125 1.667969 7.039062 0.84375 7.421875 C 0.992188 8.183594 1.183594 8.933594 1.421875 9.671875 "/>
</g>
</svg>
