<?xml version="1.0" encoding="UTF-8"?>
<svg xmlns="http://www.w3.org/2000/svg" xmlns:xlink="http://www.w3.org/1999/xlink" width="20px" height="20px" viewBox="0 0 20 19" version="1.1">
<g id="surface1">
<path style=" stroke:none;fill-rule:nonzero;fill:rgb(5.490196%,5.882353%,5.098039%);fill-opacity:1;" d="M 19.894531 6.6875 C 19.886719 6.617188 19.875 6.550781 19.859375 6.480469 C 19.84375 6.410156 19.832031 6.34375 19.808594 6.269531 L 19.75 6.183594 C 19.523438 6.011719 19.277344 5.882812 19.023438 5.769531 C 18.820312 5.675781 18.609375 5.59375 18.394531 5.519531 C 17.804688 3.941406 16.785156 2.546875 15.445312 1.574219 C 14.058594 0.570312 12.433594 0.0351562 10.738281 0.0351562 C 9.039062 0.0351562 7.414062 0.570312 6.027344 1.574219 C 4.6875 2.546875 3.667969 3.941406 3.078125 5.519531 C 2.863281 5.59375 2.65625 5.675781 2.449219 5.769531 C 2.195312 5.882812 1.949219 6.011719 1.722656 6.183594 L 1.664062 6.269531 C 1.644531 6.34375 1.628906 6.410156 1.613281 6.480469 C 1.601562 6.550781 1.589844 6.617188 1.578125 6.6875 C 1.558594 6.824219 1.542969 6.964844 1.535156 7.105469 C 1.523438 7.382812 1.53125 7.660156 1.5625 7.9375 C 1.59375 8.214844 1.648438 8.488281 1.722656 8.757812 C 1.765625 8.894531 1.808594 9.027344 1.863281 9.160156 C 1.890625 9.226562 1.921875 9.292969 1.953125 9.359375 C 1.96875 9.390625 1.988281 9.421875 2.003906 9.457031 C 2.042969 9.523438 2.050781 9.535156 2.066406 9.558594 L 2.144531 9.625 C 2.191406 9.648438 2.234375 9.667969 2.277344 9.6875 L 2.40625 9.742188 C 2.429688 9.753906 2.453125 9.761719 2.476562 9.773438 C 1.890625 10.292969 1.25 10.96875 0.699219 11.804688 L 0 12.859375 L 0.980469 12.035156 C 0.996094 12.019531 1.820312 11.339844 3.191406 10.566406 L 3.207031 10.71875 C 3.117188 10.761719 2.6875 10.980469 2.558594 11.082031 C 2.347656 11.25 2.335938 11.511719 2.394531 12.003906 C 2.421875 12.253906 2.519531 12.738281 2.652344 13.183594 C 2.882812 13.953125 3.050781 14.089844 3.195312 14.121094 C 3.261719 14.136719 3.347656 14.140625 3.441406 14.140625 C 3.707031 14.140625 4.042969 14.09375 4.261719 14.03125 C 4.519531 14.796875 4.882812 15.488281 5.328125 16.09375 C 5.308594 16.101562 5.285156 16.109375 5.265625 16.113281 C 4.996094 15.996094 4.0625 15.582031 3.746094 15.445312 L 3.089844 15.160156 L 3.480469 15.742188 C 3.507812 15.785156 4.179688 16.785156 4.726562 17.460938 C 5.238281 18.089844 5.9375 18.734375 7.261719 18.734375 C 7.421875 18.734375 7.585938 18.722656 7.757812 18.703125 C 8.152344 18.660156 8.449219 18.628906 8.675781 18.601562 C 10.0625 19.089844 11.59375 19.117188 13.046875 18.589844 C 13.445312 18.445312 13.804688 18.269531 14.140625 18.074219 C 14.699219 17.945312 15.3125 17.804688 15.613281 17.726562 C 15.664062 17.710938 15.722656 17.699219 15.789062 17.683594 C 16.210938 17.589844 16.914062 17.433594 17.289062 16.714844 C 17.667969 15.988281 18.285156 14.875 18.292969 14.863281 L 18.582031 14.34375 L 18.019531 14.578125 C 17.988281 14.59375 17.277344 14.890625 16.90625 15.074219 C 17.164062 14.507812 17.3125 14.039062 17.367188 13.859375 C 17.574219 13.90625 17.882812 13.898438 18.109375 13.898438 C 18.21875 13.898438 18.332031 13.882812 18.40625 13.863281 C 18.554688 13.828125 18.667969 13.734375 18.882812 12.941406 C 19.007812 12.480469 19.09375 11.980469 19.121094 11.722656 C 19.167969 11.222656 19.152344 10.953125 18.9375 10.785156 C 18.832031 10.699219 18.519531 10.539062 18.359375 10.457031 C 18.449219 10.421875 18.492188 10.433594 18.496094 10.433594 L 18.640625 9.910156 C 18.691406 9.890625 18.746094 9.867188 18.804688 9.847656 C 18.894531 9.8125 18.980469 9.78125 19.066406 9.742188 L 19.195312 9.6875 C 19.242188 9.667969 19.28125 9.648438 19.332031 9.625 L 19.40625 9.558594 C 19.421875 9.535156 19.429688 9.523438 19.441406 9.503906 C 19.488281 9.421875 19.503906 9.390625 19.519531 9.359375 C 19.554688 9.292969 19.582031 9.226562 19.609375 9.160156 C 19.664062 9.027344 19.710938 8.894531 19.75 8.757812 C 19.824219 8.488281 19.878906 8.214844 19.910156 7.9375 C 19.941406 7.660156 19.949219 7.382812 19.9375 7.105469 C 19.929688 6.964844 19.914062 6.824219 19.894531 6.6875 Z M 19.894531 6.6875 "/>
<path style=" stroke:none;fill-rule:nonzero;fill:rgb(88.235294%,77.254902%,63.529412%);fill-opacity:1;" d="M 11.644531 17.476562 C 11.539062 17.492188 11.433594 17.503906 11.328125 17.511719 C 11.261719 17.515625 11.1875 17.523438 11.121094 17.523438 L 11.097656 17.523438 C 11.179688 17.347656 11.242188 17.210938 11.289062 17.109375 C 11.386719 17.210938 11.507812 17.339844 11.644531 17.476562 "/>
<path style=" stroke:none;fill-rule:nonzero;fill:rgb(65.882353%,60%,51.372549%);fill-opacity:1;" d="M 11.515625 9.648438 C 11.351562 9.777344 11.175781 9.898438 10.992188 10.003906 L 10.386719 10.355469 C 10.003906 10.398438 9.671875 10.492188 9.65625 10.496094 C 9.644531 10.5 9.632812 10.503906 9.625 10.507812 C 9.59375 10.527344 9.570312 10.554688 9.558594 10.585938 L 8.941406 12.539062 L 5.632812 13.242188 L 4.589844 12.542969 L 4.285156 10.191406 C 4.878906 10.089844 5.667969 9.96875 6.621094 9.867188 C 6.519531 9.980469 6.421875 10.105469 6.324219 10.234375 L 5.761719 11.011719 L 6.585938 10.484375 C 6.597656 10.476562 7.121094 10.148438 7.980469 9.746094 C 8.835938 9.683594 9.78125 9.644531 10.789062 9.644531 C 11.039062 9.644531 11.28125 9.644531 11.515625 9.648438 Z M 6.367188 12.300781 C 6.601562 12.179688 6.867188 12.195312 7.28125 12.195312 C 7.328125 12.199219 7.375 12.195312 7.421875 12.195312 C 7.460938 12.195312 7.503906 12.195312 7.546875 12.195312 C 7.976562 12.191406 8.332031 12.226562 8.324219 11.585938 C 8.320312 10.941406 8.019531 10.421875 7.589844 10.425781 C 7.164062 10.429688 6.75 10.957031 6.773438 11.597656 C 6.78125 11.765625 6.808594 11.886719 6.847656 11.976562 C 6.476562 12.066406 6.371094 12.285156 6.367188 12.300781 Z M 6.367188 12.300781 "/>
<path style=" stroke:none;fill-rule:nonzero;fill:rgb(65.882353%,60%,51.372549%);fill-opacity:1;" d="M 17.253906 10.183594 L 16.953125 12.183594 L 15.902344 12.890625 L 12.597656 12.527344 L 11.980469 10.585938 C 11.96875 10.542969 11.933594 10.507812 11.886719 10.496094 C 11.867188 10.488281 11.457031 10.378906 11.023438 10.34375 L 11.105469 10.335938 C 11.171875 10.332031 12.3125 10.199219 13.671875 9.75 C 15.179688 9.859375 16.410156 10.039062 17.253906 10.183594 Z M 15.140625 12.035156 C 15.136719 12.019531 15.046875 11.761719 14.648438 11.804688 C 14.695312 11.710938 14.714844 11.582031 14.699219 11.40625 C 14.648438 10.761719 14.257812 10.25 13.828125 10.265625 C 13.402344 10.28125 13.125 10.8125 13.148438 11.457031 C 13.171875 12.101562 13.53125 12.097656 13.960938 12.082031 C 14.535156 12.070312 14.851562 11.902344 15.140625 12.035156 Z M 15.140625 12.035156 "/>
<path style=" stroke:none;fill-rule:nonzero;fill:rgb(100%,100%,100%);fill-opacity:1;" d="M 14.011719 10.878906 C 14.011719 10.996094 13.917969 11.089844 13.796875 11.09375 C 13.675781 11.09375 13.574219 11 13.574219 10.886719 C 13.570312 10.769531 13.667969 10.675781 13.789062 10.671875 C 13.910156 10.671875 14.007812 10.761719 14.011719 10.878906 "/>
<path style=" stroke:none;fill-rule:nonzero;fill:rgb(100%,100%,100%);fill-opacity:1;" d="M 7.875 11.03125 C 7.878906 11.148438 7.785156 11.246094 7.664062 11.246094 C 7.542969 11.25 7.441406 11.160156 7.4375 11.042969 C 7.433594 10.929688 7.53125 10.832031 7.652344 10.828125 C 7.773438 10.824219 7.871094 10.917969 7.875 11.03125 "/>
<path style=" stroke:none;fill-rule:nonzero;fill:rgb(88.235294%,77.254902%,63.529412%);fill-opacity:1;" d="M 18.695312 11.0625 C 18.644531 11.023438 18.46875 10.929688 18.300781 10.84375 L 18.027344 12.699219 C 18.019531 12.734375 18 12.769531 17.96875 12.789062 L 17.570312 13.054688 C 17.5625 13.101562 17.554688 13.136719 17.546875 13.171875 C 17.9375 13.265625 18.316406 12.996094 18.527344 12.800781 C 18.625 12.4375 18.710938 12 18.742188 11.691406 C 18.785156 11.207031 18.746094 11.105469 18.695312 11.0625 "/>
<path style=" stroke:none;fill-rule:nonzero;fill:rgb(88.235294%,77.254902%,63.529412%);fill-opacity:1;" d="M 12.574219 18.125 C 12.316406 18.039062 12.082031 17.894531 11.875 17.703125 C 11.859375 17.683594 11.84375 17.667969 11.824219 17.652344 C 11.667969 17.683594 11.503906 17.707031 11.339844 17.71875 C 11.269531 17.722656 11.203125 17.726562 11.132812 17.726562 L 11.023438 17.730469 L 10.980469 17.726562 C 10.734375 18.078125 10.324219 18.269531 10 18.371094 C 10.960938 18.53125 12.019531 18.289062 12.574219 18.125 "/>
<path style=" stroke:none;fill-rule:nonzero;fill:rgb(88.235294%,77.254902%,63.529412%);fill-opacity:1;" d="M 4.109375 13.574219 C 4.097656 13.546875 4.089844 13.519531 4.082031 13.488281 L 3.566406 13.144531 C 3.535156 13.121094 3.515625 13.089844 3.507812 13.050781 L 3.257812 11.101562 C 3.074219 11.195312 2.859375 11.3125 2.800781 11.359375 C 2.75 11.398438 2.714844 11.496094 2.765625 11.960938 C 2.808594 12.3125 2.9375 12.847656 3.066406 13.25 C 3.328125 13.441406 3.710938 13.644531 4.109375 13.574219 "/>
<path style=" stroke:none;fill-rule:nonzero;fill:rgb(88.235294%,77.254902%,63.529412%);fill-opacity:1;" d="M 11.804688 13.484375 C 11.75 13.480469 11.703125 13.441406 11.6875 13.390625 L 11.050781 11.386719 C 10.945312 11.371094 10.851562 11.367188 10.773438 11.367188 C 10.691406 11.367188 10.597656 11.371094 10.492188 11.386719 L 9.875 13.332031 C 9.859375 13.378906 9.820312 13.414062 9.769531 13.425781 L 9.476562 13.488281 C 9.449219 13.585938 9.367188 13.734375 9.089844 13.8125 C 8.648438 13.941406 5.851562 14.742188 5.535156 14.699219 C 5.347656 14.671875 4.992188 14.484375 4.730469 14.332031 C 4.625 14.097656 4.566406 13.9375 4.554688 13.898438 C 4.589844 14.003906 4.957031 15.007812 5.699219 15.992188 C 6.492188 15.769531 7.179688 15.558594 7.398438 15.492188 C 7.847656 14.832031 8.484375 14.175781 8.9375 14.15625 C 9.015625 14.152344 9.09375 14.148438 9.175781 14.148438 C 9.398438 14.148438 9.609375 14.164062 9.804688 14.1875 C 9.636719 14.039062 9.605469 13.871094 9.578125 13.796875 C 9.578125 13.796875 10.15625 14.230469 10.894531 14.136719 C 11.628906 14.046875 12.085938 13.640625 12.085938 13.640625 L 12.101562 13.515625 Z M 11.804688 13.484375 "/>
<path style=" stroke:none;fill-rule:nonzero;fill:rgb(88.235294%,77.254902%,63.529412%);fill-opacity:1;" d="M 12.402344 13.738281 C 12.25 13.699219 12.152344 13.640625 12.09375 13.578125 L 12.085938 13.640625 C 12.085938 13.640625 12.082031 13.9375 11.761719 14.167969 C 12.378906 13.988281 12.632812 13.925781 12.808594 13.925781 C 13 13.925781 13.097656 14.003906 13.179688 14.070312 C 13.195312 14.085938 13.210938 14.097656 13.230469 14.113281 C 13.703125 14.46875 14.273438 14.902344 14.441406 15.03125 C 14.632812 15.050781 15.246094 15.117188 15.632812 15.152344 C 15.855469 15.171875 16.054688 15.1875 16.25 15.1875 C 16.316406 15.1875 16.375 15.1875 16.429688 15.183594 C 16.632812 14.808594 16.820312 14.398438 16.988281 13.941406 C 16.761719 14.09375 16.242188 14.429688 15.996094 14.472656 C 15.679688 14.53125 12.847656 13.847656 12.402344 13.738281 "/>
<path style=" stroke:none;fill-rule:nonzero;fill:rgb(87.843137%,84.705882%,58.823529%);fill-opacity:1;" d="M 19.527344 6.726562 C 19.523438 6.664062 19.515625 6.597656 19.507812 6.535156 C 19.5 6.492188 19.492188 6.445312 19.484375 6.398438 C 19.308594 6.257812 19.101562 6.128906 18.890625 6.011719 C 18.664062 5.882812 18.421875 5.769531 18.179688 5.660156 C 17.933594 5.550781 17.683594 5.453125 17.433594 5.355469 C 17.308594 5.304688 17.183594 5.257812 17.054688 5.214844 C 16.929688 5.167969 16.800781 5.121094 16.671875 5.078125 C 16.941406 5.121094 17.207031 5.179688 17.472656 5.246094 C 17.644531 5.285156 17.816406 5.335938 17.984375 5.386719 C 16.777344 2.363281 13.890625 0.394531 10.738281 0.394531 C 7.582031 0.394531 4.695312 2.363281 3.488281 5.386719 C 3.660156 5.335938 3.828125 5.285156 4 5.246094 C 4.265625 5.179688 4.53125 5.121094 4.800781 5.078125 C 4.671875 5.121094 4.542969 5.167969 4.417969 5.214844 C 4.289062 5.257812 4.164062 5.304688 4.039062 5.355469 C 3.789062 5.453125 3.539062 5.550781 3.292969 5.660156 C 3.050781 5.769531 2.808594 5.882812 2.582031 6.011719 C 2.371094 6.128906 2.167969 6.257812 1.988281 6.398438 C 1.980469 6.445312 1.972656 6.492188 1.964844 6.535156 C 1.957031 6.597656 1.949219 6.664062 1.945312 6.726562 C 1.933594 6.855469 1.929688 6.984375 1.929688 7.117188 C 1.925781 7.375 1.941406 7.632812 1.976562 7.890625 C 2.015625 8.148438 2.0625 8.402344 2.136719 8.648438 C 2.171875 8.773438 2.214844 8.894531 2.261719 9.011719 C 2.285156 9.070312 2.308594 9.128906 2.335938 9.1875 C 2.351562 9.214844 2.363281 9.242188 2.378906 9.269531 L 2.394531 9.300781 C 2.414062 9.308594 2.4375 9.320312 2.457031 9.328125 L 2.574219 9.382812 C 2.640625 9.414062 2.734375 9.453125 2.8125 9.488281 C 2.816406 9.484375 2.820312 9.480469 2.824219 9.476562 L 2.601562 8.664062 C 2.648438 8.652344 3.070312 8.546875 3.800781 8.414062 C 3.742188 8.402344 3.683594 8.390625 3.625 8.378906 C 3.457031 8.339844 3.292969 8.289062 3.136719 8.230469 C 3.058594 8.195312 2.980469 8.160156 2.90625 8.121094 C 2.832031 8.082031 2.757812 8.035156 2.703125 7.972656 C 3.503906 8.222656 5.160156 8.109375 6.632812 7.964844 C 7.976562 7.832031 9.328125 7.746094 10.683594 7.742188 C 12.039062 7.746094 13.390625 7.832031 14.734375 7.964844 C 16.207031 8.109375 17.863281 8.222656 18.664062 7.972656 C 18.605469 8.035156 18.535156 8.082031 18.460938 8.121094 C 18.386719 8.160156 18.308594 8.195312 18.230469 8.230469 C 18.070312 8.289062 17.90625 8.339844 17.742188 8.378906 C 17.714844 8.382812 17.691406 8.386719 17.667969 8.394531 C 18.46875 8.535156 18.933594 8.652344 18.980469 8.664062 L 18.769531 9.4375 C 18.8125 9.421875 18.855469 9.402344 18.898438 9.382812 L 19.019531 9.328125 C 19.039062 9.320312 19.058594 9.308594 19.078125 9.300781 L 19.09375 9.269531 C 19.109375 9.242188 19.125 9.214844 19.136719 9.1875 C 19.164062 9.128906 19.1875 9.070312 19.210938 9.011719 C 19.257812 8.894531 19.300781 8.773438 19.335938 8.648438 C 19.410156 8.402344 19.457031 8.148438 19.496094 7.890625 C 19.53125 7.632812 19.546875 7.375 19.546875 7.117188 C 19.542969 6.984375 19.539062 6.855469 19.527344 6.726562 "/>
<path style=" stroke:none;fill-rule:nonzero;fill:rgb(84.313725%,75.686275%,51.764706%);fill-opacity:1;" d="M 14.054688 5.222656 C 14.066406 5.570312 14.058594 6.199219 13.890625 6.785156 C 13.882812 6.808594 13.882812 6.832031 13.890625 6.851562 C 13.675781 6.832031 13.460938 6.8125 13.246094 6.796875 C 13.484375 6.3125 13.539062 5.800781 13.550781 5.617188 C 13.734375 5.492188 13.917969 5.339844 14.054688 5.222656 "/>
<path style=" stroke:none;fill-rule:nonzero;fill:rgb(84.313725%,75.686275%,51.764706%);fill-opacity:1;" d="M 7.921875 5.617188 C 7.933594 5.800781 7.988281 6.3125 8.226562 6.792969 C 8.011719 6.808594 7.796875 6.828125 7.585938 6.851562 C 7.589844 6.832031 7.589844 6.808594 7.585938 6.785156 C 7.417969 6.199219 7.40625 5.570312 7.417969 5.222656 C 7.554688 5.339844 7.738281 5.492188 7.921875 5.617188 "/>
<path style=" stroke:none;fill-rule:nonzero;fill:rgb(84.313725%,75.686275%,51.764706%);fill-opacity:1;" d="M 16.683594 7.332031 C 16.683594 7.335938 16.683594 7.34375 16.679688 7.347656 C 16.703125 7.355469 16.726562 7.363281 16.75 7.367188 C 16.949219 7.429688 17.148438 7.496094 17.335938 7.578125 C 17.019531 7.382812 16.820312 6.816406 16.707031 6.382812 C 16.738281 6.949219 16.6875 7.308594 16.683594 7.332031 "/>
<path style=" stroke:none;fill-rule:nonzero;fill:rgb(84.313725%,75.686275%,51.764706%);fill-opacity:1;" d="M 7.15625 5.117188 L 5.109375 5.671875 C 4.988281 6.433594 5.023438 7.015625 5.042969 7.21875 L 5.054688 7.210938 C 5.054688 7.210938 5.121094 6.382812 5.257812 6.0625 C 5.328125 5.898438 5.753906 5.796875 6.082031 5.722656 C 6.410156 5.648438 6.929688 5.496094 7.03125 5.9375 C 7.09375 6.210938 7.179688 6.433594 7.261719 6.601562 C 7.132812 5.996094 7.140625 5.40625 7.15625 5.117188 "/>
<path style=" stroke:none;fill-rule:nonzero;fill:rgb(84.313725%,75.686275%,51.764706%);fill-opacity:1;" d="M 14.316406 5.117188 C 14.332031 5.417969 14.339844 6.042969 14.195312 6.671875 C 14.285156 6.5 14.390625 6.25 14.460938 5.9375 C 14.5625 5.496094 15.085938 5.648438 15.410156 5.722656 C 15.738281 5.796875 16.167969 5.898438 16.234375 6.0625 C 16.351562 6.332031 16.417969 6.96875 16.433594 7.15625 C 16.453125 6.914062 16.476562 6.367188 16.363281 5.671875 Z M 14.316406 5.117188 "/>
<path style=" stroke:none;fill-rule:nonzero;fill:rgb(84.313725%,75.686275%,51.764706%);fill-opacity:1;" d="M 7.90625 5.285156 C 7.980469 5.339844 8.054688 5.394531 8.128906 5.441406 C 8.164062 5.464844 8.1875 5.503906 8.1875 5.546875 C 8.1875 5.554688 8.203125 6.199219 8.5 6.75 C 8.503906 6.757812 8.507812 6.765625 8.511719 6.773438 C 9.253906 6.726562 9.996094 6.707031 10.738281 6.707031 C 11.476562 6.707031 12.21875 6.726562 12.960938 6.777344 C 12.964844 6.765625 12.964844 6.757812 12.972656 6.75 C 13.269531 6.199219 13.285156 5.554688 13.285156 5.546875 C 13.285156 5.503906 13.308594 5.464844 13.34375 5.441406 C 13.414062 5.394531 13.488281 5.34375 13.558594 5.289062 L 13.566406 5.265625 C 13.722656 3.820312 13.4375 2.492188 13.257812 1.835938 C 13.25 2.285156 13.136719 6.132812 12.140625 6.132812 L 9.386719 6.132812 C 8.324219 6.132812 8.238281 1.792969 8.238281 1.792969 L 8.183594 1.945312 C 8.003906 2.640625 7.757812 3.910156 7.90625 5.285156 "/>
<path style=" stroke:none;fill-rule:nonzero;fill:rgb(84.313725%,75.686275%,51.764706%);fill-opacity:1;" d="M 4.792969 7.347656 C 4.792969 7.34375 4.789062 7.335938 4.789062 7.332031 C 4.785156 7.308594 4.734375 6.949219 4.765625 6.378906 C 4.652344 6.816406 4.453125 7.382812 4.136719 7.578125 C 4.324219 7.496094 4.523438 7.429688 4.722656 7.367188 C 4.746094 7.363281 4.769531 7.355469 4.792969 7.347656 "/>
<path style=" stroke:none;fill-rule:nonzero;fill:rgb(62.352941%,56.078431%,47.058824%);fill-opacity:1;" d="M 17.546875 13.171875 C 17.53125 13.257812 17.515625 13.324219 17.488281 13.429688 C 17.714844 13.480469 18.085938 13.519531 18.265625 13.484375 C 18.339844 13.40625 18.4375 13.132812 18.527344 12.800781 C 18.316406 12.996094 17.9375 13.265625 17.546875 13.171875 "/>
<path style=" stroke:none;fill-rule:nonzero;fill:rgb(62.352941%,56.078431%,47.058824%);fill-opacity:1;" d="M 9.40625 18.496094 C 9.949219 18.640625 10.503906 18.703125 11.050781 18.667969 C 11.597656 18.632812 12.308594 18.519531 13.0625 18.222656 C 12.894531 18.210938 12.730469 18.179688 12.574219 18.125 C 12.019531 18.289062 10.960938 18.53125 10 18.371094 C 9.746094 18.453125 9.546875 18.476562 9.527344 18.480469 C 9.484375 18.484375 9.453125 18.488281 9.40625 18.496094 "/>
<path style=" stroke:none;fill-rule:nonzero;fill:rgb(62.352941%,56.078431%,47.058824%);fill-opacity:1;" d="M 4.144531 13.691406 C 4.132812 13.652344 4.121094 13.613281 4.109375 13.574219 C 3.710938 13.644531 3.328125 13.441406 3.066406 13.25 C 3.152344 13.511719 3.238281 13.714844 3.300781 13.773438 C 3.496094 13.808594 3.929688 13.75 4.144531 13.691406 "/>
<path style=" stroke:none;fill-rule:nonzero;fill:rgb(62.352941%,56.078431%,47.058824%);fill-opacity:1;" d="M 4.730469 14.332031 C 4.992188 14.484375 5.347656 14.671875 5.535156 14.699219 C 5.851562 14.742188 8.648438 13.941406 9.089844 13.8125 C 9.367188 13.734375 9.449219 13.585938 9.476562 13.488281 L 5.441406 14.347656 C 5.429688 14.347656 5.417969 14.351562 5.410156 14.351562 C 5.382812 14.351562 5.355469 14.34375 5.328125 14.328125 L 4.703125 13.90625 L 4.511719 13.777344 C 4.515625 13.789062 4.519531 13.796875 4.523438 13.808594 C 4.53125 13.839844 4.542969 13.867188 4.554688 13.898438 C 4.566406 13.9375 4.625 14.097656 4.730469 14.332031 "/>
<path style=" stroke:none;fill-rule:nonzero;fill:rgb(62.352941%,56.078431%,47.058824%);fill-opacity:1;" d="M 17.109375 13.589844 C 17.136719 13.5 17.160156 13.40625 17.183594 13.316406 L 16.667969 13.660156 L 16.257812 13.9375 C 16.238281 13.949219 16.214844 13.957031 16.1875 13.960938 C 16.179688 13.960938 16.171875 13.960938 16.164062 13.960938 L 12.101562 13.515625 L 12.09375 13.578125 C 12.152344 13.640625 12.25 13.699219 12.402344 13.738281 C 12.847656 13.847656 15.679688 14.53125 15.996094 14.472656 C 16.242188 14.429688 16.761719 14.09375 16.988281 13.941406 C 16.988281 13.9375 16.992188 13.933594 16.992188 13.925781 C 17.011719 13.878906 17.027344 13.828125 17.046875 13.78125 C 17.066406 13.71875 17.089844 13.65625 17.109375 13.589844 "/>
<path style=" stroke:none;fill-rule:nonzero;fill:rgb(43.137255%,41.568627%,40.392157%);fill-opacity:1;" d="M 12.808594 8.347656 C 12.777344 8.390625 12.742188 8.433594 12.707031 8.476562 C 12.511719 8.710938 12.246094 9.007812 11.929688 9.300781 C 11.558594 9.289062 11.179688 9.285156 10.792969 9.285156 C 10.148438 9.285156 9.527344 9.300781 8.941406 9.328125 C 9.773438 9 10.765625 8.675781 11.84375 8.484375 C 12.160156 8.425781 12.484375 8.382812 12.808594 8.347656 "/>
<path style=" stroke:none;fill-rule:nonzero;fill:rgb(43.137255%,41.568627%,40.392157%);fill-opacity:1;" d="M 7.960938 8.703125 C 7.664062 8.902344 7.328125 9.15625 7.003906 9.464844 C 6.175781 9.546875 5.453125 9.640625 4.855469 9.734375 C 5.773438 9.332031 6.820312 8.957031 7.960938 8.703125 "/>
<path style=" stroke:none;fill-rule:nonzero;fill:rgb(43.137255%,41.568627%,40.392157%);fill-opacity:1;" d="M 18.097656 10.34375 L 17.757812 12.605469 L 16.140625 13.691406 L 11.925781 13.230469 L 11.292969 11.230469 C 11.277344 11.179688 11.234375 11.144531 11.179688 11.136719 C 11.023438 11.113281 10.886719 11.101562 10.773438 11.101562 C 10.65625 11.101562 10.519531 11.113281 10.359375 11.136719 C 10.308594 11.144531 10.265625 11.179688 10.25 11.230469 L 9.632812 13.183594 L 5.4375 14.074219 L 3.777344 12.960938 L 3.449219 10.425781 C 3.519531 10.386719 3.59375 10.347656 3.667969 10.308594 C 3.769531 10.289062 3.886719 10.265625 4.011719 10.242188 L 4.320312 12.636719 C 4.328125 12.671875 4.347656 12.707031 4.378906 12.726562 L 5.523438 13.496094 C 5.546875 13.507812 5.574219 13.519531 5.601562 13.519531 C 5.613281 13.519531 5.621094 13.515625 5.632812 13.515625 L 9.082031 12.78125 C 9.09375 12.777344 9.105469 12.773438 9.113281 12.769531 C 9.148438 12.753906 9.171875 12.722656 9.183594 12.6875 L 9.804688 10.734375 C 9.96875 10.691406 10.398438 10.597656 10.769531 10.597656 C 11.144531 10.597656 11.570312 10.691406 11.738281 10.734375 L 12.359375 12.6875 C 12.375 12.738281 12.421875 12.777344 12.476562 12.78125 L 15.925781 13.15625 C 15.957031 13.160156 15.992188 13.152344 16.019531 13.132812 L 17.164062 12.367188 C 17.195312 12.347656 17.214844 12.316406 17.21875 12.277344 L 17.523438 10.234375 C 17.753906 10.273438 17.945312 10.3125 18.097656 10.34375 "/>
<path style=" stroke:none;fill-rule:nonzero;fill:rgb(43.137255%,41.568627%,40.392157%);fill-opacity:1;" d="M 18.523438 8.925781 L 18.226562 10.003906 C 17.617188 9.875 16.285156 9.625 14.472656 9.457031 C 15.0625 9.214844 15.667969 8.910156 16.21875 8.53125 C 17.300781 8.675781 18.089844 8.832031 18.523438 8.925781 "/>
<path style=" stroke:none;fill-rule:nonzero;fill:rgb(43.137255%,41.568627%,40.392157%);fill-opacity:1;" d="M 3.0625 8.925781 L 3.144531 9.226562 C 3.375 9.050781 3.585938 8.902344 3.765625 8.785156 C 3.472656 8.839844 3.234375 8.890625 3.0625 8.925781 "/>
<path style=" stroke:none;fill-rule:nonzero;fill:rgb(57.647059%,13.72549%,17.254902%);fill-opacity:1;" d="M 14.703125 8.324219 C 14.246094 8.300781 13.792969 8.28125 13.339844 8.261719 C 13.3125 8.300781 13.257812 8.375 13.183594 8.476562 C 12.9375 8.789062 12.457031 9.367188 11.84375 9.859375 C 12.304688 9.71875 14.144531 9.128906 15.074219 8.347656 C 14.949219 8.339844 14.824219 8.332031 14.703125 8.324219 "/>
<path style=" stroke:none;fill-rule:nonzero;fill:rgb(57.647059%,13.72549%,17.254902%);fill-opacity:1;" d="M 11.371094 8.210938 C 11.371094 8.210938 11.375 8.210938 11.375 8.210938 C 11.144531 8.207031 10.914062 8.207031 10.683594 8.203125 C 10.34375 8.207031 10.003906 8.210938 9.667969 8.214844 L 9.042969 8.5 C 9.039062 8.5 9.035156 8.5 9.03125 8.503906 C 8.9375 8.546875 8.117188 8.945312 7.34375 9.652344 C 7.414062 9.617188 7.484375 9.582031 7.558594 9.546875 C 7.980469 9.273438 9.109375 8.628906 10.859375 8.207031 C 11.03125 8.207031 11.203125 8.207031 11.371094 8.210938 "/>
<path style=" stroke:none;fill-rule:nonzero;fill:rgb(57.647059%,13.72549%,17.254902%);fill-opacity:1;" d="M 7.53125 8.285156 C 7.242188 8.296875 6.953125 8.308594 6.664062 8.324219 C 6.328125 8.34375 5.992188 8.367188 5.660156 8.390625 C 5.492188 8.402344 5.328125 8.414062 5.160156 8.433594 C 5.113281 8.4375 5.066406 8.441406 5.019531 8.449219 C 4.582031 8.695312 2.914062 9.699219 1.765625 11.015625 C 1.785156 10.992188 1.804688 10.96875 1.828125 10.945312 C 3.949219 9.210938 6.28125 8.535156 7.53125 8.285156 "/>
<path style=" stroke:none;fill-rule:nonzero;fill:rgb(57.647059%,13.72549%,17.254902%);fill-opacity:1;" d="M 17.144531 15.417969 C 17.128906 15.425781 17.117188 15.433594 17.105469 15.4375 C 16.890625 15.546875 16.613281 15.597656 16.25 15.597656 C 16.035156 15.597656 15.828125 15.582031 15.59375 15.5625 C 15.125 15.519531 14.335938 15.429688 14.328125 15.429688 L 14.269531 15.425781 L 14.222656 15.386719 C 14.214844 15.382812 13.523438 14.855469 12.964844 14.433594 C 12.941406 14.417969 12.921875 14.398438 12.902344 14.386719 C 12.84375 14.335938 12.84375 14.335938 12.808594 14.335938 C 12.628906 14.335938 12.109375 14.492188 10.96875 14.832031 L 10.898438 14.851562 L 10.828125 14.828125 C 10.820312 14.824219 10.074219 14.558594 9.175781 14.558594 C 9.101562 14.558594 9.027344 14.5625 8.957031 14.5625 C 8.867188 14.570312 8.363281 14.796875 7.71875 15.773438 L 7.675781 15.835938 L 7.601562 15.859375 C 7.59375 15.863281 6.480469 16.207031 5.304688 16.527344 L 5.230469 16.550781 L 5.15625 16.515625 C 5.148438 16.515625 4.6875 16.308594 4.25 16.117188 C 4.285156 16.132812 4.316406 16.148438 4.347656 16.160156 C 4.78125 16.519531 5.609375 17.207031 5.699219 17.300781 C 5.714844 17.316406 5.730469 17.332031 5.753906 17.351562 C 5.730469 17.328125 5.710938 17.304688 5.691406 17.28125 C 5.691406 17.277344 5.691406 17.277344 5.6875 17.277344 C 5.878906 17.453125 6.09375 17.601562 6.324219 17.707031 C 6.441406 17.757812 6.5625 17.800781 6.6875 17.820312 C 6.75 17.828125 6.808594 17.832031 6.875 17.832031 C 6.9375 17.832031 7.003906 17.832031 7.066406 17.828125 C 7.328125 17.816406 7.589844 17.796875 7.847656 17.773438 C 8.109375 17.75 8.367188 17.726562 8.628906 17.695312 C 8.890625 17.667969 9.148438 17.636719 9.40625 17.597656 C 9.535156 17.582031 9.664062 17.5625 9.789062 17.535156 C 9.847656 17.519531 9.914062 17.503906 9.960938 17.484375 C 10.007812 17.464844 10.058594 17.421875 10.109375 17.382812 C 10.203125 17.304688 10.296875 17.214844 10.390625 17.128906 C 10.484375 17.039062 10.574219 16.949219 10.664062 16.855469 C 10.816406 16.703125 10.949219 16.542969 11.09375 16.382812 C 11.113281 16.363281 11.132812 16.34375 11.152344 16.324219 L 11.15625 16.324219 C 11.1875 16.347656 11.214844 16.367188 11.246094 16.390625 C 11.425781 16.515625 11.605469 16.65625 11.785156 16.773438 C 12.011719 16.925781 12.242188 17.082031 12.480469 17.207031 C 12.542969 17.238281 12.601562 17.269531 12.660156 17.289062 C 12.667969 17.292969 12.675781 17.292969 12.683594 17.292969 C 12.6875 17.296875 12.703125 17.296875 12.703125 17.296875 C 12.714844 17.300781 12.730469 17.300781 12.746094 17.300781 C 12.777344 17.300781 12.8125 17.300781 12.84375 17.300781 C 12.980469 17.289062 13.117188 17.269531 13.253906 17.25 C 13.527344 17.210938 13.800781 17.164062 14.070312 17.109375 C 14.34375 17.0625 14.617188 17.007812 14.886719 16.949219 C 15.160156 16.894531 15.429688 16.832031 15.699219 16.769531 C 15.832031 16.734375 15.96875 16.703125 16.085938 16.648438 C 16.207031 16.59375 16.320312 16.519531 16.425781 16.433594 C 16.636719 16.261719 16.8125 16.050781 16.960938 15.816406 C 16.960938 15.820312 16.960938 15.820312 16.960938 15.820312 C 17.050781 15.660156 17.109375 15.515625 17.144531 15.417969 "/>
<path style=" stroke:none;fill-rule:nonzero;fill:rgb(57.647059%,13.72549%,17.254902%);fill-opacity:1;" d="M 12.050781 3.128906 L 12.53125 3.128906 L 12.53125 2.195312 L 9.019531 2.195312 L 9.019531 3.128906 L 9.5 3.128906 L 9.5 2.652344 L 10.492188 2.652344 L 10.492188 5.539062 L 10.082031 5.539062 L 10.082031 6.074219 L 11.464844 6.074219 L 11.464844 5.539062 L 11.054688 5.539062 L 11.054688 2.652344 L 12.050781 2.652344 Z M 12.050781 3.128906 "/>
<path style=" stroke:none;fill-rule:nonzero;fill:rgb(45.098039%,10.588235%,16.470588%);fill-opacity:1;" d="M 15.683594 8.390625 C 15.683594 8.390625 15.683594 8.386719 15.683594 8.386719 C 15.484375 8.375 15.285156 8.359375 15.085938 8.347656 C 15.082031 8.347656 15.078125 8.347656 15.074219 8.347656 C 14.144531 9.128906 12.304688 9.71875 11.84375 9.859375 C 11.832031 9.867188 11.824219 9.875 11.816406 9.882812 C 12.410156 9.777344 13.300781 9.574219 14.226562 9.183594 C 14.679688 8.988281 15.144531 8.753906 15.585938 8.457031 C 15.617188 8.433594 15.652344 8.410156 15.683594 8.390625 "/>
<path style=" stroke:none;fill-rule:nonzero;fill:rgb(45.098039%,10.588235%,16.470588%);fill-opacity:1;" d="M 10.859375 8.207031 C 9.109375 8.628906 7.980469 9.273438 7.558594 9.546875 C 7.898438 9.378906 8.296875 9.199219 8.75 9.019531 C 8.75 9.015625 8.753906 9.015625 8.757812 9.015625 C 8.800781 8.996094 8.847656 8.976562 8.894531 8.960938 C 8.910156 8.953125 8.925781 8.949219 8.941406 8.941406 C 8.980469 8.925781 9.023438 8.910156 9.0625 8.894531 C 9.085938 8.886719 9.109375 8.878906 9.132812 8.871094 C 9.171875 8.855469 9.207031 8.839844 9.246094 8.828125 C 9.273438 8.816406 9.300781 8.808594 9.332031 8.796875 C 9.363281 8.785156 9.398438 8.773438 9.433594 8.757812 C 9.46875 8.75 9.5 8.738281 9.535156 8.726562 C 9.566406 8.714844 9.597656 8.703125 9.632812 8.691406 C 9.667969 8.679688 9.707031 8.667969 9.742188 8.652344 C 9.773438 8.644531 9.804688 8.632812 9.832031 8.625 C 9.878906 8.609375 9.921875 8.597656 9.964844 8.582031 C 9.992188 8.574219 10.015625 8.566406 10.039062 8.558594 C 10.109375 8.535156 10.179688 8.515625 10.253906 8.496094 C 10.40625 8.449219 10.566406 8.40625 10.726562 8.363281 C 10.9375 8.308594 11.152344 8.257812 11.371094 8.210938 C 11.203125 8.207031 11.03125 8.207031 10.859375 8.207031 "/>
<path style=" stroke:none;fill-rule:nonzero;fill:rgb(45.098039%,10.588235%,16.470588%);fill-opacity:1;" d="M 7.53125 8.285156 C 6.28125 8.535156 3.949219 9.210938 1.828125 10.945312 C 1.804688 10.96875 1.785156 10.992188 1.765625 11.015625 C 2.84375 10.296875 4.703125 9.226562 6.996094 8.578125 C 7.070312 8.554688 7.144531 8.535156 7.21875 8.515625 C 7.601562 8.414062 7.992188 8.324219 8.394531 8.25 C 8.109375 8.257812 7.820312 8.269531 7.53125 8.285156 "/>
<path style=" stroke:none;fill-rule:nonzero;fill:rgb(45.098039%,10.588235%,16.470588%);fill-opacity:1;" d="M 17.554688 15.226562 C 17.550781 15.230469 17.542969 15.234375 17.535156 15.238281 C 17.519531 15.246094 17.503906 15.25 17.492188 15.257812 C 17.480469 15.261719 17.46875 15.269531 17.457031 15.273438 C 17.445312 15.277344 17.4375 15.28125 17.425781 15.285156 C 17.414062 15.292969 17.398438 15.300781 17.382812 15.304688 C 17.378906 15.308594 17.371094 15.3125 17.363281 15.316406 C 17.347656 15.324219 17.332031 15.328125 17.316406 15.335938 C 17.3125 15.339844 17.308594 15.339844 17.304688 15.34375 C 17.289062 15.351562 17.269531 15.359375 17.253906 15.367188 C 17.253906 15.367188 17.25 15.367188 17.25 15.367188 C 17.210938 15.386719 17.175781 15.402344 17.144531 15.417969 C 17.109375 15.515625 17.050781 15.660156 16.957031 15.820312 C 16.957031 15.820312 16.960938 15.816406 16.960938 15.816406 C 16.957031 15.820312 16.957031 15.820312 16.957031 15.820312 C 16.8125 16.050781 16.636719 16.261719 16.425781 16.433594 C 16.320312 16.519531 16.207031 16.59375 16.085938 16.648438 C 15.96875 16.703125 15.832031 16.734375 15.699219 16.769531 C 15.429688 16.832031 15.160156 16.894531 14.886719 16.949219 C 14.617188 17.007812 14.34375 17.058594 14.070312 17.109375 C 13.800781 17.164062 13.527344 17.210938 13.253906 17.25 C 13.117188 17.269531 12.980469 17.289062 12.84375 17.296875 C 12.8125 17.300781 12.777344 17.300781 12.746094 17.300781 C 12.730469 17.300781 12.714844 17.300781 12.703125 17.296875 C 12.703125 17.296875 12.6875 17.296875 12.683594 17.292969 C 12.675781 17.292969 12.667969 17.289062 12.660156 17.289062 C 12.601562 17.269531 12.542969 17.238281 12.480469 17.207031 C 12.242188 17.078125 12.011719 16.925781 11.785156 16.773438 C 11.605469 16.65625 11.421875 16.515625 11.246094 16.390625 L 11.230469 16.410156 L 11.230469 16.414062 C 11.242188 16.421875 11.253906 16.429688 11.265625 16.441406 C 11.257812 16.433594 11.25 16.429688 11.242188 16.421875 L 11.390625 16.59375 C 11.390625 16.59375 11.394531 16.601562 11.40625 16.613281 C 11.484375 16.699219 11.800781 17.050781 12.175781 17.410156 C 12.464844 17.683594 12.8125 17.820312 13.210938 17.820312 C 13.34375 17.820312 13.488281 17.800781 13.632812 17.769531 C 13.765625 17.738281 13.910156 17.707031 14.058594 17.671875 C 14.5 17.570312 14.988281 17.457031 15.3125 17.378906 C 15.332031 17.371094 15.355469 17.367188 15.375 17.363281 C 15.421875 17.351562 15.460938 17.339844 15.5 17.328125 C 15.558594 17.3125 15.621094 17.300781 15.691406 17.285156 C 16.082031 17.199219 16.621094 17.078125 16.90625 16.53125 C 16.984375 16.382812 17.074219 16.214844 17.164062 16.042969 C 17.289062 15.808594 17.421875 15.566406 17.539062 15.351562 C 17.558594 15.316406 17.578125 15.28125 17.59375 15.25 C 17.605469 15.234375 17.613281 15.214844 17.625 15.199219 C 17.601562 15.207031 17.578125 15.21875 17.554688 15.226562 "/>
<path style=" stroke:none;fill-rule:nonzero;fill:rgb(45.098039%,10.588235%,16.470588%);fill-opacity:1;" d="M 11.121094 16.40625 L 11.09375 16.382812 C 10.949219 16.539062 10.816406 16.703125 10.664062 16.855469 C 10.574219 16.949219 10.484375 17.039062 10.390625 17.128906 C 10.296875 17.214844 10.203125 17.304688 10.109375 17.382812 C 10.058594 17.421875 10.007812 17.464844 9.960938 17.484375 C 9.914062 17.503906 9.847656 17.519531 9.789062 17.535156 C 9.664062 17.5625 9.535156 17.582031 9.40625 17.597656 C 9.148438 17.636719 8.890625 17.667969 8.628906 17.695312 C 8.367188 17.726562 8.109375 17.75 7.847656 17.773438 C 7.589844 17.796875 7.328125 17.816406 7.066406 17.828125 C 7.003906 17.832031 6.9375 17.832031 6.875 17.832031 C 6.808594 17.832031 6.75 17.828125 6.6875 17.820312 C 6.5625 17.800781 6.441406 17.757812 6.324219 17.707031 C 6.09375 17.601562 5.878906 17.453125 5.6875 17.277344 C 5.691406 17.277344 5.691406 17.277344 5.691406 17.277344 C 5.714844 17.308594 5.742188 17.339844 5.769531 17.367188 C 5.765625 17.359375 5.757812 17.355469 5.753906 17.351562 C 5.730469 17.332031 5.714844 17.3125 5.699219 17.300781 C 5.609375 17.207031 4.78125 16.519531 4.347656 16.160156 C 4.316406 16.144531 4.28125 16.132812 4.25 16.117188 C 4.328125 16.226562 4.410156 16.34375 4.5 16.464844 C 4.625 16.640625 4.757812 16.820312 4.890625 16.988281 C 4.949219 17.0625 5.007812 17.136719 5.0625 17.207031 C 5.535156 17.785156 6.125 18.320312 7.261719 18.320312 C 7.402344 18.320312 7.554688 18.3125 7.710938 18.296875 C 7.746094 18.292969 7.78125 18.289062 7.816406 18.285156 C 7.847656 18.28125 7.882812 18.277344 7.914062 18.273438 C 8.902344 18.164062 9.171875 18.121094 9.320312 18.09375 C 9.359375 18.089844 9.394531 18.082031 9.429688 18.078125 C 9.445312 18.074219 9.457031 18.074219 9.472656 18.070312 C 9.480469 18.070312 9.8125 18.03125 10.140625 17.878906 C 10.363281 17.773438 10.585938 17.617188 10.695312 17.382812 C 10.96875 16.796875 11.023438 16.660156 11.023438 16.652344 Z M 11.121094 16.40625 "/>
<path style=" stroke:none;fill-rule:nonzero;fill:rgb(5.490196%,5.882353%,5.098039%);fill-opacity:1;" d="M 13.796875 11.09375 C 13.917969 11.089844 14.011719 10.996094 14.011719 10.878906 C 14.007812 10.761719 13.910156 10.671875 13.789062 10.671875 C 13.667969 10.675781 13.570312 10.769531 13.574219 10.886719 C 13.574219 11 13.675781 11.09375 13.796875 11.09375 Z M 15.140625 12.035156 C 14.851562 11.902344 14.535156 12.070312 13.960938 12.082031 C 13.53125 12.097656 13.171875 12.101562 13.148438 11.457031 C 13.125 10.8125 13.402344 10.28125 13.828125 10.265625 C 14.257812 10.25 14.648438 10.761719 14.699219 11.40625 C 14.714844 11.582031 14.695312 11.710938 14.648438 11.804688 C 15.046875 11.761719 15.136719 12.019531 15.140625 12.035156 Z M 15.140625 12.035156 "/>
<path style=" stroke:none;fill-rule:nonzero;fill:rgb(5.490196%,5.882353%,5.098039%);fill-opacity:1;" d="M 7.664062 11.246094 C 7.785156 11.246094 7.878906 11.148438 7.875 11.03125 C 7.871094 10.917969 7.773438 10.824219 7.652344 10.828125 C 7.53125 10.832031 7.433594 10.929688 7.4375 11.042969 C 7.441406 11.160156 7.542969 11.25 7.664062 11.246094 Z M 8.324219 11.585938 C 8.332031 12.226562 7.976562 12.191406 7.546875 12.195312 C 7.503906 12.195312 7.460938 12.195312 7.421875 12.195312 C 7.375 12.195312 7.328125 12.195312 7.28125 12.195312 C 6.867188 12.195312 6.601562 12.175781 6.367188 12.300781 C 6.371094 12.285156 6.476562 12.0625 6.847656 11.972656 C 6.808594 11.886719 6.78125 11.765625 6.773438 11.597656 C 6.75 10.957031 7.164062 10.425781 7.589844 10.425781 C 8.019531 10.421875 8.316406 10.941406 8.324219 11.585938 Z M 8.324219 11.585938 "/>
<path style=" stroke:none;fill-rule:nonzero;fill:rgb(5.490196%,5.882353%,5.098039%);fill-opacity:1;" d="M 16.433594 7.15625 C 16.429688 7.214844 16.425781 7.253906 16.421875 7.277344 C 16.253906 7.234375 16.082031 7.191406 15.910156 7.152344 C 15.34375 7.035156 14.773438 6.945312 14.195312 6.882812 C 14.175781 6.882812 14.15625 6.878906 14.136719 6.878906 C 14.140625 6.871094 14.144531 6.859375 14.148438 6.851562 C 14.164062 6.792969 14.179688 6.734375 14.195312 6.671875 C 14.339844 6.042969 14.332031 5.417969 14.316406 5.117188 L 16.363281 5.671875 C 16.476562 6.367188 16.453125 6.914062 16.433594 7.15625 Z M 13.890625 6.785156 C 13.882812 6.808594 13.882812 6.832031 13.890625 6.851562 C 13.675781 6.832031 13.460938 6.8125 13.246094 6.796875 C 13.484375 6.3125 13.539062 5.800781 13.550781 5.617188 C 13.734375 5.492188 13.917969 5.339844 14.054688 5.222656 C 14.066406 5.570312 14.058594 6.199219 13.890625 6.785156 Z M 7.585938 6.851562 C 7.589844 6.832031 7.589844 6.808594 7.585938 6.785156 C 7.417969 6.199219 7.40625 5.570312 7.417969 5.222656 C 7.554688 5.339844 7.738281 5.492188 7.921875 5.617188 C 7.933594 5.800781 7.988281 6.3125 8.226562 6.792969 C 8.011719 6.808594 7.796875 6.828125 7.585938 6.851562 Z M 7.277344 6.882812 C 6.988281 6.917969 6.699219 6.953125 6.414062 6.996094 C 6.128906 7.042969 5.84375 7.09375 5.5625 7.152344 C 5.390625 7.191406 5.21875 7.230469 5.050781 7.277344 C 5.050781 7.261719 5.046875 7.242188 5.042969 7.21875 C 5.023438 7.015625 4.988281 6.433594 5.109375 5.671875 L 7.15625 5.113281 C 7.140625 5.40625 7.132812 5.996094 7.261719 6.601562 C 7.28125 6.683594 7.300781 6.769531 7.328125 6.851562 C 7.328125 6.859375 7.332031 6.871094 7.335938 6.875 C 7.316406 6.878906 7.296875 6.878906 7.277344 6.882812 Z M 17.53125 7.675781 C 17.511719 7.667969 17.496094 7.65625 17.480469 7.648438 C 17.453125 7.636719 17.425781 7.625 17.394531 7.609375 C 17.390625 7.609375 17.390625 7.609375 17.390625 7.609375 C 17.371094 7.601562 17.355469 7.589844 17.335938 7.578125 C 17.148438 7.496094 16.949219 7.429688 16.75 7.367188 C 16.726562 7.363281 16.703125 7.355469 16.679688 7.347656 C 16.683594 7.34375 16.683594 7.335938 16.683594 7.332031 C 16.6875 7.308594 16.738281 6.949219 16.707031 6.382812 C 16.695312 6.140625 16.667969 5.859375 16.613281 5.550781 C 16.605469 5.5 16.570312 5.460938 16.519531 5.449219 L 16.226562 5.367188 C 16.164062 3.207031 15.234375 2.191406 15.207031 2.160156 C 16.035156 3.441406 16.027344 4.957031 16.015625 5.3125 L 14.207031 4.820312 C 14.207031 4.820312 14.203125 4.820312 14.203125 4.816406 C 14.195312 4.816406 14.1875 4.816406 14.179688 4.816406 C 14.175781 4.816406 14.175781 4.8125 14.171875 4.8125 C 14.164062 4.8125 14.152344 4.816406 14.144531 4.816406 C 14.140625 4.816406 14.140625 4.816406 14.136719 4.816406 C 14.128906 4.820312 14.121094 4.820312 14.113281 4.824219 C 14.113281 4.828125 14.109375 4.828125 14.105469 4.828125 C 14.101562 4.832031 14.09375 4.835938 14.089844 4.839844 C 14.085938 4.839844 14.085938 4.84375 14.085938 4.84375 C 14.082031 4.84375 14.082031 4.847656 14.082031 4.847656 C 14.078125 4.847656 14.078125 4.851562 14.074219 4.851562 C 14.074219 4.851562 14.027344 4.898438 13.949219 4.96875 C 13.957031 4.804688 13.957031 4.558594 13.9375 4.253906 C 13.933594 4.226562 13.933594 4.195312 13.929688 4.167969 C 13.875 3.40625 13.6875 2.339844 13.125 1.40625 C 13.132812 1.417969 13.1875 1.574219 13.257812 1.835938 C 13.4375 2.492188 13.722656 3.820312 13.566406 5.265625 C 13.566406 5.273438 13.566406 5.277344 13.566406 5.285156 C 13.5625 5.285156 13.5625 5.289062 13.558594 5.289062 C 13.488281 5.34375 13.414062 5.394531 13.34375 5.441406 C 13.308594 5.464844 13.285156 5.503906 13.285156 5.546875 C 13.285156 5.554688 13.269531 6.199219 12.972656 6.75 C 12.964844 6.757812 12.964844 6.765625 12.960938 6.777344 C 12.21875 6.726562 11.476562 6.707031 10.738281 6.707031 C 9.996094 6.707031 9.253906 6.726562 8.511719 6.773438 C 8.507812 6.765625 8.503906 6.757812 8.5 6.75 C 8.203125 6.199219 8.1875 5.554688 8.1875 5.546875 C 8.1875 5.503906 8.164062 5.464844 8.128906 5.441406 C 8.054688 5.394531 7.980469 5.339844 7.90625 5.285156 C 7.757812 3.910156 8.003906 2.640625 8.183594 1.945312 C 8.269531 1.617188 8.339844 1.417969 8.347656 1.402344 C 7.535156 2.761719 7.503906 4.394531 7.523438 4.964844 C 7.445312 4.898438 7.398438 4.851562 7.398438 4.851562 C 7.394531 4.851562 7.394531 4.847656 7.390625 4.847656 C 7.390625 4.847656 7.390625 4.84375 7.390625 4.84375 C 7.386719 4.84375 7.386719 4.839844 7.382812 4.839844 C 7.378906 4.835938 7.371094 4.832031 7.367188 4.832031 C 7.363281 4.828125 7.359375 4.828125 7.359375 4.824219 C 7.351562 4.820312 7.34375 4.820312 7.335938 4.820312 C 7.332031 4.816406 7.332031 4.816406 7.332031 4.816406 C 7.320312 4.816406 7.308594 4.8125 7.300781 4.8125 C 7.296875 4.8125 7.296875 4.816406 7.292969 4.816406 C 7.285156 4.816406 7.277344 4.816406 7.269531 4.816406 C 7.269531 4.820312 7.269531 4.820312 7.265625 4.820312 L 5.457031 5.3125 C 5.445312 4.957031 5.4375 3.441406 6.265625 2.160156 C 6.238281 2.191406 5.308594 3.207031 5.246094 5.367188 L 4.953125 5.449219 C 4.902344 5.460938 4.867188 5.5 4.859375 5.550781 C 4.804688 5.859375 4.777344 6.136719 4.765625 6.378906 C 4.734375 6.949219 4.785156 7.308594 4.789062 7.332031 C 4.789062 7.335938 4.792969 7.34375 4.792969 7.347656 C 4.769531 7.355469 4.746094 7.363281 4.722656 7.367188 C 4.523438 7.429688 4.324219 7.496094 4.136719 7.578125 C 4.117188 7.589844 4.097656 7.601562 4.082031 7.609375 C 4.082031 7.609375 4.082031 7.609375 4.078125 7.609375 C 4.046875 7.625 4.019531 7.640625 3.992188 7.652344 C 3.976562 7.65625 3.964844 7.664062 3.949219 7.671875 C 3.9375 7.675781 3.929688 7.679688 3.921875 7.6875 C 4.054688 7.636719 4.191406 7.597656 4.332031 7.566406 C 4.472656 7.535156 4.609375 7.503906 4.75 7.476562 C 5.03125 7.429688 5.3125 7.386719 5.597656 7.351562 C 5.882812 7.316406 6.164062 7.285156 6.449219 7.265625 C 6.734375 7.242188 7.019531 7.21875 7.304688 7.203125 C 8.445312 7.136719 9.589844 7.117188 10.738281 7.117188 C 11.882812 7.117188 13.027344 7.132812 14.167969 7.203125 C 14.453125 7.21875 14.738281 7.238281 15.023438 7.261719 C 15.308594 7.285156 15.589844 7.316406 15.875 7.351562 C 16.160156 7.382812 16.441406 7.429688 16.722656 7.476562 C 16.863281 7.503906 17.003906 7.53125 17.140625 7.566406 C 17.28125 7.597656 17.417969 7.636719 17.554688 7.6875 C 17.546875 7.683594 17.539062 7.679688 17.53125 7.675781 Z M 17.53125 7.675781 "/>
<path style=" stroke:none;fill-rule:nonzero;fill:rgb(5.490196%,5.882353%,5.098039%);fill-opacity:1;" d="M 11.054688 2.652344 L 11.054688 5.539062 L 11.464844 5.539062 L 11.464844 6.074219 L 10.082031 6.074219 L 10.082031 5.539062 L 10.492188 5.539062 L 10.492188 2.652344 L 9.5 2.652344 L 9.5 3.128906 L 9.019531 3.128906 L 9.019531 2.195312 L 12.53125 2.195312 L 12.53125 3.128906 L 12.050781 3.128906 L 12.050781 2.652344 Z M 12.890625 3.472656 L 12.890625 1.847656 L 8.65625 1.847656 L 8.65625 3.472656 L 9.859375 3.472656 L 9.859375 3 L 10.128906 3 L 10.128906 5.191406 L 9.722656 5.191406 L 9.722656 6.417969 L 11.828125 6.417969 L 11.828125 5.191406 L 11.417969 5.191406 L 11.417969 3 L 11.6875 3 L 11.6875 3.472656 Z M 12.890625 3.472656 "/>
</g>
</svg>
