<?xml version="1.0" encoding="UTF-8"?>
<svg xmlns="http://www.w3.org/2000/svg" xmlns:xlink="http://www.w3.org/1999/xlink" width="20px" height="20px" viewBox="0 0 20 20" version="1.1">
<defs>
<linearGradient id="linear0" gradientUnits="userSpaceOnUse" x1="32" y1="30" x2="32" y2="2" gradientTransform="matrix(0.625,0,0,0.625,0,0)">
<stop offset="0" style="stop-color:rgb(21.568627%,35.294118%,49.019608%);stop-opacity:1;"/>
<stop offset="1" style="stop-color:rgb(23.137255%,52.156863%,70.980392%);stop-opacity:1;"/>
</linearGradient>
<filter id="alpha" filterUnits="objectBoundingBox" x="0%" y="0%" width="100%" height="100%">
  <feColorMatrix type="matrix" in="SourceGraphic" values="0 0 0 0 1 0 0 0 0 1 0 0 0 0 1 0 0 0 1 0"/>
</filter>
<mask id="mask0">
  <g filter="url(#alpha)">
<rect x="0" y="0" width="20" height="20" style="fill:rgb(0%,0%,0%);fill-opacity:0.2;stroke:none;"/>
  </g>
</mask>
<clipPath id="clip1">
  <rect x="0" y="0" width="20" height="20"/>
</clipPath>
<g id="surface5" clip-path="url(#clip1)">
<path style=" stroke:none;fill-rule:nonzero;fill:rgb(16.078431%,17.254902%,18.431373%);fill-opacity:1;" d="M 2.5 17.5 L 17.5 17.5 L 17.5 18.75 L 2.5 18.75 Z M 2.5 17.5 "/>
</g>
<linearGradient id="linear1" gradientUnits="userSpaceOnUse" x1="0" y1="30" x2="0" y2="2" gradientTransform="matrix(0.625,0,0,0.625,0,0)">
<stop offset="0" style="stop-color:rgb(32.941176%,63.921569%,84.705882%);stop-opacity:1;"/>
<stop offset="1" style="stop-color:rgb(48.627451%,73.72549%,92.54902%);stop-opacity:1;"/>
</linearGradient>
<mask id="mask1">
  <g filter="url(#alpha)">
<rect x="0" y="0" width="20" height="20" style="fill:rgb(0%,0%,0%);fill-opacity:0.8;stroke:none;"/>
  </g>
</mask>
<linearGradient id="linear2" gradientUnits="userSpaceOnUse" x1="-16.5" y1="29.5" x2="-16.5" y2="5.5" gradientTransform="matrix(0.625,0,0,0.625,0,0)">
<stop offset="0" style="stop-color:rgb(19.215686%,21.176471%,23.137255%);stop-opacity:1;"/>
<stop offset="1" style="stop-color:rgb(20%,23.529412%,27.058824%);stop-opacity:1;"/>
</linearGradient>
<clipPath id="clip2">
  <rect x="0" y="0" width="20" height="20"/>
</clipPath>
<g id="surface8" clip-path="url(#clip2)">
<path style=" stroke:none;fill-rule:nonzero;fill:url(#linear2);" d="M 2.5 2.5 C 2.15625 2.5 1.875 2.78125 1.875 3.125 L 1.875 16.875 C 1.875 17.21875 2.15625 17.5 2.5 17.5 L 17.5 17.5 C 17.84375 17.5 18.125 17.21875 18.125 16.875 L 18.125 3.125 C 18.125 2.78125 17.84375 2.5 17.5 2.5 Z M 3.125 3.75 L 9.375 3.75 L 9.375 16.25 L 3.125 16.25 Z M 10.625 3.75 L 16.875 3.75 L 16.875 16.25 L 10.625 16.25 Z M 10.625 3.75 "/>
</g>
<linearGradient id="linear3" gradientUnits="userSpaceOnUse" x1="23" y1="19" x2="23" y2="21" gradientTransform="matrix(0.625,0,0,0.625,0,0)">
<stop offset="0" style="stop-color:rgb(21.568627%,35.294118%,49.019608%);stop-opacity:1;"/>
<stop offset="1" style="stop-color:rgb(23.137255%,52.156863%,70.980392%);stop-opacity:1;"/>
</linearGradient>
<linearGradient id="linear4" gradientUnits="userSpaceOnUse" x1="9" y1="19" x2="9" y2="21" gradientTransform="matrix(0.625,0,0,0.625,0,0)">
<stop offset="0" style="stop-color:rgb(21.568627%,35.294118%,49.019608%);stop-opacity:1;"/>
<stop offset="1" style="stop-color:rgb(23.137255%,52.156863%,70.980392%);stop-opacity:1;"/>
</linearGradient>
<linearGradient id="linear5" gradientUnits="userSpaceOnUse" x1="9" y1="11" x2="9" y2="13" gradientTransform="matrix(0.625,0,0,0.625,0,0)">
<stop offset="0" style="stop-color:rgb(21.568627%,35.294118%,49.019608%);stop-opacity:1;"/>
<stop offset="1" style="stop-color:rgb(23.137255%,52.156863%,70.980392%);stop-opacity:1;"/>
</linearGradient>
<linearGradient id="linear6" gradientUnits="userSpaceOnUse" x1="23" y1="11" x2="23" y2="13" gradientTransform="matrix(0.625,0,0,0.625,0,0)">
<stop offset="0" style="stop-color:rgb(21.568627%,35.294118%,49.019608%);stop-opacity:1;"/>
<stop offset="1" style="stop-color:rgb(23.137255%,52.156863%,70.980392%);stop-opacity:1;"/>
</linearGradient>
<linearGradient id="linear7" gradientUnits="userSpaceOnUse" x1="23" y1="15" x2="23" y2="17" gradientTransform="matrix(0.625,0,0,0.625,0,0)">
<stop offset="0" style="stop-color:rgb(21.568627%,35.294118%,49.019608%);stop-opacity:1;"/>
<stop offset="1" style="stop-color:rgb(23.137255%,52.156863%,70.980392%);stop-opacity:1;"/>
</linearGradient>
<linearGradient id="linear8" gradientUnits="userSpaceOnUse" x1="9" y1="15" x2="9" y2="17" gradientTransform="matrix(0.625,0,0,0.625,0,0)">
<stop offset="0" style="stop-color:rgb(21.568627%,35.294118%,49.019608%);stop-opacity:1;"/>
<stop offset="1" style="stop-color:rgb(23.137255%,52.156863%,70.980392%);stop-opacity:1;"/>
</linearGradient>
<mask id="mask2">
  <g filter="url(#alpha)">
<rect x="0" y="0" width="20" height="20" style="fill:rgb(0%,0%,0%);fill-opacity:0.2;stroke:none;"/>
  </g>
</mask>
<linearGradient id="linear9" gradientUnits="userSpaceOnUse" x1="9.854" y1="4.146" x2="29" y2="23.293" gradientTransform="matrix(0.625,0,0,0.625,0,0)">
<stop offset="0" style="stop-color:rgb(16.078431%,17.254902%,18.431373%);stop-opacity:1;"/>
<stop offset="1" style="stop-color:rgb(0%,0%,0%);stop-opacity:0;"/>
</linearGradient>
<clipPath id="clip3">
  <rect x="0" y="0" width="20" height="20"/>
</clipPath>
<g id="surface11" clip-path="url(#clip3)">
<path style=" stroke:none;fill-rule:nonzero;fill:url(#linear9);" d="M 6.160156 2.589844 L 7.5 3.933594 L 7.589844 17.40625 L 8.933594 18.75 L 7.058594 18.75 L 5.714844 17.410156 Z M 6.160156 2.589844 "/>
</g>
<mask id="mask3">
  <g filter="url(#alpha)">
<rect x="0" y="0" width="20" height="20" style="fill:rgb(0%,0%,0%);fill-opacity:0.2;stroke:none;"/>
  </g>
</mask>
<linearGradient id="linear10" gradientUnits="userSpaceOnUse" x1="12.854" y1="4.146" x2="29" y2="20.293" gradientTransform="matrix(0.625,0,0,0.625,0,0)">
<stop offset="0" style="stop-color:rgb(16.078431%,17.254902%,18.431373%);stop-opacity:1;"/>
<stop offset="1" style="stop-color:rgb(0%,0%,0%);stop-opacity:0;"/>
</linearGradient>
<clipPath id="clip4">
  <rect x="0" y="0" width="20" height="20"/>
</clipPath>
<g id="surface14" clip-path="url(#clip4)">
<path style=" stroke:none;fill-rule:nonzero;fill:url(#linear10);" d="M 8.035156 2.589844 L 11.875 6.433594 L 11.964844 17.40625 L 13.308594 18.75 L 8.933594 18.75 L 7.589844 17.410156 Z M 8.035156 2.589844 "/>
</g>
<mask id="mask4">
  <g filter="url(#alpha)">
<rect x="0" y="0" width="20" height="20" style="fill:rgb(0%,0%,0%);fill-opacity:0.2;stroke:none;"/>
  </g>
</mask>
<linearGradient id="linear11" gradientUnits="userSpaceOnUse" x1="19.854" y1="4.146" x2="31" y2="15.293" gradientTransform="matrix(0.625,0,0,0.625,0,0)">
<stop offset="0" style="stop-color:rgb(16.078431%,17.254902%,18.431373%);stop-opacity:1;"/>
<stop offset="1" style="stop-color:rgb(0%,0%,0%);stop-opacity:0;"/>
</linearGradient>
<clipPath id="clip5">
  <rect x="0" y="0" width="20" height="20"/>
</clipPath>
<g id="surface17" clip-path="url(#clip5)">
<path style=" stroke:none;fill-rule:nonzero;fill:url(#linear11);" d="M 12.410156 2.589844 L 13.75 3.933594 L 13.839844 17.40625 L 15.183594 18.75 L 13.308594 18.75 L 11.964844 17.410156 Z M 12.410156 2.589844 "/>
</g>
<mask id="mask5">
  <g filter="url(#alpha)">
<rect x="0" y="0" width="20" height="20" style="fill:rgb(0%,0%,0%);fill-opacity:0.2;stroke:none;"/>
  </g>
</mask>
<linearGradient id="linear12" gradientUnits="userSpaceOnUse" x1="22.854" y1="4.146" x2="30" y2="11.293" gradientTransform="matrix(0.625,0,0,0.625,0,0)">
<stop offset="0" style="stop-color:rgb(16.078431%,17.254902%,18.431373%);stop-opacity:1;"/>
<stop offset="1" style="stop-color:rgb(0%,0%,0%);stop-opacity:0;"/>
</linearGradient>
<clipPath id="clip6">
  <rect x="0" y="0" width="20" height="20"/>
</clipPath>
<g id="surface20" clip-path="url(#clip6)">
<path style=" stroke:none;fill-rule:nonzero;fill:url(#linear12);" d="M 14.285156 2.589844 L 13.839844 17.410156 L 15.183594 18.75 L 18.125 18.75 C 18.1875 18.75 18.25 18.742188 18.308594 18.722656 C 18.390625 18.699219 18.464844 18.65625 18.527344 18.601562 C 18.59375 18.550781 18.644531 18.484375 18.683594 18.40625 C 18.71875 18.332031 18.742188 18.253906 18.75 18.167969 C 18.75 18.152344 18.75 18.140625 18.75 18.125 L 18.75 7.058594 Z M 14.285156 2.589844 "/>
</g>
<linearGradient id="linear13" gradientUnits="userSpaceOnUse" x1="16" y1="28" x2="16" y2="4" gradientTransform="matrix(0.625,0,0,0.625,0,0)">
<stop offset="0" style="stop-color:rgb(81.176471%,83.529412%,83.529412%);stop-opacity:1;"/>
<stop offset="1" style="stop-color:rgb(93.72549%,94.117647%,94.509804%);stop-opacity:1;"/>
</linearGradient>
</defs>
<g id="surface1">
<path style=" stroke:none;fill-rule:nonzero;fill:url(#linear0);" d="M 2.5 18.75 L 17.5 18.75 L 17.5 17.5 L 2.5 17.5 Z M 2.5 1.25 L 17.5 1.25 L 17.5 2.5 L 2.5 2.5 Z M 2.5 1.25 "/>
<use xlink:href="#surface5" mask="url(#mask0)"/>
<path style=" stroke:none;fill-rule:nonzero;fill:url(#linear1);" d="M 1.875 1.25 C 1.855469 1.25 1.832031 1.25 1.8125 1.253906 C 1.792969 1.253906 1.769531 1.257812 1.75 1.261719 C 1.730469 1.265625 1.710938 1.273438 1.691406 1.277344 C 1.671875 1.285156 1.652344 1.289062 1.632812 1.296875 C 1.613281 1.308594 1.59375 1.316406 1.574219 1.328125 C 1.558594 1.335938 1.539062 1.347656 1.523438 1.359375 C 1.503906 1.371094 1.488281 1.382812 1.472656 1.394531 C 1.457031 1.410156 1.441406 1.425781 1.425781 1.4375 C 1.414062 1.453125 1.398438 1.46875 1.386719 1.488281 C 1.371094 1.503906 1.359375 1.519531 1.347656 1.535156 C 1.335938 1.554688 1.328125 1.574219 1.316406 1.59375 C 1.308594 1.609375 1.300781 1.628906 1.292969 1.648438 C 1.285156 1.667969 1.277344 1.6875 1.273438 1.707031 C 1.265625 1.726562 1.261719 1.75 1.257812 1.769531 C 1.253906 1.789062 1.253906 1.808594 1.25 1.832031 C 1.25 1.847656 1.25 1.859375 1.25 1.875 L 1.25 18.125 C 1.25 18.140625 1.25 18.152344 1.25 18.167969 C 1.253906 18.191406 1.253906 18.210938 1.257812 18.230469 C 1.261719 18.25 1.265625 18.273438 1.273438 18.292969 C 1.277344 18.3125 1.285156 18.332031 1.292969 18.351562 C 1.300781 18.371094 1.308594 18.390625 1.316406 18.40625 C 1.328125 18.425781 1.339844 18.445312 1.347656 18.464844 C 1.359375 18.480469 1.371094 18.496094 1.386719 18.511719 C 1.398438 18.53125 1.414062 18.546875 1.425781 18.5625 C 1.441406 18.574219 1.457031 18.589844 1.472656 18.605469 C 1.488281 18.617188 1.503906 18.628906 1.523438 18.640625 C 1.539062 18.652344 1.558594 18.664062 1.574219 18.671875 C 1.59375 18.683594 1.613281 18.691406 1.632812 18.703125 C 1.652344 18.710938 1.671875 18.714844 1.691406 18.722656 C 1.710938 18.726562 1.730469 18.734375 1.75 18.738281 C 1.769531 18.742188 1.792969 18.746094 1.8125 18.746094 C 1.832031 18.75 1.855469 18.75 1.875 18.75 L 2.5 18.75 C 2.519531 18.75 2.542969 18.75 2.5625 18.746094 C 2.582031 18.746094 2.605469 18.742188 2.625 18.738281 C 2.644531 18.734375 2.664062 18.726562 2.683594 18.722656 C 2.703125 18.714844 2.722656 18.710938 2.742188 18.703125 C 2.761719 18.691406 2.78125 18.683594 2.800781 18.671875 C 2.816406 18.664062 2.835938 18.652344 2.851562 18.640625 C 2.871094 18.628906 2.886719 18.617188 2.902344 18.605469 C 2.917969 18.589844 2.933594 18.574219 2.949219 18.5625 C 2.960938 18.546875 2.976562 18.53125 2.988281 18.511719 C 3.003906 18.496094 3.015625 18.480469 3.027344 18.464844 C 3.039062 18.445312 3.046875 18.425781 3.058594 18.40625 C 3.066406 18.390625 3.074219 18.371094 3.082031 18.351562 C 3.089844 18.332031 3.097656 18.3125 3.101562 18.292969 C 3.109375 18.273438 3.113281 18.25 3.117188 18.230469 C 3.121094 18.210938 3.121094 18.191406 3.125 18.167969 C 3.125 18.152344 3.125 18.140625 3.125 18.125 L 3.125 17.5 L 16.875 17.5 L 16.875 18.125 C 16.875 18.140625 16.875 18.152344 16.875 18.167969 C 16.878906 18.191406 16.878906 18.210938 16.882812 18.230469 C 16.886719 18.25 16.890625 18.273438 16.898438 18.292969 C 16.902344 18.3125 16.910156 18.332031 16.917969 18.351562 C 16.925781 18.371094 16.933594 18.390625 16.941406 18.40625 C 16.953125 18.425781 16.964844 18.445312 16.972656 18.464844 C 16.984375 18.480469 16.996094 18.496094 17.011719 18.511719 C 17.023438 18.53125 17.039062 18.546875 17.050781 18.5625 C 17.066406 18.574219 17.082031 18.589844 17.097656 18.605469 C 17.113281 18.617188 17.128906 18.628906 17.148438 18.640625 C 17.164062 18.652344 17.183594 18.664062 17.199219 18.671875 C 17.21875 18.683594 17.238281 18.691406 17.257812 18.703125 C 17.277344 18.710938 17.296875 18.714844 17.316406 18.722656 C 17.335938 18.726562 17.355469 18.734375 17.375 18.738281 C 17.394531 18.742188 17.417969 18.746094 17.4375 18.746094 C 17.457031 18.75 17.480469 18.75 17.5 18.75 L 18.125 18.75 C 18.144531 18.75 18.167969 18.75 18.1875 18.746094 C 18.207031 18.746094 18.230469 18.742188 18.25 18.738281 C 18.269531 18.734375 18.289062 18.726562 18.308594 18.722656 C 18.328125 18.714844 18.347656 18.710938 18.367188 18.703125 C 18.386719 18.691406 18.40625 18.683594 18.425781 18.671875 C 18.441406 18.664062 18.460938 18.652344 18.476562 18.640625 C 18.496094 18.628906 18.511719 18.617188 18.527344 18.605469 C 18.542969 18.589844 18.558594 18.574219 18.574219 18.5625 C 18.585938 18.546875 18.601562 18.53125 18.613281 18.511719 C 18.628906 18.496094 18.640625 18.480469 18.652344 18.464844 C 18.664062 18.445312 18.671875 18.425781 18.683594 18.40625 C 18.691406 18.390625 18.699219 18.371094 18.707031 18.351562 C 18.714844 18.332031 18.722656 18.3125 18.726562 18.292969 C 18.734375 18.273438 18.738281 18.25 18.742188 18.230469 C 18.746094 18.210938 18.746094 18.191406 18.75 18.167969 C 18.75 18.152344 18.75 18.140625 18.75 18.125 L 18.75 1.875 C 18.75 1.859375 18.75 1.847656 18.75 1.832031 C 18.746094 1.808594 18.746094 1.789062 18.742188 1.769531 C 18.738281 1.75 18.734375 1.726562 18.726562 1.707031 C 18.722656 1.6875 18.714844 1.667969 18.707031 1.648438 C 18.699219 1.628906 18.691406 1.609375 18.683594 1.59375 C 18.671875 1.574219 18.660156 1.554688 18.652344 1.535156 C 18.640625 1.519531 18.628906 1.503906 18.613281 1.488281 C 18.601562 1.46875 18.585938 1.453125 18.574219 1.4375 C 18.558594 1.425781 18.542969 1.410156 18.527344 1.394531 C 18.511719 1.382812 18.496094 1.371094 18.476562 1.359375 C 18.460938 1.347656 18.441406 1.335938 18.425781 1.328125 C 18.40625 1.316406 18.386719 1.308594 18.367188 1.296875 C 18.347656 1.289062 18.328125 1.285156 18.308594 1.277344 C 18.289062 1.273438 18.269531 1.265625 18.25 1.261719 C 18.230469 1.257812 18.207031 1.253906 18.1875 1.253906 C 18.167969 1.25 18.144531 1.25 18.125 1.25 L 17.5 1.25 C 17.480469 1.25 17.457031 1.25 17.4375 1.253906 C 17.417969 1.253906 17.394531 1.257812 17.375 1.261719 C 17.355469 1.265625 17.335938 1.273438 17.316406 1.277344 C 17.296875 1.285156 17.277344 1.289062 17.257812 1.296875 C 17.238281 1.308594 17.21875 1.316406 17.199219 1.328125 C 17.183594 1.335938 17.164062 1.347656 17.148438 1.359375 C 17.128906 1.371094 17.113281 1.382812 17.097656 1.394531 C 17.082031 1.410156 17.066406 1.425781 17.050781 1.4375 C 17.039062 1.453125 17.023438 1.46875 17.011719 1.488281 C 16.996094 1.503906 16.984375 1.519531 16.972656 1.535156 C 16.960938 1.554688 16.953125 1.574219 16.941406 1.59375 C 16.933594 1.609375 16.925781 1.628906 16.917969 1.648438 C 16.910156 1.667969 16.902344 1.6875 16.898438 1.707031 C 16.890625 1.726562 16.886719 1.75 16.882812 1.769531 C 16.878906 1.789062 16.878906 1.808594 16.875 1.832031 C 16.875 1.847656 16.875 1.859375 16.875 1.875 L 16.875 2.5 L 3.125 2.5 L 3.125 1.875 C 3.125 1.859375 3.125 1.847656 3.125 1.832031 C 3.121094 1.808594 3.121094 1.789062 3.117188 1.769531 C 3.113281 1.75 3.109375 1.726562 3.101562 1.707031 C 3.097656 1.6875 3.089844 1.667969 3.082031 1.648438 C 3.074219 1.628906 3.066406 1.609375 3.058594 1.59375 C 3.046875 1.574219 3.035156 1.554688 3.027344 1.535156 C 3.015625 1.519531 3.003906 1.503906 2.988281 1.488281 C 2.976562 1.46875 2.960938 1.453125 2.949219 1.4375 C 2.933594 1.425781 2.917969 1.410156 2.902344 1.394531 C 2.886719 1.382812 2.871094 1.371094 2.851562 1.359375 C 2.835938 1.347656 2.816406 1.335938 2.800781 1.328125 C 2.78125 1.316406 2.761719 1.308594 2.742188 1.296875 C 2.722656 1.289062 2.703125 1.285156 2.683594 1.277344 C 2.664062 1.273438 2.644531 1.265625 2.625 1.261719 C 2.605469 1.257812 2.582031 1.253906 2.5625 1.253906 C 2.542969 1.25 2.519531 1.25 2.5 1.25 Z M 1.875 1.25 "/>
<use xlink:href="#surface8" mask="url(#mask1)"/>
<path style=" stroke:none;fill-rule:nonzero;fill:url(#linear3);" d="M 11.25 11.875 L 16.25 11.875 L 16.25 13.125 L 11.25 13.125 Z M 11.25 11.875 "/>
<path style=" stroke:none;fill-rule:nonzero;fill:url(#linear4);" d="M 3.75 11.875 L 8.75 11.875 L 8.75 13.125 L 3.75 13.125 Z M 3.75 11.875 "/>
<path style=" stroke:none;fill-rule:nonzero;fill:url(#linear5);" d="M 3.75 6.875 L 8.75 6.875 L 8.75 8.125 L 3.75 8.125 Z M 3.75 6.875 "/>
<path style=" stroke:none;fill-rule:nonzero;fill:url(#linear6);" d="M 11.25 6.875 L 16.25 6.875 L 16.25 8.125 L 11.25 8.125 Z M 11.25 6.875 "/>
<path style=" stroke:none;fill-rule:nonzero;fill:url(#linear7);" d="M 11.25 9.375 L 16.25 9.375 L 16.25 10.625 L 11.25 10.625 Z M 11.25 9.375 "/>
<path style=" stroke:none;fill-rule:nonzero;fill:url(#linear8);" d="M 3.75 9.375 L 8.75 9.375 L 8.75 10.625 L 3.75 10.625 Z M 3.75 9.375 "/>
<use xlink:href="#surface11" mask="url(#mask2)"/>
<use xlink:href="#surface14" mask="url(#mask3)"/>
<use xlink:href="#surface17" mask="url(#mask4)"/>
<use xlink:href="#surface20" mask="url(#mask5)"/>
<path style=" stroke:none;fill-rule:nonzero;fill:url(#linear13);" d="M 5.9375 2.5 C 5.765625 2.5 5.625 2.640625 5.625 2.8125 L 5.625 17.1875 C 5.625 17.359375 5.765625 17.5 5.9375 17.5 C 6.109375 17.5 6.25 17.359375 6.25 17.1875 L 6.25 2.8125 C 6.25 2.640625 6.109375 2.5 5.9375 2.5 Z M 7.8125 2.5 C 7.640625 2.5 7.5 2.640625 7.5 2.8125 L 7.5 17.1875 C 7.5 17.359375 7.640625 17.5 7.8125 17.5 C 7.984375 17.5 8.125 17.359375 8.125 17.1875 L 8.125 2.8125 C 8.125 2.640625 7.984375 2.5 7.8125 2.5 Z M 12.1875 2.5 C 12.015625 2.5 11.875 2.640625 11.875 2.8125 L 11.875 17.1875 C 11.875 17.359375 12.015625 17.5 12.1875 17.5 C 12.359375 17.5 12.5 17.359375 12.5 17.1875 L 12.5 2.8125 C 12.5 2.640625 12.359375 2.5 12.1875 2.5 Z M 14.0625 2.5 C 13.890625 2.5 13.75 2.640625 13.75 2.8125 L 13.75 17.1875 C 13.75 17.359375 13.890625 17.5 14.0625 17.5 C 14.234375 17.5 14.375 17.359375 14.375 17.1875 L 14.375 2.8125 C 14.375 2.640625 14.234375 2.5 14.0625 2.5 Z M 14.0625 2.5 "/>
</g>
</svg>
