<?xml version="1.0" encoding="UTF-8"?>
<svg xmlns="http://www.w3.org/2000/svg" xmlns:xlink="http://www.w3.org/1999/xlink" width="20px" height="20px" viewBox="0 0 20 20" version="1.1">
<g id="surface1">
<path style=" stroke:none;fill-rule:evenodd;fill:rgb(95.294118%,32.54902%,14.509804%);fill-opacity:1;" d="M 2.179688 8.414062 C 2.261719 8.117188 2.335938 7.855469 2.414062 7.59375 C 2.96875 5.675781 3.523438 3.757812 4.074219 1.839844 C 4.097656 1.761719 4.121094 1.703125 4.207031 1.667969 C 5.164062 1.285156 6.144531 0.980469 7.179688 0.871094 C 8.566406 0.71875 9.839844 1.042969 11.015625 1.78125 C 11.167969 1.875 11.316406 1.980469 11.476562 2.070312 C 11.574219 2.128906 11.589844 2.1875 11.554688 2.296875 C 11.097656 3.878906 10.640625 5.460938 10.183594 7.042969 C 10.023438 7.59375 9.859375 8.144531 9.707031 8.695312 C 9.671875 8.820312 9.640625 8.839844 9.527344 8.761719 C 8.851562 8.300781 8.136719 7.917969 7.335938 7.710938 C 6.324219 7.449219 5.316406 7.503906 4.308594 7.722656 C 3.589844 7.882812 2.898438 8.117188 2.179688 8.414062 "/>
<path style=" stroke:none;fill-rule:evenodd;fill:rgb(50.588235%,73.72549%,2.352941%);fill-opacity:1;" d="M 14.398438 10.855469 C 13.125 10.863281 12 10.414062 10.953125 9.726562 C 10.65625 9.53125 10.65625 9.535156 10.753906 9.199219 C 11.347656 7.152344 11.9375 5.101562 12.53125 3.050781 C 12.589844 2.851562 12.546875 2.816406 12.773438 2.964844 C 13.519531 3.464844 14.304688 3.878906 15.195312 4.058594 C 16.136719 4.246094 17.070312 4.183594 18 3.976562 C 18.582031 3.84375 19.148438 3.660156 19.707031 3.445312 C 19.785156 3.414062 19.867188 3.363281 19.949219 3.441406 C 20.03125 3.515625 19.996094 3.597656 19.96875 3.683594 C 19.375 5.738281 18.78125 7.792969 18.191406 9.847656 C 18.164062 9.945312 18.113281 9.992188 18.023438 10.027344 C 17.054688 10.414062 16.066406 10.71875 15.019531 10.820312 C 14.8125 10.839844 14.605469 10.84375 14.398438 10.855469 "/>
<path style=" stroke:none;fill-rule:evenodd;fill:rgb(100%,72.941176%,3.137255%);fill-opacity:1;" d="M 17.816406 11.125 C 17.683594 11.578125 17.566406 11.992188 17.445312 12.402344 C 16.945312 14.136719 16.441406 15.871094 15.945312 17.609375 C 15.902344 17.75 15.832031 17.824219 15.695312 17.875 C 14.839844 18.203125 13.972656 18.476562 13.0625 18.601562 C 11.648438 18.800781 10.335938 18.535156 9.117188 17.800781 C 8.917969 17.679688 8.722656 17.546875 8.519531 17.425781 C 8.417969 17.367188 8.410156 17.304688 8.441406 17.199219 C 8.878906 15.703125 9.308594 14.203125 9.742188 12.707031 C 9.917969 12.097656 10.09375 11.488281 10.269531 10.878906 C 10.328125 10.683594 10.328125 10.6875 10.503906 10.800781 C 11.136719 11.21875 11.796875 11.582031 12.53125 11.789062 C 13.59375 12.089844 14.65625 12.042969 15.71875 11.804688 C 16.425781 11.648438 17.105469 11.414062 17.816406 11.125 "/>
<path style=" stroke:none;fill-rule:evenodd;fill:rgb(1.960784%,65.098039%,94.117647%);fill-opacity:1;" d="M 9.316406 10.039062 C 9.207031 10.40625 9.109375 10.75 9.011719 11.089844 C 8.492188 12.886719 7.96875 14.683594 7.457031 16.480469 C 7.410156 16.636719 7.371094 16.640625 7.246094 16.554688 C 6.53125 16.066406 5.773438 15.667969 4.921875 15.472656 C 3.957031 15.253906 3 15.3125 2.039062 15.523438 C 1.441406 15.652344 0.859375 15.84375 0.285156 16.0625 C 0.210938 16.09375 0.132812 16.132812 0.0546875 16.070312 C -0.03125 15.996094 0.00390625 15.910156 0.03125 15.828125 C 0.621094 13.777344 1.214844 11.730469 1.808594 9.679688 C 1.832031 9.59375 1.875 9.546875 1.960938 9.511719 C 2.945312 9.113281 3.953125 8.808594 5.011719 8.710938 C 6.324219 8.589844 7.535156 8.886719 8.65625 9.566406 C 8.847656 9.683594 9.039062 9.804688 9.226562 9.925781 C 9.273438 9.957031 9.34375 9.984375 9.316406 10.039062 "/>
</g>
</svg>
