<?xml version="1.0" encoding="UTF-8"?>
<svg xmlns="http://www.w3.org/2000/svg" xmlns:xlink="http://www.w3.org/1999/xlink" width="21px" height="21px" viewBox="0 0 21 21" version="1.1">
<defs>
<linearGradient id="linear0" gradientUnits="userSpaceOnUse" x1="16.0578" y1="6.30617" x2="15.8364" y2="9.30598" gradientTransform="matrix(0.65625,0,0,0.65625,0,0)">
<stop offset="0" style="stop-color:rgb(100%,100%,100%);stop-opacity:0.8;"/>
<stop offset="1" style="stop-color:rgb(100%,100%,100%);stop-opacity:0;"/>
</linearGradient>
<linearGradient id="linear1" gradientUnits="userSpaceOnUse" x1="12.8966" y1="22.6721" x2="11.2506" y2="17.2716" gradientTransform="matrix(0.65625,0,0,0.65625,0,0)">
<stop offset="0" style="stop-color:rgb(100%,93.333333%,84.313725%);stop-opacity:1;"/>
<stop offset="1" style="stop-color:rgb(74.117647%,74.901961%,76.078431%);stop-opacity:1;"/>
</linearGradient>
<linearGradient id="linear2" gradientUnits="userSpaceOnUse" x1="12.8966" y1="22.6721" x2="11.2506" y2="17.2716" gradientTransform="matrix(0.65625,0,0,0.65625,0,0)">
<stop offset="0" style="stop-color:rgb(100%,93.333333%,84.313725%);stop-opacity:1;"/>
<stop offset="1" style="stop-color:rgb(74.117647%,74.901961%,76.078431%);stop-opacity:1;"/>
</linearGradient>
<linearGradient id="linear3" gradientUnits="userSpaceOnUse" x1="16.6681" y1="9.65546" x2="16.5748" y2="10.3542" gradientTransform="matrix(0.65625,0,0,0.65625,0,0)">
<stop offset="0" style="stop-color:rgb(100%,100%,100%);stop-opacity:0.65098;"/>
<stop offset="1" style="stop-color:rgb(100%,100%,100%);stop-opacity:0;"/>
</linearGradient>
<linearGradient id="linear4" gradientUnits="userSpaceOnUse" x1="14.434" y1="9.78294" x2="14.5344" y2="10.3483" gradientTransform="matrix(0.65625,0,0,0.65625,0,0)">
<stop offset="0" style="stop-color:rgb(100%,100%,100%);stop-opacity:0.65098;"/>
<stop offset="1" style="stop-color:rgb(100%,100%,100%);stop-opacity:0;"/>
</linearGradient>
<linearGradient id="linear5" gradientUnits="userSpaceOnUse" x1="15.7613" y1="15.6306" x2="15.778" y2="19.6272" gradientTransform="matrix(0.65625,0,0,0.65625,0,0)">
<stop offset="0" style="stop-color:rgb(100%,100%,100%);stop-opacity:0.8;"/>
<stop offset="1" style="stop-color:rgb(100%,100%,100%);stop-opacity:0;"/>
</linearGradient>
<linearGradient id="linear6" gradientUnits="userSpaceOnUse" x1="15.8504" y1="13.1247" x2="15.8688" y2="14.7138" gradientTransform="matrix(0.65625,0,0,0.65625,0,0)">
<stop offset="0" style="stop-color:rgb(100%,100%,100%);stop-opacity:0.65098;"/>
<stop offset="1" style="stop-color:rgb(100%,100%,100%);stop-opacity:0;"/>
</linearGradient>
<linearGradient id="linear7" gradientUnits="userSpaceOnUse" x1="11.72" y1="14.1055" x2="11.72" y2="19.9372" gradientTransform="matrix(0.65625,0,0,0.65625,0,0)">
<stop offset="0" style="stop-color:rgb(100%,100%,100%);stop-opacity:0.65098;"/>
<stop offset="1" style="stop-color:rgb(100%,100%,100%);stop-opacity:0;"/>
</linearGradient>
<linearGradient id="linear8" gradientUnits="userSpaceOnUse" x1="21.033" y1="13.5359" x2="21.0308" y2="18.8052" gradientTransform="matrix(0.65625,0,0,0.65625,0,0)">
<stop offset="0" style="stop-color:rgb(100%,100%,100%);stop-opacity:0.65098;"/>
<stop offset="1" style="stop-color:rgb(100%,100%,100%);stop-opacity:0;"/>
</linearGradient>
<linearGradient id="linear9" gradientUnits="userSpaceOnUse" x1="11.4286" y1="22.4374" x2="10.5354" y2="25.4214" gradientTransform="matrix(0.65625,0,0,0.65625,0,0)">
<stop offset="0" style="stop-color:rgb(100%,65.098039%,24.705882%);stop-opacity:1;"/>
<stop offset="1" style="stop-color:rgb(100%,100%,0%);stop-opacity:1;"/>
</linearGradient>
<linearGradient id="linear10" gradientUnits="userSpaceOnUse" x1="19.882" y1="21.53" x2="22.2656" y2="24.7801" gradientTransform="matrix(0.65625,0,0,0.65625,0,0)">
<stop offset="0" style="stop-color:rgb(100%,65.098039%,24.705882%);stop-opacity:1;"/>
<stop offset="1" style="stop-color:rgb(100%,100%,0%);stop-opacity:1;"/>
</linearGradient>
<linearGradient id="linear11" gradientUnits="userSpaceOnUse" x1="20.5198" y1="18.9333" x2="19.6863" y2="22.8605" gradientTransform="matrix(0.65625,0,0,0.65625,0,0)">
<stop offset="0" style="stop-color:rgb(100%,100%,100%);stop-opacity:0.65098;"/>
<stop offset="1" style="stop-color:rgb(100%,100%,100%);stop-opacity:0;"/>
</linearGradient>
<linearGradient id="linear12" gradientUnits="userSpaceOnUse" x1="11.2464" y1="19.9042" x2="11.4117" y2="24.3239" gradientTransform="matrix(0.65625,0,0,0.65625,0,0)">
<stop offset="0" style="stop-color:rgb(100%,100%,100%);stop-opacity:0.65098;"/>
<stop offset="1" style="stop-color:rgb(100%,100%,100%);stop-opacity:0;"/>
</linearGradient>
<linearGradient id="linear13" gradientUnits="userSpaceOnUse" x1="20.3755" y1="18.8616" x2="20.5688" y2="20.1822" gradientTransform="matrix(0.65625,0,0,0.65625,0,0)">
<stop offset="0" style="stop-color:rgb(100%,100%,100%);stop-opacity:0.65098;"/>
<stop offset="1" style="stop-color:rgb(100%,100%,100%);stop-opacity:0;"/>
</linearGradient>
<linearGradient id="linear14" gradientUnits="userSpaceOnUse" x1="15.7644" y1="10.784" x2="15.7805" y2="13.1098" gradientTransform="matrix(0.65625,0,0,0.65625,0,0)">
<stop offset="0" style="stop-color:rgb(100%,65.098039%,24.705882%);stop-opacity:1;"/>
<stop offset="1" style="stop-color:rgb(100%,100%,0%);stop-opacity:1;"/>
</linearGradient>
<linearGradient id="linear15" gradientUnits="userSpaceOnUse" x1="15.5106" y1="10.5638" x2="15.5062" y2="11.7936" gradientTransform="matrix(0.65625,0,0,0.65625,0,0)">
<stop offset="0" style="stop-color:rgb(100%,100%,100%);stop-opacity:0.65098;"/>
<stop offset="1" style="stop-color:rgb(100%,100%,100%);stop-opacity:0;"/>
</linearGradient>
</defs>
<g id="surface1">
<path style=" stroke:none;fill-rule:nonzero;fill:rgb(100%,100%,100%);fill-opacity:1;" d="M 19.6875 10.5 C 19.6875 15.570312 15.574219 19.6875 10.5 19.6875 C 5.425781 19.6875 1.3125 15.570312 1.3125 10.5 C 1.3125 5.425781 5.425781 1.3125 10.5 1.3125 C 15.574219 1.3125 19.6875 5.425781 19.6875 10.5 Z M 19.6875 10.5 "/>
<path style=" stroke:none;fill-rule:nonzero;fill:rgb(0%,0%,0%);fill-opacity:1;" d="M 7.417969 14.378906 C 7.335938 14.253906 7.265625 14.089844 7.207031 13.894531 C 6.152344 12.703125 6.96875 10.953125 7.773438 9.765625 C 7.851562 9.636719 7.933594 9.515625 8.027344 9.398438 C 8.640625 8.632812 8.800781 8.101562 8.847656 7.382812 C 8.851562 7.25 8.839844 7.074219 8.828125 6.871094 C 8.765625 5.828125 8.65625 4.101562 10.511719 3.949219 C 12.828125 3.757812 12.640625 5.886719 12.621094 7.136719 C 12.621094 7.1875 12.621094 7.238281 12.621094 7.285156 C 12.613281 8.039062 13.007812 8.554688 13.417969 9.089844 C 13.566406 9.289062 13.71875 9.488281 13.855469 9.703125 C 13.859375 9.707031 13.863281 9.714844 13.867188 9.722656 C 14.582031 10.753906 15.289062 12.296875 14.304688 13.757812 C 14.167969 14.257812 13.957031 14.714844 13.679688 15.089844 C 12.675781 16.410156 11.78125 16.277344 11.085938 16.171875 C 10.875 16.140625 10.683594 16.109375 10.511719 16.125 C 10.222656 16.140625 9.996094 16.1875 9.796875 16.230469 C 9.03125 16.382812 8.730469 16.445312 7.417969 14.378906 Z M 7.417969 14.378906 "/>
<path style=" stroke:none;fill-rule:nonzero;fill:url(#linear0);" d="M 11.820312 5.113281 C 11.800781 5.726562 11.152344 6.257812 10.371094 6.308594 C 9.59375 6.355469 8.984375 5.890625 9.007812 5.28125 C 9.027344 4.667969 9.675781 4.136719 10.453125 4.089844 C 11.234375 4.042969 11.84375 4.503906 11.820312 5.113281 Z M 11.820312 5.113281 "/>
<path style=" stroke:none;fill-rule:evenodd;fill:url(#linear1);" d="M 10.410156 6.601562 C 10.417969 6.933594 10.570312 7.21875 10.785156 7.347656 C 10.085938 7.285156 9.222656 7.539062 9.222656 8.023438 C 9.210938 8.839844 8.753906 9.855469 8.429688 10.589844 C 8.363281 10.734375 8.304688 10.867188 8.253906 10.984375 C 8.050781 11.484375 7.929688 12.023438 7.914062 12.550781 C 7.378906 11.808594 7.769531 10.859375 7.980469 10.449219 C 8.257812 9.90625 8.253906 9.839844 8.144531 9.964844 C 7.726562 10.671875 6.941406 12.097656 7.925781 12.953125 C 7.957031 13.332031 8.050781 13.703125 8.214844 14.042969 C 9.53125 16.695312 11.992188 15.605469 12.804688 14.230469 C 12.914062 14.035156 13 13.847656 13.070312 13.664062 C 13.113281 13.6875 13.15625 13.707031 13.203125 13.722656 C 13.609375 13.84375 14.21875 13.382812 14.367188 13.097656 C 14.542969 12.71875 14.363281 12.457031 13.761719 12.148438 C 13.730469 12.132812 13.699219 12.121094 13.667969 12.105469 C 13.898438 11.136719 13.265625 10.125 12.808594 9.695312 C 12.726562 9.675781 12.714844 9.722656 12.84375 9.855469 C 13.132812 10.128906 13.753906 11.105469 13.417969 12.015625 C 13.359375 12 13.308594 11.988281 13.257812 11.984375 C 13.152344 11.363281 12.878906 10.878906 12.683594 10.542969 C 12.640625 10.464844 12.601562 10.398438 12.570312 10.335938 C 12.503906 10.210938 12.425781 10.085938 12.34375 9.949219 C 12.027344 9.421875 11.640625 8.785156 11.640625 7.835938 C 11.59375 7.625 11.394531 7.488281 11.132812 7.410156 C 11.4375 7.347656 11.667969 6.992188 11.660156 6.566406 C 11.648438 6.105469 11.363281 5.742188 11.019531 5.75 C 10.675781 5.757812 10.398438 6.140625 10.410156 6.601562 Z M 10.695312 6.707031 C 10.691406 6.960938 10.8125 7.164062 10.96875 7.164062 C 11.125 7.164062 11.257812 6.960938 11.261719 6.710938 C 11.265625 6.457031 11.148438 6.25 10.988281 6.25 C 10.828125 6.25 10.699219 6.457031 10.695312 6.707031 Z M 10.695312 6.707031 "/>
<path style=" stroke:none;fill-rule:evenodd;fill:url(#linear2);" d="M 9.550781 7.316406 C 9.800781 7.304688 9.980469 6.96875 9.960938 6.570312 C 9.9375 6.171875 9.71875 5.867188 9.46875 5.878906 C 9.222656 5.890625 9.039062 6.226562 9.0625 6.625 C 9.082031 7.023438 9.304688 7.332031 9.550781 7.316406 Z M 9.703125 6.710938 C 9.722656 6.917969 9.648438 7.097656 9.535156 7.117188 C 9.421875 7.128906 9.316406 6.972656 9.292969 6.761719 C 9.273438 6.554688 9.351562 6.375 9.460938 6.355469 C 9.574219 6.34375 9.679688 6.5 9.703125 6.710938 Z M 9.703125 6.710938 "/>
<path style=" stroke:none;fill-rule:nonzero;fill:url(#linear3);" d="M 10.761719 6.5625 C 10.746094 6.707031 10.8125 6.820312 10.902344 6.832031 C 10.992188 6.839844 11.078125 6.726562 11.089844 6.589844 C 11.105469 6.445312 11.039062 6.328125 10.949219 6.320312 C 10.859375 6.3125 10.773438 6.421875 10.761719 6.5625 Z M 10.761719 6.5625 "/>
<path style=" stroke:none;fill-rule:nonzero;fill:url(#linear4);" d="M 9.609375 6.597656 C 9.621094 6.714844 9.574219 6.816406 9.503906 6.824219 C 9.4375 6.835938 9.371094 6.746094 9.359375 6.625 C 9.347656 6.507812 9.394531 6.40625 9.460938 6.398438 C 9.53125 6.386719 9.59375 6.480469 9.609375 6.597656 Z M 9.609375 6.597656 "/>
<path style=" stroke:none;fill-rule:nonzero;fill:url(#linear5);" d="M 12.25 11.257812 C 12.25 12.042969 11.523438 13.0625 10.277344 13.050781 C 8.992188 13.0625 8.449219 12.042969 8.449219 11.257812 C 8.449219 10.46875 9.296875 9.832031 10.347656 9.832031 C 11.402344 9.835938 12.25 10.46875 12.25 11.257812 Z M 12.25 11.257812 "/>
<path style=" stroke:none;fill-rule:nonzero;fill:url(#linear6);" d="M 11.574219 8.785156 C 11.558594 9.597656 11.046875 9.792969 10.402344 9.792969 C 9.757812 9.792969 9.289062 9.671875 9.234375 8.785156 C 9.234375 8.234375 9.757812 7.910156 10.402344 7.910156 C 11.046875 7.90625 11.574219 8.226562 11.574219 8.785156 Z M 11.574219 8.785156 "/>
<path style=" stroke:none;fill-rule:nonzero;fill:url(#linear7);" d="M 7.675781 10.039062 C 8.09375 9.371094 8.984375 8.347656 7.839844 10.179688 C 6.914062 11.691406 7.496094 12.660156 7.796875 12.925781 C 8.667969 13.730469 8.632812 14.269531 7.949219 13.847656 C 6.484375 12.941406 6.789062 11.414062 7.675781 10.039062 Z M 7.675781 10.039062 "/>
<path style=" stroke:none;fill-rule:nonzero;fill:url(#linear8);" d="M 13.773438 10.308594 C 13.40625 9.527344 12.246094 7.546875 13.828125 9.851562 C 15.269531 11.933594 14.257812 13.386719 14.078125 13.53125 C 13.898438 13.671875 13.292969 13.964844 13.46875 13.457031 C 13.648438 12.953125 14.542969 11.996094 13.773438 10.308594 Z M 13.773438 10.308594 "/>
<path style=" stroke:none;fill-rule:nonzero;fill:url(#linear9);" d="M 7.355469 16.472656 C 6.394531 15.941406 4.996094 16.574219 5.503906 15.136719 C 5.605469 14.8125 5.351562 14.320312 5.515625 14.003906 C 5.710938 13.613281 6.125 13.699219 6.375 13.441406 C 6.621094 13.171875 6.777344 12.707031 7.234375 12.78125 C 7.691406 12.851562 7.996094 13.433594 8.3125 14.144531 C 8.550781 14.65625 9.386719 15.375 9.328125 15.945312 C 9.261719 16.820312 8.300781 16.988281 7.355469 16.472656 Z M 7.355469 16.472656 "/>
<path style=" stroke:none;fill-rule:evenodd;fill:rgb(90.196078%,54.901961%,24.705882%);fill-opacity:1;" d="M 6.480469 13.546875 C 6.246094 13.800781 5.816406 13.738281 5.644531 14.074219 C 5.535156 14.289062 5.65625 14.621094 5.671875 14.855469 C 5.691406 15.148438 5.449219 15.558594 5.574219 15.808594 C 5.710938 16.089844 6.335938 16.050781 6.609375 16.09375 C 7.285156 16.191406 8.402344 17.066406 9.015625 16.367188 C 9.613281 15.683594 8.464844 14.820312 8.183594 14.210938 C 8 13.800781 7.722656 13.011719 7.214844 12.929688 C 6.851562 12.875 6.6875 13.316406 6.480469 13.546875 Z M 7.257812 12.628906 C 7.894531 12.730469 8.210938 13.554688 8.445312 14.082031 C 8.804688 14.847656 10.023438 15.667969 9.234375 16.574219 C 8.511719 17.394531 7.378906 16.511719 6.566406 16.394531 C 6.164062 16.332031 5.523438 16.375 5.3125 15.949219 C 5.128906 15.578125 5.40625 15.246094 5.378906 14.878906 C 5.359375 14.566406 5.234375 14.230469 5.386719 13.933594 C 5.59375 13.515625 5.996094 13.617188 6.269531 13.335938 C 6.5625 13.015625 6.734375 12.546875 7.257812 12.628906 Z M 7.257812 12.628906 "/>
<path style=" stroke:none;fill-rule:nonzero;fill:url(#linear10);" d="M 14.03125 16.226562 C 14.738281 15.339844 16.304688 15.523438 15.246094 14.300781 C 15.023438 14.039062 15.09375 13.476562 14.816406 13.234375 C 14.496094 12.941406 14.140625 13.179688 13.8125 13.03125 C 13.484375 12.863281 13.140625 12.546875 12.742188 12.769531 C 12.34375 13 12.300781 13.589844 12.261719 14.363281 C 12.226562 14.921875 11.734375 15.855469 12 16.371094 C 12.375 17.164062 13.359375 17.058594 14.03125 16.226562 Z M 14.03125 16.226562 "/>
<path style=" stroke:none;fill-rule:evenodd;fill:rgb(90.196078%,54.901961%,24.705882%);fill-opacity:1;" d="M 14.3125 12.925781 C 14.492188 12.921875 14.710938 12.933594 14.914062 13.121094 C 15.164062 13.34375 15.167969 13.707031 15.265625 14.011719 C 15.375 14.371094 15.773438 14.578125 15.75 15 C 15.710938 15.691406 14.511719 15.859375 14.144531 16.324219 C 13.789062 16.765625 13.339844 17.023438 12.917969 17.058594 C 12.273438 17.113281 11.738281 16.570312 11.777344 15.910156 C 11.808594 15.375 12.082031 14.886719 12.113281 14.355469 C 12.132812 13.972656 12.152344 13.613281 12.222656 13.324219 C 12.292969 13.03125 12.421875 12.78125 12.671875 12.636719 C 13.21875 12.332031 13.75 12.941406 14.3125 12.925781 Z M 12.8125 12.90625 C 12.664062 12.988281 12.566406 13.144531 12.507812 13.398438 C 12.445312 13.65625 12.425781 13.984375 12.40625 14.375 C 12.375 14.90625 12.101562 15.394531 12.070312 15.929688 C 12.042969 16.40625 12.40625 16.796875 12.894531 16.757812 C 13.222656 16.730469 13.601562 16.523438 13.917969 16.128906 C 14.199219 15.773438 15.429688 15.445312 15.457031 14.984375 C 15.472656 14.683594 15.078125 14.402344 14.984375 14.105469 C 14.914062 13.875 14.910156 13.515625 14.722656 13.351562 C 14.605469 13.242188 14.480469 13.226562 14.320312 13.230469 C 13.859375 13.242188 13.242188 12.664062 12.8125 12.90625 Z M 12.8125 12.90625 "/>
<path style=" stroke:none;fill-rule:nonzero;fill:url(#linear11);" d="M 13.726562 15.039062 C 14.816406 13.363281 14.003906 13.378906 13.730469 13.25 C 13.453125 13.113281 13.167969 12.851562 12.84375 13.035156 C 12.523438 13.222656 12.503906 13.703125 12.496094 14.339844 C 12.484375 14.792969 12.117188 15.558594 12.335938 15.980469 C 12.605469 16.476562 13.25 15.757812 13.726562 15.039062 Z M 13.726562 15.039062 "/>
<path style=" stroke:none;fill-rule:nonzero;fill:url(#linear12);" d="M 7.132812 15.28125 C 5.5 14.183594 6.265625 13.808594 6.507812 13.632812 C 6.804688 13.410156 6.808594 12.980469 7.175781 13.019531 C 7.539062 13.0625 7.753906 13.53125 8 14.109375 C 8.179688 14.527344 8.808594 15.078125 8.761719 15.558594 C 8.703125 16.121094 7.835938 15.75 7.132812 15.28125 Z M 7.132812 15.28125 "/>
<path style=" stroke:none;fill-rule:nonzero;fill:rgb(0%,0%,0%);fill-opacity:1;" d="M 14.273438 13.082031 C 14.144531 13.316406 13.617188 13.679688 13.269531 13.582031 C 12.914062 13.488281 12.75 12.96875 12.824219 12.574219 C 12.886719 12.128906 13.269531 12.105469 13.753906 12.328125 C 14.261719 12.570312 14.421875 12.773438 14.273438 13.082031 Z M 14.273438 13.082031 "/>
<path style=" stroke:none;fill-rule:nonzero;fill:url(#linear13);" d="M 13.917969 12.953125 C 13.835938 13.113281 13.492188 13.367188 13.253906 13.300781 C 13.011719 13.234375 12.890625 12.875 12.929688 12.601562 C 12.964844 12.292969 13.222656 12.273438 13.550781 12.425781 C 13.902344 12.597656 14.015625 12.738281 13.917969 12.953125 Z M 13.917969 12.953125 "/>
<path style=" stroke:none;fill-rule:nonzero;fill:url(#linear14);" d="M 9.472656 7.125 C 9.644531 6.960938 10.0625 6.457031 10.855469 6.980469 C 11 7.082031 11.121094 7.089844 11.398438 7.214844 C 11.964844 7.457031 11.695312 8.035156 11.09375 8.234375 C 10.835938 8.316406 10.605469 8.644531 10.140625 8.613281 C 9.742188 8.589844 9.636719 8.316406 9.394531 8.171875 C 8.957031 7.914062 8.894531 7.570312 9.128906 7.390625 C 9.367188 7.207031 9.457031 7.140625 9.472656 7.125 Z M 9.472656 7.125 "/>
<path style=" stroke:none;fill-rule:evenodd;fill:rgb(90.196078%,54.901961%,24.705882%);fill-opacity:1;" d="M 9.183594 7.460938 C 9.09375 7.53125 9.066406 7.625 9.09375 7.726562 C 9.15625 7.9375 9.59375 8.226562 9.765625 8.367188 C 9.859375 8.449219 9.96875 8.511719 10.144531 8.519531 C 10.527344 8.546875 10.738281 8.253906 11.070312 8.144531 C 11.289062 8.074219 11.75 7.800781 11.597656 7.488281 C 11.464844 7.222656 11.027344 7.207031 10.808594 7.058594 C 10.429688 6.808594 10.15625 6.808594 9.960938 6.878906 C 9.746094 6.957031 9.375 7.3125 9.183594 7.460938 Z M 9.902344 6.707031 C 10.15625 6.617188 10.488281 6.628906 10.902344 6.90625 C 11.175781 7.089844 11.589844 7.070312 11.753906 7.40625 C 11.960938 7.832031 11.457031 8.210938 11.121094 8.320312 C 10.765625 8.4375 10.566406 8.730469 10.136719 8.703125 C 9.914062 8.691406 9.769531 8.605469 9.652344 8.507812 C 9.410156 8.304688 9 8.113281 8.90625 7.789062 C 8.855469 7.609375 8.929688 7.429688 9.078125 7.316406 C 9.316406 7.132812 9.636719 6.804688 9.902344 6.707031 Z M 9.902344 6.707031 "/>
<path style=" stroke:none;fill-rule:evenodd;fill:rgb(90.196078%,54.901961%,24.705882%);fill-opacity:1;" d="M 11.46875 7.589844 C 11.46875 7.625 11.445312 7.652344 11.414062 7.65625 C 10.957031 7.679688 10.636719 8.199219 10.125 8.199219 C 9.835938 8.199219 9.609375 8.0625 9.445312 7.929688 C 9.414062 7.902344 9.125 7.679688 9.125 7.621094 C 9.125 7.585938 9.148438 7.558594 9.183594 7.558594 C 9.242188 7.558594 9.425781 7.757812 9.492188 7.8125 C 9.648438 7.9375 9.875 8.078125 10.125 8.078125 C 10.632812 8.078125 10.945312 7.558594 11.40625 7.535156 C 11.4375 7.53125 11.464844 7.558594 11.46875 7.589844 Z M 11.46875 7.589844 "/>
<path style=" stroke:none;fill-rule:nonzero;fill:url(#linear15);" d="M 9.742188 7.082031 C 9.828125 7 10.097656 6.78125 10.453125 7.003906 C 10.53125 7.050781 10.609375 7.097656 10.722656 7.164062 C 10.949219 7.304688 10.835938 7.503906 10.5625 7.628906 C 10.4375 7.683594 10.230469 7.800781 10.078125 7.789062 C 9.90625 7.773438 9.789062 7.65625 9.675781 7.582031 C 9.464844 7.4375 9.480469 7.316406 9.578125 7.222656 C 9.652344 7.152344 9.734375 7.085938 9.742188 7.082031 Z M 9.742188 7.082031 "/>
</g>
</svg>
