<svg xmlns="http://www.w3.org/2000/svg"  viewBox="0 0 64 64" width="21px" height="21px"><path fill="#85cbf8" d="M9,11.5v2c0,0.55-0.45,1-1,1s-1-0.45-1-1v-2c0-0.55,0.45-1,1-1S9,10.95,9,11.5z"/><path fill="#85cbf8" d="M14,11.5v2c0,0.55-0.45,1-1,1s-1-0.45-1-1v-2c0-0.55,0.45-1,1-1S14,10.95,14,11.5z"/><path fill="#85cbf8" d="M19,11.5v2c0,0.55-0.45,1-1,1s-1-0.45-1-1v-2c0-0.55,0.45-1,1-1S19,10.95,19,11.5z"/><path fill="#85cbf8" d="M24,11.5v2c0,0.55-0.45,1-1,1s-1-0.45-1-1v-2c0-0.55,0.45-1,1-1S24,10.95,24,11.5z"/><path fill="#85cbf8" d="M28,14.5c-0.55,0-1-0.45-1-1v-2c0-0.55,0.45-1,1-1s1,0.45,1,1v2C29,14.05,28.55,14.5,28,14.5z"/><path fill="#85cbf8" d="M57.58,6H7.42C4.98,6,3,7.94,3,10.33v42.35C3,55.06,4.98,57,7.42,57h50.16	c2.44,0,4.42-1.94,4.42-4.32V10.33C62,7.94,60.02,6,57.58,6z M7.42,55.04C6.08,55.04,5,53.99,5,52.68V10.33	c0-1.32,1.08-2.37,2.42-2.37h25.34c-0.87,2.78-1.6,5.6-2.2,8.44c-1.06,5-1.72,10.13-1.94,15.24c-0.03,0.6,0.19,1.17,0.62,1.6	c0.42,0.43,1.01,0.69,1.62,0.69h5.24c0.09,0,0.14,0.04,0.18,0.07c0.03,0.03,0.07,0.09,0.06,0.18c-0.26,4.4-0.24,8.87,0.09,13.26	c0.19,2.53,0.48,5.08,0.87,7.6H7.42z M60,52.68c0,1.31-1.08,2.36-2.42,2.36H39.33c-0.41-2.57-0.71-5.16-0.9-7.75	c-0.32-4.3-0.35-8.68-0.09-12.99c0.04-0.61-0.18-1.21-0.61-1.65c-0.42-0.44-1.01-0.68-1.63-0.68h-5.24c-0.09,0-0.15-0.05-0.18-0.08	c-0.03-0.03-0.07-0.09-0.06-0.16c0.22-5.01,0.86-10.03,1.89-14.94c0.63-2.96,1.42-5.93,2.34-8.83h22.73c1.34,0,2.42,1.05,2.42,2.37	V52.68z M57,10.5c-0.55,0-1,0.45-1,1v2c0,0.55,0.45,1,1,1s1-0.45,1-1v-2C58,10.95,57.55,10.5,57,10.5z M52,10.5c-0.55,0-1,0.45-1,1	v2c0,0.55,0.45,1,1,1s1-0.45,1-1v-2C53,10.95,52.55,10.5,52,10.5z M47,10.5c-0.55,0-1,0.45-1,1v2c0,0.55,0.45,1,1,1s1-0.45,1-1v-2	C48,10.95,47.55,10.5,47,10.5z M42,10.5c-0.55,0-1,0.45-1,1v2c0,0.55,0.45,1,1,1s1-0.45,1-1v-2C43,10.95,42.55,10.5,42,10.5z M37,10.5c-0.55,0-1,0.45-1,1v2c0,0.55,0.45,1,1,1s1-0.45,1-1v-2C38,10.95,37.55,10.5,37,10.5z"/><path fill="#ced9ed" d="M57.58,7.96H34.85c-0.92,2.9-1.71,5.87-2.34,8.83c-1.03,4.91-1.67,9.93-1.89,14.94	c-0.01,0.07,0.03,0.13,0.06,0.16c0.03,0.03,0.09,0.08,0.18,0.08h5.24c0.62,0,1.21,0.24,1.63,0.68c0.43,0.44,0.65,1.04,0.61,1.65	c-0.26,4.31-0.23,8.69,0.09,12.99c0.19,2.59,0.49,5.18,0.9,7.75h18.25c1.34,0,2.42-1.05,2.42-2.36V10.33	C60,9.01,58.92,7.96,57.58,7.96z M38,13.5c0,0.55-0.45,1-1,1s-1-0.45-1-1v-2c0-0.55,0.45-1,1-1s1,0.45,1,1V13.5z M43,13.5	c0,0.55-0.45,1-1,1s-1-0.45-1-1v-2c0-0.55,0.45-1,1-1s1,0.45,1,1V13.5z M48,13.5c0,0.55-0.45,1-1,1s-1-0.45-1-1v-2	c0-0.55,0.45-1,1-1s1,0.45,1,1V13.5z M53,13.5c0,0.55-0.45,1-1,1s-1-0.45-1-1v-2c0-0.55,0.45-1,1-1s1,0.45,1,1V13.5z M58,13.5	c0,0.55-0.45,1-1,1s-1-0.45-1-1v-2c0-0.55,0.45-1,1-1s1,0.45,1,1V13.5z"/><path fill="#85cbf8" d="M36.43,47.44c-0.33-4.39-0.35-8.86-0.09-13.26c0.01-0.09-0.03-0.15-0.06-0.18	c-0.04-0.03-0.09-0.07-0.18-0.07h-5.24c-0.61,0-1.2-0.26-1.62-0.69c-0.43-0.43-0.65-1-0.62-1.6c0.22-5.11,0.88-10.24,1.94-15.24	c0.6-2.84,1.33-5.66,2.2-8.44H7.42C6.08,7.96,5,9.01,5,10.33v42.35c0,1.31,1.08,2.36,2.42,2.36H37.3	C36.91,52.52,36.62,49.97,36.43,47.44z M9,13.5c0,0.55-0.45,1-1,1s-1-0.45-1-1v-2c0-0.55,0.45-1,1-1s1,0.45,1,1V13.5z M14,13.5	c0,0.55-0.45,1-1,1s-1-0.45-1-1v-2c0-0.55,0.45-1,1-1s1,0.45,1,1V13.5z M19,13.5c0,0.55-0.45,1-1,1s-1-0.45-1-1v-2	c0-0.55,0.45-1,1-1s1,0.45,1,1V13.5z M24,13.5c0,0.55-0.45,1-1,1s-1-0.45-1-1v-2c0-0.55,0.45-1,1-1s1,0.45,1,1V13.5z M27,13.5v-2	c0-0.55,0.45-1,1-1s1,0.45,1,1v2c0,0.55-0.45,1-1,1S27,14.05,27,13.5z"/><path fill="#c2cde7" d="M60,53c0.225,0.812,0.118,1.539,0,2c-0.667,0-0.667,0-2,0c0.315,0,0.315,0,0.472,0H38.367	c-0.115-0.482-0.209-0.965-0.313-1.454c-0.23-1.177-0.418-2.362-0.554-3.546h18.011c1.187,0,2.371,0.362,3.27,1.136	C59.304,51.586,59.777,52.194,60,53z"/><path fill="#7bbeeb" d="M38.399,50H25.201h-1.029H9.667c-1.464,0-2.912,0.555-3.876,1.657C5.063,52.49,4.776,53.35,5,54	c0.075,0.218,0.286,0.638,1,1c-0.17,0.212-0.178,0.356-0.159,0.444c0.082,0.39,0.89,0.63,2.035,0.606h16.638h1.032h13.538	C38.777,54.128,38.552,52.111,38.399,50z"/><path fill="#ace3ff" d="M23.3,6.93h-3.906H6.7c-0.741-0.356-1.587-0.076-1.91,0.532C4.541,7.928,4.623,8.544,5,9	c-0.067,0.395-0.048,0.731,0,1c0.363,2.03,2.868,2.913,3.125,3c3.625,0,7.25,0,10.875,0c1.322,0,2.644,0,3.965,0h9.172	c0.723-2.166,1.552-4.19,2.446-6.07H23.3z"/><path fill="#e2e9f7" d="M60,9c0.025,0.21,0.19,1.812-1,3c-0.813,0.811-1.791,0.964-2.116,1c-8.055,0-16.11,0-24.164,0	c0.285-0.813,0.607-1.665,0.979-2.547c0.356-0.846,0.741-1.688,1.151-2.523h23.73C59.527,7.797,60.348,8.646,60,9z"/><path fill="#8d6c9f" d="M57.58,6H7.42C4.98,6,3,7.94,3,10.33v42.35C3,55.06,4.98,57,7.42,57h50.16	c2.44,0,4.42-1.94,4.42-4.32V10.33C62,7.94,60.02,6,57.58,6z M7.42,55.04C6.08,55.04,5,53.99,5,52.68V10.33	c0-1.32,1.08-2.37,2.42-2.37h25.34c-0.87,2.78-1.6,5.6-2.2,8.44c-1.06,5-1.72,10.13-1.94,15.24c-0.03,0.6,0.19,1.17,0.62,1.6	c0.42,0.43,1.01,0.69,1.62,0.69h5.24c0.09,0,0.14,0.04,0.18,0.07c0.03,0.03,0.07,0.09,0.06,0.18c-0.26,4.4-0.24,8.87,0.09,13.26	c0.19,2.53,0.48,5.08,0.87,7.6H7.42z M60,52.68c0,1.31-1.08,2.36-2.42,2.36H39.33c-0.41-2.57-0.71-5.16-0.9-7.75	c-0.32-4.3-0.35-8.68-0.09-12.99c0.04-0.61-0.18-1.21-0.61-1.65c-0.42-0.44-1.01-0.68-1.63-0.68h-5.24c-0.09,0-0.15-0.05-0.18-0.08	c-0.03-0.03-0.07-0.09-0.06-0.16c0.22-5.01,0.86-10.03,1.89-14.94c0.63-2.96,1.42-5.93,2.34-8.83h22.73c1.34,0,2.42,1.05,2.42,2.37	V52.68z"/><path fill="#8d6c9f" d="M38,11.5v2c0,0.55-0.45,1-1,1s-1-0.45-1-1v-2c0-0.55,0.45-1,1-1S38,10.95,38,11.5z"/><path fill="#8d6c9f" d="M43,11.5v2c0,0.55-0.45,1-1,1s-1-0.45-1-1v-2c0-0.55,0.45-1,1-1S43,10.95,43,11.5z"/><path fill="#8d6c9f" d="M48,11.5v2c0,0.55-0.45,1-1,1s-1-0.45-1-1v-2c0-0.55,0.45-1,1-1S48,10.95,48,11.5z"/><path fill="#8d6c9f" d="M53,11.5v2c0,0.55-0.45,1-1,1s-1-0.45-1-1v-2c0-0.55,0.45-1,1-1S53,10.95,53,11.5z"/><path fill="#8d6c9f" d="M58,11.5v2c0,0.55-0.45,1-1,1s-1-0.45-1-1v-2c0-0.55,0.45-1,1-1S58,10.95,58,11.5z"/><path fill="#8d6c9f" d="M9,11.5v2c0,0.55-0.45,1-1,1s-1-0.45-1-1v-2c0-0.55,0.45-1,1-1S9,10.95,9,11.5z"/><path fill="#8d6c9f" d="M14,11.5v2c0,0.55-0.45,1-1,1s-1-0.45-1-1v-2c0-0.55,0.45-1,1-1S14,10.95,14,11.5z"/><path fill="#8d6c9f" d="M19,11.5v2c0,0.55-0.45,1-1,1s-1-0.45-1-1v-2c0-0.55,0.45-1,1-1S19,10.95,19,11.5z"/><path fill="#8d6c9f" d="M24,11.5v2c0,0.55-0.45,1-1,1s-1-0.45-1-1v-2c0-0.55,0.45-1,1-1S24,10.95,24,11.5z"/><path fill="#8d6c9f" d="M29,11.5v2c0,0.55-0.45,1-1,1s-1-0.45-1-1v-2c0-0.55,0.45-1,1-1S29,10.95,29,11.5z"/><path fill="#8d6c9f" d="M33.441,48.299c-0.645,0-1.3-0.02-1.967-0.06c-9.278-0.558-15.951-4.914-19.103-7.462	c-0.43-0.347-0.497-0.977-0.149-1.406c0.348-0.429,0.977-0.497,1.406-0.148c2.966,2.396,9.244,6.496,17.966,7.021	c10.941,0.647,18.875-4.692,21.779-7.023c0.43-0.345,1.061-0.276,1.406,0.154c0.346,0.431,0.277,1.061-0.154,1.406	C51.717,43.114,44.054,48.299,33.441,48.299z"/><path fill="#8d6c9f" d="M49,27c-0.552,0-1-0.396-1-0.886v-5.227C48,20.396,48.448,20,49,20s1,0.396,1,0.886v5.227	C50,26.604,49.552,27,49,27z"/><path fill="#8d6c9f" d="M18,27c-0.552,0-1-0.396-1-0.886v-5.227C17,20.396,17.448,20,18,20s1,0.396,1,0.886v5.227	C19,26.604,18.552,27,18,27z"/></svg>