<?xml version="1.0" encoding="UTF-8"?>
<svg xmlns="http://www.w3.org/2000/svg" xmlns:xlink="http://www.w3.org/1999/xlink" width="20px" height="20px" viewBox="0 0 20 20" version="1.1">
<g id="surface1">
<path style=" stroke:none;fill-rule:nonzero;fill:rgb(86.666667%,28.235294%,7.843137%);fill-opacity:1;" d="M 20 10 C 20 15.523438 15.523438 20 10 20 C 4.476562 20 0 15.523438 0 10 C 0 4.476562 4.476562 0 10 0 C 15.523438 0 20 4.476562 20 10 Z M 20 10 "/>
<path style=" stroke:none;fill-rule:nonzero;fill:rgb(100%,100%,100%);fill-opacity:1;" d="M 3.199219 8.664062 C 2.460938 8.664062 1.863281 9.261719 1.863281 10 C 1.863281 10.738281 2.460938 11.335938 3.199219 11.335938 C 3.9375 11.335938 4.535156 10.738281 4.535156 10 C 4.535156 9.261719 3.9375 8.664062 3.199219 8.664062 Z M 12.734375 14.734375 C 12.09375 15.101562 11.875 15.917969 12.242188 16.554688 C 12.613281 17.195312 13.429688 17.414062 14.066406 17.042969 C 14.707031 16.675781 14.925781 15.859375 14.554688 15.222656 C 14.1875 14.582031 13.371094 14.363281 12.734375 14.734375 Z M 6.101562 10 C 6.101562 8.679688 6.753906 7.515625 7.757812 6.808594 L 6.78125 5.175781 C 5.613281 5.953125 4.746094 7.148438 4.382812 8.546875 C 4.804688 8.890625 5.074219 9.414062 5.074219 10 C 5.074219 10.585938 4.804688 11.109375 4.382812 11.453125 C 4.746094 12.851562 5.613281 14.046875 6.78125 14.824219 L 7.757812 13.191406 C 6.753906 12.484375 6.101562 11.320312 6.101562 10 Z M 10 6.101562 C 12.039062 6.101562 13.707031 7.664062 13.882812 9.652344 L 15.785156 9.625 C 15.691406 8.15625 15.050781 6.835938 14.0625 5.863281 C 13.554688 6.054688 12.96875 6.027344 12.460938 5.734375 C 11.957031 5.441406 11.636719 4.949219 11.550781 4.410156 C 11.054688 4.273438 10.535156 4.199219 10 4.199219 C 9.078125 4.199219 8.203125 4.417969 7.429688 4.800781 L 8.355469 6.464844 C 8.855469 6.230469 9.414062 6.101562 10 6.101562 Z M 10 13.898438 C 9.414062 13.898438 8.855469 13.769531 8.355469 13.539062 L 7.429688 15.199219 C 8.203125 15.582031 9.078125 15.800781 10 15.800781 C 10.535156 15.800781 11.054688 15.726562 11.550781 15.589844 C 11.636719 15.054688 11.957031 14.558594 12.460938 14.265625 C 12.96875 13.972656 13.554688 13.945312 14.0625 14.136719 C 15.050781 13.164062 15.691406 11.84375 15.785156 10.375 L 13.882812 10.347656 C 13.707031 12.339844 12.039062 13.898438 10 13.898438 Z M 12.734375 5.265625 C 13.371094 5.636719 14.1875 5.417969 14.554688 4.777344 C 14.925781 4.140625 14.707031 3.324219 14.066406 2.957031 C 13.429688 2.585938 12.613281 2.804688 12.242188 3.445312 C 11.875 4.082031 12.09375 4.898438 12.734375 5.265625 Z M 12.734375 5.265625 "/>
</g>
</svg>
