<?xml version="1.0" encoding="UTF-8"?>
<svg xmlns="http://www.w3.org/2000/svg"
  xmlns:xlink="http://www.w3.org/1999/xlink" width="25px" height="25px" viewBox="0 0 25 25" version="1.1">
  <defs>
    <linearGradient id="linear0" gradientUnits="userSpaceOnUse" x1="32.002" y1="53.326" x2="32.002" y2="33.119" gradientTransform="matrix(0.390625,0,0,-0.390625,0,25.78125)">
      <stop offset="0" style="stop-color:rgb(10.196078%,42.745098%,100%);stop-opacity:1;"/>
      <stop offset="1" style="stop-color:rgb(78.431373%,13.333333%,100%);stop-opacity:1;"/>
    </linearGradient>
    <linearGradient id="linear1" gradientUnits="userSpaceOnUse" x1="32" y1="29.23" x2="32" y2="14.674" gradientTransform="matrix(0.390625,0,0,-0.390625,0,25.78125)">
      <stop offset="0" style="stop-color:rgb(42.745098%,78.039216%,100%);stop-opacity:1;"/>
      <stop offset="1" style="stop-color:rgb(90.196078%,67.058824%,100%);stop-opacity:1;"/>
    </linearGradient>
  </defs>
  <g id="surface1">
    <path style=" stroke:none;fill-rule:nonzero;fill:url(#linear0);" d="M 7.046875 10.433594 C 7.046875 10.746094 7.078125 10.996094 7.136719 11.179688 C 7.203125 11.367188 7.289062 11.566406 7.402344 11.785156 C 7.445312 11.855469 7.460938 11.921875 7.460938 11.980469 C 7.460938 12.0625 7.410156 12.148438 7.304688 12.230469 L 6.78125 12.585938 C 6.707031 12.632812 6.628906 12.660156 6.5625 12.660156 C 6.480469 12.660156 6.398438 12.617188 6.316406 12.542969 C 6.199219 12.414062 6.097656 12.28125 6.015625 12.148438 C 5.933594 12.003906 5.847656 11.84375 5.757812 11.652344 C 5.109375 12.425781 4.292969 12.8125 3.3125 12.8125 C 2.613281 12.8125 2.054688 12.609375 1.648438 12.207031 C 1.242188 11.804688 1.035156 11.265625 1.035156 10.59375 C 1.035156 9.878906 1.285156 9.300781 1.789062 8.863281 C 2.296875 8.429688 2.972656 8.210938 3.828125 8.210938 C 4.109375 8.210938 4.402344 8.234375 4.710938 8.277344 C 5.015625 8.320312 5.332031 8.386719 5.664062 8.460938 L 5.664062 7.847656 C 5.664062 7.210938 5.53125 6.765625 5.273438 6.503906 C 5.007812 6.242188 4.558594 6.117188 3.921875 6.117188 C 3.628906 6.117188 3.328125 6.152344 3.023438 6.226562 C 2.714844 6.300781 2.414062 6.394531 2.125 6.511719 C 1.992188 6.570312 1.890625 6.605469 1.832031 6.621094 C 1.773438 6.640625 1.734375 6.648438 1.699219 6.648438 C 1.582031 6.648438 1.527344 6.5625 1.527344 6.386719 L 1.527344 5.976562 C 1.527344 5.839844 1.542969 5.742188 1.582031 5.679688 C 1.625 5.621094 1.699219 5.5625 1.816406 5.503906 C 2.109375 5.355469 2.457031 5.226562 2.863281 5.125 C 3.273438 5.015625 3.703125 4.96875 4.160156 4.96875 C 5.152344 4.96875 5.875 5.195312 6.339844 5.648438 C 6.796875 6.101562 7.03125 6.789062 7.03125 7.714844 L 7.03125 10.433594 Z M 3.667969 11.710938 C 3.945312 11.710938 4.226562 11.660156 4.527344 11.558594 C 4.824219 11.457031 5.089844 11.273438 5.316406 11.023438 C 5.449219 10.863281 5.546875 10.6875 5.597656 10.484375 C 5.648438 10.28125 5.683594 10.039062 5.683594 9.753906 L 5.683594 9.402344 C 5.441406 9.34375 5.183594 9.292969 4.917969 9.257812 C 4.652344 9.226562 4.394531 9.207031 4.136719 9.207031 C 3.578125 9.207031 3.171875 9.316406 2.894531 9.542969 C 2.621094 9.769531 2.488281 10.089844 2.488281 10.507812 C 2.488281 10.902344 2.589844 11.199219 2.796875 11.398438 C 2.996094 11.609375 3.289062 11.710938 3.667969 11.710938 Z M 10.347656 12.617188 C 10.195312 12.617188 10.097656 12.59375 10.03125 12.535156 C 9.964844 12.484375 9.90625 12.367188 9.855469 12.207031 L 7.902344 5.714844 C 7.851562 5.546875 7.828125 5.4375 7.828125 5.378906 C 7.828125 5.246094 7.894531 5.167969 8.027344 5.167969 L 8.839844 5.167969 C 9 5.167969 9.109375 5.195312 9.164062 5.253906 C 9.234375 5.304688 9.28125 5.421875 9.332031 5.582031 L 10.730469 11.140625 L 12.027344 5.582031 C 12.066406 5.414062 12.117188 5.304688 12.183594 5.253906 C 12.25 5.203125 12.367188 5.167969 12.515625 5.167969 L 13.179688 5.167969 C 13.339844 5.167969 13.449219 5.195312 13.515625 5.253906 C 13.582031 5.304688 13.640625 5.421875 13.671875 5.582031 L 14.984375 11.207031 L 16.425781 5.582031 C 16.476562 5.414062 16.53125 5.304688 16.589844 5.253906 C 16.65625 5.203125 16.765625 5.167969 16.914062 5.167969 L 17.6875 5.167969 C 17.820312 5.167969 17.898438 5.234375 17.898438 5.378906 C 17.898438 5.421875 17.886719 5.460938 17.878906 5.511719 C 17.871094 5.5625 17.855469 5.632812 17.820312 5.722656 L 15.816406 12.214844 C 15.769531 12.382812 15.710938 12.492188 15.644531 12.542969 C 15.578125 12.59375 15.46875 12.625 15.328125 12.625 L 14.613281 12.625 C 14.453125 12.625 14.347656 12.601562 14.28125 12.542969 C 14.210938 12.484375 14.15625 12.375 14.121094 12.207031 L 12.832031 6.789062 L 11.550781 12.199219 C 11.511719 12.367188 11.460938 12.476562 11.394531 12.535156 C 11.328125 12.59375 11.210938 12.617188 11.0625 12.617188 Z M 21.03125 12.84375 C 20.597656 12.84375 20.167969 12.792969 19.75 12.691406 C 19.335938 12.59375 19.011719 12.484375 18.792969 12.355469 C 18.660156 12.28125 18.570312 12.199219 18.535156 12.121094 C 18.503906 12.046875 18.488281 11.960938 18.488281 11.886719 L 18.488281 11.460938 C 18.488281 11.28125 18.554688 11.199219 18.675781 11.199219 C 18.726562 11.199219 18.777344 11.207031 18.828125 11.222656 C 18.878906 11.242188 18.953125 11.273438 19.035156 11.308594 C 19.316406 11.433594 19.625 11.535156 19.949219 11.601562 C 20.28125 11.667969 20.605469 11.703125 20.9375 11.703125 C 21.460938 11.703125 21.871094 11.609375 22.152344 11.425781 C 22.4375 11.238281 22.585938 10.972656 22.585938 10.625 C 22.585938 10.390625 22.511719 10.199219 22.359375 10.039062 C 22.210938 9.878906 21.929688 9.738281 21.519531 9.601562 L 20.316406 9.222656 C 19.707031 9.03125 19.257812 8.746094 18.984375 8.367188 C 18.710938 8 18.570312 7.585938 18.570312 7.148438 C 18.570312 6.796875 18.644531 6.488281 18.792969 6.21875 C 18.945312 5.949219 19.144531 5.714844 19.394531 5.527344 C 19.640625 5.335938 19.925781 5.191406 20.257812 5.09375 C 20.589844 4.992188 20.9375 4.949219 21.304688 4.949219 C 21.488281 4.949219 21.679688 4.957031 21.863281 4.984375 C 22.054688 5.007812 22.226562 5.042969 22.402344 5.074219 C 22.570312 5.117188 22.726562 5.160156 22.878906 5.210938 C 23.027344 5.261719 23.144531 5.3125 23.226562 5.363281 C 23.34375 5.429688 23.425781 5.496094 23.476562 5.570312 C 23.527344 5.636719 23.550781 5.730469 23.550781 5.847656 L 23.550781 6.242188 C 23.550781 6.417969 23.484375 6.511719 23.359375 6.511719 C 23.292969 6.511719 23.1875 6.480469 23.042969 6.410156 C 22.570312 6.191406 22.039062 6.082031 21.449219 6.082031 C 20.972656 6.082031 20.601562 6.160156 20.34375 6.320312 C 20.085938 6.476562 19.953125 6.722656 19.953125 7.066406 C 19.953125 7.300781 20.035156 7.503906 20.203125 7.664062 C 20.367188 7.820312 20.675781 7.980469 21.117188 8.125 L 22.296875 8.503906 C 22.894531 8.695312 23.328125 8.964844 23.585938 9.308594 C 23.84375 9.652344 23.96875 10.046875 23.96875 10.484375 C 23.96875 10.84375 23.890625 11.171875 23.75 11.457031 C 23.601562 11.742188 23.402344 11.996094 23.144531 12.195312 C 22.886719 12.40625 22.578125 12.558594 22.222656 12.667969 C 21.84375 12.785156 21.453125 12.84375 21.03125 12.84375 Z M 21.03125 12.84375 "/>
    <path style=" stroke:none;fill-rule:nonzero;fill:url(#linear1);" d="M 22.601562 16.925781 C 19.867188 18.964844 15.890625 20.050781 12.476562 20.050781 C 7.6875 20.050781 3.371094 18.261719 0.109375 15.289062 C -0.148438 15.054688 0.0859375 14.734375 0.394531 14.917969 C 3.917969 16.984375 8.269531 18.234375 12.765625 18.234375 C 15.800781 18.234375 19.136719 17.597656 22.203125 16.289062 C 22.660156 16.078125 23.050781 16.589844 22.601562 16.925781 Z M 23.742188 15.617188 C 23.390625 15.164062 21.429688 15.398438 20.539062 15.507812 C 20.273438 15.539062 20.234375 15.304688 20.472656 15.128906 C 22.035156 14.019531 24.605469 14.339844 24.90625 14.707031 C 25.203125 15.085938 24.820312 17.679688 23.359375 18.921875 C 23.132812 19.117188 22.917969 19.015625 23.015625 18.765625 C 23.351562 17.933594 24.089844 16.0625 23.742188 15.617188 Z M 23.742188 15.617188 "/>
  </g>
</svg>
