<?xml version="1.0" encoding="UTF-8"?>
<svg xmlns="http://www.w3.org/2000/svg" xmlns:xlink="http://www.w3.org/1999/xlink" width="18px" height="22px" viewBox="0 0 18 21" version="1.1">
<g id="surface1">
<path style=" stroke:none;fill-rule:nonzero;fill:rgb(71.764706%,79.215686%,61.568627%);fill-opacity:1;" d="M 1.160156 14.507812 L 1.3125 14.671875 L 9.039062 16.769531 L 9.074219 15.46875 L 3.664062 14.171875 L 3.398438 14.078125 Z M 1.160156 14.507812 "/>
<path style=" stroke:none;fill-rule:nonzero;fill:rgb(71.764706%,79.215686%,61.568627%);fill-opacity:1;" d="M 16.839844 14.507812 L 8.945312 17.027344 L 8.921875 15.46875 L 14.335938 14.171875 L 14.570312 13.914062 Z M 16.839844 14.507812 "/>
<path style=" stroke:none;fill-rule:nonzero;fill:rgb(23.529412%,28.627451%,16.078431%);fill-opacity:1;" d="M 8.921875 5.597656 L 14.335938 6.804688 L 16.71875 6.695312 L 16.839844 6.46875 L 9.296875 3.871094 Z M 8.921875 5.597656 "/>
<path style=" stroke:none;fill-rule:nonzero;fill:rgb(45.882353%,61.176471%,24.313725%);fill-opacity:1;" d="M 3.664062 14.171875 L 1.160156 14.507812 L 1.089844 14.257812 L 1.089844 6.730469 L 1.160156 6.46875 L 3.421875 6.628906 L 3.664062 6.804688 Z M 3.664062 14.171875 "/>
<path style=" stroke:none;fill-rule:nonzero;fill:rgb(23.529412%,28.627451%,16.078431%);fill-opacity:1;" d="M 9.074219 5.597656 L 3.664062 6.804688 L 1.160156 6.46875 L 1.253906 6.328125 L 9.039062 4.207031 Z M 9.074219 5.597656 "/>
<path style=" stroke:none;fill-rule:nonzero;fill:rgb(29.411765%,38.039216%,17.254902%);fill-opacity:1;" d="M 8.988281 0 L 0 4.34375 L 0.00390625 16.632812 L 8.988281 20.976562 L 9.125 20.78125 L 9.125 0.253906 Z M 6.359375 16 L 1.160156 14.507812 L 1.160156 6.46875 L 6.359375 4.976562 Z M 6.359375 16 "/>
<path style=" stroke:none;fill-rule:nonzero;fill:rgb(29.411765%,38.039216%,17.254902%);fill-opacity:1;" d="M 14.335938 14.171875 L 16.839844 14.507812 L 16.980469 14.269531 L 16.980469 6.695312 L 16.839844 6.46875 L 14.335938 6.804688 Z M 14.335938 14.171875 "/>
<path style=" stroke:none;fill-rule:nonzero;fill:rgb(45.882353%,61.176471%,24.313725%);fill-opacity:1;" d="M 8.988281 20.976562 L 17.996094 16.636719 L 18 4.34375 L 8.988281 0 Z M 11.640625 4.976562 L 16.839844 6.46875 L 16.839844 14.507812 L 11.640625 16 Z M 11.640625 4.976562 "/>
</g>
</svg>
