<?xml version="1.0" encoding="UTF-8"?>
<svg xmlns="http://www.w3.org/2000/svg" xmlns:xlink="http://www.w3.org/1999/xlink" width="20px" height="20px" viewBox="0 0 20 20" version="1.1">
<g id="surface1">
<path style=" stroke:none;fill-rule:nonzero;fill:rgb(0%,0%,0%);fill-opacity:1;" d="M 9.152344 11.53125 C 9.042969 11.53125 8.9375 11.484375 8.859375 11.410156 L 8.238281 10.789062 C 8.128906 10.683594 8.085938 10.53125 8.125 10.382812 C 8.160156 10.238281 8.277344 10.125 8.421875 10.085938 C 8.566406 10.046875 8.722656 10.089844 8.828125 10.199219 L 9.152344 10.523438 L 10.136719 9.542969 C 10.300781 9.378906 10.5625 9.378906 10.726562 9.542969 C 10.890625 9.703125 10.890625 9.96875 10.726562 10.128906 L 9.449219 11.410156 C 9.371094 11.484375 9.265625 11.53125 9.152344 11.53125 Z M 16.949219 11.40625 L 18.226562 10.128906 C 18.382812 9.96875 18.382812 9.707031 18.222656 9.546875 C 18.058594 9.386719 17.800781 9.382812 17.636719 9.542969 L 16.652344 10.523438 L 16.324219 10.199219 C 16.222656 10.089844 16.066406 10.046875 15.921875 10.085938 C 15.773438 10.125 15.660156 10.238281 15.625 10.382812 C 15.585938 10.53125 15.628906 10.683594 15.738281 10.789062 L 16.359375 11.410156 C 16.4375 11.488281 16.542969 11.53125 16.652344 11.53125 C 16.765625 11.53125 16.871094 11.484375 16.949219 11.40625 Z M 3.773438 6.210938 L 5.902344 4.890625 C 6.148438 4.738281 6.296875 4.472656 6.296875 4.183594 C 6.300781 3.894531 6.152344 3.628906 5.910156 3.476562 L 3.777344 2.132812 C 3.519531 1.972656 3.195312 1.960938 2.929688 2.109375 C 2.664062 2.253906 2.5 2.535156 2.5 2.839844 L 2.5 5.5 C 2.5 5.804688 2.664062 6.082031 2.929688 6.230469 C 3.191406 6.375 3.515625 6.367188 3.773438 6.210938 Z M 5.464844 4.179688 L 3.332031 5.5 L 3.332031 2.839844 Z M 20 10.417969 C 20 12.023438 18.691406 13.332031 17.082031 13.332031 C 15.636719 13.332031 14.40625 12.265625 14.199219 10.832031 L 12.464844 10.832031 C 12.257812 12.265625 11.03125 13.332031 9.582031 13.332031 C 8.136719 13.332031 6.90625 12.265625 6.699219 10.832031 L 6.234375 10.832031 C 5.425781 10.832031 4.691406 10.5 4.167969 9.964844 L 4.167969 14.167969 C 4.167969 15.546875 5.289062 16.667969 6.667969 16.667969 L 6.699219 16.667969 C 6.902344 15.253906 8.117188 14.167969 9.582031 14.167969 C 11.191406 14.167969 12.5 15.476562 12.5 17.082031 C 12.5 18.691406 11.191406 20 9.582031 20 C 8.136719 19.996094 6.90625 18.933594 6.699219 17.5 L 6.667969 17.5 C 4.828125 17.5 3.332031 16.003906 3.332031 14.167969 L 3.332031 8.25 C 1.394531 7.851562 0.00390625 6.144531 0 4.167969 C 0 1.871094 1.871094 0 4.167969 0 C 6.464844 0 8.332031 1.871094 8.332031 4.167969 C 8.332031 6.449219 6.492188 8.308594 4.207031 8.332031 C 4.398438 9.300781 5.246094 10 6.234375 10 L 6.699219 10 C 6.902344 8.589844 8.117188 7.5 9.582031 7.5 C 11.03125 7.503906 12.257812 8.566406 12.464844 10 L 14.199219 10 C 14.40625 8.566406 15.636719 7.503906 17.082031 7.5 C 18.691406 7.5 20 8.808594 20 10.417969 Z M 7.5 17.082031 C 7.5 18.230469 8.433594 19.167969 9.582031 19.167969 C 10.730469 19.167969 11.667969 18.230469 11.667969 17.082031 C 11.667969 15.933594 10.730469 15 9.582031 15 C 8.433594 15 7.5 15.933594 7.5 17.082031 Z M 4.167969 7.5 C 6.003906 7.5 7.5 6.003906 7.5 4.167969 C 7.5 2.328125 6.003906 0.832031 4.167969 0.832031 C 2.328125 0.832031 0.832031 2.328125 0.832031 4.167969 C 0.832031 6.003906 2.328125 7.5 4.167969 7.5 Z M 11.667969 10.417969 C 11.667969 9.269531 10.730469 8.332031 9.582031 8.332031 C 8.433594 8.332031 7.5 9.269531 7.5 10.417969 C 7.5 11.566406 8.433594 12.5 9.582031 12.5 C 10.730469 12.5 11.667969 11.566406 11.667969 10.417969 Z M 19.167969 10.417969 C 19.167969 9.269531 18.230469 8.332031 17.082031 8.332031 C 15.933594 8.332031 15 9.269531 15 10.417969 C 15 11.566406 15.933594 12.5 17.082031 12.5 C 18.230469 12.5 19.167969 11.566406 19.167969 10.417969 Z M 8.332031 17.082031 C 8.332031 17.3125 8.519531 17.5 8.75 17.5 C 8.980469 17.5 9.167969 17.3125 9.167969 17.082031 C 9.167969 16.851562 8.980469 16.667969 8.75 16.667969 C 8.519531 16.667969 8.332031 16.851562 8.332031 17.082031 Z M 10 17.082031 C 10 17.3125 10.1875 17.5 10.417969 17.5 C 10.648438 17.5 10.832031 17.3125 10.832031 17.082031 C 10.832031 16.851562 10.648438 16.667969 10.417969 16.667969 C 10.1875 16.667969 10 16.851562 10 17.082031 Z M 20 17.082031 C 20 18.691406 18.691406 20 17.082031 20 C 15.632812 19.996094 14.40625 18.933594 14.199219 17.5 C 14.195312 17.5 14.1875 17.503906 14.183594 17.503906 L 13.761719 17.515625 L 13.746094 17.515625 C 13.523438 17.511719 13.34375 17.332031 13.339844 17.105469 C 13.335938 16.882812 13.511719 16.695312 13.734375 16.683594 L 14.15625 16.671875 C 14.171875 16.667969 14.183594 16.675781 14.199219 16.675781 C 14.402344 15.238281 15.632812 14.167969 17.082031 14.167969 C 18.691406 14.167969 20 15.476562 20 17.082031 Z M 19.167969 17.082031 C 19.167969 15.933594 18.230469 15 17.082031 15 C 15.933594 15 15 15.933594 15 17.082031 C 15 18.230469 15.933594 19.167969 17.082031 19.167969 C 18.230469 19.167969 19.167969 18.230469 19.167969 17.082031 Z M 19.167969 17.082031 "/>
</g>
</svg>
