<?xml version="1.0" encoding="UTF-8"?>
<svg xmlns="http://www.w3.org/2000/svg" xmlns:xlink="http://www.w3.org/1999/xlink" width="17px" height="20px" viewBox="0 0 17 19" version="1.1">
<defs>
<linearGradient id="linear0" gradientUnits="userSpaceOnUse" x1="0.821791" y1="0.0603161" x2="0.346135" y2="1.061349" gradientTransform="matrix(13.300781,0,0,13.96875,1.457031,0)">
<stop offset="0" style="stop-color:rgb(16.862745%,22.352941%,56.470588%);stop-opacity:1;"/>
<stop offset="0.16" style="stop-color:rgb(11.764706%,38.431373%,65.490196%);stop-opacity:1;"/>
<stop offset="0.32" style="stop-color:rgb(7.843137%,52.156863%,73.72549%);stop-opacity:1;"/>
<stop offset="0.49" style="stop-color:rgb(4.313725%,63.137255%,80%);stop-opacity:1;"/>
<stop offset="0.66" style="stop-color:rgb(1.960784%,70.588235%,84.313725%);stop-opacity:1;"/>
<stop offset="0.83" style="stop-color:rgb(0.392157%,75.294118%,87.058824%);stop-opacity:1;"/>
<stop offset="1" style="stop-color:rgb(0%,76.862745%,87.843137%);stop-opacity:1;"/>
</linearGradient>
<linearGradient id="linear1" gradientUnits="userSpaceOnUse" x1="-316.68" y1="789.54" x2="-198.06" y2="789.54" gradientTransform="matrix(7.53125,0,0,8.535156,4.492188,3.390625)">
<stop offset="0" style="stop-color:rgb(16.862745%,22.352941%,56.470588%);stop-opacity:1;"/>
<stop offset="0.16" style="stop-color:rgb(11.764706%,38.431373%,65.490196%);stop-opacity:1;"/>
<stop offset="0.32" style="stop-color:rgb(7.843137%,52.156863%,73.72549%);stop-opacity:1;"/>
<stop offset="0.49" style="stop-color:rgb(4.313725%,63.137255%,80%);stop-opacity:1;"/>
<stop offset="0.66" style="stop-color:rgb(1.960784%,70.588235%,84.313725%);stop-opacity:1;"/>
<stop offset="0.83" style="stop-color:rgb(0.392157%,75.294118%,87.058824%);stop-opacity:1;"/>
<stop offset="1" style="stop-color:rgb(0%,76.862745%,87.843137%);stop-opacity:1;"/>
</linearGradient>
</defs>
<g id="surface1">
<path style=" stroke:none;fill-rule:nonzero;fill:url(#linear0);" d="M 1.457031 13.96875 C 8.023438 14.59375 13.292969 10.851562 14.609375 9.25 C 15.921875 7.648438 13.929688 0 13.929688 0 C 11.769531 5.113281 7.839844 12.867188 1.457031 13.96875 Z M 1.457031 13.96875 "/>
<path style=" stroke:none;fill-rule:nonzero;fill:url(#linear1);" d="M 4.492188 11.925781 C 8.367188 12.0625 11.3125 9.71875 12.023438 8.746094 C 12.734375 7.773438 11.644531 3.390625 11.644531 3.390625 C 10.570312 6.425781 7.574219 10.847656 4.492188 11.925781 Z M 4.492188 11.925781 "/>
<path style=" stroke:none;fill-rule:nonzero;fill:rgb(7.843137%,61.176471%,70.980392%);fill-opacity:1;" d="M 0.253906 17.269531 C 0.371094 17.386719 0.515625 17.484375 0.671875 17.554688 C 0.828125 17.625 1 17.664062 1.175781 17.664062 C 1.359375 17.675781 1.539062 17.625 1.6875 17.519531 C 1.808594 17.429688 1.878906 17.292969 1.871094 17.148438 C 1.875 17.078125 1.859375 17.007812 1.828125 16.941406 C 1.800781 16.886719 1.761719 16.835938 1.710938 16.796875 C 1.660156 16.753906 1.601562 16.71875 1.535156 16.6875 L 1.320312 16.589844 L 0.839844 16.390625 C 0.757812 16.355469 0.679688 16.316406 0.601562 16.273438 C 0.523438 16.230469 0.449219 16.175781 0.382812 16.109375 C 0.316406 16.042969 0.265625 15.96875 0.226562 15.882812 C 0.136719 15.675781 0.144531 15.445312 0.242188 15.242188 C 0.296875 15.140625 0.371094 15.050781 0.460938 14.976562 C 0.558594 14.898438 0.671875 14.839844 0.792969 14.800781 C 0.929688 14.757812 1.070312 14.738281 1.210938 14.738281 C 1.402344 14.738281 1.589844 14.773438 1.765625 14.847656 C 1.925781 14.914062 2.074219 15.011719 2.195312 15.128906 L 1.96875 15.390625 C 1.871094 15.300781 1.753906 15.226562 1.628906 15.171875 C 1.496094 15.117188 1.351562 15.089844 1.210938 15.09375 C 1.046875 15.085938 0.890625 15.128906 0.757812 15.214844 C 0.644531 15.296875 0.582031 15.421875 0.585938 15.554688 C 0.585938 15.625 0.601562 15.691406 0.636719 15.75 C 0.671875 15.804688 0.714844 15.851562 0.769531 15.886719 C 0.824219 15.929688 0.882812 15.964844 0.945312 15.992188 C 1.011719 16.023438 1.078125 16.050781 1.144531 16.078125 L 1.621094 16.273438 C 1.714844 16.3125 1.804688 16.355469 1.890625 16.40625 C 1.972656 16.453125 2.046875 16.511719 2.109375 16.578125 C 2.171875 16.648438 2.21875 16.726562 2.253906 16.8125 C 2.292969 16.910156 2.308594 17.011719 2.308594 17.117188 C 2.308594 17.238281 2.28125 17.355469 2.226562 17.464844 C 2.175781 17.574219 2.097656 17.671875 2 17.75 C 1.894531 17.835938 1.773438 17.902344 1.644531 17.945312 C 1.492188 17.992188 1.332031 18.015625 1.171875 18.015625 C 0.730469 18.019531 0.304688 17.847656 0 17.546875 Z M 0.253906 17.269531 "/>
<path style=" stroke:none;fill-rule:nonzero;fill:rgb(7.843137%,61.176471%,70.980392%);fill-opacity:1;" d="M 2.707031 18.160156 L 2.707031 18.949219 L 2.308594 18.949219 L 2.308594 15.617188 L 2.636719 15.617188 L 2.671875 15.886719 L 2.6875 15.886719 C 2.792969 15.796875 2.914062 15.71875 3.039062 15.65625 C 3.164062 15.589844 3.300781 15.558594 3.4375 15.558594 C 3.578125 15.554688 3.71875 15.585938 3.84375 15.644531 C 3.957031 15.699219 4.058594 15.785156 4.136719 15.886719 C 4.214844 16 4.277344 16.128906 4.3125 16.261719 C 4.351562 16.425781 4.375 16.589844 4.371094 16.757812 C 4.375 16.9375 4.347656 17.117188 4.289062 17.289062 C 4.238281 17.4375 4.164062 17.570312 4.066406 17.6875 C 3.976562 17.792969 3.863281 17.878906 3.738281 17.9375 C 3.617188 17.992188 3.484375 18.023438 3.351562 18.023438 C 3.238281 18.023438 3.125 18 3.023438 17.953125 C 2.90625 17.898438 2.796875 17.832031 2.695312 17.753906 Z M 2.707031 17.441406 C 2.796875 17.519531 2.902344 17.585938 3.019531 17.632812 C 3.101562 17.664062 3.191406 17.683594 3.28125 17.6875 C 3.375 17.6875 3.46875 17.664062 3.550781 17.621094 C 3.636719 17.578125 3.707031 17.515625 3.765625 17.4375 C 3.832031 17.351562 3.878906 17.25 3.90625 17.144531 C 3.941406 17.019531 3.960938 16.886719 3.957031 16.753906 C 3.957031 16.636719 3.945312 16.523438 3.921875 16.40625 C 3.90625 16.308594 3.867188 16.21875 3.8125 16.132812 C 3.765625 16.0625 3.699219 16 3.617188 15.960938 C 3.53125 15.917969 3.433594 15.894531 3.335938 15.898438 C 3.226562 15.898438 3.125 15.925781 3.03125 15.980469 C 2.914062 16.046875 2.804688 16.125 2.703125 16.214844 Z M 2.707031 17.441406 "/>
<path style=" stroke:none;fill-rule:nonzero;fill:rgb(7.843137%,61.176471%,70.980392%);fill-opacity:1;" d="M 4.796875 15.125 C 4.71875 15.125 4.640625 15.101562 4.582031 15.054688 C 4.523438 15.007812 4.492188 14.941406 4.492188 14.871094 C 4.492188 14.804688 4.523438 14.738281 4.582031 14.691406 C 4.707031 14.597656 4.886719 14.597656 5.011719 14.691406 C 5.066406 14.738281 5.101562 14.804688 5.101562 14.871094 C 5.101562 14.941406 5.066406 15.007812 5.011719 15.054688 C 4.953125 15.101562 4.875 15.125 4.796875 15.125 Z M 4.574219 15.597656 L 5.011719 15.597656 L 5.011719 17.898438 L 4.574219 17.898438 Z M 4.574219 15.597656 "/>
<path style=" stroke:none;fill-rule:nonzero;fill:rgb(7.843137%,61.176471%,70.980392%);fill-opacity:1;" d="M 5.34375 15.613281 L 5.683594 15.613281 L 5.71875 15.941406 L 5.734375 15.941406 C 5.84375 15.839844 5.964844 15.746094 6.097656 15.667969 C 6.234375 15.59375 6.390625 15.554688 6.546875 15.558594 C 6.800781 15.558594 6.988281 15.632812 7.105469 15.785156 C 7.222656 15.933594 7.285156 16.15625 7.285156 16.449219 L 7.285156 17.898438 L 6.878906 17.898438 L 6.878906 16.503906 C 6.878906 16.285156 6.839844 16.132812 6.769531 16.035156 C 6.6875 15.9375 6.554688 15.882812 6.421875 15.890625 C 6.304688 15.890625 6.1875 15.921875 6.089844 15.980469 C 5.96875 16.058594 5.859375 16.148438 5.761719 16.246094 L 5.761719 17.898438 L 5.351562 17.898438 Z M 5.34375 15.613281 "/>
<path style=" stroke:none;fill-rule:nonzero;fill:rgb(7.843137%,61.176471%,70.980392%);fill-opacity:1;" d="M 7.527344 15.613281 L 7.867188 15.613281 L 7.902344 15.941406 L 7.917969 15.941406 C 8.027344 15.839844 8.148438 15.746094 8.28125 15.667969 C 8.417969 15.59375 8.574219 15.554688 8.730469 15.558594 C 8.988281 15.558594 9.175781 15.632812 9.292969 15.785156 C 9.410156 15.933594 9.46875 16.15625 9.472656 16.449219 L 9.472656 17.898438 L 9.054688 17.898438 L 9.054688 16.503906 C 9.054688 16.285156 9.019531 16.132812 8.945312 16.035156 C 8.863281 15.9375 8.730469 15.882812 8.597656 15.890625 C 8.480469 15.890625 8.363281 15.921875 8.265625 15.980469 C 8.144531 16.058594 8.035156 16.148438 7.933594 16.246094 L 7.933594 17.898438 L 7.527344 17.898438 Z M 7.527344 15.613281 "/>
<path style=" stroke:none;fill-rule:nonzero;fill:rgb(7.843137%,61.176471%,70.980392%);fill-opacity:1;" d="M 9.714844 17.347656 C 9.710938 17.101562 9.851562 16.875 10.082031 16.757812 C 10.328125 16.621094 10.710938 16.527344 11.238281 16.472656 C 11.238281 16.398438 11.230469 16.328125 11.214844 16.257812 C 11.203125 16.1875 11.171875 16.125 11.132812 16.070312 C 11.09375 16.011719 11.039062 15.96875 10.980469 15.9375 C 10.902344 15.898438 10.816406 15.882812 10.730469 15.886719 C 10.589844 15.882812 10.453125 15.910156 10.324219 15.964844 C 10.207031 16.011719 10.097656 16.070312 9.992188 16.136719 L 9.824219 15.863281 C 9.957031 15.78125 10.097656 15.714844 10.246094 15.65625 C 10.421875 15.589844 10.609375 15.554688 10.796875 15.558594 C 11.097656 15.558594 11.316406 15.644531 11.453125 15.820312 C 11.597656 16.027344 11.667969 16.269531 11.65625 16.519531 L 11.65625 17.957031 L 11.308594 17.957031 L 11.273438 17.675781 L 11.265625 17.675781 C 11.144531 17.769531 11.015625 17.851562 10.878906 17.914062 C 10.746094 17.980469 10.597656 18.015625 10.445312 18.015625 C 10.253906 18.019531 10.070312 17.957031 9.925781 17.839844 C 9.78125 17.714844 9.703125 17.535156 9.714844 17.347656 Z M 10.128906 17.320312 C 10.117188 17.429688 10.164062 17.539062 10.25 17.609375 C 10.339844 17.671875 10.449219 17.699219 10.558594 17.695312 C 10.675781 17.695312 10.792969 17.667969 10.898438 17.617188 C 11.019531 17.554688 11.132812 17.476562 11.234375 17.382812 L 11.234375 16.734375 C 11.058594 16.753906 10.882812 16.785156 10.710938 16.824219 C 10.59375 16.851562 10.476562 16.894531 10.367188 16.949219 C 10.292969 16.988281 10.230469 17.046875 10.1875 17.117188 C 10.148438 17.179688 10.128906 17.25 10.128906 17.320312 Z M 10.128906 17.320312 "/>
<path style=" stroke:none;fill-rule:nonzero;fill:rgb(7.843137%,61.176471%,70.980392%);fill-opacity:1;" d="M 11.777344 14.503906 L 12.191406 14.503906 L 12.191406 16.800781 L 12.207031 16.800781 L 13.265625 15.582031 L 13.722656 15.582031 L 12.894531 16.511719 L 13.84375 17.898438 L 13.382812 17.898438 L 12.65625 16.78125 L 12.199219 17.285156 L 12.199219 17.894531 L 11.785156 17.894531 Z M 11.777344 14.503906 "/>
<path style=" stroke:none;fill-rule:nonzero;fill:rgb(7.843137%,61.176471%,70.980392%);fill-opacity:1;" d="M 13.480469 16.796875 C 13.476562 16.617188 13.503906 16.441406 13.570312 16.277344 C 13.625 16.132812 13.707031 16 13.816406 15.886719 C 13.914062 15.785156 14.03125 15.703125 14.164062 15.644531 C 14.292969 15.589844 14.429688 15.558594 14.570312 15.558594 C 14.710938 15.554688 14.851562 15.582031 14.984375 15.636719 C 15.101562 15.683594 15.207031 15.761719 15.289062 15.855469 C 15.375 15.960938 15.4375 16.078125 15.476562 16.203125 C 15.523438 16.351562 15.542969 16.503906 15.542969 16.65625 C 15.542969 16.730469 15.539062 16.800781 15.527344 16.871094 L 13.886719 16.871094 C 13.890625 17.09375 13.976562 17.308594 14.132812 17.472656 C 14.277344 17.625 14.488281 17.703125 14.699219 17.695312 C 14.8125 17.695312 14.921875 17.679688 15.023438 17.644531 C 15.125 17.613281 15.21875 17.566406 15.308594 17.511719 L 15.453125 17.773438 C 15.339844 17.839844 15.222656 17.898438 15.097656 17.941406 C 14.953125 17.992188 14.800781 18.015625 14.652344 18.015625 C 14.492188 18.015625 14.335938 17.984375 14.191406 17.929688 C 14.050781 17.875 13.925781 17.792969 13.820312 17.6875 C 13.710938 17.578125 13.628906 17.445312 13.574219 17.304688 C 13.511719 17.140625 13.476562 16.96875 13.480469 16.796875 Z M 15.183594 16.617188 C 15.183594 16.378906 15.132812 16.195312 15.027344 16.066406 C 14.917969 15.9375 14.753906 15.867188 14.582031 15.878906 C 14.496094 15.875 14.410156 15.894531 14.332031 15.925781 C 14.253906 15.960938 14.179688 16.011719 14.121094 16.070312 C 14.054688 16.140625 14 16.21875 13.960938 16.300781 C 13.917969 16.402344 13.890625 16.507812 13.878906 16.617188 Z M 15.183594 16.617188 "/>
<path style=" stroke:none;fill-rule:nonzero;fill:rgb(7.843137%,61.176471%,70.980392%);fill-opacity:1;" d="M 15.664062 15.609375 L 16.003906 15.609375 L 16.039062 16.023438 L 16.054688 16.023438 C 16.128906 15.894531 16.230469 15.777344 16.355469 15.6875 C 16.464844 15.601562 16.601562 15.558594 16.742188 15.558594 C 16.828125 15.558594 16.917969 15.574219 17 15.605469 L 16.921875 15.945312 C 16.882812 15.933594 16.847656 15.925781 16.808594 15.917969 C 16.769531 15.910156 16.726562 15.90625 16.6875 15.90625 C 16.566406 15.914062 16.453125 15.953125 16.363281 16.023438 C 16.230469 16.132812 16.128906 16.277344 16.074219 16.433594 L 16.074219 17.898438 L 15.664062 17.898438 Z M 15.664062 15.609375 "/>
</g>
</svg>
