<?xml version="1.0" encoding="UTF-8"?>
<svg xmlns="http://www.w3.org/2000/svg" xmlns:xlink="http://www.w3.org/1999/xlink" width="20px" height="20px" viewBox="0 0 20 20" version="1.1">
<g id="surface1">
<path style=" stroke:none;fill-rule:nonzero;fill:rgb(12.941176%,10.980392%,9.803922%);fill-opacity:1;" d="M 6.875 5 C 8.007812 5 9.144531 5 10.3125 5 C 10.3125 6.390625 10.3125 7.785156 10.3125 9.21875 C 12.683594 9.21875 15.054688 9.21875 17.5 9.21875 C 17.5 10.867188 17.5 12.519531 17.5 14.21875 C 18.171875 14.21875 18.839844 14.21875 19.53125 14.21875 C 19.53125 15.714844 19.53125 17.210938 19.53125 18.75 C 18.417969 18.753906 18.417969 18.753906 17.285156 18.757812 C 17.050781 18.761719 16.816406 18.761719 16.578125 18.765625 C 16.394531 18.765625 16.210938 18.765625 16.023438 18.765625 C 15.832031 18.765625 15.644531 18.765625 15.453125 18.769531 C 15 18.75 15 18.75 14.6875 18.59375 C 14.6875 17.203125 14.6875 15.808594 14.6875 14.375 C 15.15625 14.21875 15.15625 14.21875 17.1875 14.21875 C 17.1875 12.828125 17.1875 11.433594 17.1875 10 C 14.816406 10 12.445312 10 10 10 C 9.871094 9.488281 9.824219 9.144531 9.828125 8.628906 C 9.828125 8.492188 9.828125 8.351562 9.828125 8.210938 C 9.832031 8.066406 9.832031 7.921875 9.835938 7.773438 C 9.835938 7.628906 9.835938 7.480469 9.835938 7.332031 C 9.839844 6.96875 9.839844 6.609375 9.84375 6.25 C 8.863281 6.199219 7.882812 6.148438 6.875 6.09375 C 6.71875 5.46875 6.71875 5.46875 6.875 5 Z M 6.875 5 "/>
<path style=" stroke:none;fill-rule:nonzero;fill:rgb(11.764706%,10.980392%,10.196078%);fill-opacity:1;" d="M 0.46875 1.25 C 1.210938 1.246094 1.953125 1.242188 2.714844 1.242188 C 2.949219 1.238281 3.183594 1.238281 3.421875 1.234375 C 3.605469 1.234375 3.789062 1.234375 3.976562 1.234375 C 4.167969 1.234375 4.355469 1.234375 4.546875 1.230469 C 5 1.25 5 1.25 5.3125 1.40625 C 5.3125 2.796875 5.3125 4.191406 5.3125 5.625 C 4.84375 5.78125 4.84375 5.78125 2.8125 5.78125 C 2.8125 7.585938 2.8125 9.390625 2.8125 11.25 C 6.265625 11.25 9.722656 11.25 13.28125 11.25 C 13.28125 12.4375 13.28125 13.621094 13.28125 14.84375 C 13.125 14.84375 12.972656 14.84375 12.8125 14.84375 C 12.8125 13.8125 12.8125 12.78125 12.8125 11.71875 C 9.410156 11.71875 6.007812 11.71875 2.5 11.71875 C 2.5 9.757812 2.5 7.800781 2.5 5.78125 C 1.828125 5.78125 1.160156 5.78125 0.46875 5.78125 C 0.46875 4.285156 0.46875 2.789062 0.46875 1.25 Z M 0.46875 1.25 "/>
<path style=" stroke:none;fill-rule:nonzero;fill:rgb(57.254902%,61.176471%,85.098039%);fill-opacity:1;" d="M 0.46875 14.21875 C 1.535156 14.214844 1.535156 14.214844 2.628906 14.210938 C 2.964844 14.207031 2.964844 14.207031 3.304688 14.203125 C 3.484375 14.203125 3.660156 14.203125 3.839844 14.203125 C 4.023438 14.203125 4.203125 14.203125 4.390625 14.199219 C 4.84375 14.21875 4.84375 14.21875 5.3125 14.375 C 5.3125 14.890625 5.3125 15.40625 5.3125 15.9375 C 5.621094 15.9375 5.929688 15.9375 6.25 15.9375 C 6.25 15.421875 6.25 14.90625 6.25 14.375 C 6.300781 14.375 6.351562 14.375 6.40625 14.375 C 6.40625 14.496094 6.402344 14.621094 6.402344 14.746094 C 6.398438 14.902344 6.398438 15.0625 6.398438 15.226562 C 6.394531 15.382812 6.394531 15.539062 6.390625 15.703125 C 6.363281 16.085938 6.363281 16.085938 6.5625 16.25 C 6.5625 15.578125 6.5625 14.910156 6.5625 14.21875 C 7.335938 14.21875 8.109375 14.21875 8.90625 14.21875 C 8.90625 15.558594 8.90625 16.898438 8.90625 18.28125 C 10.296875 18.28125 11.691406 18.28125 13.125 18.28125 C 13.125 18.4375 13.125 18.589844 13.125 18.75 C 11.578125 18.75 10.03125 18.75 8.4375 18.75 C 8.4375 17.410156 8.4375 16.070312 8.4375 14.6875 C 8.238281 14.851562 8.238281 14.851562 8.261719 15.21875 C 8.265625 15.382812 8.265625 15.546875 8.265625 15.714844 C 8.265625 15.890625 8.265625 16.066406 8.265625 16.246094 C 8.269531 16.429688 8.269531 16.617188 8.273438 16.804688 C 8.273438 16.992188 8.273438 17.179688 8.273438 17.367188 C 8.277344 17.828125 8.277344 18.289062 8.28125 18.75 C 8.230469 18.75 8.179688 18.75 8.125 18.75 C 8.125 17.511719 8.125 16.273438 8.125 15 C 7.765625 15 7.402344 15 7.03125 15 C 7.03125 15.121094 7.035156 15.242188 7.035156 15.363281 C 7.039062 15.523438 7.039062 15.679688 7.042969 15.839844 C 7.042969 15.996094 7.042969 16.152344 7.046875 16.3125 C 7.03125 16.71875 7.03125 16.71875 6.875 17.03125 C 6.359375 17.03125 5.84375 17.03125 5.3125 17.03125 C 5.3125 17.546875 5.3125 18.0625 5.3125 18.59375 C 4.863281 18.816406 4.480469 18.765625 3.976562 18.765625 C 3.796875 18.765625 3.613281 18.765625 3.421875 18.765625 C 3.074219 18.761719 3.074219 18.761719 2.714844 18.757812 C 1.972656 18.757812 1.234375 18.753906 0.46875 18.75 C 0.46875 17.253906 0.46875 15.757812 0.46875 14.21875 Z M 0.46875 14.21875 "/>
<path style=" stroke:none;fill-rule:nonzero;fill:rgb(57.254902%,61.176471%,85.098039%);fill-opacity:1;" d="M 16.023438 1.234375 C 16.203125 1.234375 16.386719 1.234375 16.578125 1.234375 C 16.925781 1.238281 16.925781 1.238281 17.285156 1.242188 C 18.398438 1.246094 18.398438 1.246094 19.53125 1.25 C 19.53125 2.746094 19.53125 4.242188 19.53125 5.78125 C 18.820312 5.785156 18.105469 5.789062 17.375 5.789062 C 17.148438 5.792969 16.925781 5.792969 16.695312 5.796875 C 16.515625 5.796875 16.339844 5.796875 16.160156 5.796875 C 15.976562 5.796875 15.796875 5.796875 15.609375 5.800781 C 15.15625 5.78125 15.15625 5.78125 14.6875 5.625 C 14.6875 5.109375 14.6875 4.59375 14.6875 4.0625 C 14.328125 4.0625 13.964844 4.0625 13.59375 4.0625 C 13.59375 5.09375 13.59375 6.125 13.59375 7.1875 C 13.542969 7.1875 13.492188 7.1875 13.4375 7.1875 C 13.4375 7.089844 13.4375 6.992188 13.441406 6.890625 C 13.441406 6.445312 13.445312 6 13.445312 5.554688 C 13.449219 5.402344 13.449219 5.246094 13.453125 5.085938 C 13.453125 4.9375 13.453125 4.792969 13.453125 4.640625 C 13.453125 4.503906 13.453125 4.367188 13.457031 4.226562 C 13.472656 3.90625 13.472656 3.90625 13.28125 3.75 C 13.28125 4.9375 13.28125 6.121094 13.28125 7.34375 C 13.125 7.34375 12.972656 7.34375 12.8125 7.34375 C 12.8125 5.898438 12.8125 4.457031 12.8125 2.96875 C 13.429688 2.96875 14.050781 2.96875 14.6875 2.96875 C 14.6875 2.453125 14.6875 1.9375 14.6875 1.40625 C 15.136719 1.183594 15.519531 1.234375 16.023438 1.234375 Z M 16.023438 1.234375 "/>
<path style=" stroke:none;fill-rule:nonzero;fill:rgb(96.862745%,52.156863%,33.72549%);fill-opacity:1;" d="M 15.3125 14.53125 C 16.601562 14.53125 17.890625 14.53125 19.21875 14.53125 C 19.21875 15.820312 19.21875 17.109375 19.21875 18.4375 C 17.929688 18.4375 16.640625 18.4375 15.3125 18.4375 C 15.3125 17.148438 15.3125 15.859375 15.3125 14.53125 Z M 15.3125 14.53125 "/>
<path style=" stroke:none;fill-rule:nonzero;fill:rgb(99.215686%,53.72549%,34.901961%);fill-opacity:1;" d="M 0.78125 1.5625 C 2.019531 1.5625 3.257812 1.5625 4.53125 1.5625 C 4.53125 2.800781 4.53125 4.039062 4.53125 5.3125 C 3.292969 5.3125 2.054688 5.3125 0.78125 5.3125 C 0.78125 4.074219 0.78125 2.835938 0.78125 1.5625 Z M 0.78125 1.5625 "/>
<path style=" stroke:none;fill-rule:nonzero;fill:rgb(8.235294%,8.235294%,7.45098%);fill-opacity:1;" d="M 0.46875 14.21875 C 1.535156 14.214844 1.535156 14.214844 2.628906 14.210938 C 2.964844 14.207031 2.964844 14.207031 3.304688 14.203125 C 3.484375 14.203125 3.660156 14.203125 3.839844 14.203125 C 4.023438 14.203125 4.203125 14.203125 4.390625 14.199219 C 4.84375 14.21875 4.84375 14.21875 5.3125 14.375 C 5.3125 14.890625 5.3125 15.40625 5.3125 15.9375 C 5.621094 15.9375 5.929688 15.9375 6.25 15.9375 C 6.25 15.421875 6.25 14.90625 6.25 14.375 C 6.300781 14.375 6.351562 14.375 6.40625 14.375 C 6.40625 14.496094 6.402344 14.621094 6.402344 14.746094 C 6.398438 14.902344 6.398438 15.0625 6.398438 15.226562 C 6.394531 15.382812 6.394531 15.539062 6.390625 15.703125 C 6.363281 16.085938 6.363281 16.085938 6.5625 16.25 C 6.5625 15.578125 6.5625 14.910156 6.5625 14.21875 C 7.335938 14.21875 8.109375 14.21875 8.90625 14.21875 C 8.90625 15.558594 8.90625 16.898438 8.90625 18.28125 C 10.296875 18.28125 11.691406 18.28125 13.125 18.28125 C 13.125 18.4375 13.125 18.589844 13.125 18.75 C 11.578125 18.75 10.03125 18.75 8.4375 18.75 C 8.4375 17.410156 8.4375 16.070312 8.4375 14.6875 C 8.238281 14.851562 8.238281 14.851562 8.261719 15.21875 C 8.265625 15.382812 8.265625 15.546875 8.265625 15.714844 C 8.265625 15.890625 8.265625 16.066406 8.265625 16.246094 C 8.269531 16.429688 8.269531 16.617188 8.273438 16.804688 C 8.273438 16.992188 8.273438 17.179688 8.273438 17.367188 C 8.277344 17.828125 8.277344 18.289062 8.28125 18.75 C 8.230469 18.75 8.179688 18.75 8.125 18.75 C 8.125 17.511719 8.125 16.273438 8.125 15 C 7.765625 15 7.402344 15 7.03125 15 C 7.03125 15.121094 7.035156 15.242188 7.035156 15.363281 C 7.039062 15.523438 7.039062 15.679688 7.042969 15.839844 C 7.042969 15.996094 7.042969 16.152344 7.046875 16.3125 C 7.03125 16.71875 7.03125 16.71875 6.875 17.03125 C 6.359375 17.03125 5.84375 17.03125 5.3125 17.03125 C 5.3125 17.546875 5.3125 18.0625 5.3125 18.59375 C 4.863281 18.816406 4.480469 18.765625 3.976562 18.765625 C 3.796875 18.765625 3.613281 18.765625 3.421875 18.765625 C 3.074219 18.761719 3.074219 18.761719 2.714844 18.757812 C 1.972656 18.757812 1.234375 18.753906 0.46875 18.75 C 0.46875 17.253906 0.46875 15.757812 0.46875 14.21875 Z M 0.625 14.53125 C 0.625 15.820312 0.625 17.109375 0.625 18.4375 C 1.964844 18.4375 3.304688 18.4375 4.6875 18.4375 C 4.6875 17.148438 4.6875 15.859375 4.6875 14.53125 C 3.347656 14.53125 2.007812 14.53125 0.625 14.53125 Z M 0.625 14.53125 "/>
<path style=" stroke:none;fill-rule:nonzero;fill:rgb(12.156863%,12.156863%,10.196078%);fill-opacity:1;" d="M 16.023438 1.234375 C 16.203125 1.234375 16.386719 1.234375 16.578125 1.234375 C 16.925781 1.238281 16.925781 1.238281 17.285156 1.242188 C 18.398438 1.246094 18.398438 1.246094 19.53125 1.25 C 19.53125 2.746094 19.53125 4.242188 19.53125 5.78125 C 18.820312 5.785156 18.105469 5.789062 17.375 5.789062 C 17.148438 5.792969 16.925781 5.792969 16.695312 5.796875 C 16.515625 5.796875 16.339844 5.796875 16.160156 5.796875 C 15.976562 5.796875 15.796875 5.796875 15.609375 5.800781 C 15.15625 5.78125 15.15625 5.78125 14.6875 5.625 C 14.6875 5.109375 14.6875 4.59375 14.6875 4.0625 C 14.328125 4.0625 13.964844 4.0625 13.59375 4.0625 C 13.59375 5.09375 13.59375 6.125 13.59375 7.1875 C 13.542969 7.1875 13.492188 7.1875 13.4375 7.1875 C 13.4375 7.089844 13.4375 6.992188 13.441406 6.890625 C 13.441406 6.445312 13.445312 6 13.445312 5.554688 C 13.449219 5.402344 13.449219 5.246094 13.453125 5.085938 C 13.453125 4.9375 13.453125 4.792969 13.453125 4.640625 C 13.453125 4.503906 13.453125 4.367188 13.457031 4.226562 C 13.472656 3.90625 13.472656 3.90625 13.28125 3.75 C 13.28125 4.9375 13.28125 6.121094 13.28125 7.34375 C 13.125 7.34375 12.972656 7.34375 12.8125 7.34375 C 12.8125 5.898438 12.8125 4.457031 12.8125 2.96875 C 13.429688 2.96875 14.050781 2.96875 14.6875 2.96875 C 14.6875 2.453125 14.6875 1.9375 14.6875 1.40625 C 15.136719 1.183594 15.519531 1.234375 16.023438 1.234375 Z M 15.3125 1.5625 C 15.3125 2.851562 15.3125 4.140625 15.3125 5.46875 C 16.652344 5.46875 17.992188 5.46875 19.375 5.46875 C 19.375 4.179688 19.375 2.890625 19.375 1.5625 C 18.035156 1.5625 16.695312 1.5625 15.3125 1.5625 Z M 15.3125 1.5625 "/>
<path style=" stroke:none;fill-rule:nonzero;fill:rgb(6.27451%,5.882353%,4.313725%);fill-opacity:1;" d="M 16.023438 1.234375 C 16.203125 1.234375 16.386719 1.234375 16.578125 1.234375 C 16.925781 1.238281 16.925781 1.238281 17.285156 1.242188 C 18.398438 1.246094 18.398438 1.246094 19.53125 1.25 C 19.53125 2.746094 19.53125 4.242188 19.53125 5.78125 C 18.140625 5.730469 16.746094 5.679688 15.3125 5.625 C 15.3125 5.574219 15.3125 5.523438 15.3125 5.46875 C 16.652344 5.46875 17.992188 5.46875 19.375 5.46875 C 19.375 4.179688 19.375 2.890625 19.375 1.5625 C 17.984375 1.5625 16.589844 1.5625 15.15625 1.5625 C 15.15625 2.078125 15.15625 2.59375 15.15625 3.125 C 14.382812 3.125 13.609375 3.125 12.8125 3.125 C 12.8125 3.074219 12.8125 3.023438 12.8125 2.96875 C 13.429688 2.96875 14.050781 2.96875 14.6875 2.96875 C 14.6875 2.453125 14.6875 1.9375 14.6875 1.40625 C 15.136719 1.183594 15.519531 1.234375 16.023438 1.234375 Z M 16.023438 1.234375 "/>
<path style=" stroke:none;fill-rule:nonzero;fill:rgb(12.156863%,7.843137%,6.666667%);fill-opacity:1;" d="M 0.46875 1.25 C 1.109375 1.246094 1.746094 1.242188 2.386719 1.242188 C 2.605469 1.242188 2.824219 1.238281 3.039062 1.238281 C 3.351562 1.234375 3.664062 1.234375 3.976562 1.234375 C 4.167969 1.234375 4.355469 1.234375 4.546875 1.230469 C 5 1.25 5 1.25 5.3125 1.40625 C 5.3125 2.796875 5.3125 4.191406 5.3125 5.625 C 5.15625 5.574219 5.003906 5.523438 4.84375 5.46875 C 4.894531 4.179688 4.945312 2.890625 5 1.5625 C 3.609375 1.5625 2.214844 1.5625 0.78125 1.5625 C 0.78125 2.851562 0.78125 4.140625 0.78125 5.46875 C 0.730469 5.46875 0.679688 5.46875 0.625 5.46875 C 0.574219 4.078125 0.523438 2.683594 0.46875 1.25 Z M 0.46875 1.25 "/>
<path style=" stroke:none;fill-rule:nonzero;fill:rgb(11.764706%,12.54902%,16.078431%);fill-opacity:1;" d="M 15.15625 1.5625 C 15.207031 1.5625 15.257812 1.5625 15.3125 1.5625 C 15.3125 2.902344 15.3125 4.242188 15.3125 5.625 C 16.601562 5.625 17.890625 5.625 19.21875 5.625 C 19.21875 5.675781 19.21875 5.726562 19.21875 5.78125 C 18.550781 5.785156 17.882812 5.789062 17.21875 5.789062 C 16.933594 5.792969 16.933594 5.792969 16.640625 5.796875 C 16.367188 5.796875 16.367188 5.796875 16.089844 5.796875 C 15.921875 5.796875 15.753906 5.796875 15.582031 5.800781 C 15.15625 5.78125 15.15625 5.78125 14.6875 5.625 C 14.6875 5.109375 14.6875 4.59375 14.6875 4.0625 C 14.328125 4.0625 13.964844 4.0625 13.59375 4.0625 C 13.59375 5.09375 13.59375 6.125 13.59375 7.1875 C 13.542969 7.1875 13.492188 7.1875 13.4375 7.1875 C 13.4375 6.105469 13.4375 5.023438 13.4375 3.90625 C 14.003906 3.90625 14.570312 3.90625 15.15625 3.90625 C 15.15625 3.132812 15.15625 2.359375 15.15625 1.5625 Z M 15.15625 1.5625 "/>
<path style=" stroke:none;fill-rule:nonzero;fill:rgb(52.156863%,29.411765%,20.784314%);fill-opacity:1;" d="M 4.53125 1.5625 C 4.6875 1.5625 4.839844 1.5625 5 1.5625 C 5.003906 2.207031 5.007812 2.851562 5.007812 3.496094 C 5.011719 3.679688 5.011719 3.863281 5.015625 4.054688 C 5.015625 4.316406 5.015625 4.316406 5.015625 4.582031 C 5.015625 4.828125 5.015625 4.828125 5.019531 5.074219 C 5 5.46875 5 5.46875 4.84375 5.78125 C 4.742188 5.730469 4.636719 5.679688 4.53125 5.625 C 4.25 5.601562 3.964844 5.585938 3.679688 5.574219 C 3.511719 5.570312 3.34375 5.5625 3.171875 5.554688 C 2.996094 5.550781 2.816406 5.542969 2.636719 5.539062 C 2.460938 5.53125 2.28125 5.523438 2.097656 5.515625 C 1.660156 5.5 1.21875 5.484375 0.78125 5.46875 C 0.78125 5.417969 0.78125 5.367188 0.78125 5.3125 C 2.019531 5.3125 3.257812 5.3125 4.53125 5.3125 C 4.53125 4.074219 4.53125 2.835938 4.53125 1.5625 Z M 4.53125 1.5625 "/>
<path style=" stroke:none;fill-rule:nonzero;fill:rgb(0%,0%,0%);fill-opacity:1;" d="M 2.5 11.875 C 5.851562 11.875 9.203125 11.875 12.65625 11.875 C 12.65625 12.855469 12.65625 13.835938 12.65625 14.84375 C 12.605469 14.84375 12.554688 14.84375 12.5 14.84375 C 12.5 13.914062 12.5 12.988281 12.5 12.03125 C 9.199219 12.03125 5.898438 12.03125 2.5 12.03125 C 2.5 11.980469 2.5 11.929688 2.5 11.875 Z M 2.5 11.875 "/>
<path style=" stroke:none;fill-rule:nonzero;fill:rgb(16.470588%,18.039216%,22.745098%);fill-opacity:1;" d="M 0.78125 14.21875 C 1.449219 14.214844 2.117188 14.210938 2.785156 14.210938 C 3.066406 14.207031 3.066406 14.207031 3.359375 14.203125 C 3.632812 14.203125 3.632812 14.203125 3.910156 14.203125 C 4.078125 14.203125 4.246094 14.203125 4.417969 14.199219 C 4.84375 14.21875 4.84375 14.21875 5.3125 14.375 C 5.3125 14.890625 5.3125 15.40625 5.3125 15.9375 C 5.621094 15.9375 5.929688 15.9375 6.25 15.9375 C 6.25 15.421875 6.25 14.90625 6.25 14.375 C 6.300781 14.375 6.351562 14.375 6.40625 14.375 C 6.40625 14.941406 6.40625 15.507812 6.40625 16.09375 C 5.890625 16.09375 5.375 16.09375 4.84375 16.09375 C 4.765625 15.320312 4.765625 15.320312 4.6875 14.53125 C 3.398438 14.480469 2.109375 14.429688 0.78125 14.375 C 0.78125 14.324219 0.78125 14.273438 0.78125 14.21875 Z M 0.78125 14.21875 "/>
<path style=" stroke:none;fill-rule:nonzero;fill:rgb(0%,0%,0%);fill-opacity:1;" d="M 10.46875 5.46875 C 10.519531 5.46875 10.570312 5.46875 10.625 5.46875 C 10.625 6.601562 10.625 7.738281 10.625 8.90625 C 12.894531 8.90625 15.164062 8.90625 17.5 8.90625 C 17.5 8.957031 17.5 9.007812 17.5 9.0625 C 15.179688 9.0625 12.859375 9.0625 10.46875 9.0625 C 10.46875 7.875 10.46875 6.691406 10.46875 5.46875 Z M 10.46875 5.46875 "/>
<path style=" stroke:none;fill-rule:nonzero;fill:rgb(0%,0%,0%);fill-opacity:1;" d="M 3.125 10.9375 C 6.425781 10.9375 9.726562 10.9375 13.125 10.9375 C 13.125 10.988281 13.125 11.039062 13.125 11.09375 C 9.824219 11.09375 6.523438 11.09375 3.125 11.09375 C 3.125 11.042969 3.125 10.992188 3.125 10.9375 Z M 3.125 10.9375 "/>
<path style=" stroke:none;fill-rule:nonzero;fill:rgb(0%,0%,5.098039%);fill-opacity:1;" d="M 6.875 5 C 8.007812 5 9.144531 5 10.3125 5 C 10.15625 5.078125 10.15625 5.078125 10 5.15625 C 10 5.257812 10 5.363281 10 5.46875 C 8.96875 5.46875 7.9375 5.46875 6.875 5.46875 C 6.875 5.3125 6.875 5.160156 6.875 5 Z M 6.875 5 "/>
<path style=" stroke:none;fill-rule:nonzero;fill:rgb(0%,0%,0%);fill-opacity:1;" d="M 9.0625 14.375 C 9.113281 14.375 9.164062 14.375 9.21875 14.375 C 9.21875 15.5625 9.21875 16.746094 9.21875 17.96875 C 10.507812 17.96875 11.796875 17.96875 13.125 17.96875 C 13.125 18.019531 13.125 18.070312 13.125 18.125 C 11.785156 18.125 10.445312 18.125 9.0625 18.125 C 9.0625 16.886719 9.0625 15.648438 9.0625 14.375 Z M 9.0625 14.375 "/>
<path style=" stroke:none;fill-rule:nonzero;fill:rgb(0%,0%,0%);fill-opacity:1;" d="M 0.46875 5.9375 C 1.085938 5.9375 1.707031 5.9375 2.34375 5.9375 C 2.34375 7.84375 2.34375 9.753906 2.34375 11.71875 C 2.292969 11.71875 2.242188 11.71875 2.1875 11.71875 C 2.1875 9.863281 2.1875 8.007812 2.1875 6.09375 C 1.621094 6.09375 1.054688 6.09375 0.46875 6.09375 C 0.46875 6.042969 0.46875 5.992188 0.46875 5.9375 Z M 0.46875 5.9375 "/>
<path style=" stroke:none;fill-rule:nonzero;fill:rgb(12.54902%,12.941176%,17.647059%);fill-opacity:1;" d="M 15.15625 1.25 C 15.15625 1.867188 15.15625 2.488281 15.15625 3.125 C 14.382812 3.125 13.609375 3.125 12.8125 3.125 C 12.8125 3.074219 12.8125 3.023438 12.8125 2.96875 C 13.429688 2.96875 14.050781 2.96875 14.6875 2.96875 C 14.6875 2.453125 14.6875 1.9375 14.6875 1.40625 C 15 1.25 15 1.25 15.15625 1.25 Z M 15.15625 1.25 "/>
<path style=" stroke:none;fill-rule:nonzero;fill:rgb(11.764706%,11.764706%,16.078431%);fill-opacity:1;" d="M 4.84375 16.875 C 5.515625 16.875 6.183594 16.875 6.875 16.875 C 6.875 16.925781 6.875 16.976562 6.875 17.03125 C 6.359375 17.03125 5.84375 17.03125 5.3125 17.03125 C 5.3125 17.546875 5.3125 18.0625 5.3125 18.59375 C 5.15625 18.644531 5.003906 18.695312 4.84375 18.75 C 4.84375 18.132812 4.84375 17.511719 4.84375 16.875 Z M 4.84375 16.875 "/>
<path style=" stroke:none;fill-rule:nonzero;fill:rgb(0%,0%,0%);fill-opacity:1;" d="M 17.65625 9.21875 C 17.707031 9.21875 17.757812 9.21875 17.8125 9.21875 C 17.8125 10.765625 17.8125 12.3125 17.8125 13.90625 C 18.378906 13.90625 18.945312 13.90625 19.53125 13.90625 C 19.53125 13.957031 19.53125 14.007812 19.53125 14.0625 C 18.914062 14.0625 18.292969 14.0625 17.65625 14.0625 C 17.65625 12.464844 17.65625 10.867188 17.65625 9.21875 Z M 17.65625 9.21875 "/>
<path style=" stroke:none;fill-rule:nonzero;fill:rgb(0%,0%,0%);fill-opacity:1;" d="M 8.4375 18.90625 C 9.984375 18.90625 11.53125 18.90625 13.125 18.90625 C 13.125 18.957031 13.125 19.007812 13.125 19.0625 C 11.578125 19.0625 10.03125 19.0625 8.4375 19.0625 C 8.4375 19.011719 8.4375 18.960938 8.4375 18.90625 Z M 8.4375 18.90625 "/>
<path style=" stroke:none;fill-rule:nonzero;fill:rgb(21.176471%,0%,0%);fill-opacity:1;" d="M 15.15625 18.90625 C 16.601562 18.90625 18.042969 18.90625 19.53125 18.90625 C 19.53125 18.957031 19.53125 19.007812 19.53125 19.0625 C 18.085938 19.0625 16.644531 19.0625 15.15625 19.0625 C 15.15625 19.011719 15.15625 18.960938 15.15625 18.90625 Z M 15.15625 18.90625 "/>
<path style=" stroke:none;fill-rule:nonzero;fill:rgb(0%,0%,0%);fill-opacity:1;" d="M 0.46875 18.90625 C 1.914062 18.90625 3.355469 18.90625 4.84375 18.90625 C 4.84375 18.957031 4.84375 19.007812 4.84375 19.0625 C 3.398438 19.0625 1.957031 19.0625 0.46875 19.0625 C 0.46875 19.011719 0.46875 18.960938 0.46875 18.90625 Z M 0.46875 18.90625 "/>
<path style=" stroke:none;fill-rule:nonzero;fill:rgb(22.352941%,0%,0%);fill-opacity:1;" d="M 19.6875 14.375 C 19.738281 14.375 19.789062 14.375 19.84375 14.375 C 19.84375 15.820312 19.84375 17.261719 19.84375 18.75 C 19.792969 18.75 19.742188 18.75 19.6875 18.75 C 19.6875 17.304688 19.6875 15.863281 19.6875 14.375 Z M 19.6875 14.375 "/>
<path style=" stroke:none;fill-rule:nonzero;fill:rgb(0%,0%,0%);fill-opacity:1;" d="M 0.15625 14.375 C 0.207031 14.375 0.257812 14.375 0.3125 14.375 C 0.3125 15.820312 0.3125 17.261719 0.3125 18.75 C 0.261719 18.75 0.210938 18.75 0.15625 18.75 C 0.15625 17.304688 0.15625 15.863281 0.15625 14.375 Z M 0.15625 14.375 "/>
<path style=" stroke:none;fill-rule:nonzero;fill:rgb(0%,0%,0%);fill-opacity:1;" d="M 0.46875 13.90625 C 1.914062 13.90625 3.355469 13.90625 4.84375 13.90625 C 4.84375 13.957031 4.84375 14.007812 4.84375 14.0625 C 3.398438 14.0625 1.957031 14.0625 0.46875 14.0625 C 0.46875 14.011719 0.46875 13.960938 0.46875 13.90625 Z M 0.46875 13.90625 "/>
<path style=" stroke:none;fill-rule:nonzero;fill:rgb(0%,0%,0%);fill-opacity:1;" d="M 15.15625 5.9375 C 16.601562 5.9375 18.042969 5.9375 19.53125 5.9375 C 19.53125 5.988281 19.53125 6.039062 19.53125 6.09375 C 18.085938 6.09375 16.644531 6.09375 15.15625 6.09375 C 15.15625 6.042969 15.15625 5.992188 15.15625 5.9375 Z M 15.15625 5.9375 "/>
<path style=" stroke:none;fill-rule:nonzero;fill:rgb(22.352941%,0%,0%);fill-opacity:1;" d="M 0.15625 1.25 C 0.207031 1.25 0.257812 1.25 0.3125 1.25 C 0.3125 2.695312 0.3125 4.136719 0.3125 5.625 C 0.261719 5.625 0.210938 5.625 0.15625 5.625 C 0.15625 4.179688 0.15625 2.738281 0.15625 1.25 Z M 0.15625 1.25 "/>
<path style=" stroke:none;fill-rule:nonzero;fill:rgb(0%,0%,0%);fill-opacity:1;" d="M 19.6875 1.25 C 19.738281 1.25 19.789062 1.25 19.84375 1.25 C 19.84375 2.695312 19.84375 4.136719 19.84375 5.625 C 19.792969 5.625 19.742188 5.625 19.6875 5.625 C 19.6875 4.179688 19.6875 2.738281 19.6875 1.25 Z M 19.6875 1.25 "/>
<path style=" stroke:none;fill-rule:nonzero;fill:rgb(0%,0%,0%);fill-opacity:1;" d="M 15.15625 0.9375 C 16.601562 0.9375 18.042969 0.9375 19.53125 0.9375 C 19.53125 0.988281 19.53125 1.039062 19.53125 1.09375 C 18.085938 1.09375 16.644531 1.09375 15.15625 1.09375 C 15.15625 1.042969 15.15625 0.992188 15.15625 0.9375 Z M 15.15625 0.9375 "/>
<path style=" stroke:none;fill-rule:nonzero;fill:rgb(21.176471%,0%,0%);fill-opacity:1;" d="M 0.46875 0.9375 C 1.914062 0.9375 3.355469 0.9375 4.84375 0.9375 C 4.84375 0.988281 4.84375 1.039062 4.84375 1.09375 C 3.398438 1.09375 1.957031 1.09375 0.46875 1.09375 C 0.46875 1.042969 0.46875 0.992188 0.46875 0.9375 Z M 0.46875 0.9375 "/>
<path style=" stroke:none;fill-rule:nonzero;fill:rgb(0%,0%,0%);fill-opacity:1;" d="M 12.5 3.28125 C 12.550781 3.28125 12.601562 3.28125 12.65625 3.28125 C 12.65625 4.621094 12.65625 5.960938 12.65625 7.34375 C 12.605469 7.34375 12.554688 7.34375 12.5 7.34375 C 12.5 6.003906 12.5 4.664062 12.5 3.28125 Z M 12.5 3.28125 "/>
<path style=" stroke:none;fill-rule:nonzero;fill:rgb(0%,0%,0%);fill-opacity:1;" d="M 13.4375 11.40625 C 13.488281 11.40625 13.539062 11.40625 13.59375 11.40625 C 13.59375 12.488281 13.59375 13.570312 13.59375 14.6875 C 13.542969 14.6875 13.492188 14.6875 13.4375 14.6875 C 13.4375 13.605469 13.4375 12.523438 13.4375 11.40625 Z M 13.4375 11.40625 "/>
<path style=" stroke:none;fill-rule:nonzero;fill:rgb(0%,0%,0%);fill-opacity:1;" d="M 6.5625 13.90625 C 7.285156 13.90625 8.007812 13.90625 8.75 13.90625 C 8.75 13.957031 8.75 14.007812 8.75 14.0625 C 8.027344 14.0625 7.304688 14.0625 6.5625 14.0625 C 6.5625 14.011719 6.5625 13.960938 6.5625 13.90625 Z M 6.5625 13.90625 "/>
<path style=" stroke:none;fill-rule:nonzero;fill:rgb(0%,0%,0%);fill-opacity:1;" d="M 15.15625 13.90625 C 15.722656 13.90625 16.289062 13.90625 16.875 13.90625 C 16.875 13.957031 16.875 14.007812 16.875 14.0625 C 16.308594 14.0625 15.742188 14.0625 15.15625 14.0625 C 15.15625 14.011719 15.15625 13.960938 15.15625 13.90625 Z M 15.15625 13.90625 "/>
<path style=" stroke:none;fill-rule:nonzero;fill:rgb(0%,0%,0%);fill-opacity:1;" d="M 3.125 5.9375 C 3.691406 5.9375 4.257812 5.9375 4.84375 5.9375 C 4.84375 5.988281 4.84375 6.039062 4.84375 6.09375 C 4.277344 6.09375 3.710938 6.09375 3.125 6.09375 C 3.125 6.042969 3.125 5.992188 3.125 5.9375 Z M 3.125 5.9375 "/>
<path style=" stroke:none;fill-rule:nonzero;fill:rgb(0%,0%,0%);fill-opacity:1;" d="M 12.8125 15 C 13.125 15.15625 13.125 15.15625 13.125 15.15625 Z M 12.8125 15 "/>
<path style=" stroke:none;fill-rule:nonzero;fill:rgb(0%,0%,0%);fill-opacity:1;" d="M 12.8125 7.5 C 13.125 7.65625 13.125 7.65625 13.125 7.65625 Z M 12.8125 7.5 "/>
</g>
</svg>
