<?xml version="1.0" encoding="UTF-8"?>
<svg xmlns="http://www.w3.org/2000/svg" xmlns:xlink="http://www.w3.org/1999/xlink" width="20px" height="20px" viewBox="0 0 20 20" version="1.1">
<defs>
<linearGradient id="linear0" gradientUnits="userSpaceOnUse" x1="0.500159" y1="-0.982987" x2="0.500159" y2="0.382168" gradientTransform="matrix(9.886719,0,0,8.613281,0.09375,11.34375)">
<stop offset="0" style="stop-color:rgb(0%,32.156863%,80%);stop-opacity:1;"/>
<stop offset="1" style="stop-color:rgb(14.901961%,51.764706%,100%);stop-opacity:1;"/>
</linearGradient>
<linearGradient id="linear1" gradientUnits="userSpaceOnUse" x1="0.500157" y1="0.00763359" x2="0.500157" y2="1.385814" gradientTransform="matrix(9.980469,0,0,8.53125,0,2.8125)">
<stop offset="0" style="stop-color:rgb(0%,32.156863%,80%);stop-opacity:1;"/>
<stop offset="1" style="stop-color:rgb(14.901961%,51.764706%,100%);stop-opacity:1;"/>
</linearGradient>
</defs>
<g id="surface1">
<path style=" stroke:none;fill-rule:nonzero;fill:rgb(14.901961%,51.764706%,100%);fill-opacity:1;" d="M 19.3125 11.34375 L 14.515625 11.34375 C 14.203125 11.339844 13.933594 11.539062 13.886719 11.804688 C 13.617188 13.492188 11.949219 14.746094 9.980469 14.742188 L 11.277344 19.875 C 15.984375 19.34375 19.605469 16.019531 19.941406 11.925781 C 19.953125 11.773438 19.890625 11.625 19.773438 11.515625 C 19.652344 11.40625 19.488281 11.34375 19.3125 11.34375 Z M 19.3125 11.34375 "/>
<path style=" stroke:none;fill-rule:nonzero;fill:rgb(14.901961%,51.764706%,100%);fill-opacity:1;" d="M 11.011719 11.214844 L 17.914062 6.082031 C 18.046875 5.980469 18.125 5.832031 18.125 5.675781 C 18.125 5.519531 18.046875 5.371094 17.914062 5.269531 L 11.011719 0.128906 C 10.824219 -0.00390625 10.566406 -0.0351562 10.34375 0.0507812 C 10.121094 0.140625 9.980469 0.332031 9.980469 0.542969 L 9.980469 10.800781 C 9.980469 11.011719 10.121094 11.203125 10.34375 11.292969 C 10.566406 11.378906 10.824219 11.351562 11.011719 11.214844 Z M 11.011719 11.214844 "/>
<path style=" stroke:none;fill-rule:nonzero;fill:url(#linear0);" d="M 0.09375 12.464844 C 0.753906 16.75 4.980469 19.953125 9.980469 19.957031 L 9.980469 14.742188 C 7.808594 14.742188 6.042969 13.222656 6.039062 11.34375 Z M 0.09375 12.464844 "/>
<path style=" stroke:none;fill-rule:nonzero;fill:url(#linear1);" d="M 0 11.261719 L 0 11.34375 L 6.039062 11.34375 C 6.042969 9.464844 7.808594 7.945312 9.980469 7.945312 L 8.683594 2.8125 C 3.761719 3.367188 0.0585938 6.96875 0 11.261719 "/>
</g>
</svg>
