<?xml version="1.0" encoding="UTF-8"?>
<svg xmlns="http://www.w3.org/2000/svg" xmlns:xlink="http://www.w3.org/1999/xlink" width="293px" height="100px" viewBox="0 0 293 100" version="1.1">
<g id="surface1">
<path style=" stroke:none;fill-rule:nonzero;fill:rgb(5.098039%,17.254902%,25.098041%);fill-opacity:1;" d="M 116.292969 67.359375 L 128.066406 68.230469 L 128.066406 78.300781 C 128.066406 78.300781 106.066406 100 74.007812 74.308594 L 84.933594 74.308594 L 86.144531 64.410156 C 86.144531 64.410156 98.609375 77.082031 116.292969 67.359375 Z M 116.292969 67.359375 "/>
<path style=" stroke:none;fill-rule:nonzero;fill:rgb(5.098039%,17.254902%,25.098041%);fill-opacity:1;" d="M 76.417969 20.832031 C 76.417969 20.832031 52.492188 43.140625 72.082031 71.703125 L 83.019531 72.746094 L 84.0625 62.15625 C 84.0625 62.15625 74.007812 45.660156 86.996094 32.640625 L 75.347656 31.738281 Z M 76.417969 20.832031 "/>
<path style=" stroke:none;fill-rule:nonzero;fill:rgb(5.098039%,17.254902%,25.098041%);fill-opacity:1;" d="M 79.019531 19.269531 C 79.019531 19.269531 108.867188 0 131.550781 23.261719 L 121.496094 22.566406 L 120.453125 33.847656 C 120.453125 33.847656 109.011719 19.960938 89.945312 30.726562 L 78.328125 30.210938 Z M 79.019531 19.269531 "/>
<path style=" stroke:none;fill-rule:nonzero;fill:rgb(5.098039%,17.254902%,25.098041%);fill-opacity:1;" d="M 123.054688 36.632812 L 123.746094 25 L 134.324219 26.042969 L 166.222656 61.628906 L 155.304688 61.628906 L 154.261719 71.527344 Z M 123.054688 36.632812 "/>
<path style=" stroke:none;fill-rule:nonzero;fill:rgb(0.784314%,82.745099%,37.254903%);fill-opacity:1;" d="M 119.242188 65.453125 L 159.632812 20.832031 L 170.382812 21.875 L 169.691406 32.816406 L 129.992188 77.082031 L 130.160156 65.625 Z M 119.242188 65.453125 "/>
<path style=" stroke:none;fill-rule:nonzero;fill:rgb(0.784314%,82.745099%,37.254903%);fill-opacity:1;" d="M 161.195312 19.222656 L 172.378906 20.136719 L 171.601562 30.816406 C 171.601562 30.816406 188.109375 20.265625 200.207031 31.464844 L 212.03125 31.984375 L 213.09375 21.585938 C 213.09375 21.585938 194.613281 0.722656 161.195312 19.222656 Z M 161.195312 19.222656 "/>
<path style=" stroke:none;fill-rule:nonzero;fill:rgb(0.784314%,82.745099%,37.254903%);fill-opacity:1;" d="M 201.894531 33.160156 L 213.71875 33.851562 L 214.632812 23.390625 C 214.632812 23.390625 240.507812 52.257812 212.546875 77.082031 L 201.113281 76.289062 L 202.152344 64.445312 C 202.152344 64.445312 217.628906 47.09375 201.894531 33.160156 Z M 201.894531 33.160156 "/>
<path style=" stroke:none;fill-rule:nonzero;fill:rgb(0.784314%,82.745099%,37.254903%);fill-opacity:1;" d="M 169 64.410156 L 157.054688 63.367188 L 156.386719 73.917969 C 156.386719 73.917969 177.582031 98.398438 209.5625 78.863281 L 198.640625 77.980469 L 199.683594 66.648438 C 199.683594 66.648438 185.769531 77.820312 169 64.410156 Z M 169 64.410156 "/>
<path style=" stroke:none;fill-rule:nonzero;fill:rgb(5.098039%,17.254902%,25.098041%);fill-opacity:1;" d="M 184.113281 46.171875 L 184.113281 50.121094 C 184.078125 50.273438 184.0625 50.433594 184.0625 50.589844 C 184.0625 50.75 184.078125 50.90625 184.113281 51.0625 L 184.113281 57.425781 L 181.160156 57.425781 L 181.160156 46.144531 Z M 184.113281 46.171875 "/>
<path style=" stroke:none;fill-rule:nonzero;fill:rgb(5.098039%,17.254902%,25.098041%);fill-opacity:1;" d="M 186.707031 46.171875 C 185.734375 46.300781 184.828125 46.726562 184.113281 47.398438 C 183.113281 48.171875 182.488281 49.332031 182.382812 50.59375 C 182.472656 51.914062 183.097656 53.136719 184.113281 53.976562 C 184.738281 54.578125 185.550781 54.945312 186.414062 55.023438 C 189.15625 55.089844 190.507812 52.726562 190.507812 50.601562 C 190.507812 48.472656 188.832031 46.050781 186.707031 46.171875 Z M 185.8125 52.550781 C 184.972656 52.515625 184.269531 51.898438 184.125 51.070312 C 184.089844 50.914062 184.074219 50.753906 184.074219 50.59375 C 184.074219 50.4375 184.089844 50.28125 184.125 50.125 C 184.269531 49.296875 184.972656 48.679688 185.8125 48.644531 C 186.820312 48.738281 187.589844 49.585938 187.589844 50.597656 C 187.589844 51.609375 186.820312 52.457031 185.8125 52.550781 Z M 196.375 49.539062 C 195.949219 49.40625 194.367188 49.15625 194.367188 48.558594 C 194.367188 48.222656 194.851562 48.179688 195.085938 48.191406 C 195.761719 48.191406 196.777344 49 197.339844 48.847656 C 197.839844 48.71875 198.28125 47.421875 198.464844 46.980469 C 197.042969 46.167969 195.386719 45.863281 193.769531 46.121094 C 192.960938 46.277344 192.261719 46.777344 191.851562 47.496094 C 191.445312 48.210938 191.367188 49.070312 191.644531 49.84375 C 192.363281 51.699219 194.558594 50.972656 195.667969 52.101562 C 196.125 52.574219 195.183594 52.789062 194.871094 52.777344 C 193.921875 52.636719 193.011719 52.289062 192.203125 51.761719 C 191.929688 52.15625 191.078125 53.097656 191.179688 53.589844 C 191.28125 54.078125 192.402344 54.445312 192.867188 54.59375 C 194.433594 55.101562 196.847656 55.292969 198.027344 53.867188 C 199.496094 52.152344 198.210938 50.136719 196.375 49.539062 Z M 173.464844 43.050781 C 170.042969 43.050781 167.269531 45.828125 167.269531 49.253906 C 167.269531 52.679688 170.042969 55.457031 173.464844 55.457031 C 176.886719 55.457031 179.65625 52.679688 179.65625 49.253906 C 179.65625 45.828125 176.886719 43.050781 173.464844 43.050781 Z M 173.464844 52.417969 C 171.710938 52.414062 170.292969 50.988281 170.292969 49.230469 C 170.296875 47.476562 171.71875 46.054688 173.472656 46.054688 C 175.226562 46.054688 176.644531 47.480469 176.644531 49.234375 C 176.644531 50.082031 176.308594 50.890625 175.710938 51.488281 C 175.113281 52.085938 174.300781 52.417969 173.457031 52.417969 Z M 173.464844 52.417969 "/>
<path style=" stroke:none;fill-rule:nonzero;fill:rgb(0.784314%,82.745099%,37.254903%);fill-opacity:1;" d="M 114.800781 46.03125 L 111.269531 46.03125 L 115.003906 55.8125 L 116.613281 55.8125 L 116.613281 51.644531 Z M 118.433594 46.050781 L 121.964844 46.050781 L 118.222656 55.828125 L 116.613281 55.828125 L 116.613281 51.660156 Z M 97.660156 44.65625 C 96.472656 43.832031 95.097656 43.324219 93.660156 43.179688 C 91.757812 43 89.71875 43.230469 87.957031 43.230469 L 87.957031 55.800781 L 88.042969 55.800781 C 88.378906 55.839844 88.71875 55.875 89.0625 55.894531 C 90.414062 56.007812 91.773438 55.996094 93.125 55.863281 C 95.710938 55.574219 97.371094 54.734375 98.390625 53.640625 C 99.292969 52.621094 99.804688 51.3125 99.828125 49.953125 L 99.828125 49.496094 C 99.804688 47.707031 99.292969 45.910156 97.660156 44.65625 Z M 94.789062 52.335938 C 93.722656 52.933594 92.429688 52.789062 91.257812 52.789062 L 91.257812 46.242188 C 92.5 46.242188 93.902344 46.078125 94.996094 46.84375 C 96.808594 48.125 96.742188 51.230469 94.769531 52.335938 Z M 109.722656 53.320312 C 109.433594 53.078125 109.066406 52.664062 108.679688 52.597656 C 108.058594 52.511719 107.289062 53.347656 106.601562 53.414062 C 105.53125 53.523438 104.761719 52.78125 104.347656 51.890625 L 110.859375 51.890625 C 110.859375 50.085938 110.707031 48.1875 109.167969 46.945312 C 106.3125 44.613281 101.628906 46.335938 101.105469 50.019531 C 100.542969 53.898438 103.589844 56.402344 107.300781 55.917969 C 108.21875 55.789062 109.082031 55.398438 109.789062 54.789062 C 110.042969 54.566406 110.414062 54.253906 110.226562 53.886719 C 110.09375 53.667969 109.921875 53.476562 109.722656 53.320312 Z M 107.644531 50.121094 L 104.320312 50.121094 C 104.46875 49.320312 105.167969 48.738281 105.980469 48.738281 C 106.796875 48.738281 107.496094 49.320312 107.644531 50.121094 Z M 107.644531 50.121094 "/>
</g>
</svg>
