<?xml version="1.0" encoding="UTF-8"?>
<svg xmlns="http://www.w3.org/2000/svg" xmlns:xlink="http://www.w3.org/1999/xlink" width="25px" height="25px" viewBox="0 0 25 25" version="1.1">
<g id="surface1">
<path style=" stroke:none;fill-rule:nonzero;fill:rgb(25.882353%,52.156863%,95.686275%);fill-opacity:1;" d="M 12.5 20.644531 C 13.125 20.644531 13.632812 21.152344 13.632812 21.78125 C 13.632812 22.40625 13.125 22.917969 12.5 22.917969 C 11.875 22.917969 11.367188 22.40625 11.367188 21.78125 C 11.367188 21.152344 11.875 20.644531 12.5 20.644531 Z M 13.894531 5.683594 C 14.0625 5.683594 14.214844 5.808594 14.230469 5.96875 L 14.492188 7.769531 C 14.925781 7.933594 15.316406 8.164062 15.675781 8.4375 L 17.40625 7.757812 C 17.570312 7.703125 17.753906 7.757812 17.835938 7.90625 L 19.230469 10.265625 C 19.3125 10.414062 19.269531 10.589844 19.144531 10.699219 L 17.667969 11.832031 C 17.710938 12.050781 17.726562 12.269531 17.726562 12.5 C 17.726562 12.730469 17.695312 12.949219 17.667969 13.167969 L 19.160156 14.300781 C 19.285156 14.410156 19.328125 14.585938 19.242188 14.734375 L 17.851562 17.09375 C 17.753906 17.242188 17.570312 17.296875 17.417969 17.242188 L 15.675781 16.5625 C 15.328125 16.835938 14.925781 17.054688 14.507812 17.230469 L 14.242188 19.03125 C 14.214844 19.191406 14.0625 19.316406 13.894531 19.316406 L 11.109375 19.316406 C 10.929688 19.316406 10.789062 19.191406 10.761719 19.03125 L 10.496094 17.230469 C 10.0625 17.066406 9.675781 16.835938 9.3125 16.5625 L 7.585938 17.242188 C 7.417969 17.296875 7.238281 17.242188 7.152344 17.09375 L 5.761719 14.734375 C 5.675781 14.585938 5.71875 14.410156 5.84375 14.300781 L 7.320312 13.167969 C 7.292969 12.949219 7.277344 12.730469 7.277344 12.5 C 7.277344 12.269531 7.292969 12.050781 7.320312 11.832031 L 5.84375 10.699219 C 5.703125 10.589844 5.675781 10.414062 5.761719 10.265625 L 7.152344 7.90625 C 7.25 7.757812 7.433594 7.703125 7.585938 7.757812 L 9.3125 8.4375 C 9.675781 8.164062 10.078125 7.945312 10.496094 7.769531 L 10.761719 5.96875 C 10.789062 5.808594 10.941406 5.683594 11.109375 5.683594 Z M 3.707031 16.097656 C 4.253906 15.792969 4.941406 15.988281 5.246094 16.539062 C 5.546875 17.085938 5.351562 17.777344 4.804688 18.082031 C 4.257812 18.386719 3.570312 18.1875 3.265625 17.640625 C 2.964844 17.089844 3.160156 16.398438 3.707031 16.097656 Z M 19.753906 16.539062 C 20.058594 15.988281 20.746094 15.792969 21.292969 16.097656 C 21.839844 16.398438 22.035156 17.089844 21.734375 17.640625 C 21.429688 18.1875 20.742188 18.386719 20.195312 18.082031 C 19.648438 17.777344 19.453125 17.085938 19.753906 16.539062 Z M 12.5 10.457031 C 11.347656 10.457031 10.414062 11.367188 10.414062 12.5 C 10.414062 13.632812 11.347656 14.542969 12.5 14.542969 C 13.65625 14.542969 14.589844 13.632812 14.589844 12.5 C 14.589844 11.367188 13.65625 10.457031 12.5 10.457031 Z M 20.195312 6.917969 C 20.742188 6.613281 21.429688 6.8125 21.734375 7.359375 C 22.035156 7.910156 21.839844 8.601562 21.292969 8.902344 C 20.746094 9.207031 20.058594 9.011719 19.753906 8.460938 C 19.453125 7.914062 19.648438 7.222656 20.195312 6.917969 Z M 3.265625 7.359375 C 3.570312 6.8125 4.257812 6.613281 4.804688 6.917969 C 5.351562 7.222656 5.546875 7.914062 5.246094 8.460938 C 4.941406 9.011719 4.253906 9.207031 3.707031 8.902344 C 3.160156 8.601562 2.964844 7.910156 3.265625 7.359375 Z M 12.5 2.082031 C 13.125 2.082031 13.632812 2.59375 13.632812 3.21875 C 13.632812 3.847656 13.125 4.355469 12.5 4.355469 C 11.875 4.355469 11.367188 3.847656 11.367188 3.21875 C 11.367188 2.59375 11.875 2.082031 12.5 2.082031 Z M 12.5 2.082031 "/>
</g>
</svg>
