<?xml version="1.0" encoding="UTF-8"?>
<svg xmlns="http://www.w3.org/2000/svg" xmlns:xlink="http://www.w3.org/1999/xlink" width="20px" height="20px" viewBox="0 0 20 20" version="1.1">
<defs>
<linearGradient id="linear0" gradientUnits="userSpaceOnUse" x1="23.325" y1="-118.543" x2="7.26" y2="-104.193" gradientTransform="matrix(0.625,0,0,-0.625,0,-60)">
<stop offset="0" style="stop-color:rgb(32.54902%,56.862745%,99.607843%);stop-opacity:1;"/>
<stop offset="1" style="stop-color:rgb(24.313725%,42.745098%,74.901961%);stop-opacity:1;"/>
</linearGradient>
<linearGradient id="linear1" gradientUnits="userSpaceOnUse" x1="7.1" y1="-104.002" x2="23.001" y2="-118.292" gradientTransform="matrix(0.625,0,0,-0.625,0,-60)">
<stop offset="0" style="stop-color:rgb(32.54902%,56.862745%,99.607843%);stop-opacity:1;"/>
<stop offset="1" style="stop-color:rgb(24.313725%,42.745098%,74.901961%);stop-opacity:1;"/>
</linearGradient>
</defs>
<g id="surface1">
<path style=" stroke:none;fill-rule:evenodd;fill:url(#linear0);" d="M 1.984375 16.617188 C 1.761719 16.625 1.546875 16.527344 1.402344 16.355469 C 1.261719 16.167969 1.214844 15.925781 1.273438 15.695312 L 3.894531 4.238281 C 4.015625 3.75 4.445312 3.398438 4.945312 3.382812 L 18.015625 3.382812 C 18.238281 3.375 18.453125 3.472656 18.597656 3.644531 C 18.738281 3.832031 18.785156 4.074219 18.726562 4.304688 L 16.101562 15.761719 C 15.984375 16.25 15.554688 16.601562 15.050781 16.617188 Z M 1.984375 16.617188 "/>
<path style=" stroke:none;fill-rule:evenodd;fill:url(#linear1);" d="M 4.945312 3.527344 L 18.015625 3.527344 C 18.203125 3.519531 18.378906 3.605469 18.492188 3.753906 C 18.605469 3.898438 18.640625 4.09375 18.582031 4.269531 L 15.957031 15.730469 C 15.851562 16.148438 15.484375 16.449219 15.050781 16.472656 L 1.984375 16.472656 C 1.796875 16.480469 1.621094 16.394531 1.507812 16.246094 C 1.394531 16.101562 1.359375 15.90625 1.417969 15.730469 L 4.042969 4.269531 C 4.148438 3.851562 4.515625 3.550781 4.945312 3.527344 Z M 4.945312 3.527344 "/>
<path style=" stroke:none;fill-rule:evenodd;fill:rgb(17.254902%,33.333333%,56.862745%);fill-opacity:1;" d="M 10.023438 13.464844 L 13.203125 13.464844 C 13.578125 13.480469 13.871094 13.789062 13.871094 14.164062 C 13.871094 14.539062 13.578125 14.84375 13.203125 14.859375 L 10.023438 14.859375 C 9.652344 14.84375 9.355469 14.539062 9.355469 14.164062 C 9.355469 13.789062 9.652344 13.480469 10.023438 13.464844 Z M 10.023438 13.464844 "/>
<path style=" stroke:none;fill-rule:evenodd;fill:rgb(17.254902%,33.333333%,56.862745%);fill-opacity:1;" d="M 12.085938 10.359375 C 11.996094 10.515625 11.867188 10.644531 11.71875 10.734375 L 5.816406 14.96875 C 5.476562 15.191406 5.023438 15.109375 4.78125 14.78125 C 4.542969 14.449219 4.601562 13.992188 4.917969 13.734375 L 10.238281 9.882812 L 10.238281 9.804688 L 6.898438 6.25 C 6.636719 5.9375 6.667969 5.480469 6.960938 5.203125 C 7.257812 4.925781 7.714844 4.925781 8.011719 5.203125 L 12.023438 9.472656 C 12.242188 9.71875 12.269531 10.085938 12.085938 10.359375 Z M 12.085938 10.359375 "/>
<path style=" stroke:none;fill-rule:evenodd;fill:rgb(100%,100%,100%);fill-opacity:1;" d="M 11.9375 10.214844 C 11.847656 10.367188 11.71875 10.496094 11.570312 10.589844 L 5.671875 14.824219 C 5.332031 15.039062 4.878906 14.957031 4.640625 14.628906 C 4.402344 14.300781 4.460938 13.847656 4.773438 13.589844 L 10.09375 9.734375 L 10.09375 9.65625 L 6.75 6.101562 C 6.488281 5.789062 6.515625 5.328125 6.8125 5.050781 C 7.109375 4.773438 7.570312 4.773438 7.863281 5.054688 L 11.875 9.324219 C 12.097656 9.570312 12.125 9.9375 11.9375 10.214844 Z M 11.9375 10.214844 "/>
<path style=" stroke:none;fill-rule:evenodd;fill:rgb(100%,100%,100%);fill-opacity:1;" d="M 9.9375 13.382812 L 13.117188 13.382812 C 13.480469 13.382812 13.777344 13.679688 13.777344 14.042969 C 13.777344 14.410156 13.480469 14.707031 13.117188 14.707031 L 9.9375 14.707031 C 9.570312 14.707031 9.277344 14.410156 9.277344 14.042969 C 9.277344 13.679688 9.570312 13.382812 9.9375 13.382812 Z M 9.9375 13.382812 "/>
</g>
</svg>
