<?xml version="1.0" encoding="UTF-8"?>
<svg xmlns="http://www.w3.org/2000/svg" xmlns:xlink="http://www.w3.org/1999/xlink" width="19px" height="20px" viewBox="0 0 19 19" version="1.1">
<g id="surface1">
<path style=" stroke:none;fill-rule:nonzero;fill:rgb(6.666667%,34.901961%,80%);fill-opacity:1;" d="M 18.941406 1.460938 L 14.605469 3.863281 L 14.484375 5.351562 L 11.191406 12.558594 L 9.234375 13.8125 L 9.472656 18.984375 L 13.160156 16.921875 L 18.941406 3.199219 Z M 18.941406 1.460938 "/>
<path style=" stroke:none;fill-rule:nonzero;fill:rgb(6.666667%,34.901961%,80%);fill-opacity:1;" d="M 6.886719 4.113281 L 6.886719 2.460938 L 6.871094 2.449219 L 4.003906 3.832031 L 4.125 5.496094 L 7.703125 13.046875 L 9.644531 11.984375 L 9.472656 9.957031 Z M 6.886719 4.113281 "/>
<path style=" stroke:none;fill-rule:nonzero;fill:rgb(7.058824%,49.411765%,100%);fill-opacity:1;" d="M 16.359375 0 L 12.054688 2.441406 L 12.054688 4.113281 L 9.472656 9.957031 L 9.472656 11.90625 L 7.75 12.875 L 4.304688 5.355469 L 4.304688 3.886719 L 6.886719 2.445312 L 2.582031 0 L 0 1.460938 L 0 3.253906 L 5.8125 16.941406 L 9.472656 18.984375 L 9.472656 13.84375 L 11.191406 12.875 L 11.171875 12.863281 L 14.636719 5.355469 L 14.636719 3.886719 L 18.941406 1.460938 Z M 16.359375 0 "/>
</g>
</svg>
