<?xml version="1.0" encoding="UTF-8"?>
<svg xmlns="http://www.w3.org/2000/svg" xmlns:xlink="http://www.w3.org/1999/xlink" width="30px" height="20px" viewBox="0 0 30 20" version="1.1">
<g id="surface1">
<path style=" stroke:none;fill-rule:nonzero;fill:rgb(0%,0%,0%);fill-opacity:1;" d="M 0.160156 10.503906 L 5.199219 10.503906 L 5.199219 11.828125 L 1.675781 11.828125 L 1.675781 13.402344 L 5.121094 13.402344 L 5.121094 14.730469 L 1.675781 14.730469 L 1.675781 17.75 L 0.160156 17.75 Z M 0.160156 10.503906 "/>
<path style=" stroke:none;fill-rule:nonzero;fill:rgb(0%,0%,0%);fill-opacity:1;" d="M 5.570312 15.121094 C 5.570312 13.632812 6.59375 12.371094 8.292969 12.371094 C 10 12.371094 11.023438 13.632812 11.023438 15.121094 C 11.023438 16.617188 10 17.878906 8.292969 17.878906 C 6.59375 17.878906 5.570312 16.617188 5.570312 15.121094 Z M 9.617188 15.121094 C 9.617188 14.304688 9.136719 13.597656 8.292969 13.597656 C 7.449219 13.597656 6.980469 14.304688 6.980469 15.121094 C 6.980469 15.945312 7.449219 16.652344 8.292969 16.652344 C 9.136719 16.652344 9.617188 15.945312 9.617188 15.121094 Z M 9.617188 15.121094 "/>
<path style=" stroke:none;fill-rule:nonzero;fill:rgb(0%,0%,0%);fill-opacity:1;" d="M 11.707031 12.503906 L 13.0625 12.503906 L 13.0625 13.21875 C 13.425781 12.753906 14.066406 12.382812 14.703125 12.382812 L 14.703125 13.730469 C 14.582031 13.703125 14.457031 13.6875 14.332031 13.6875 C 13.882812 13.6875 13.285156 13.945312 13.0625 14.285156 L 13.0625 17.75 L 11.707031 17.75 Z M 11.707031 12.503906 "/>
<path style=" stroke:none;fill-rule:nonzero;fill:rgb(0%,0%,0%);fill-opacity:1;" d="M 15.921875 16.445312 L 15.921875 13.707031 L 15.070312 13.707031 L 15.070312 12.5 L 15.921875 12.5 L 15.921875 11.070312 L 17.289062 11.070312 L 17.289062 12.503906 L 18.335938 12.503906 L 18.335938 13.710938 L 17.289062 13.710938 L 17.289062 16.078125 C 17.289062 16.402344 17.460938 16.652344 17.757812 16.652344 C 17.960938 16.652344 18.152344 16.578125 18.226562 16.5 L 18.515625 17.542969 C 18.3125 17.730469 17.949219 17.878906 17.382812 17.878906 C 16.433594 17.878906 15.921875 17.378906 15.921875 16.445312 Z M 15.921875 16.445312 "/>
<path style=" stroke:none;fill-rule:nonzero;fill:rgb(0%,0%,0%);fill-opacity:1;" d="M 18.804688 10.90625 C 18.800781 10.453125 19.164062 10.082031 19.613281 10.078125 C 20.058594 10.078125 20.425781 10.445312 20.425781 10.902344 C 20.429688 11.359375 20.066406 11.730469 19.617188 11.730469 C 19.617188 11.730469 19.617188 11.730469 19.613281 11.730469 C 19.167969 11.726562 18.808594 11.363281 18.804688 10.90625 Z M 18.941406 12.503906 L 20.296875 12.503906 L 20.296875 17.75 L 18.941406 17.75 Z M 18.941406 12.503906 "/>
<path style=" stroke:none;fill-rule:nonzero;fill:rgb(0%,0%,0%);fill-opacity:1;" d="M 21.621094 13.707031 L 20.765625 13.707031 L 20.765625 12.5 L 21.621094 12.5 L 21.621094 12.21875 C 21.621094 11.078125 22.347656 10.394531 23.359375 10.394531 C 23.746094 10.394531 24.097656 10.480469 24.34375 10.609375 L 24.066406 11.589844 C 23.933594 11.511719 23.78125 11.472656 23.628906 11.480469 C 23.242188 11.480469 22.988281 11.742188 22.988281 12.242188 L 22.988281 12.5 L 24.035156 12.5 L 24.035156 13.707031 L 22.988281 13.707031 L 22.988281 17.746094 L 21.621094 17.746094 Z M 21.621094 13.707031 "/>
<path style=" stroke:none;fill-rule:nonzero;fill:rgb(0%,0%,0%);fill-opacity:1;" d="M 25.367188 18.648438 C 25.71875 18.648438 25.953125 18.550781 26.082031 18.269531 L 26.273438 17.824219 L 24.183594 12.503906 L 25.632812 12.503906 L 26.976562 16.152344 L 28.324219 12.503906 L 29.785156 12.503906 L 27.363281 18.605469 C 26.976562 19.59375 26.296875 19.855469 25.410156 19.878906 C 25.183594 19.871094 24.957031 19.847656 24.738281 19.800781 L 24.941406 18.5625 C 25.074219 18.617188 25.21875 18.648438 25.367188 18.648438 Z M 25.367188 18.648438 "/>
<path style=" stroke:none;fill-rule:nonzero;fill:rgb(95.686275%,12.941176%,27.843137%);fill-opacity:1;" d="M 7.113281 3.945312 C 7.113281 5.761719 5.667969 7.234375 3.882812 7.238281 C 3.882812 7.238281 3.882812 7.238281 3.878906 7.238281 L 0.00390625 7.238281 L 0.00390625 3.945312 Z M 3.878906 3.289062 C 5.664062 3.289062 7.113281 1.820312 7.113281 0 L 0.00390625 0 L 0.00390625 3.289062 Z M 3.878906 3.289062 "/>
</g>
</svg>
