<?xml version="1.0" encoding="UTF-8"?>
<svg xmlns="http://www.w3.org/2000/svg" xmlns:xlink="http://www.w3.org/1999/xlink" width="18px" height="20px" viewBox="0 0 18 19" version="1.1">
<defs>
<linearGradient id="linear0" gradientUnits="userSpaceOnUse" x1="0.499948" y1="1.224504" x2="0.499948" y2="0.31139" gradientTransform="matrix(18,0,0,18.945312,0,0)">
<stop offset="0" style="stop-color:rgb(100%,94.509804%,0%);stop-opacity:1;"/>
<stop offset="1" style="stop-color:rgb(94.117647%,35.294118%,15.686275%);stop-opacity:1;"/>
</linearGradient>
</defs>
<g id="surface1">
<path style=" stroke:none;fill-rule:nonzero;fill:url(#linear0);" d="M 17.972656 8.359375 C 17.9375 8.042969 17.886719 7.675781 17.777344 7.269531 C 17.667969 6.867188 17.507812 6.425781 17.269531 5.964844 C 17.035156 5.507812 16.726562 5.03125 16.328125 4.566406 C 16.171875 4.382812 16 4.207031 15.816406 4.035156 C 16.089844 2.976562 15.480469 2.054688 15.480469 2.054688 C 14.429688 1.992188 13.761719 2.375 13.515625 2.546875 C 13.472656 2.53125 13.433594 2.511719 13.390625 2.496094 C 13.214844 2.425781 13.03125 2.359375 12.835938 2.300781 C 12.648438 2.246094 12.453125 2.191406 12.253906 2.144531 C 12.054688 2.097656 11.855469 2.0625 11.648438 2.03125 C 11.613281 2.023438 11.582031 2.019531 11.542969 2.015625 C 11.085938 0.59375 9.769531 0 9.769531 0 C 8.296875 0.902344 8.023438 2.164062 8.023438 2.164062 C 8.023438 2.164062 8.019531 2.191406 8.007812 2.238281 C 7.925781 2.261719 7.847656 2.285156 7.765625 2.308594 C 7.652344 2.339844 7.539062 2.378906 7.429688 2.421875 C 7.316406 2.464844 7.210938 2.503906 7.097656 2.550781 C 6.875 2.644531 6.65625 2.75 6.4375 2.867188 C 6.230469 2.980469 6.023438 3.105469 5.824219 3.234375 C 5.796875 3.226562 5.769531 3.214844 5.769531 3.214844 C 3.734375 2.464844 1.929688 3.367188 1.929688 3.367188 C 1.761719 5.464844 2.742188 6.785156 2.9375 7.023438 C 2.886719 7.15625 2.84375 7.285156 2.800781 7.417969 C 2.652344 7.890625 2.539062 8.375 2.46875 8.882812 C 2.457031 8.957031 2.445312 9.027344 2.441406 9.101562 C 0.554688 10.003906 0 11.847656 0 11.847656 C 1.566406 13.597656 3.398438 13.707031 3.398438 13.707031 C 3.398438 13.707031 3.40625 13.699219 3.40625 13.699219 C 3.636719 14.101562 3.90625 14.484375 4.207031 14.84375 C 4.335938 14.996094 4.46875 15.136719 4.605469 15.277344 C 4.035156 16.863281 4.6875 18.179688 4.6875 18.179688 C 6.433594 18.242188 7.582031 17.4375 7.824219 17.253906 C 7.996094 17.3125 8.175781 17.363281 8.351562 17.40625 C 8.890625 17.542969 9.441406 17.621094 9.992188 17.640625 C 10.125 17.644531 10.265625 17.652344 10.398438 17.644531 L 10.59375 17.644531 L 10.679688 17.640625 L 10.679688 17.644531 C 11.503906 18.785156 12.949219 18.945312 12.949219 18.945312 C 13.976562 17.894531 14.039062 16.851562 14.039062 16.628906 C 14.039062 16.628906 14.039062 16.621094 14.039062 16.613281 C 14.039062 16.589844 14.039062 16.582031 14.039062 16.582031 C 14.039062 16.566406 14.039062 16.550781 14.039062 16.535156 C 14.253906 16.386719 14.457031 16.230469 14.652344 16.058594 C 15.0625 15.699219 15.421875 15.285156 15.722656 14.84375 C 15.75 14.800781 15.777344 14.757812 15.804688 14.71875 C 16.96875 14.78125 17.792969 14.019531 17.792969 14.019531 C 17.597656 12.84375 16.910156 12.269531 16.765625 12.160156 C 16.765625 12.160156 16.757812 12.15625 16.746094 12.148438 C 16.738281 12.144531 16.738281 12.140625 16.738281 12.140625 C 16.730469 12.132812 16.722656 12.128906 16.710938 12.125 C 16.714844 12.050781 16.722656 11.984375 16.726562 11.910156 C 16.738281 11.785156 16.738281 11.65625 16.738281 11.527344 L 16.738281 11.363281 C 16.738281 11.332031 16.738281 11.339844 16.738281 11.332031 L 16.730469 11.253906 L 16.726562 11.148438 C 16.726562 11.113281 16.722656 11.082031 16.714844 11.050781 C 16.710938 11.015625 16.710938 10.980469 16.703125 10.949219 L 16.695312 10.851562 L 16.679688 10.75 C 16.65625 10.621094 16.636719 10.496094 16.601562 10.363281 C 16.480469 9.859375 16.273438 9.378906 16.007812 8.945312 C 15.742188 8.511719 15.40625 8.132812 15.023438 7.808594 C 14.644531 7.484375 14.21875 7.222656 13.777344 7.03125 C 13.332031 6.835938 12.867188 6.710938 12.40625 6.65625 C 12.171875 6.625 11.941406 6.613281 11.710938 6.617188 L 11.601562 6.617188 C 11.597656 6.617188 11.570312 6.617188 11.574219 6.617188 L 11.539062 6.617188 L 11.449219 6.625 C 11.417969 6.625 11.386719 6.628906 11.359375 6.628906 C 11.242188 6.640625 11.121094 6.65625 11.007812 6.675781 C 10.546875 6.757812 10.109375 6.921875 9.726562 7.144531 C 9.34375 7.371094 9.011719 7.644531 8.742188 7.960938 C 8.472656 8.273438 8.261719 8.621094 8.117188 8.980469 C 7.96875 9.34375 7.890625 9.71875 7.867188 10.078125 C 7.863281 10.167969 7.863281 10.261719 7.863281 10.347656 L 7.863281 10.417969 L 7.867188 10.492188 C 7.871094 10.53125 7.871094 10.578125 7.878906 10.621094 C 7.894531 10.804688 7.933594 10.980469 7.980469 11.148438 C 8.082031 11.488281 8.246094 11.796875 8.445312 12.054688 C 8.644531 12.316406 8.886719 12.53125 9.140625 12.703125 C 9.390625 12.871094 9.667969 12.992188 9.9375 13.070312 C 10.207031 13.148438 10.476562 13.179688 10.730469 13.179688 L 10.867188 13.179688 C 10.886719 13.179688 10.902344 13.179688 10.917969 13.171875 C 10.945312 13.171875 10.972656 13.167969 11 13.167969 C 11.003906 13.167969 11.015625 13.167969 11.019531 13.164062 L 11.046875 13.15625 C 11.0625 13.15625 11.078125 13.152344 11.09375 13.152344 C 11.128906 13.148438 11.15625 13.140625 11.1875 13.136719 C 11.21875 13.132812 11.246094 13.125 11.273438 13.117188 C 11.332031 13.105469 11.386719 13.085938 11.441406 13.070312 C 11.546875 13.03125 11.65625 12.992188 11.746094 12.945312 C 11.84375 12.894531 11.929688 12.839844 12.015625 12.785156 C 12.039062 12.769531 12.066406 12.753906 12.085938 12.734375 C 12.171875 12.667969 12.1875 12.542969 12.117188 12.457031 C 12.058594 12.386719 11.953125 12.363281 11.867188 12.410156 C 11.84375 12.421875 11.824219 12.433594 11.800781 12.441406 C 11.726562 12.480469 11.648438 12.511719 11.570312 12.535156 C 11.488281 12.5625 11.402344 12.582031 11.316406 12.597656 C 11.273438 12.605469 11.230469 12.609375 11.179688 12.613281 C 11.160156 12.613281 11.136719 12.621094 11.113281 12.621094 C 11.089844 12.621094 11.0625 12.621094 11.046875 12.621094 C 11.023438 12.621094 11.003906 12.621094 10.980469 12.621094 C 10.957031 12.621094 10.929688 12.621094 10.902344 12.613281 L 10.867188 12.613281 C 10.859375 12.613281 10.84375 12.613281 10.832031 12.609375 C 10.804688 12.605469 10.78125 12.605469 10.753906 12.597656 C 10.554688 12.574219 10.355469 12.515625 10.167969 12.433594 C 9.972656 12.347656 9.792969 12.234375 9.625 12.085938 C 9.457031 11.941406 9.3125 11.769531 9.199219 11.570312 C 9.085938 11.371094 9.003906 11.152344 8.964844 10.921875 C 8.949219 10.808594 8.941406 10.6875 8.945312 10.574219 C 8.945312 10.542969 8.949219 10.511719 8.949219 10.480469 L 8.949219 10.4375 C 8.949219 10.421875 8.957031 10.40625 8.957031 10.390625 C 8.960938 10.328125 8.972656 10.265625 8.984375 10.203125 C 9.074219 9.703125 9.332031 9.210938 9.730469 8.839844 C 9.835938 8.746094 9.941406 8.664062 10.054688 8.585938 C 10.167969 8.507812 10.292969 8.4375 10.421875 8.382812 C 10.550781 8.324219 10.679688 8.277344 10.820312 8.242188 C 10.957031 8.203125 11.09375 8.183594 11.242188 8.167969 C 11.3125 8.164062 11.378906 8.15625 11.457031 8.15625 L 11.625 8.15625 L 11.683594 8.164062 C 11.839844 8.171875 11.988281 8.195312 12.140625 8.230469 C 12.441406 8.292969 12.738281 8.402344 13.011719 8.550781 C 13.5625 8.847656 14.03125 9.304688 14.316406 9.859375 C 14.464844 10.136719 14.566406 10.433594 14.613281 10.742188 C 14.625 10.820312 14.636719 10.898438 14.640625 10.976562 L 14.644531 11.035156 L 14.652344 11.089844 L 14.652344 11.316406 C 14.652344 11.351562 14.644531 11.414062 14.644531 11.449219 C 14.640625 11.535156 14.628906 11.621094 14.621094 11.707031 C 14.609375 11.789062 14.59375 11.875 14.578125 11.957031 C 14.558594 12.039062 14.539062 12.125 14.515625 12.203125 C 14.472656 12.363281 14.421875 12.527344 14.355469 12.6875 C 14.226562 13 14.054688 13.304688 13.847656 13.582031 C 13.433594 14.132812 12.867188 14.582031 12.222656 14.871094 C 11.898438 15.011719 11.558594 15.113281 11.207031 15.167969 C 11.035156 15.199219 10.859375 15.214844 10.679688 15.21875 L 10.410156 15.21875 C 10.3125 15.21875 10.222656 15.214844 10.125 15.203125 C 9.75 15.175781 9.375 15.109375 9.011719 15.011719 C 8.648438 14.910156 8.296875 14.769531 7.964844 14.601562 C 7.300781 14.257812 6.703125 13.789062 6.238281 13.21875 C 6.007812 12.9375 5.804688 12.628906 5.636719 12.3125 C 5.46875 11.992188 5.335938 11.65625 5.238281 11.316406 C 5.140625 10.96875 5.082031 10.621094 5.054688 10.265625 L 5.050781 10.199219 L 5.050781 9.902344 C 5.050781 9.902344 5.050781 9.90625 5.050781 9.894531 L 5.050781 9.863281 C 5.050781 9.824219 5.050781 9.777344 5.050781 9.734375 C 5.054688 9.5625 5.070312 9.378906 5.09375 9.203125 C 5.113281 9.023438 5.144531 8.839844 5.183594 8.664062 C 5.222656 8.484375 5.265625 8.308594 5.320312 8.132812 C 5.421875 7.78125 5.550781 7.441406 5.703125 7.125 C 6.007812 6.488281 6.40625 5.917969 6.886719 5.464844 C 7.003906 5.347656 7.128906 5.246094 7.257812 5.140625 C 7.386719 5.042969 7.523438 4.949219 7.664062 4.859375 C 7.796875 4.769531 7.941406 4.691406 8.089844 4.617188 C 8.160156 4.582031 8.234375 4.546875 8.308594 4.515625 C 8.347656 4.5 8.382812 4.484375 8.421875 4.46875 C 8.460938 4.453125 8.496094 4.4375 8.535156 4.421875 C 8.6875 4.359375 8.84375 4.304688 9.003906 4.257812 C 9.042969 4.25 9.085938 4.238281 9.121094 4.222656 C 9.160156 4.210938 9.203125 4.203125 9.242188 4.191406 C 9.324219 4.171875 9.402344 4.148438 9.484375 4.132812 C 9.523438 4.125 9.566406 4.117188 9.609375 4.109375 C 9.652344 4.097656 9.6875 4.089844 9.730469 4.082031 C 9.773438 4.074219 9.8125 4.066406 9.855469 4.058594 L 9.914062 4.050781 L 9.980469 4.039062 C 10.023438 4.035156 10.0625 4.027344 10.105469 4.023438 C 10.152344 4.019531 10.195312 4.011719 10.242188 4.007812 C 10.28125 4.003906 10.347656 3.996094 10.382812 3.992188 C 10.410156 3.988281 10.441406 3.988281 10.46875 3.980469 L 10.53125 3.976562 L 10.554688 3.972656 L 10.589844 3.972656 C 10.636719 3.964844 10.679688 3.964844 10.730469 3.960938 L 10.800781 3.957031 C 10.800781 3.957031 10.824219 3.957031 10.804688 3.957031 L 10.851562 3.957031 C 10.890625 3.957031 10.933594 3.949219 10.972656 3.949219 C 11.128906 3.945312 11.289062 3.945312 11.445312 3.949219 C 11.757812 3.960938 12.066406 3.996094 12.363281 4.050781 C 12.960938 4.160156 13.519531 4.34375 14.03125 4.585938 C 14.542969 4.828125 14.996094 5.125 15.394531 5.449219 C 15.421875 5.46875 15.445312 5.492188 15.472656 5.511719 C 15.492188 5.53125 15.519531 5.554688 15.539062 5.574219 C 15.589844 5.617188 15.632812 5.65625 15.679688 5.699219 C 15.730469 5.742188 15.773438 5.78125 15.816406 5.824219 C 15.859375 5.867188 15.902344 5.90625 15.945312 5.953125 C 16.113281 6.128906 16.269531 6.300781 16.410156 6.476562 C 16.6875 6.828125 16.914062 7.179688 17.09375 7.515625 C 17.105469 7.535156 17.113281 7.558594 17.125 7.578125 C 17.136719 7.597656 17.148438 7.621094 17.15625 7.640625 C 17.179688 7.683594 17.199219 7.722656 17.214844 7.765625 C 17.238281 7.808594 17.253906 7.84375 17.277344 7.886719 C 17.292969 7.929688 17.3125 7.964844 17.328125 8.007812 C 17.394531 8.164062 17.460938 8.3125 17.507812 8.453125 C 17.589844 8.683594 17.648438 8.886719 17.695312 9.066406 C 17.710938 9.140625 17.78125 9.1875 17.859375 9.175781 C 17.9375 9.171875 18 9.105469 18 9.027344 C 18.003906 8.839844 18 8.617188 17.972656 8.359375 Z M 17.972656 8.359375 "/>
</g>
</svg>
