<?xml version="1.0" encoding="UTF-8"?>
<svg xmlns="http://www.w3.org/2000/svg" xmlns:xlink="http://www.w3.org/1999/xlink" width="20px" height="20px" viewBox="0 0 20 20" version="1.1">
<g id="surface1">
<path style=" stroke:none;fill-rule:nonzero;fill:rgb(40%,61.568627%,96.470588%);fill-opacity:1;" d="M 9.023438 13.199219 L 10.964844 13.199219 L 10.964844 15.398438 L 9.023438 15.398438 Z M 9.023438 13.199219 "/>
<path style=" stroke:none;fill-rule:nonzero;fill:rgb(25.882353%,52.156863%,95.686275%);fill-opacity:1;" d="M 15.398438 11.558594 C 15.273438 11.558594 15.152344 11.507812 15.066406 11.417969 L 11.667969 7.890625 L 9.382812 10.300781 C 9.214844 10.472656 8.941406 10.492188 8.75 10.339844 L 7.015625 8.941406 L 5.183594 11.375 C 5.09375 11.492188 4.957031 11.558594 4.808594 11.558594 L 1.667969 11.558594 L 1.667969 12.984375 C 1.667969 13.324219 1.941406 13.605469 2.285156 13.609375 L 17.714844 13.609375 C 18.058594 13.605469 18.332031 13.324219 18.332031 12.984375 L 18.332031 11.558594 Z M 15.398438 11.558594 "/>
<path style=" stroke:none;fill-rule:nonzero;fill:rgb(40%,61.568627%,96.470588%);fill-opacity:1;" d="M 4.582031 10.632812 L 6.566406 8 C 6.640625 7.898438 6.75 7.832031 6.875 7.816406 C 7 7.808594 7.125 7.84375 7.226562 7.917969 L 8.992188 9.351562 L 11.324219 6.898438 C 11.410156 6.808594 11.53125 6.757812 11.660156 6.757812 C 11.785156 6.757812 11.90625 6.808594 11.992188 6.898438 L 15.601562 10.632812 L 18.332031 10.632812 L 18.332031 5 C 18.332031 4.660156 18.058594 4.382812 17.714844 4.382812 L 2.285156 4.382812 C 1.941406 4.382812 1.667969 4.660156 1.667969 5 L 1.667969 10.675781 Z M 4.582031 10.632812 "/>
<path style=" stroke:none;fill-rule:nonzero;fill:rgb(25.882353%,52.156863%,95.686275%);fill-opacity:1;" d="M 7.476562 15.148438 L 12.535156 15.148438 C 12.671875 15.148438 12.785156 15.261719 12.785156 15.398438 L 12.785156 15.410156 C 12.785156 15.546875 12.671875 15.660156 12.535156 15.660156 L 7.476562 15.660156 C 7.335938 15.660156 7.226562 15.546875 7.226562 15.410156 L 7.226562 15.398438 C 7.226562 15.261719 7.335938 15.148438 7.476562 15.148438 Z M 7.476562 15.148438 "/>
</g>
</svg>
