<?xml version="1.0" encoding="UTF-8"?>
<svg xmlns="http://www.w3.org/2000/svg" xmlns:xlink="http://www.w3.org/1999/xlink" width="20px" height="20px" viewBox="0 0 20 20" version="1.1">
<g id="surface1">
<path style=" stroke:none;fill-rule:nonzero;fill:rgb(85.490196%,30.588235%,19.215686%);fill-opacity:1;" d="M 10 0.0507812 C 4.476562 0.0507812 0 4.511719 0 10.011719 C 0 15.515625 4.476562 19.972656 10 19.972656 C 15.523438 19.972656 20 15.515625 20 10.011719 C 20 4.511719 15.523438 0.0507812 10 0.0507812 Z M 10 18.695312 C 8.429688 18.695312 7.15625 17.648438 7.15625 16.359375 L 12.84375 16.359375 C 12.84375 17.648438 11.570312 18.695312 10 18.695312 Z M 14.699219 15.585938 L 5.300781 15.585938 L 5.300781 13.890625 L 14.699219 13.890625 Z M 14.664062 13.015625 L 5.328125 13.015625 C 5.296875 12.980469 5.265625 12.945312 5.234375 12.90625 C 4.273438 11.746094 4.046875 11.136719 3.824219 10.519531 C 3.820312 10.496094 4.992188 10.753906 5.820312 10.941406 C 5.820312 10.941406 6.25 11.039062 6.875 11.152344 C 6.273438 10.453125 5.917969 9.5625 5.917969 8.652344 C 5.917969 6.65625 7.457031 4.914062 6.902344 3.503906 C 7.441406 3.546875 8.019531 4.636719 8.058594 6.34375 C 8.628906 5.554688 8.871094 4.109375 8.871094 3.226562 C 8.871094 2.308594 9.476562 1.246094 10.082031 1.210938 C 9.542969 2.097656 10.222656 2.855469 10.828125 4.742188 C 11.054688 5.453125 11.023438 6.644531 11.199219 7.398438 C 11.257812 5.828125 11.53125 3.539062 12.53125 2.746094 C 12.089844 3.742188 12.59375 4.988281 12.941406 5.589844 C 13.5 6.554688 13.839844 7.289062 13.839844 8.671875 C 13.839844 9.601562 13.496094 10.476562 12.914062 11.160156 C 13.574219 11.039062 14.03125 10.925781 14.03125 10.925781 L 16.175781 10.507812 C 16.175781 10.507812 15.863281 11.785156 14.664062 13.015625 Z M 14.664062 13.015625 "/>
</g>
</svg>
