<?xml version="1.0" encoding="UTF-8"?>
<svg xmlns="http://www.w3.org/2000/svg" xmlns:xlink="http://www.w3.org/1999/xlink" width="20px" height="20px" viewBox="0 0 20 20" version="1.1">
<g id="surface1">
<path style=" stroke:none;fill-rule:nonzero;fill:rgb(0%,0%,0%);fill-opacity:1;" d="M 19.921875 11.976562 C 19.800781 11.625 19.488281 11.378906 19.082031 11.320312 C 18.890625 11.292969 18.671875 11.304688 18.410156 11.355469 C 17.960938 11.445312 17.625 11.480469 17.378906 11.488281 C 18.304688 9.972656 19.054688 8.246094 19.488281 6.621094 C 20.1875 3.992188 19.8125 2.796875 19.375 2.253906 C 18.21875 0.820312 16.53125 0.0507812 14.496094 0.0273438 C 13.410156 0.015625 12.457031 0.222656 11.960938 0.371094 C 11.496094 0.292969 10.996094 0.25 10.476562 0.242188 C 9.496094 0.226562 8.628906 0.433594 7.890625 0.859375 C 7.480469 0.722656 6.824219 0.535156 6.066406 0.414062 C 4.28125 0.128906 2.84375 0.351562 1.792969 1.070312 C 0.515625 1.945312 -0.0742188 3.460938 0.0351562 5.578125 C 0.0703125 6.25 0.457031 8.296875 1.070312 10.234375 C 1.421875 11.351562 1.792969 12.277344 2.179688 12.988281 C 2.730469 13.996094 3.316406 14.589844 3.976562 14.804688 C 4.347656 14.921875 5.019531 15.007812 5.726562 14.4375 C 5.8125 14.542969 5.933594 14.644531 6.09375 14.742188 C 6.292969 14.867188 6.539062 14.96875 6.785156 15.027344 C 7.671875 15.242188 8.5 15.1875 9.210938 14.886719 C 9.214844 15.007812 9.21875 15.125 9.21875 15.226562 C 9.226562 15.390625 9.230469 15.550781 9.234375 15.699219 C 9.277344 16.714844 9.347656 17.5 9.558594 18.050781 C 9.570312 18.082031 9.585938 18.128906 9.601562 18.175781 C 9.707031 18.488281 9.882812 19.011719 10.332031 19.421875 C 10.792969 19.84375 11.355469 19.972656 11.867188 19.972656 C 12.125 19.972656 12.367188 19.941406 12.585938 19.898438 C 13.351562 19.738281 14.222656 19.496094 14.851562 18.625 C 15.449219 17.800781 15.738281 16.5625 15.789062 14.609375 C 15.796875 14.554688 15.804688 14.503906 15.808594 14.453125 C 15.8125 14.417969 15.816406 14.382812 15.824219 14.347656 L 15.964844 14.359375 L 16 14.363281 C 16.78125 14.398438 17.734375 14.238281 18.324219 13.972656 C 18.785156 13.765625 20.273438 13.003906 19.921875 11.976562 "/>
<path style=" stroke:none;fill-rule:nonzero;fill:rgb(20%,40.392157%,56.862745%);fill-opacity:1;" d="M 18.585938 12.175781 C 16.261719 12.640625 16.101562 11.878906 16.101562 11.878906 C 18.554688 8.347656 19.582031 3.867188 18.695312 2.769531 C 16.28125 -0.21875 12.101562 1.195312 12.035156 1.230469 L 12.011719 1.234375 C 11.550781 1.144531 11.039062 1.085938 10.460938 1.078125 C 9.410156 1.0625 8.613281 1.34375 8.007812 1.789062 C 8.007812 1.789062 0.550781 -1.1875 0.898438 5.535156 C 0.972656 6.96875 3.011719 16.359375 5.445312 13.523438 C 6.335938 12.484375 7.195312 11.609375 7.195312 11.609375 C 7.621094 11.882812 8.132812 12.023438 8.667969 11.972656 L 8.710938 11.9375 C 8.699219 12.066406 8.703125 12.195312 8.726562 12.34375 C 8.101562 13.023438 8.285156 13.140625 7.03125 13.390625 C 5.761719 13.644531 6.507812 14.097656 6.996094 14.214844 C 7.585938 14.355469 8.949219 14.558594 9.871094 13.308594 L 9.835938 13.453125 C 10.078125 13.640625 10.253906 14.691406 10.222656 15.644531 C 10.195312 16.597656 10.175781 17.25 10.367188 17.761719 C 10.5625 18.273438 10.753906 19.421875 12.402344 19.078125 C 13.78125 18.792969 14.492188 18.050781 14.59375 16.8125 C 14.664062 15.933594 14.824219 16.066406 14.832031 15.277344 L 14.960938 14.90625 C 15.109375 13.714844 14.984375 13.328125 15.832031 13.507812 L 16.039062 13.527344 C 16.664062 13.554688 17.480469 13.429688 17.960938 13.210938 C 18.992188 12.746094 19.605469 11.972656 18.585938 12.175781 Z M 18.585938 12.175781 "/>
<path style=" stroke:none;fill-rule:nonzero;fill:rgb(100%,100%,100%);fill-opacity:1;" d="M 8.445312 6.175781 C 8.234375 6.148438 8.042969 6.175781 7.949219 6.246094 C 7.894531 6.285156 7.878906 6.328125 7.875 6.363281 C 7.863281 6.445312 7.921875 6.539062 7.957031 6.585938 C 8.0625 6.722656 8.21875 6.8125 8.371094 6.835938 C 8.390625 6.835938 8.414062 6.839844 8.433594 6.839844 C 8.6875 6.839844 8.917969 6.648438 8.941406 6.503906 C 8.964844 6.328125 8.699219 6.210938 8.445312 6.175781 "/>
<path style=" stroke:none;fill-rule:nonzero;fill:rgb(100%,100%,100%);fill-opacity:1;" d="M 15.378906 6.183594 C 15.359375 6.042969 15.105469 6.003906 14.863281 6.035156 C 14.621094 6.070312 14.386719 6.175781 14.40625 6.3125 C 14.421875 6.421875 14.625 6.605469 14.863281 6.605469 C 14.882812 6.605469 14.902344 6.605469 14.925781 6.601562 C 15.082031 6.582031 15.199219 6.484375 15.253906 6.425781 C 15.339844 6.339844 15.386719 6.242188 15.378906 6.183594 "/>
<path style=" stroke:none;fill-rule:nonzero;fill:rgb(100%,100%,100%);fill-opacity:1;" d="M 19.359375 12.125 C 19.269531 11.863281 18.984375 11.78125 18.511719 11.875 C 17.105469 12.15625 16.601562 11.960938 16.4375 11.84375 C 17.53125 10.226562 18.429688 8.277344 18.914062 6.453125 C 19.144531 5.589844 19.269531 4.789062 19.28125 4.136719 C 19.292969 3.417969 19.167969 2.894531 18.90625 2.570312 C 17.859375 1.273438 16.324219 0.578125 14.464844 0.558594 C 13.183594 0.542969 12.105469 0.863281 11.894531 0.953125 C 11.453125 0.84375 10.972656 0.78125 10.449219 0.769531 C 9.488281 0.757812 8.660156 0.980469 7.972656 1.433594 C 7.675781 1.324219 6.902344 1.070312 5.960938 0.921875 C 4.328125 0.667969 3.03125 0.859375 2.109375 1.496094 C 1.003906 2.253906 0.496094 3.609375 0.59375 5.523438 C 0.628906 6.167969 1.007812 8.148438 1.601562 10.046875 C 2.390625 12.542969 3.242188 13.957031 4.144531 14.246094 C 4.246094 14.28125 4.371094 14.304688 4.503906 14.304688 C 4.832031 14.304688 5.234375 14.160156 5.652344 13.671875 C 6.347656 12.863281 6.996094 12.183594 7.234375 11.9375 C 7.589844 12.121094 7.976562 12.222656 8.375 12.234375 C 8.375 12.242188 8.375 12.253906 8.375 12.265625 C 8.296875 12.355469 8.230469 12.4375 8.175781 12.503906 C 7.898438 12.84375 7.84375 12.914062 6.957031 13.089844 C 6.707031 13.140625 6.035156 13.273438 6.027344 13.730469 C 6.015625 14.226562 6.816406 14.433594 6.910156 14.457031 C 7.226562 14.535156 7.535156 14.574219 7.824219 14.574219 C 8.539062 14.574219 9.164062 14.347656 9.664062 13.90625 C 9.648438 15.679688 9.722656 17.425781 9.941406 17.957031 C 10.121094 18.390625 10.5625 19.457031 11.949219 19.457031 C 12.152344 19.457031 12.375 19.433594 12.621094 19.382812 C 14.070312 19.082031 14.695312 18.460938 14.941406 17.09375 C 15.070312 16.363281 15.292969 14.617188 15.398438 13.683594 C 15.621094 13.75 15.90625 13.78125 16.214844 13.78125 C 16.855469 13.78125 17.597656 13.648438 18.0625 13.4375 C 18.585938 13.203125 19.53125 12.625 19.359375 12.125 Z M 15.914062 5.800781 C 15.910156 6.074219 15.871094 6.324219 15.828125 6.585938 C 15.785156 6.871094 15.738281 7.160156 15.726562 7.515625 C 15.714844 7.859375 15.757812 8.214844 15.800781 8.5625 C 15.886719 9.257812 15.976562 9.980469 15.632812 10.6875 C 15.578125 10.597656 15.527344 10.496094 15.480469 10.382812 C 15.4375 10.285156 15.34375 10.121094 15.214844 9.898438 C 14.714844 9.03125 13.546875 6.996094 14.144531 6.164062 C 14.324219 5.917969 14.777344 5.660156 15.914062 5.800781 Z M 14.535156 1.117188 C 16.203125 1.152344 17.519531 1.757812 18.453125 2.914062 C 19.167969 3.800781 18.382812 7.839844 16.097656 11.320312 C 16.078125 11.292969 16.054688 11.265625 16.03125 11.238281 C 16.019531 11.226562 16.011719 11.214844 16 11.203125 C 16.589844 10.257812 16.476562 9.324219 16.371094 8.496094 C 16.332031 8.15625 16.289062 7.832031 16.300781 7.53125 C 16.3125 7.210938 16.355469 6.9375 16.398438 6.671875 C 16.449219 6.347656 16.5 6.007812 16.488281 5.609375 C 16.5 5.566406 16.503906 5.519531 16.496094 5.460938 C 16.460938 5.078125 16.007812 3.933594 15.09375 2.898438 C 14.589844 2.332031 13.859375 1.699219 12.859375 1.269531 C 13.289062 1.183594 13.878906 1.105469 14.535156 1.117188 Z M 5.207031 13.316406 C 4.746094 13.855469 4.429688 13.75 4.324219 13.71875 C 3.644531 13.496094 2.851562 12.097656 2.152344 9.882812 C 1.550781 7.964844 1.195312 6.035156 1.167969 5.496094 C 1.082031 3.785156 1.507812 2.59375 2.441406 1.953125 C 3.957031 0.910156 6.449219 1.53125 7.449219 1.847656 C 7.4375 1.863281 7.421875 1.875 7.40625 1.890625 C 5.761719 3.5 5.800781 6.25 5.804688 6.417969 C 5.804688 6.480469 5.8125 6.574219 5.820312 6.699219 C 5.847656 7.164062 5.898438 8.023438 5.757812 9 C 5.628906 9.902344 5.917969 10.789062 6.550781 11.429688 C 6.613281 11.496094 6.683594 11.558594 6.753906 11.617188 C 6.472656 11.910156 5.859375 12.558594 5.207031 13.316406 Z M 6.964844 11.042969 C 6.457031 10.527344 6.222656 9.8125 6.328125 9.074219 C 6.476562 8.046875 6.421875 7.148438 6.394531 6.667969 C 6.390625 6.601562 6.386719 6.539062 6.382812 6.492188 C 6.625 6.289062 7.738281 5.710938 8.53125 5.886719 C 8.890625 5.964844 9.113281 6.207031 9.203125 6.617188 C 9.679688 8.746094 9.265625 9.632812 8.9375 10.347656 C 8.867188 10.492188 8.804688 10.632812 8.75 10.773438 L 8.707031 10.886719 C 8.597656 11.167969 8.496094 11.429688 8.433594 11.675781 C 7.894531 11.675781 7.367188 11.449219 6.964844 11.042969 Z M 7.046875 13.914062 C 6.890625 13.878906 6.746094 13.8125 6.664062 13.753906 C 6.734375 13.722656 6.859375 13.679688 7.074219 13.636719 C 8.117188 13.429688 8.277344 13.28125 8.628906 12.851562 C 8.707031 12.75 8.800781 12.636719 8.925781 12.5 C 9.113281 12.296875 9.199219 12.332031 9.355469 12.394531 C 9.484375 12.445312 9.605469 12.597656 9.65625 12.769531 C 9.679688 12.847656 9.707031 13 9.621094 13.117188 C 8.886719 14.113281 7.816406 14.101562 7.046875 13.914062 Z M 12.5 18.835938 C 11.226562 19.101562 10.773438 18.46875 10.476562 17.75 C 10.285156 17.285156 10.191406 15.183594 10.257812 12.867188 C 10.257812 12.835938 10.253906 12.804688 10.246094 12.777344 C 10.238281 12.722656 10.226562 12.667969 10.210938 12.613281 C 10.109375 12.277344 9.867188 11.996094 9.578125 11.878906 C 9.460938 11.832031 9.25 11.746094 8.996094 11.808594 C 9.050781 11.59375 9.144531 11.347656 9.246094 11.082031 L 9.289062 10.96875 C 9.335938 10.84375 9.398438 10.714844 9.460938 10.574219 C 9.808594 9.828125 10.28125 8.808594 9.765625 6.5 C 9.574219 5.632812 8.929688 5.210938 7.953125 5.308594 C 7.371094 5.367188 6.832031 5.597656 6.566406 5.730469 C 6.507812 5.757812 6.457031 5.785156 6.40625 5.8125 C 6.480469 4.9375 6.765625 3.3125 7.816406 2.28125 C 8.480469 1.632812 9.363281 1.3125 10.441406 1.328125 C 12.558594 1.363281 13.917969 2.417969 14.6875 3.296875 C 15.347656 4.054688 15.707031 4.820312 15.847656 5.230469 C 14.773438 5.125 14.042969 5.328125 13.671875 5.84375 C 12.867188 6.960938 14.113281 9.128906 14.714844 10.171875 C 14.824219 10.363281 14.917969 10.527344 14.949219 10.597656 C 15.144531 11.054688 15.394531 11.363281 15.582031 11.585938 C 15.636719 11.65625 15.691406 11.722656 15.734375 11.777344 C 15.40625 11.871094 14.824219 12.082031 14.875 13.132812 C 14.832031 13.660156 14.527344 16.125 14.371094 17 C 14.167969 18.152344 13.730469 18.582031 12.5 18.835938 Z M 17.820312 12.933594 C 17.488281 13.082031 16.933594 13.195312 16.402344 13.21875 C 15.820312 13.246094 15.519531 13.15625 15.453125 13.097656 C 15.417969 12.445312 15.667969 12.375 15.9375 12.304688 C 15.976562 12.292969 16.019531 12.28125 16.058594 12.269531 C 16.082031 12.289062 16.109375 12.304688 16.136719 12.324219 C 16.609375 12.625 17.445312 12.65625 18.628906 12.421875 C 18.632812 12.421875 18.636719 12.417969 18.640625 12.417969 C 18.480469 12.5625 18.210938 12.757812 17.820312 12.933594 Z M 17.820312 12.933594 "/>
</g>
</svg>
