<?xml version="1.0" encoding="UTF-8"?>
<svg xmlns="http://www.w3.org/2000/svg"
  xmlns:xlink="http://www.w3.org/1999/xlink" width="22px" height="17px" viewBox="0 0 21 17" version="1.1">
  <g id="surface1">
    <path style=" stroke:none;fill-rule:nonzero;fill:rgb(0%,53.72549%,83.921569%);fill-opacity:1;" d="M 9.714844 16.035156 C 12.414062 15.539062 14.640625 15.128906 14.667969 15.121094 L 14.714844 15.113281 L 12.167969 11.957031 C 10.765625 10.222656 9.621094 8.792969 9.621094 8.785156 C 9.621094 8.769531 12.25 1.226562 12.265625 1.199219 C 12.269531 1.191406 14.058594 4.410156 16.601562 9.003906 C 18.984375 13.300781 20.949219 16.84375 20.96875 16.878906 L 21 16.9375 L 4.808594 16.9375 Z M 0 15.074219 C 0 15.066406 1.199219 12.898438 2.667969 10.25 L 5.335938 5.4375 L 8.441406 2.71875 C 10.152344 1.226562 11.554688 0.00390625 11.5625 0 C 11.566406 -0.00390625 11.542969 0.0585938 11.511719 0.132812 C 11.476562 0.207031 9.960938 3.597656 8.136719 7.671875 L 4.820312 15.074219 L 2.410156 15.078125 C 1.085938 15.078125 0 15.078125 0 15.074219 Z M 0 15.074219 "/>
  </g>
</svg>
